<?xml version="1.0" encoding="UTF-8"?><svg id="a" xmlns="http://www.w3.org/2000/svg" xmlns:xlink="http://www.w3.org/1999/xlink" viewBox="0 0 512 512"><defs><style>.ad{fill:url(#u);}.ae{fill:url(#t);}.af{fill:url(#v);}.ag{fill:url(#e);}.ah{fill:url(#d);}.ai{fill:url(#g);}.aj{fill:url(#f);}.ak{fill:url(#p);}.al{fill:url(#o);}.am{fill:url(#s);}.an{fill:url(#q);}.ao{fill:url(#r);}.ap{fill:url(#i);}.aq{fill:url(#h);}.ar{fill:url(#k);}.as{fill:url(#j);}.at{fill:url(#m);}.au{fill:url(#l);}.av{fill:url(#n);}.aw{fill:url(#c);}.ax{fill:url(#b);}.ay{fill:url(#x);}.b`{fill:url(#y);}.ba{fill:url(#aa);}.bb{fill:url(#ab);}.bc{fill:url(#a`);}.bd{fill:url(#ac);}.be{fill:url(#w);fill-rule:evenodd;}.bf{fill:#f9a325;}.bg{fill:#ed4028;}.bh{fill:#f38028;}.bi{fill:#ef5a28;}.bj{fill:#fbb723;}.bk{fill:#f17028;}.bl{fill:#919296;}.bm{fill:#1e1e1e;}.bn{fill:#474747;}.bo{fill:rgba(255,255,255,.8);}</style><linearGradient id="b" x1="255.56" y1="299.95" x2="255.56" y2="159.31" gradientTransform="translate(0 511.89) scale(1 -1)" gradientUnits="userSpaceOnUse"><stop offset=".03" stop-color="#418aff"/><stop offset=".47" stop-color="#2d7af5"/><stop offset="1" stop-color="#114dac"/></linearGradient><linearGradient id="c" x1="255.56" y1="287.93" x2="255.56" y2="170.89" gradientTransform="translate(0 511.89) scale(1 -1)" gradientUnits="userSpaceOnUse"><stop offset="0" stop-color="#dadada"/><stop offset="1" stop-color="#b5b5b5" stop-opacity=".93"/></linearGradient><linearGradient id="d" x1="255.56" y1="299.95" x2="255.56" y2="159.31" gradientTransform="translate(0 511.89) scale(1 -1)" gradientUnits="userSpaceOnUse"><stop offset=".03" stop-color="#418aff"/><stop offset=".47" stop-color="#2d7af5"/><stop offset="1" stop-color="#114dac"/></linearGradient><linearGradient id="e" x1="72.42" y1="264.97" x2="72.42" y2="188.51" gradientTransform="translate(0 511.89) scale(1 -1)" gradientUnits="userSpaceOnUse"><stop offset="0" stop-color="#c7c7c7"/><stop offset="1" stop-color="#565656"/></linearGradient><linearGradient id="f" x1="139.46" y1="264.97" x2="139.46" y2="188.51" gradientTransform="translate(0 511.89) scale(1 -1)" gradientUnits="userSpaceOnUse"><stop offset="0" stop-color="#c7c7c7"/><stop offset="1" stop-color="#565656"/></linearGradient><linearGradient id="g" x1="213.32" y1="264.97" x2="213.32" y2="188.51" gradientTransform="translate(0 511.89) scale(1 -1)" gradientUnits="userSpaceOnUse"><stop offset="0" stop-color="#c7c7c7"/><stop offset="1" stop-color="#565656"/></linearGradient><linearGradient id="h" x1="288.19" y1="264.97" x2="288.19" y2="188.51" gradientTransform="translate(0 511.89) scale(1 -1)" gradientUnits="userSpaceOnUse"><stop offset="0" stop-color="#c7c7c7"/><stop offset="1" stop-color="#565656"/></linearGradient><linearGradient id="i" x1="360.82" y1="264.97" x2="360.82" y2="188.51" gradientTransform="translate(0 511.89) scale(1 -1)" gradientUnits="userSpaceOnUse"><stop offset="0" stop-color="#c7c7c7"/><stop offset="1" stop-color="#565656"/></linearGradient><linearGradient id="j" x1="429.41" y1="264.97" x2="429.41" y2="188.51" gradientTransform="translate(0 511.89) scale(1 -1)" gradientUnits="userSpaceOnUse"><stop offset="0" stop-color="#c7c7c7"/><stop offset="1" stop-color="#565656"/></linearGradient><radialGradient id="k" cx="-38.66" cy="677" fx="-38.66" fy="677" r="1" gradientTransform="translate(-259787.57 3908.3) rotate(89.79) scale(70.51 -384.13)" gradientUnits="userSpaceOnUse"><stop offset="0" stop-color="#fff"/><stop offset="1" stop-color="#d5d5d5"/></radialGradient><radialGradient id="l" cx="-38.66" cy="677" fx="-38.66" fy="677" r="1" gradientTransform="translate(-259787.57 3908.3) rotate(89.79) scale(70.51 -384.13)" gradientUnits="userSpaceOnUse"><stop offset="0" stop-color="#fff"/><stop offset="1" stop-color="#d5d5d5"/></radialGradient><radialGradient id="m" cx="-38.66" cy="677" fx="-38.66" fy="677" r="1" gradientTransform="translate(-259787.57 3908.3) rotate(89.79) scale(70.51 -384.13)" gradientUnits="userSpaceOnUse"><stop offset="0" stop-color="#fff"/><stop offset="1" stop-color="#d5d5d5"/></radialGradient><radialGradient id="n" cx="-38.66" cy="677" fx="-38.66" fy="677" r="1" gradientTransform="translate(-259787.57 3908.3) rotate(89.79) scale(70.51 -384.13)" gradientUnits="userSpaceOnUse"><stop offset="0" stop-color="#fff"/><stop offset="1" stop-color="#d5d5d5"/></radialGradient><radialGradient id="o" cx="-38.66" cy="677" fx="-38.66" fy="677" r="1" gradientTransform="translate(-259787.57 3908.3) rotate(89.79) scale(70.51 -384.13)" gradientUnits="userSpaceOnUse"><stop offset="0" stop-color="#fff"/><stop offset="1" stop-color="#d5d5d5"/></radialGradient><radialGradient id="p" cx="-38.66" cy="677" fx="-38.66" fy="677" r="1" gradientTransform="translate(-259787.57 3908.3) rotate(89.79) scale(70.51 -384.13)" gradientUnits="userSpaceOnUse"><stop offset="0" stop-color="#fff"/><stop offset="1" stop-color="#d5d5d5"/></radialGradient><linearGradient id="q" x1="71.98" y1="211.41" x2="73.97" y2="248.73" gradientTransform="translate(0 511.89) scale(1 -1)" gradientUnits="userSpaceOnUse"><stop offset="0" stop-color="#e4e4e4"/><stop offset="1" stop-color="#fff" stop-opacity="0"/></linearGradient><linearGradient id="r" x1="137.52" y1="207.9" x2="139.52" y2="245.22" gradientTransform="translate(0 511.89) scale(1 -1)" gradientUnits="userSpaceOnUse"><stop offset="0" stop-color="#e4e4e4"/><stop offset="1" stop-color="#fff" stop-opacity="0"/></linearGradient><linearGradient id="s" x1="211.1" y1="203.96" x2="213.09" y2="241.27" gradientTransform="translate(0 511.89) scale(1 -1)" gradientUnits="userSpaceOnUse"><stop offset="0" stop-color="#e4e4e4"/><stop offset="1" stop-color="#fff" stop-opacity="0"/></linearGradient><linearGradient id="t" x1="286.56" y1="199.92" x2="288.56" y2="237.23" gradientTransform="translate(0 511.89) scale(1 -1)" gradientUnits="userSpaceOnUse"><stop offset="0" stop-color="#e4e4e4"/><stop offset="1" stop-color="#fff" stop-opacity="0"/></linearGradient><linearGradient id="u" x1="358.92" y1="196.04" x2="360.92" y2="233.36" gradientTransform="translate(0 511.89) scale(1 -1)" gradientUnits="userSpaceOnUse"><stop offset="0" stop-color="#e4e4e4"/><stop offset="1" stop-color="#fff" stop-opacity="0"/></linearGradient><linearGradient id="v" x1="426.65" y1="192.41" x2="428.65" y2="229.73" gradientTransform="translate(0 511.89) scale(1 -1)" gradientUnits="userSpaceOnUse"><stop offset="0" stop-color="#e4e4e4"/><stop offset="1" stop-color="#fff" stop-opacity="0"/></linearGradient><linearGradient id="w" x1="253.57" y1="268.79" x2="253.57" y2="192.34" gradientTransform="translate(0 511.89) scale(1 -1)" gradientUnits="userSpaceOnUse"><stop offset="0" stop-color="#fcfcfc"/><stop offset=".56" stop-color="#fff" stop-opacity="0"/><stop offset="1" stop-color="#fff" stop-opacity=".52"/></linearGradient><linearGradient id="x" x1="261.25" y1="330.52" x2="261.25" y2="303.61" gradientTransform="translate(0 511.89) scale(1 -1)" gradientUnits="userSpaceOnUse"><stop offset="0" stop-color="#5e5e5e"/><stop offset="1" stop-color="#222"/></linearGradient><linearGradient id="y" x1="286.02" y1="330.86" x2="286.02" y2="302.74" gradientTransform="translate(0 511.89) scale(1 -1)" gradientUnits="userSpaceOnUse"><stop offset="0" stop-color="#5e5e5e"/><stop offset="1" stop-color="#222"/></linearGradient><linearGradient id="a`" x1="315.01" y1="330.8" x2="315.01" y2="303.15" gradientTransform="translate(0 511.89) scale(1 -1)" gradientUnits="userSpaceOnUse"><stop offset="0" stop-color="#5e5e5e"/><stop offset="1" stop-color="#222"/></linearGradient><linearGradient id="aa" x1="353.08" y1="330.57" x2="353.08" y2="303.61" gradientTransform="translate(0 511.89) scale(1 -1)" gradientUnits="userSpaceOnUse"><stop offset="0" stop-color="#5e5e5e"/><stop offset="1" stop-color="#222"/></linearGradient><linearGradient id="ab" x1="389.9" y1="330.75" x2="389.9" y2="302.91" gradientTransform="translate(0 511.89) scale(1 -1)" gradientUnits="userSpaceOnUse"><stop offset="0" stop-color="#5e5e5e"/><stop offset="1" stop-color="#222"/></linearGradient><linearGradient id="ac" x1="231.9" y1="330.62" x2="231.9" y2="302.96" gradientTransform="translate(0 511.89) scale(1 -1)" gradientUnits="userSpaceOnUse"><stop offset="0" stop-color="#5e5e5e"/><stop offset="1" stop-color="#222"/></linearGradient></defs><path class="ax" d="M38.32,319.07l-.02-.02c-2.14-2.63-5.98-7.9-5.98-14.79,0-7.33,4.1-12.95,7.32-16.42-.52-.77-1.02-1.56-1.48-2.36l-.1-.17-.09-.17c-3.11-5.73-4.34-12-4.34-18.25,0-10.09,3.9-18.99,10.95-26.03,7.82-7.82,17.97-11.05,28.66-11.05,5.3,0,10.5,.7,15.47,2.3,3.27,.99,7.49,2.5,11.02,5.09,2.42-2.46,5.34-4.06,8.21-4.97,3.35-1.06,6.78-1.3,9.66-1.3s6.31,.24,9.66,1.3c4.28,1.35,8.83,4.33,11.47,9.63,.98,1.88,1.96,4.26,2.42,7.03,.04,.24,.08,.49,.11,.74,.05-.42,.11-.84,.18-1.25,.53-3.09,1.72-5.71,3.01-7.8,2.94-4.77,7.32-7.2,10.96-8.35,3.31-1.04,6.69-1.3,9.56-1.3,2.58,0,5.57,.23,8.56,1.11,1.32,.39,2.98,.97,4.7,1.89,1.28-.72,2.61-1.29,3.93-1.7,3.35-1.06,6.78-1.3,9.66-1.3,2.12,0,5.28,.04,9.41,.1h9.27c13.8,0,26.03,5.15,36.06,14.72,1.24,1.17,2.4,2.38,3.5,3.63,1.22-1.53,2.53-2.99,3.94-4.38,4.7-4.6,10.12-8.22,16.17-10.83,6.2-2.67,12.72-4.05,19.45-4.05,12.21,0,23.18,3.97,32.44,11.51,2.7-5.02,7.09-7.94,11.4-9.3,3.35-1.06,6.78-1.3,9.66-1.3,2.58,0,5.57,.23,8.56,1.11,2.06,.6,4.92,1.67,7.59,3.75,1.38,1.07,2.5,2.26,3.42,3.49l.16-.19c1.69-1.98,3.79-4.09,6.33-5.8,2.51-1.69,6.36-3.58,11.2-3.58,5.36,0,9.83,2.21,13.07,4.43,1.45-.88,2.96-1.54,4.46-2.01,3.35-1.06,6.78-1.3,9.66-1.3s6.31,.24,9.66,1.3c4.28,1.35,8.83,4.33,11.47,9.63,.98,1.88,1.96,4.26,2.42,7.03,.04,.24,.08,.49,.11,.74,.05-.42,.11-.84,.18-1.25,.53-3.09,1.72-5.7,3.01-7.8,2.94-4.77,7.32-7.2,10.96-8.35,3.31-1.04,6.69-1.3,9.55-1.3,2.58,0,5.57,.23,8.56,1.11,2.06,.61,4.92,1.68,7.59,3.76,3.52,2.74,5.4,6.26,6.36,9.29,.55,1.61,1.1,3.72,1.22,6.12,.1,1.27,.12,2.61,.12,3.76v30.5c0,6.03-1.04,11.92-3.05,17.63-1.94,5.69-4.76,10.94-8.42,15.71-4.12,5.38-9.37,9.55-15.4,12.62l-.08,.04-.08,.04c-6.49,3.19-13.5,4.67-20.75,4.67s-14.32-1.55-20.81-4.85l-.04-.02-.04-.02c-3.4-1.76-6.55-3.87-9.38-6.35-1.4,1.71-2.84,3.07-3.98,4.08l-.12,.11-.13,.11c-3.13,2.63-8.79,6.75-16.1,6.75-5.01,0-8.9-2.06-11.29-3.7-2.45-1.69-4.5-3.76-6.17-5.7l-.13-.15c-2.7,3.78-6.44,6.08-10.12,7.24-3.35,1.06-6.78,1.3-9.66,1.3-2.58,0-5.57-.23-8.57-1.11-2.06-.61-4.91-1.68-7.59-3.76-2.04-1.58-3.55-3.43-4.66-5.31-8.92,7.47-19.64,11.39-31.66,11.39-14.43,0-27.13-5.3-37.18-15.64l-.02-.02-.02-.03c-1.24-1.29-2.41-2.62-3.5-3.98-.85,.99-1.74,1.95-2.68,2.9-10.02,10.19-22.61,15.46-36.91,15.46h-18.48c-2.86,0-6.18-.27-9.45-1.3-3.64-1.15-8.03-3.57-10.96-8.35h0c-2.83,2.42-5.96,4.49-9.34,6.21l-.09,.04-.08,.04c-6.49,3.19-13.49,4.67-20.74,4.67s-14.32-1.55-20.81-4.85l-.04-.02-.04-.02c-4.85-2.51-9.18-5.73-12.83-9.73-2.13,2.54-4.63,4.78-7.52,6.65-3.89,2.55-8.06,4.54-12.51,5.85-4.28,1.27-8.67,1.93-13.13,1.93s-8.62-.51-12.78-1.6l-.16-.04-.16-.05c-3.62-1.03-7.23-2.41-10.49-4.34l-.28-.17-.28-.18c-2.18-1.43-4.25-2.94-6.15-4.56l-.14-.12-.14-.13c-1.44-1.29-3.18-2.98-4.66-5.01l-.59-.73Z"/><path class="aw" d="M474.36,231.06c4.56,3.54,6.95,8.06,8.15,11.85,.64,1.89,1.31,4.45,1.47,7.44,.11,1.46,.13,2.94,.13,4.11v30.5c0,6.64-1.14,13.13-3.34,19.38-2.13,6.23-5.22,11.99-9.23,17.21-4.65,6.07-10.54,10.74-17.21,14.12l-.11,.06-.12,.06c-7.29,3.59-15.11,5.22-23.1,5.22s-15.92-1.72-23.23-5.43h0l-.06-.03-.06-.03c-2.23-1.15-4.38-2.45-6.41-3.89-.35,.32-.67,.62-.98,.89l-.17,.15-.17,.15c-3.33,2.81-10.25,8-19.54,8-6.5,0-11.45-2.67-14.31-4.64-1.16-.8-2.24-1.66-3.23-2.55-2.68,2.21-5.66,3.71-8.57,4.63-4.08,1.29-8.12,1.55-11.26,1.55-2.87,0-6.42-.26-10.07-1.33-2.38-.7-5.95-2.01-9.36-4.66-.86-.67-1.64-1.37-2.36-2.1-8.96,6.11-19.34,9.3-30.69,9.3-15.79,0-29.83-5.83-40.88-17.12-10.82,10.4-24.32,15.81-39.45,15.81h-18.48c-3.16,0-7.07-.29-11.06-1.55-3.19-1.01-6.96-2.85-10.24-6.05-1.93,1.32-3.96,2.52-6.05,3.58l-.12,.06-.11,.06c-7.29,3.59-15.11,5.22-23.1,5.22s-15.93-1.72-23.23-5.43l-.06-.03-.06-.03c-3.7-1.91-7.15-4.21-10.28-6.93-1.46,1.29-3.02,2.49-4.71,3.58-4.29,2.81-8.93,5.03-13.91,6.5-4.75,1.4-9.65,2.14-14.64,2.14s-9.49-.56-14.13-1.77l-.22-.06-.22-.06c-3.9-1.11-7.97-2.65-11.74-4.88l-.39-.23-.37-.24c-2.34-1.53-4.59-3.17-6.68-4.96l-.2-.17-.19-.17c-1.53-1.37-3.55-3.31-5.32-5.72l-.52-.63-.02-.02c-2.28-2.81-7.17-9.32-7.17-18.15,0-7.2,3.08-12.93,6.11-16.92-3.48-6.57-4.8-13.62-4.8-20.45,0-11.57,4.52-21.81,12.51-29.8,9.03-9.03,20.65-12.61,32.43-12.61,5.75,0,11.5,.75,17.06,2.54,2.47,.75,5.74,1.86,8.97,3.61,2.27-1.6,4.69-2.74,7.07-3.49,4.08-1.29,8.13-1.55,11.26-1.55s7.18,.26,11.26,1.55c4.3,1.36,8.96,4.08,12.39,8.67,3.7-4.87,8.59-7.42,12.56-8.67,4.04-1.27,8.01-1.55,11.16-1.55,2.87,0,6.42,.26,10.07,1.33,.91,.27,1.98,.62,3.14,1.1,.79-.34,1.59-.63,2.38-.88,4.08-1.29,8.13-1.55,11.26-1.55,2.16,0,5.34,.04,9.45,.1h9.23c15.08,0,28.48,5.61,39.39,15.86,.12-.12,.25-.25,.37-.37,5.17-5.07,11.14-9.06,17.79-11.92,6.85-2.95,14.08-4.48,21.56-4.48,11.51,0,22.07,3.22,31.27,9.36,3.21-3.49,7.15-5.7,10.96-6.9,4.08-1.29,8.13-1.55,11.26-1.55,2.87,0,6.42,.26,10.07,1.33,2.38,.7,5.95,2.01,9.36,4.66l.05,.04,.05,.04c1.08-.97,2.27-1.92,3.57-2.79,3.04-2.04,7.91-4.49,14.17-4.49,5.31,0,9.82,1.69,13.31,3.64,.87-.38,1.75-.71,2.61-.98,4.08-1.29,8.13-1.55,11.26-1.55s7.18,.26,11.26,1.55c4.3,1.36,8.96,4.08,12.39,8.67,3.7-4.87,8.59-7.42,12.56-8.67,4.04-1.27,8.02-1.55,11.16-1.55,2.87,0,6.42,.26,10.07,1.33,2.38,.7,5.95,2.01,9.36,4.66Z"/><path class="ah" d="M38.32,319.07l-.02-.02c-2.14-2.63-5.98-7.9-5.98-14.79,0-7.33,4.1-12.95,7.32-16.42-.52-.77-1.02-1.56-1.48-2.36l-.1-.17-.09-.17c-3.11-5.73-4.34-12-4.34-18.25,0-10.09,3.9-18.99,10.95-26.03,7.82-7.82,17.97-11.05,28.66-11.05,5.3,0,10.5,.7,15.47,2.3,3.27,.99,7.49,2.5,11.02,5.09,2.42-2.46,5.34-4.06,8.21-4.97,3.35-1.06,6.78-1.3,9.66-1.3s6.31,.24,9.66,1.3c4.28,1.35,8.83,4.33,11.47,9.63,.98,1.88,1.96,4.26,2.42,7.03,.04,.24,.08,.49,.11,.74,.05-.42,.11-.84,.18-1.25,.53-3.09,1.72-5.71,3.01-7.8,2.94-4.77,7.32-7.2,10.96-8.35,3.31-1.04,6.69-1.3,9.56-1.3,2.58,0,5.57,.23,8.56,1.11,1.32,.39,2.98,.97,4.7,1.89,1.28-.72,2.61-1.29,3.93-1.7,3.35-1.06,6.78-1.3,9.66-1.3,2.12,0,5.28,.04,9.41,.1h9.27c13.8,0,26.03,5.15,36.06,14.72,1.24,1.17,2.4,2.38,3.5,3.63,1.22-1.53,2.53-2.99,3.94-4.38,4.7-4.6,10.12-8.22,16.17-10.83,6.2-2.67,12.72-4.05,19.45-4.05,12.21,0,23.18,3.97,32.44,11.51,2.7-5.02,7.09-7.94,11.4-9.3,3.35-1.06,6.78-1.3,9.66-1.3,2.58,0,5.57,.23,8.56,1.11,2.06,.6,4.92,1.67,7.59,3.75,1.38,1.07,2.5,2.26,3.42,3.49l.16-.19c1.69-1.98,3.79-4.09,6.33-5.8,2.51-1.69,6.36-3.58,11.2-3.58,5.36,0,9.83,2.21,13.07,4.43,1.45-.88,2.96-1.54,4.46-2.01,3.35-1.06,6.78-1.3,9.66-1.3s6.31,.24,9.66,1.3c4.28,1.35,8.83,4.33,11.47,9.63,.98,1.88,1.96,4.26,2.42,7.03,.04,.24,.08,.49,.11,.74,.05-.42,.11-.84,.18-1.25,.53-3.09,1.72-5.7,3.01-7.8,2.94-4.77,7.32-7.2,10.96-8.35,3.31-1.04,6.69-1.3,9.55-1.3,2.58,0,5.57,.23,8.56,1.11,2.06,.61,4.92,1.68,7.59,3.76,3.52,2.74,5.4,6.26,6.36,9.29,.55,1.61,1.1,3.72,1.22,6.12,.1,1.27,.12,2.61,.12,3.76v30.5c0,6.03-1.04,11.92-3.05,17.63-1.94,5.69-4.76,10.94-8.42,15.71-4.12,5.38-9.37,9.55-15.4,12.62l-.08,.04-.08,.04c-6.49,3.19-13.5,4.67-20.75,4.67s-14.32-1.55-20.81-4.85l-.04-.02-.04-.02c-3.4-1.76-6.55-3.87-9.38-6.35-1.4,1.71-2.84,3.07-3.98,4.08l-.12,.11-.13,.11c-3.13,2.63-8.79,6.75-16.1,6.75-5.01,0-8.9-2.06-11.29-3.7-2.45-1.69-4.5-3.76-6.17-5.7l-.13-.15c-2.7,3.78-6.44,6.08-10.12,7.24-3.35,1.06-6.78,1.3-9.66,1.3-2.58,0-5.57-.23-8.57-1.11-2.06-.61-4.92-1.68-7.59-3.76-2.04-1.58-3.55-3.43-4.66-5.31-8.92,7.47-19.64,11.39-31.66,11.39-14.43,0-27.13-5.3-37.18-15.64l-.02-.02-.02-.03c-1.24-1.29-2.41-2.62-3.5-3.98-.85,.99-1.74,1.95-2.68,2.9-10.02,10.19-22.61,15.46-36.91,15.46h-18.48c-2.86,0-6.18-.27-9.45-1.3-3.64-1.15-8.03-3.57-10.96-8.35h0c-2.83,2.42-5.96,4.49-9.34,6.21l-.09,.04-.08,.04c-6.49,3.19-13.49,4.67-20.74,4.67s-14.32-1.55-20.81-4.85l-.04-.02-.04-.02c-4.85-2.51-9.18-5.73-12.83-9.73-2.13,2.54-4.63,4.78-7.52,6.64-3.89,2.55-8.06,4.54-12.51,5.85-4.28,1.27-8.67,1.93-13.13,1.93s-8.62-.51-12.78-1.6l-.16-.04-.16-.05c-3.62-1.03-7.23-2.41-10.49-4.34l-.28-.17-.28-.18c-2.18-1.43-4.25-2.94-6.15-4.56l-.14-.12-.14-.13c-1.44-1.29-3.18-2.98-4.66-5.01l-.59-.72Z"/><path class="ag" d="M48.13,311.76c-1.75-2.15-2.63-3.94-2.63-5.35,0-2.02,1.45-4.44,4.34-7.27,1.68-1.62,3.37-2.42,5.05-2.42,2.09,0,4.65,1.52,7.68,4.54l.5,.51c.27,.34,.67,.77,1.21,1.31,.54,.54,1.58,1.28,3.13,2.22,1.55,.88,3.06,1.31,4.54,1.31,6.26,0,9.39-2.56,9.39-7.67,0-1.55-.88-2.83-2.63-3.84-1.68-1.08-3.8-1.85-6.36-2.32s-5.32-1.21-8.28-2.22c-2.96-1.08-5.72-2.32-8.28-3.74-2.56-1.41-4.71-3.64-6.46-6.67-1.68-3.1-2.52-6.8-2.52-11.11,0-5.92,2.19-11.07,6.56-15.45,4.44-4.44,10.47-6.67,18.08-6.67,4.04,0,7.71,.54,11.01,1.62,3.37,1.01,5.69,2.05,6.97,3.13l2.02,1.51,.5,.4c2.09,1.95,3.13,3.57,3.13,4.85,0,1.41-.81,3.3-2.42,5.66-2.29,3.37-4.65,5.05-7.07,5.05-1.41,0-3.16-.67-5.25-2.02-.2-.13-.61-.47-1.21-1.01-.54-.54-1.04-.94-1.51-1.21-.47-.34-1.28-.64-2.42-.91-1.08-.34-2.36-.51-3.84-.51-1.62,0-3.16,.54-4.65,1.62-1.41,1.01-2.12,2.36-2.12,4.04,0,2.02,.84,3.6,2.52,4.75,1.75,1.14,3.91,1.92,6.46,2.32s5.35,1.04,8.38,1.92c3.03,.81,5.82,1.82,8.38,3.03,2.56,1.21,4.68,3.33,6.36,6.36,1.75,2.96,2.63,6.67,2.63,11.11s-.88,8.15-2.63,11.51c-1.75,3.3-4.04,5.86-6.87,7.68-2.76,1.82-5.62,3.16-8.58,4.04-2.96,.88-5.92,1.31-8.89,1.31-3.16,0-6.16-.37-8.99-1.11-2.83-.81-5.15-1.75-6.97-2.83-1.75-1.14-3.3-2.29-4.65-3.43-1.28-1.14-2.19-2.12-2.73-2.93l-.91-1.11Z"/><path class="aj" d="M163.19,248.04c1.75,0,3.2,.17,4.34,.5,1.14,.34,2.02,.74,2.63,1.21,.6,.47,1.04,1.18,1.31,2.12,.34,.94,.51,1.75,.51,2.42,.07,.61,.1,1.55,.1,2.83v30.5c0,4.31-.74,8.55-2.22,12.73-1.41,4.17-3.47,8.01-6.16,11.51-2.63,3.43-6.06,6.23-10.3,8.38-4.24,2.09-8.95,3.13-14.14,3.13s-9.8-1.08-14.04-3.23c-4.17-2.15-7.57-4.95-10.2-8.38-2.63-3.5-4.65-7.34-6.06-11.51-1.41-4.24-2.12-8.52-2.12-12.83v-30.4c0-1.62,.03-2.79,.1-3.54,.14-.81,.47-1.72,1.01-2.73,.54-1.01,1.45-1.72,2.73-2.12,1.28-.4,3-.6,5.15-.6s3.87,.2,5.15,.6c1.28,.4,2.15,1.11,2.63,2.12,.54,1.01,.88,1.92,1.01,2.73,.14,.81,.2,2.02,.2,3.64v30.3c0,2.02,.24,4.01,.71,5.96,.47,1.88,1.21,3.8,2.22,5.76,1.08,1.89,2.63,3.4,4.65,4.54,2.02,1.14,4.41,1.72,7.17,1.72,4.92,0,8.59-1.82,11.01-5.45,2.42-3.64,3.63-7.84,3.63-12.62v-30.9c0-1.48,.07-2.59,.2-3.33,.13-.81,.47-1.65,1.01-2.52,.54-.88,1.45-1.51,2.73-1.92,1.28-.4,2.96-.6,5.05-.6Z"/><path class="ai" d="M245.59,284.7c0,10.23-3.63,19.02-10.91,26.36-7.2,7.34-15.96,11.01-26.26,11.01h-18.48c-2.02,0-3.67-.2-4.95-.61-1.28-.4-2.19-1.04-2.73-1.92-.54-.94-.88-1.85-1.01-2.73-.13-.94-.2-2.19-.2-3.74v-56.15c0-1.62,.03-2.79,.1-3.54,.14-.74,.47-1.62,1.01-2.63,.54-1.01,1.45-1.72,2.73-2.12,1.28-.4,3-.6,5.15-.6,2.02,0,5.12,.03,9.29,.1h9.39c9.76,0,18.35,3.53,25.75,10.6,7.41,7,11.11,15.65,11.11,25.96Zm-17.88,.4c0-5.39-1.92-9.9-5.76-13.53-3.77-3.7-8.21-5.56-13.33-5.56h-9.7v38.18h9.8c4.85,0,9.22-1.78,13.13-5.35,3.9-3.64,5.86-8.21,5.86-13.74Z"/><path class="aq" d="M287.84,247.23c9.96,0,18.62,3.6,25.96,10.81,7.34,7.2,11.01,16.33,11.01,27.37,0,10.3-3.5,19.22-10.5,26.76-7,7.47-15.52,11.21-25.55,11.21s-19.26-3.7-26.46-11.11c-7.14-7.41-10.7-16.23-10.7-26.46,0-5.59,1.01-10.81,3.03-15.65,2.02-4.92,4.71-9.02,8.08-12.32,3.37-3.3,7.24-5.89,11.61-7.78,4.38-1.88,8.89-2.83,13.53-2.83Zm.3,58.27c4.85,0,9.19-1.82,13.03-5.45,3.84-3.63,5.76-8.55,5.76-14.74s-1.95-10.94-5.86-14.64c-3.84-3.7-8.11-5.55-12.83-5.55s-9.19,1.89-13.03,5.65c-3.84,3.7-5.76,8.58-5.76,14.64s1.92,10.77,5.76,14.54c3.9,3.7,8.21,5.55,12.93,5.55Z"/><path class="ap" d="M364.05,285c10.3,9.9,17.61,17.34,21.92,22.32,2.22,2.49,3.33,4.48,3.33,5.96,0,1.95-1.41,4.17-4.24,6.66-2.56,2.15-4.71,3.23-6.46,3.23s-3.74-1.41-6.16-4.24l-22.22-25.35v19.69c0,1.62-.07,2.79-.2,3.53-.07,.74-.37,1.62-.91,2.63-.54,1.01-1.45,1.72-2.73,2.12-1.28,.4-3,.61-5.15,.61-1.75,0-3.2-.17-4.34-.51-1.14-.34-2.02-.74-2.63-1.21-.61-.47-1.08-1.14-1.41-2.02-.27-.94-.44-1.72-.51-2.32v-59.08c0-1.55,.03-2.69,.1-3.43,.14-.81,.47-1.72,1.01-2.73,.54-1.01,1.45-1.72,2.73-2.12,1.28-.4,3-.6,5.15-.6,1.75,0,3.2,.17,4.34,.5,1.14,.34,2.02,.74,2.62,1.21,.61,.47,1.04,1.18,1.31,2.12,.34,.88,.51,1.65,.51,2.32,.07,.61,.1,1.55,.1,2.83v19.29c9.16-10.3,16.56-18.75,22.22-25.35,2.36-2.76,4.41-4.14,6.16-4.14s3.91,1.08,6.46,3.23c2.83,2.49,4.24,4.71,4.24,6.67,0,1.48-1.11,3.47-3.33,5.96-1.88,2.22-4.68,5.18-8.38,8.89-3.64,3.7-6.8,6.87-9.49,9.49l-4.04,3.84Z"/><path class="as" d="M453.15,248.04c1.75,0,3.2,.17,4.34,.5,1.14,.34,2.02,.74,2.63,1.21,.61,.47,1.04,1.18,1.31,2.12,.34,.94,.51,1.75,.51,2.42,.07,.61,.1,1.55,.1,2.83v30.5c0,4.31-.74,8.55-2.22,12.73-1.41,4.17-3.47,8.01-6.16,11.51-2.63,3.43-6.06,6.23-10.3,8.38-4.24,2.09-8.96,3.13-14.14,3.13s-9.8-1.08-14.04-3.23c-4.17-2.15-7.57-4.95-10.2-8.38-2.63-3.5-4.65-7.34-6.06-11.51-1.41-4.24-2.12-8.52-2.12-12.83v-30.4c0-1.62,.03-2.79,.1-3.54,.14-.81,.47-1.72,1.01-2.73,.54-1.01,1.45-1.72,2.73-2.12,1.28-.4,3-.6,5.15-.6s3.87,.2,5.15,.6c1.28,.4,2.15,1.11,2.63,2.12,.54,1.01,.88,1.92,1.01,2.73,.14,.81,.2,2.02,.2,3.64v30.3c0,2.02,.24,4.01,.71,5.96,.47,1.88,1.21,3.8,2.22,5.76,1.08,1.89,2.63,3.4,4.65,4.54,2.02,1.14,4.41,1.72,7.17,1.72,4.91,0,8.58-1.82,11.01-5.45,2.42-3.64,3.64-7.84,3.64-12.62v-30.9c0-1.48,.07-2.59,.2-3.33,.13-.81,.47-1.65,1.01-2.52,.54-.88,1.45-1.51,2.73-1.92,1.28-.4,2.96-.6,5.05-.6Z"/><path class="ar" d="M48.13,307.77c-1.75-2.16-2.63-3.94-2.63-5.35,0-2.02,1.45-4.44,4.34-7.27,1.68-1.62,3.37-2.42,5.05-2.42,2.09,0,4.65,1.51,7.68,4.54l.51,.51c.27,.34,.67,.77,1.21,1.31,.54,.54,1.58,1.28,3.13,2.22,1.55,.88,3.06,1.31,4.54,1.31,6.26,0,9.39-2.56,9.39-7.68,0-1.55-.88-2.83-2.63-3.84-1.68-1.08-3.8-1.85-6.36-2.32-2.56-.47-5.32-1.21-8.28-2.22-2.96-1.08-5.72-2.32-8.28-3.74-2.56-1.41-4.71-3.64-6.46-6.67-1.68-3.1-2.52-6.8-2.52-11.11,0-5.93,2.19-11.08,6.56-15.45,4.44-4.44,10.47-6.66,18.08-6.66,4.04,0,7.71,.54,11.01,1.62,3.37,1.01,5.69,2.05,6.97,3.13l2.02,1.51,.5,.4c2.09,1.95,3.13,3.57,3.13,4.85,0,1.41-.81,3.3-2.42,5.66-2.29,3.37-4.65,5.05-7.07,5.05-1.41,0-3.16-.67-5.25-2.02-.2-.13-.61-.47-1.21-1.01-.54-.54-1.04-.94-1.51-1.21-.47-.34-1.28-.64-2.42-.91-1.08-.34-2.36-.51-3.84-.51-1.62,0-3.16,.54-4.65,1.62-1.41,1.01-2.12,2.36-2.12,4.04,0,2.02,.84,3.6,2.52,4.75,1.75,1.14,3.91,1.92,6.46,2.32s5.35,1.04,8.38,1.92c3.03,.81,5.82,1.82,8.38,3.03,2.56,1.21,4.68,3.33,6.36,6.36,1.75,2.96,2.63,6.67,2.63,11.11s-.88,8.15-2.63,11.51c-1.75,3.3-4.04,5.86-6.87,7.68-2.76,1.82-5.62,3.17-8.58,4.04s-5.92,1.31-8.89,1.31c-3.16,0-6.16-.37-8.99-1.11-2.83-.81-5.15-1.75-6.97-2.83-1.75-1.14-3.3-2.29-4.65-3.43-1.28-1.14-2.19-2.12-2.73-2.93l-.91-1.11Z"/><path class="au" d="M163.19,244.04c1.75,0,3.2,.17,4.34,.51,1.14,.34,2.02,.74,2.63,1.21,.61,.47,1.04,1.18,1.31,2.12,.34,.94,.51,1.75,.51,2.42,.07,.61,.1,1.55,.1,2.83v30.5c0,4.31-.74,8.55-2.22,12.72-1.41,4.18-3.47,8.01-6.16,11.51-2.63,3.43-6.06,6.23-10.3,8.38-4.24,2.09-8.96,3.13-14.14,3.13s-9.8-1.08-14.04-3.23c-4.17-2.15-7.57-4.95-10.2-8.38-2.63-3.5-4.65-7.34-6.06-11.51-1.41-4.24-2.12-8.52-2.12-12.83v-30.4c0-1.62,.03-2.79,.1-3.54,.14-.81,.47-1.72,1.01-2.73,.54-1.01,1.45-1.72,2.73-2.12,1.28-.4,3-.61,5.15-.61s3.87,.2,5.15,.61c1.28,.4,2.15,1.11,2.63,2.12,.54,1.01,.88,1.92,1.01,2.73,.14,.81,.2,2.02,.2,3.64v30.3c0,2.02,.24,4.01,.71,5.96,.47,1.89,1.21,3.8,2.22,5.76,1.08,1.89,2.63,3.4,4.65,4.54,2.02,1.14,4.41,1.72,7.17,1.72,4.91,0,8.58-1.82,11.01-5.45,2.42-3.64,3.64-7.84,3.64-12.62v-30.9c0-1.48,.07-2.59,.2-3.33,.13-.81,.47-1.65,1.01-2.53,.54-.88,1.45-1.51,2.73-1.92,1.28-.4,2.96-.61,5.05-.61Z"/><path class="at" d="M245.59,280.7c0,10.23-3.64,19.02-10.91,26.36-7.2,7.34-15.96,11.01-26.26,11.01h-18.48c-2.02,0-3.67-.2-4.95-.61-1.28-.4-2.19-1.04-2.73-1.92-.54-.94-.88-1.85-1.01-2.73-.13-.94-.2-2.19-.2-3.74v-56.15c0-1.62,.03-2.79,.1-3.54,.13-.74,.47-1.62,1.01-2.63,.54-1.01,1.45-1.72,2.73-2.12,1.28-.4,3-.61,5.15-.61,2.02,0,5.12,.03,9.29,.1h9.39c9.76,0,18.35,3.54,25.75,10.6,7.41,7,11.11,15.65,11.11,25.96Zm-17.88,.4c0-5.39-1.92-9.9-5.76-13.53-3.77-3.7-8.21-5.55-13.33-5.55h-9.7v38.18h9.8c4.85,0,9.22-1.78,13.13-5.35,3.9-3.64,5.86-8.21,5.86-13.74Z"/><path class="av" d="M287.84,243.23c9.96,0,18.62,3.6,25.96,10.81s11.01,16.33,11.01,27.37c0,10.3-3.5,19.22-10.5,26.76-7,7.47-15.52,11.21-25.55,11.21s-19.26-3.7-26.46-11.11c-7.14-7.41-10.71-16.23-10.71-26.46,0-5.59,1.01-10.81,3.03-15.65,2.02-4.92,4.71-9.02,8.08-12.32,3.37-3.3,7.24-5.89,11.61-7.78,4.38-1.89,8.89-2.83,13.53-2.83Zm.3,58.27c4.85,0,9.19-1.82,13.03-5.45,3.84-3.64,5.76-8.55,5.76-14.75s-1.95-10.94-5.86-14.64c-3.84-3.7-8.11-5.55-12.83-5.55s-9.19,1.89-13.03,5.66c-3.84,3.7-5.76,8.59-5.76,14.64s1.92,10.77,5.76,14.54c3.9,3.7,8.21,5.55,12.93,5.55Z"/><path class="al" d="M364.05,281c10.3,9.9,17.61,17.34,21.91,22.32,2.22,2.49,3.33,4.48,3.33,5.96,0,1.95-1.41,4.17-4.24,6.67-2.56,2.15-4.71,3.23-6.46,3.23s-3.74-1.41-6.16-4.24l-22.22-25.35v19.69c0,1.62-.07,2.79-.2,3.53-.07,.74-.37,1.62-.91,2.63-.54,1.01-1.45,1.72-2.73,2.12-1.28,.4-3,.61-5.15,.61-1.75,0-3.2-.17-4.34-.51-1.14-.34-2.02-.74-2.63-1.21-.61-.47-1.08-1.14-1.41-2.02-.27-.94-.44-1.72-.51-2.32v-59.08c0-1.55,.03-2.69,.1-3.43,.13-.81,.47-1.72,1.01-2.73,.54-1.01,1.45-1.72,2.73-2.12,1.28-.4,3-.61,5.15-.61,1.75,0,3.2,.17,4.34,.51,1.14,.34,2.02,.74,2.62,1.21,.61,.47,1.04,1.18,1.31,2.12,.34,.88,.51,1.65,.51,2.32,.07,.61,.1,1.55,.1,2.83v19.29c9.16-10.3,16.56-18.75,22.22-25.35,2.36-2.76,4.41-4.14,6.16-4.14s3.9,1.08,6.46,3.23c2.83,2.49,4.24,4.71,4.24,6.67,0,1.48-1.11,3.47-3.33,5.96-1.88,2.22-4.68,5.18-8.38,8.89-3.64,3.7-6.8,6.87-9.49,9.49l-4.04,3.84Z"/><path class="ak" d="M453.15,244.04c1.75,0,3.2,.17,4.34,.51,1.14,.34,2.02,.74,2.63,1.21,.61,.47,1.04,1.18,1.31,2.12,.34,.94,.51,1.75,.51,2.42,.07,.61,.1,1.55,.1,2.83v30.5c0,4.31-.74,8.55-2.22,12.72-1.41,4.18-3.47,8.01-6.16,11.51-2.63,3.43-6.06,6.23-10.3,8.38-4.24,2.09-8.96,3.13-14.14,3.13s-9.8-1.08-14.04-3.23c-4.17-2.15-7.57-4.95-10.2-8.38-2.63-3.5-4.65-7.34-6.06-11.51-1.41-4.24-2.12-8.52-2.12-12.83v-30.4c0-1.62,.03-2.79,.1-3.54,.14-.81,.47-1.72,1.01-2.73,.54-1.01,1.45-1.72,2.73-2.12,1.28-.4,3-.61,5.15-.61s3.87,.2,5.15,.61c1.28,.4,2.15,1.11,2.62,2.12,.54,1.01,.88,1.92,1.01,2.73,.13,.81,.2,2.02,.2,3.64v30.3c0,2.02,.24,4.01,.71,5.96,.47,1.89,1.21,3.8,2.22,5.76,1.08,1.89,2.63,3.4,4.65,4.54,2.02,1.14,4.41,1.72,7.17,1.72,4.92,0,8.58-1.82,11.01-5.45,2.42-3.64,3.64-7.84,3.64-12.62v-30.9c0-1.48,.07-2.59,.2-3.33,.13-.81,.47-1.65,1.01-2.53,.54-.88,1.45-1.51,2.73-1.92,1.28-.4,2.96-.61,5.05-.61Z"/><g><path class="bo" d="M48.13,307.77c-1.75-2.16-2.63-3.94-2.63-5.35,0-2.02,1.45-4.44,4.34-7.27,1.68-1.62,3.37-2.42,5.05-2.42,2.09,0,4.65,1.51,7.68,4.54l.51,.51c.27,.34,.67,.77,1.21,1.31,.54,.54,1.58,1.28,3.13,2.22,1.55,.88,3.06,1.31,4.54,1.31,6.26,0,9.39-2.56,9.39-7.68,0-1.55-.88-2.83-2.63-3.84-1.68-1.08-3.8-1.85-6.36-2.32-2.56-.47-5.32-1.21-8.28-2.22-2.96-1.08-5.72-2.32-8.28-3.74-2.56-1.41-4.71-3.64-6.46-6.67-1.68-3.1-2.52-6.8-2.52-11.11,0-5.93,2.19-11.08,6.56-15.45,4.44-4.44,10.47-6.66,18.08-6.66,4.04,0,7.71,.54,11.01,1.62,3.37,1.01,5.69,2.05,6.97,3.13l2.02,1.51,.5,.4c2.09,1.95,3.13,3.57,3.13,4.85,0,1.41-.81,3.3-2.42,5.66-2.29,3.37-4.65,5.05-7.07,5.05-1.41,0-3.16-.67-5.25-2.02-.2-.13-.61-.47-1.21-1.01-.54-.54-1.04-.94-1.51-1.21-.47-.34-1.28-.64-2.42-.91-1.08-.34-2.36-.51-3.84-.51-1.62,0-3.16,.54-4.65,1.62-1.41,1.01-2.12,2.36-2.12,4.04,0,2.02,.84,3.6,2.52,4.75,1.75,1.14,3.91,1.92,6.46,2.32s5.35,1.04,8.38,1.92c3.03,.81,5.82,1.82,8.38,3.03,2.56,1.21,4.68,3.33,6.36,6.36,1.75,2.96,2.63,6.67,2.63,11.11s-.88,8.15-2.63,11.51c-1.75,3.3-4.04,5.86-6.87,7.68-2.76,1.82-5.62,3.17-8.58,4.04s-5.92,1.31-8.89,1.31c-3.16,0-6.16-.37-8.99-1.11-2.83-.81-5.15-1.75-6.97-2.83-1.75-1.14-3.3-2.29-4.65-3.43-1.28-1.14-2.19-2.12-2.73-2.93l-.91-1.11Z"/><path class="an" d="M48.13,307.77c-1.75-2.16-2.63-3.94-2.63-5.35,0-2.02,1.45-4.44,4.34-7.27,1.68-1.62,3.37-2.42,5.05-2.42,2.09,0,4.65,1.51,7.68,4.54l.51,.51c.27,.34,.67,.77,1.21,1.31,.54,.54,1.58,1.28,3.13,2.22,1.55,.88,3.06,1.31,4.54,1.31,6.26,0,9.39-2.56,9.39-7.68,0-1.55-.88-2.83-2.63-3.84-1.68-1.08-3.8-1.85-6.36-2.32-2.56-.47-5.32-1.21-8.28-2.22-2.96-1.08-5.72-2.32-8.28-3.74-2.56-1.41-4.71-3.64-6.46-6.67-1.68-3.1-2.52-6.8-2.52-11.11,0-5.93,2.19-11.08,6.56-15.45,4.44-4.44,10.47-6.66,18.08-6.66,4.04,0,7.71,.54,11.01,1.62,3.37,1.01,5.69,2.05,6.97,3.13l2.02,1.51,.5,.4c2.09,1.95,3.13,3.57,3.13,4.85,0,1.41-.81,3.3-2.42,5.66-2.29,3.37-4.65,5.05-7.07,5.05-1.41,0-3.16-.67-5.25-2.02-.2-.13-.61-.47-1.21-1.01-.54-.54-1.04-.94-1.51-1.21-.47-.34-1.28-.64-2.42-.91-1.08-.34-2.36-.51-3.84-.51-1.62,0-3.16,.54-4.65,1.62-1.41,1.01-2.12,2.36-2.12,4.04,0,2.02,.84,3.6,2.52,4.75,1.75,1.14,3.91,1.92,6.46,2.32s5.35,1.04,8.38,1.92c3.03,.81,5.82,1.82,8.38,3.03,2.56,1.21,4.68,3.33,6.36,6.36,1.75,2.96,2.63,6.67,2.63,11.11s-.88,8.15-2.63,11.51c-1.75,3.3-4.04,5.86-6.87,7.68-2.76,1.82-5.62,3.17-8.58,4.04s-5.92,1.31-8.89,1.31c-3.16,0-6.16-.37-8.99-1.11-2.83-.81-5.15-1.75-6.97-2.83-1.75-1.14-3.3-2.29-4.65-3.43-1.28-1.14-2.19-2.12-2.73-2.93l-.91-1.11Z"/><path class="bo" d="M163.19,244.04c1.75,0,3.2,.17,4.34,.51,1.14,.34,2.02,.74,2.63,1.21,.61,.47,1.04,1.18,1.31,2.12,.34,.94,.51,1.75,.51,2.42,.07,.61,.1,1.55,.1,2.83v30.5c0,4.31-.74,8.55-2.22,12.72-1.41,4.18-3.47,8.01-6.16,11.51-2.63,3.43-6.06,6.23-10.3,8.38-4.24,2.09-8.96,3.13-14.14,3.13s-9.8-1.08-14.04-3.23c-4.17-2.15-7.57-4.95-10.2-8.38-2.63-3.5-4.65-7.34-6.06-11.51-1.41-4.24-2.12-8.52-2.12-12.83v-30.4c0-1.62,.03-2.79,.1-3.54,.14-.81,.47-1.72,1.01-2.73,.54-1.01,1.45-1.72,2.73-2.12,1.28-.4,3-.61,5.15-.61s3.87,.2,5.15,.61c1.28,.4,2.15,1.11,2.63,2.12,.54,1.01,.88,1.92,1.01,2.73,.14,.81,.2,2.02,.2,3.64v30.3c0,2.02,.24,4.01,.71,5.96,.47,1.89,1.21,3.8,2.22,5.76,1.08,1.89,2.63,3.4,4.65,4.54,2.02,1.14,4.41,1.72,7.17,1.72,4.91,0,8.58-1.82,11.01-5.45,2.42-3.64,3.64-7.84,3.64-12.62v-30.9c0-1.48,.07-2.59,.2-3.33,.13-.81,.47-1.65,1.01-2.53,.54-.88,1.45-1.51,2.73-1.92,1.28-.4,2.96-.61,5.05-.61Z"/><path class="ao" d="M163.19,244.04c1.75,0,3.2,.17,4.34,.51,1.14,.34,2.02,.74,2.63,1.21,.61,.47,1.04,1.18,1.31,2.12,.34,.94,.51,1.75,.51,2.42,.07,.61,.1,1.55,.1,2.83v30.5c0,4.31-.74,8.55-2.22,12.72-1.41,4.18-3.47,8.01-6.16,11.51-2.63,3.43-6.06,6.23-10.3,8.38-4.24,2.09-8.96,3.13-14.14,3.13s-9.8-1.08-14.04-3.23c-4.17-2.15-7.57-4.95-10.2-8.38-2.63-3.5-4.65-7.34-6.06-11.51-1.41-4.24-2.12-8.52-2.12-12.83v-30.4c0-1.62,.03-2.79,.1-3.54,.14-.81,.47-1.72,1.01-2.73,.54-1.01,1.45-1.72,2.73-2.12,1.28-.4,3-.61,5.15-.61s3.87,.2,5.15,.61c1.28,.4,2.15,1.11,2.63,2.12,.54,1.01,.88,1.92,1.01,2.73,.14,.81,.2,2.02,.2,3.64v30.3c0,2.02,.24,4.01,.71,5.96,.47,1.89,1.21,3.8,2.22,5.76,1.08,1.89,2.63,3.4,4.65,4.54,2.02,1.14,4.41,1.72,7.17,1.72,4.91,0,8.58-1.82,11.01-5.45,2.42-3.64,3.64-7.84,3.64-12.62v-30.9c0-1.48,.07-2.59,.2-3.33,.13-.81,.47-1.65,1.01-2.53,.54-.88,1.45-1.51,2.73-1.92,1.28-.4,2.96-.61,5.05-.61Z"/><path class="bo" d="M245.59,280.7c0,10.23-3.64,19.02-10.91,26.36-7.2,7.34-15.96,11.01-26.26,11.01h-18.48c-2.02,0-3.67-.2-4.95-.61-1.28-.4-2.19-1.04-2.73-1.92-.54-.94-.88-1.85-1.01-2.73-.13-.94-.2-2.19-.2-3.74v-56.15c0-1.62,.03-2.79,.1-3.54,.13-.74,.47-1.62,1.01-2.63,.54-1.01,1.45-1.72,2.73-2.12,1.28-.4,3-.61,5.15-.61,2.02,0,5.12,.03,9.29,.1h9.39c9.76,0,18.35,3.54,25.75,10.6,7.41,7,11.11,15.65,11.11,25.96Zm-17.88,.4c0-5.39-1.92-9.9-5.76-13.53-3.77-3.7-8.21-5.55-13.33-5.55h-9.7v38.18h9.8c4.85,0,9.22-1.78,13.13-5.35,3.9-3.64,5.86-8.21,5.86-13.74Z"/><path class="am" d="M245.59,280.7c0,10.23-3.64,19.02-10.91,26.36-7.2,7.34-15.96,11.01-26.26,11.01h-18.48c-2.02,0-3.67-.2-4.95-.61-1.28-.4-2.19-1.04-2.73-1.92-.54-.94-.88-1.85-1.01-2.73-.13-.94-.2-2.19-.2-3.74v-56.15c0-1.62,.03-2.79,.1-3.54,.13-.74,.47-1.62,1.01-2.63,.54-1.01,1.45-1.72,2.73-2.12,1.28-.4,3-.61,5.15-.61,2.02,0,5.12,.03,9.29,.1h9.39c9.76,0,18.35,3.54,25.75,10.6,7.41,7,11.11,15.65,11.11,25.96Zm-17.88,.4c0-5.39-1.92-9.9-5.76-13.53-3.77-3.7-8.21-5.55-13.33-5.55h-9.7v38.18h9.8c4.85,0,9.22-1.78,13.13-5.35,3.9-3.64,5.86-8.21,5.86-13.74Z"/><path class="bo" d="M287.84,243.23c9.96,0,18.62,3.6,25.96,10.81s11.01,16.33,11.01,27.37c0,10.3-3.5,19.22-10.5,26.76-7,7.47-15.52,11.21-25.55,11.21s-19.26-3.7-26.46-11.11c-7.14-7.41-10.71-16.23-10.71-26.46,0-5.59,1.01-10.81,3.03-15.65,2.02-4.92,4.71-9.02,8.08-12.32,3.37-3.3,7.24-5.89,11.61-7.78,4.38-1.89,8.89-2.83,13.53-2.83Zm.3,58.27c4.85,0,9.19-1.82,13.03-5.45,3.84-3.64,5.76-8.55,5.76-14.75s-1.95-10.94-5.86-14.64c-3.84-3.7-8.11-5.55-12.83-5.55s-9.19,1.89-13.03,5.66c-3.84,3.7-5.76,8.59-5.76,14.64s1.92,10.77,5.76,14.54c3.9,3.7,8.21,5.55,12.93,5.55Z"/><path class="ae" d="M287.84,243.23c9.96,0,18.62,3.6,25.96,10.81s11.01,16.33,11.01,27.37c0,10.3-3.5,19.22-10.5,26.76-7,7.47-15.52,11.21-25.55,11.21s-19.26-3.7-26.46-11.11c-7.14-7.41-10.71-16.23-10.71-26.46,0-5.59,1.01-10.81,3.03-15.65,2.02-4.92,4.71-9.02,8.08-12.32,3.37-3.3,7.24-5.89,11.61-7.78,4.38-1.89,8.89-2.83,13.53-2.83Zm.3,58.27c4.85,0,9.19-1.82,13.03-5.45,3.84-3.64,5.76-8.55,5.76-14.75s-1.95-10.94-5.86-14.64c-3.84-3.7-8.11-5.55-12.83-5.55s-9.19,1.89-13.03,5.66c-3.84,3.7-5.76,8.59-5.76,14.64s1.92,10.77,5.76,14.54c3.9,3.7,8.21,5.55,12.93,5.55Z"/><path class="bo" d="M364.05,281c10.3,9.9,17.61,17.34,21.91,22.32,2.22,2.49,3.33,4.48,3.33,5.96,0,1.95-1.41,4.17-4.24,6.67-2.56,2.15-4.71,3.23-6.46,3.23s-3.74-1.41-6.16-4.24l-22.22-25.35v19.69c0,1.62-.07,2.79-.2,3.53-.07,.74-.37,1.62-.91,2.63-.54,1.01-1.45,1.72-2.73,2.12-1.28,.4-3,.61-5.15,.61-1.75,0-3.2-.17-4.34-.51-1.14-.34-2.02-.74-2.63-1.21-.61-.47-1.08-1.14-1.41-2.02-.27-.94-.44-1.72-.51-2.32v-59.08c0-1.55,.03-2.69,.1-3.43,.13-.81,.47-1.72,1.01-2.73,.54-1.01,1.45-1.72,2.73-2.12,1.28-.4,3-.61,5.15-.61,1.75,0,3.2,.17,4.34,.51,1.14,.34,2.02,.74,2.62,1.21,.61,.47,1.04,1.18,1.31,2.12,.34,.88,.51,1.65,.51,2.32,.07,.61,.1,1.55,.1,2.83v19.29c9.16-10.3,16.56-18.75,22.22-25.35,2.36-2.76,4.41-4.14,6.16-4.14s3.9,1.08,6.46,3.23c2.83,2.49,4.24,4.71,4.24,6.67,0,1.48-1.11,3.47-3.33,5.96-1.88,2.22-4.68,5.18-8.38,8.89-3.64,3.7-6.8,6.87-9.49,9.49l-4.04,3.84Z"/><path class="ad" d="M364.05,281c10.3,9.9,17.61,17.34,21.91,22.32,2.22,2.49,3.33,4.48,3.33,5.96,0,1.95-1.41,4.17-4.24,6.67-2.56,2.15-4.71,3.23-6.46,3.23s-3.74-1.41-6.16-4.24l-22.22-25.35v19.69c0,1.62-.07,2.79-.2,3.53-.07,.74-.37,1.62-.91,2.63-.54,1.01-1.45,1.72-2.73,2.12-1.28,.4-3,.61-5.15,.61-1.75,0-3.2-.17-4.34-.51-1.14-.34-2.02-.74-2.63-1.21-.61-.47-1.08-1.14-1.41-2.02-.27-.94-.44-1.72-.51-2.32v-59.08c0-1.55,.03-2.69,.1-3.43,.13-.81,.47-1.72,1.01-2.73,.54-1.01,1.45-1.72,2.73-2.12,1.28-.4,3-.61,5.15-.61,1.75,0,3.2,.17,4.34,.51,1.14,.34,2.02,.74,2.62,1.21,.61,.47,1.04,1.18,1.31,2.12,.34,.88,.51,1.65,.51,2.32,.07,.61,.1,1.55,.1,2.83v19.29c9.16-10.3,16.56-18.75,22.22-25.35,2.36-2.76,4.41-4.14,6.16-4.14s3.9,1.08,6.46,3.23c2.83,2.49,4.24,4.71,4.24,6.67,0,1.48-1.11,3.47-3.33,5.96-1.88,2.22-4.68,5.18-8.38,8.89-3.64,3.7-6.8,6.87-9.49,9.49l-4.04,3.84Z"/><path class="bo" d="M453.15,244.04c1.75,0,3.2,.17,4.34,.51,1.14,.34,2.02,.74,2.63,1.21,.61,.47,1.04,1.18,1.31,2.12,.34,.94,.51,1.75,.51,2.42,.07,.61,.1,1.55,.1,2.83v30.5c0,4.31-.74,8.55-2.22,12.72-1.41,4.18-3.47,8.01-6.16,11.51-2.63,3.43-6.06,6.23-10.3,8.38-4.24,2.09-8.96,3.13-14.14,3.13s-9.8-1.08-14.04-3.23c-4.17-2.15-7.57-4.95-10.2-8.38-2.63-3.5-4.65-7.34-6.06-11.51-1.41-4.24-2.12-8.52-2.12-12.83v-30.4c0-1.62,.03-2.79,.1-3.54,.14-.81,.47-1.72,1.01-2.73,.54-1.01,1.45-1.72,2.73-2.12,1.28-.4,3-.61,5.15-.61s3.87,.2,5.15,.61c1.28,.4,2.15,1.11,2.62,2.12,.54,1.01,.88,1.92,1.01,2.73,.13,.81,.2,2.02,.2,3.64v30.3c0,2.02,.24,4.01,.71,5.96,.47,1.89,1.21,3.8,2.22,5.76,1.08,1.89,2.63,3.4,4.65,4.54,2.02,1.14,4.41,1.72,7.17,1.72,4.92,0,8.58-1.82,11.01-5.45,2.42-3.64,3.64-7.84,3.64-12.62v-30.9c0-1.48,.07-2.59,.2-3.33,.13-.81,.47-1.65,1.01-2.53,.54-.88,1.45-1.51,2.73-1.92,1.28-.4,2.96-.61,5.05-.61Z"/><path class="af" d="M453.15,244.04c1.75,0,3.2,.17,4.34,.51,1.14,.34,2.02,.74,2.63,1.21,.61,.47,1.04,1.18,1.31,2.12,.34,.94,.51,1.75,.51,2.42,.07,.61,.1,1.55,.1,2.83v30.5c0,4.31-.74,8.55-2.22,12.72-1.41,4.18-3.47,8.01-6.16,11.51-2.63,3.43-6.06,6.23-10.3,8.38-4.24,2.09-8.96,3.13-14.14,3.13s-9.8-1.08-14.04-3.23c-4.17-2.15-7.57-4.95-10.2-8.38-2.63-3.5-4.65-7.34-6.06-11.51-1.41-4.24-2.12-8.52-2.12-12.83v-30.4c0-1.62,.03-2.79,.1-3.54,.14-.81,.47-1.72,1.01-2.73,.54-1.01,1.45-1.72,2.73-2.12,1.28-.4,3-.61,5.15-.61s3.87,.2,5.15,.61c1.28,.4,2.15,1.11,2.62,2.12,.54,1.01,.88,1.92,1.01,2.73,.13,.81,.2,2.02,.2,3.64v30.3c0,2.02,.24,4.01,.71,5.96,.47,1.89,1.21,3.8,2.22,5.76,1.08,1.89,2.63,3.4,4.65,4.54,2.02,1.14,4.41,1.72,7.17,1.72,4.92,0,8.58-1.82,11.01-5.45,2.42-3.64,3.64-7.84,3.64-12.62v-30.9c0-1.48,.07-2.59,.2-3.33,.13-.81,.47-1.65,1.01-2.53,.54-.88,1.45-1.51,2.73-1.92,1.28-.4,2.96-.61,5.05-.61Z"/></g><path class="be" d="M67.22,301.48c-1.55-.94-2.59-1.68-3.13-2.22-.54-.54-.94-.98-1.21-1.31l-.5-.51c-3.03-3.03-5.59-4.55-7.68-4.55-1.68,0-3.37,.81-5.05,2.42-2.9,2.83-4.34,5.25-4.34,7.27,0,1.41,.88,3.2,2.63,5.35l.91,1.11c.54,.81,1.45,1.78,2.73,2.93,1.35,1.14,2.9,2.29,4.65,3.43,1.82,1.08,4.14,2.02,6.97,2.83,2.83,.74,5.82,1.11,8.99,1.11,2.96,0,5.93-.44,8.89-1.31,2.96-.88,5.82-2.22,8.58-4.04,2.83-1.82,5.12-4.38,6.87-7.68,1.75-3.37,2.63-7.2,2.63-11.51s-.88-8.15-2.63-11.11c-1.68-3.03-3.8-5.15-6.36-6.36-2.56-1.21-5.35-2.22-8.38-3.03-3.03-.88-5.82-1.52-8.38-1.92-2.56-.4-4.71-1.18-6.46-2.32-1.68-1.14-2.52-2.73-2.52-4.75,0-1.68,.71-3.03,2.12-4.04,1.48-1.08,3.03-1.62,4.65-1.62,1.48,0,2.76,.17,3.84,.51,1.14,.27,1.95,.57,2.42,.91,.47,.27,.98,.67,1.51,1.21,.61,.54,1.01,.88,1.21,1.01,2.09,1.35,3.84,2.02,5.25,2.02,2.42,0,4.78-1.68,7.07-5.05,1.62-2.36,2.42-4.24,2.42-5.66,0-1.28-1.04-2.9-3.13-4.85l-.5-.4-2.02-1.51c-1.28-1.08-3.6-2.12-6.97-3.13-3.3-1.08-6.97-1.62-11.01-1.62-7.61,0-13.63,2.22-18.08,6.67-4.38,4.38-6.56,9.53-6.56,15.45,0,4.31,.84,8.01,2.52,11.11,1.75,3.03,3.91,5.25,6.46,6.67,2.56,1.41,5.32,2.66,8.28,3.74,2.96,1.01,5.72,1.75,8.28,2.22,2.56,.47,4.68,1.25,6.36,2.32,1.75,1.01,2.63,2.29,2.63,3.84,0,5.12-3.13,7.68-9.39,7.68-1.48,0-3-.44-4.54-1.31Zm12.58-12.29c2.22,1.29,3.8,3.26,3.8,5.93,0,3.08-.97,5.79-3.25,7.65-2.19,1.79-5.19,2.47-8.59,2.47-1.98,0-3.91-.59-5.75-1.63l-.03-.02-.03-.02c-1.55-.94-2.82-1.82-3.59-2.58-.51-.51-.96-.99-1.3-1.4l-.42-.42c-1.43-1.43-2.66-2.42-3.71-3.03-1.05-.62-1.78-.8-2.24-.8-.84,0-1.94,.39-3.35,1.74-2.83,2.76-3.6,4.56-3.6,5.51,0,.52,.39,1.73,2.08,3.8h0l.98,1.2,.07,.1c.37,.55,1.09,1.36,2.3,2.44,1.24,1.05,2.68,2.12,4.33,3.2,1.57,.92,3.66,1.78,6.32,2.55,2.6,.68,5.38,1.02,8.34,1.02,2.72,0,5.45-.4,8.19-1.21,2.72-.8,5.36-2.04,7.93-3.74h.02c2.43-1.58,4.45-3.8,6.02-6.77,1.54-2.97,2.34-6.41,2.34-10.37s-.81-7.37-2.29-9.86l-.02-.03-.02-.03c-1.49-2.69-3.27-4.39-5.27-5.34-2.41-1.14-5.06-2.1-7.97-2.88h-.05c-2.95-.87-5.65-1.48-8.08-1.87-2.82-.45-5.32-1.32-7.42-2.69h-.02l-.02-.02c-2.35-1.6-3.6-3.93-3.6-6.77,0-2.5,1.11-4.58,3.14-6.03,1.84-1.33,3.88-2.08,6.08-2.08,1.62,0,3.13,.18,4.48,.59,1.12,.27,2.25,.63,3.09,1.2,.66,.39,1.29,.91,1.88,1.49,.27,.24,.48,.42,.65,.56,.15,.12,.22,.18,.24,.19h0c1.94,1.25,3.19,1.61,3.89,1.61,1.18,0,2.9-.82,5.04-3.98h0c1.57-2.3,1.99-3.65,1.99-4.28h0s-.03-.28-.39-.84c-.37-.57-.97-1.28-1.9-2.15l-.4-.32-2.04-1.53-.05-.05c-.87-.73-2.77-1.66-6.09-2.66h-.03l-.03-.02c-3.02-.99-6.43-1.49-10.25-1.49-7.1,0-12.46,2.06-18.08,4.22-2.21,5.67-4.12,10.21-4.12,15.45,0,3.98,.77,7.25,2.21,9.91,1.57,2.7,3.42,4.56,5.51,5.72,2.43,1.34,5.07,2.54,7.91,3.57,2.86,.97,5.5,1.68,7.91,2.12,2.76,.51,5.18,1.36,7.19,2.64Zm89.13-40.38l-.02-.08c-.17-.58-.37-.79-.46-.86-.27-.21-.82-.5-1.81-.79-.84-.25-2.04-.41-3.65-.41-1.96,0-3.37,.19-4.31,.49-.89,.28-1.23,.63-1.38,.87-.41,.67-.61,1.22-.68,1.64v.04c-.1,.52-.17,1.45-.17,2.9v30.9c0,5.22-1.33,9.91-4.05,13.98-2.94,4.41-7.43,6.54-13.05,6.54-3.1,0-5.93-.65-8.38-2.04-2.38-1.35-4.25-3.17-5.56-5.46l-.03-.04-.02-.05c-1.09-2.1-1.9-4.2-2.42-6.29h0v-.02c-.52-2.14-.78-4.32-.78-6.53v-30.3c0-1.58-.07-2.63-.17-3.23-.08-.46-.3-1.11-.75-1.98l-.03-.06-.03-.06c-.12-.26-.38-.58-1.14-.82-.94-.3-2.38-.49-4.41-.49s-3.47,.2-4.41,.49c-.78,.25-1.12,.59-1.3,.94-.43,.81-.65,1.44-.74,1.89-.05,.64-.08,1.69-.08,3.21v30.4c0,4.03,.66,8.05,1.99,12.05,1.33,3.93,3.23,7.53,5.69,10.82,2.39,3.12,5.49,5.68,9.36,7.68,3.87,1.96,8.16,2.96,12.92,2.96s9.17-.97,13.04-2.87c3.94-2,7.07-4.57,9.45-7.68h0c2.53-3.29,4.46-6.89,5.78-10.81v-.03c1.4-3.92,2.09-7.88,2.09-11.91v-30.5c0-1.26-.03-2.09-.09-2.56v-.27c-.01-.29-.09-.81-.38-1.6l-.03-.07Zm-15.74,67.62c-4.24,2.09-8.95,3.13-14.14,3.13s-9.8-1.08-14.04-3.23c-4.17-2.15-7.57-4.95-10.2-8.38-2.63-3.5-4.65-7.34-6.06-11.51-1.41-4.24-2.12-8.52-2.12-12.83v-30.4c0-1.61,.03-2.79,.1-3.53,.13-.81,.47-1.72,1.01-2.73,.54-1.01,1.45-1.72,2.73-2.12,1.28-.4,3-.61,5.15-.61s3.87,.2,5.15,.61c1.28,.4,2.15,1.11,2.63,2.12,.54,1.01,.88,1.92,1.01,2.73,.14,.81,.2,2.02,.2,3.63v30.3c0,2.02,.24,4.01,.71,5.96,.47,1.89,1.21,3.8,2.22,5.76,1.08,1.89,2.63,3.4,4.65,4.54,2.02,1.14,4.41,1.72,7.17,1.72,4.91,0,8.58-1.82,11.01-5.45,2.42-3.64,3.63-7.84,3.63-12.62v-30.9c0-1.48,.07-2.59,.2-3.33,.14-.81,.47-1.65,1.01-2.52,.54-.88,1.45-1.51,2.73-1.92,1.28-.4,2.96-.61,5.05-.61,1.75,0,3.2,.17,4.34,.5,1.14,.34,2.02,.74,2.62,1.21,.61,.47,1.04,1.18,1.31,2.12,.34,.94,.5,1.75,.5,2.42,.07,.61,.1,1.55,.1,2.83v30.5c0,4.31-.74,8.55-2.22,12.73-1.41,4.17-3.47,8.01-6.16,11.51-2.63,3.43-6.06,6.23-10.3,8.38Zm79.54-10.91h0c6.82-6.89,10.2-15.06,10.2-24.64s-3.43-17.64-10.34-24.18h0c-6.98-6.67-14.96-9.93-24.06-9.93h-9.43c-4.17-.07-7.25-.1-9.25-.1s-3.47,.2-4.41,.49c-.78,.25-1.12,.59-1.3,.94-.44,.82-.65,1.42-.74,1.82-.05,.64-.08,1.68-.08,3.19v56.15c0,1.49,.07,2.6,.18,3.38,.08,.51,.29,1.11,.69,1.83,.15,.24,.5,.57,1.36,.84,.95,.3,2.33,.49,4.21,.49h18.48c9.65,0,17.77-3.41,24.51-10.27Zm-50.67,10.2c-.54-.94-.88-1.85-1.01-2.73-.13-.94-.2-2.19-.2-3.74v-56.15c0-1.62,.03-2.79,.1-3.53,.13-.74,.47-1.62,1.01-2.63,.54-1.01,1.45-1.72,2.73-2.12,1.28-.4,3-.61,5.15-.61,2.02,0,5.12,.03,9.29,.1h9.39c9.76,0,18.35,3.54,25.75,10.6,7.41,7,11.11,15.65,11.11,25.96s-3.64,19.02-10.91,26.36c-7.2,7.34-15.96,11.01-26.26,11.01h-18.48c-2.02,0-3.67-.2-4.95-.61-1.28-.4-2.19-1.04-2.73-1.92Zm16.66-15.35v-38.18h9.7c5.12,0,9.56,1.85,13.33,5.55,3.84,3.64,5.76,8.15,5.76,13.53s-1.95,10.1-5.86,13.73c-3.9,3.57-8.28,5.35-13.13,5.35h-9.8Zm24.73-34.38c-4.21-4.13-9.26-6.24-15.03-6.24h-12.15v43.07h12.25c5.52,0,10.47-2.05,14.78-5.99h0v-.02c4.43-4.12,6.65-9.35,6.65-15.53s-2.18-11.19-6.51-15.3Zm33.22,1.28h0c-1.89,4.54-2.84,9.44-2.84,14.72,0,9.6,3.32,17.81,10.02,24.76,6.74,6.92,14.92,10.36,24.7,10.36s17.21-3.44,23.76-10.43c6.58-7.09,9.85-15.41,9.85-25.09,0-10.44-3.44-18.91-10.27-25.62-6.9-6.77-14.94-10.1-24.24-10.1-4.3,0-8.49,.87-12.56,2.63-4.1,1.77-7.72,4.19-10.87,7.28-3.1,3.04-5.62,6.86-7.53,11.5Zm57.42,41.08c7-7.54,10.5-16.46,10.5-26.76,0-11.04-3.67-20.16-11.01-27.37-7.34-7.2-15.99-10.81-25.96-10.81-4.64,0-9.16,.94-13.53,2.83-4.38,1.89-8.25,4.48-11.61,7.78-3.37,3.3-6.06,7.41-8.08,12.32-2.02,4.85-3.03,10.07-3.03,15.65,0,10.23,3.57,19.05,10.71,26.46,7.2,7.41,16.02,11.11,26.46,11.11s18.55-3.74,25.55-11.21Zm-39.08-12.22c-3.84-3.77-5.76-8.62-5.76-14.54s1.92-10.94,5.76-14.64c3.84-3.77,8.18-5.66,13.03-5.66s8.99,1.85,12.83,5.55c3.9,3.7,5.86,8.58,5.86,14.64s-1.92,11.11-5.76,14.74c-3.84,3.64-8.18,5.45-13.03,5.45s-9.02-1.85-12.93-5.56Zm27.55-31.06c-4.23-4.08-9.09-6.23-14.52-6.23s-10.5,2.19-14.74,6.35c-4.38,4.23-6.5,9.78-6.5,16.4s2.13,12.01,6.49,16.29v.02h.03c4.29,4.08,9.18,6.24,14.61,6.24s10.46-2.1,14.71-6.12c4.41-4.18,6.52-9.78,6.52-16.52s-2.16-12.19-6.61-16.41Zm57.75,16.1l5.88-5.58h.01c2.67-2.62,5.82-5.77,9.45-9.46h0v-.02c3.69-3.69,6.43-6.59,8.26-8.74l.02-.02,.02-.02c1.04-1.17,1.75-2.14,2.19-2.92,.45-.81,.52-1.25,.52-1.4,0-.82-.67-2.4-3.39-4.81-2.45-2.06-4.03-2.64-4.86-2.64-.23,0-.7,.09-1.49,.62-.78,.52-1.72,1.38-2.81,2.66h0c-5.67,6.62-13.09,15.08-22.25,25.39l-4.28,4.81v-25.73c0-1.26-.04-2.09-.09-2.56v-.27c-.01-.28-.09-.75-.36-1.44l-.04-.1-.03-.1c-.17-.58-.37-.79-.46-.86-.27-.21-.82-.5-1.81-.79-.84-.25-2.04-.41-3.65-.41-2.04,0-3.47,.2-4.41,.49-.78,.25-1.12,.59-1.3,.94-.43,.81-.65,1.44-.74,1.9-.05,.63-.08,1.65-.08,3.11v58.93c.05,.39,.17,.95,.38,1.69,.2,.49,.42,.74,.6,.87,.27,.21,.82,.5,1.81,.8,.84,.25,2.04,.4,3.65,.4,2.04,0,3.47-.2,4.41-.49,.78-.25,1.12-.59,1.3-.94,.46-.86,.61-1.41,.63-1.7v-.11l.03-.11c.09-.51,.16-1.5,.16-3.1v-26.2l26.51,30.24h0v.02c1.14,1.32,2.11,2.21,2.9,2.76,.8,.55,1.25,.63,1.41,.63,.84,0,2.41-.58,4.86-2.64,2.72-2.41,3.39-3.99,3.39-4.81,0-.16-.07-.6-.52-1.4-.44-.78-1.15-1.76-2.19-2.92h-.01v-.03c-4.24-4.89-11.48-12.26-21.77-22.16l-1.85-1.78Zm-27.66,33.44c-.27-.94-.44-1.72-.51-2.32v-59.08c0-1.55,.03-2.69,.1-3.43,.13-.81,.47-1.72,1.01-2.73,.54-1.01,1.45-1.72,2.73-2.12,1.28-.4,3-.61,5.15-.61,1.75,0,3.2,.17,4.34,.5,1.14,.34,2.02,.74,2.62,1.21,.61,.47,1.04,1.18,1.31,2.12,.34,.88,.5,1.65,.5,2.32,.07,.61,.1,1.55,.1,2.83v19.29c.83-.93,1.65-1.85,2.45-2.76,8.04-9.06,14.63-16.59,19.77-22.59,2.36-2.76,4.41-4.14,6.16-4.14s3.9,1.08,6.46,3.23c2.83,2.49,4.24,4.71,4.24,6.67,0,1.48-1.11,3.47-3.33,5.96-1.89,2.22-4.68,5.18-8.38,8.89-3.64,3.7-6.8,6.87-9.49,9.49l-4.04,3.84c.6,.58,1.19,1.14,1.77,1.7,9.38,9.05,16.09,15.93,20.15,20.62,2.22,2.49,3.33,4.48,3.33,5.96,0,1.95-1.41,4.17-4.24,6.67-2.56,2.15-4.71,3.23-6.46,3.23s-3.74-1.41-6.16-4.24l-22.22-25.35v19.69c0,1.62-.07,2.79-.2,3.54-.07,.74-.37,1.62-.91,2.63-.54,1.01-1.45,1.72-2.73,2.12-1.28,.4-3,.61-5.15,.61-1.75,0-3.2-.17-4.34-.51-1.15-.34-2.02-.74-2.63-1.21-.61-.47-1.08-1.14-1.41-2.02Zm126.25-65.81l-.02-.08c-.17-.58-.37-.79-.46-.86-.27-.21-.82-.5-1.81-.79-.84-.25-2.04-.41-3.65-.41-1.96,0-3.37,.19-4.31,.49-.89,.28-1.23,.63-1.38,.87-.41,.67-.61,1.22-.68,1.64v.04c-.1,.52-.17,1.45-.17,2.9v30.9c0,5.22-1.33,9.91-4.05,13.98-2.94,4.41-7.43,6.54-13.05,6.54-3.1,0-5.93-.65-8.38-2.04-2.38-1.35-4.25-3.17-5.57-5.46l-.02-.04-.02-.05c-1.09-2.1-1.9-4.2-2.42-6.29h0v-.02c-.52-2.14-.78-4.32-.78-6.53v-30.3c0-1.58-.07-2.63-.17-3.23-.08-.46-.3-1.11-.76-1.98l-.03-.06-.03-.06c-.12-.26-.38-.58-1.14-.82-.94-.3-2.38-.49-4.41-.49s-3.47,.2-4.41,.49c-.78,.25-1.12,.59-1.3,.94-.43,.81-.65,1.44-.74,1.89-.05,.64-.08,1.69-.08,3.21v30.4c0,4.03,.66,8.05,1.99,12.05,1.33,3.92,3.23,7.53,5.69,10.81,2.39,3.12,5.49,5.68,9.36,7.68,3.87,1.96,8.16,2.96,12.92,2.96s9.17-.97,13.05-2.87c3.94-2,7.07-4.57,9.45-7.68h0c2.53-3.29,4.45-6.89,5.78-10.81v-.03c1.4-3.92,2.09-7.88,2.09-11.91v-30.5c0-1.26-.03-2.09-.09-2.56l-.02-.14v-.13c0-.29-.08-.81-.36-1.6l-.03-.07Zm-43.92,67.52c-4.17-2.15-7.57-4.95-10.2-8.38-2.63-3.5-4.65-7.34-6.06-11.51-1.41-4.24-2.12-8.52-2.12-12.83v-30.4c0-1.61,.03-2.79,.1-3.53,.14-.81,.47-1.72,1.01-2.73,.54-1.01,1.45-1.72,2.73-2.12,1.28-.4,3-.61,5.15-.61s3.87,.2,5.15,.61c1.28,.4,2.15,1.11,2.63,2.12,.54,1.01,.88,1.92,1.01,2.73,.13,.81,.2,2.02,.2,3.63v30.3c0,2.02,.24,4.01,.71,5.96,.47,1.89,1.21,3.8,2.22,5.76,1.08,1.89,2.63,3.4,4.65,4.54,2.02,1.14,4.41,1.72,7.17,1.72,4.92,0,8.58-1.82,11.01-5.45,2.42-3.64,3.64-7.84,3.64-12.62v-30.9c0-1.48,.07-2.59,.2-3.33,.13-.81,.47-1.65,1.01-2.52,.54-.88,1.45-1.51,2.73-1.92,1.28-.4,2.96-.61,5.05-.61,1.75,0,3.2,.17,4.34,.5,1.14,.34,2.02,.74,2.62,1.21,.61,.47,1.04,1.18,1.31,2.12,.34,.94,.51,1.75,.51,2.42,.07,.61,.1,1.55,.1,2.83v30.5c0,4.31-.74,8.55-2.22,12.73-1.41,4.17-3.47,8.01-6.16,11.51-2.63,3.43-6.06,6.23-10.3,8.38-4.24,2.09-8.96,3.13-14.14,3.13s-9.8-1.08-14.04-3.23Z"/><path class="bn" d="M163.74,191.25c0-3.08-.46-4.92-1.57-6.44-1.66-2.25-4.28-3.4-7.83-3.4-4.14,0-6.58,1.29-9.38,4.87,.09-1.16,.09-1.28,.09-1.98v-2.44h-6.26c.27,1.89,.37,3.46,.37,5.99v14.44c0,2.57-.09,4.01-.37,5.99h6.63c-.28-1.98-.37-3.73-.37-5.99v-9.29c2.03-4.55,4.74-6.85,8.06-6.85,1.75,0,3.12,.69,3.87,1.89,.55,.87,.78,2.12,.78,4.05v10.22c0,2.35-.09,3.91-.32,5.99h6.67c-.28-1.7-.37-3.44-.37-5.99v-11.05Z"/><path class="bl" d="M163.74,191.25c0-3.08-.46-4.92-1.57-6.44-1.66-2.25-4.28-3.4-7.83-3.4-4.14,0-6.58,1.29-9.38,4.87,.09-1.16,.09-1.28,.09-1.98v-2.44h-6.26c.27,1.89,.37,3.46,.37,5.99v14.44c0,2.57-.09,4.01-.37,5.99h6.63c-.28-1.98-.37-3.73-.37-5.99v-9.29c2.03-4.55,4.74-6.85,8.06-6.85,1.75,0,3.12,.69,3.87,1.89,.55,.87,.78,2.12,.78,4.05v10.22c0,2.35-.09,3.91-.32,5.99h6.67c-.28-1.7-.37-3.44-.37-5.99v-11.05Z"/><path class="bn" d="M194.43,195.3c-.14-3.14-.46-4.78-1.34-6.99-1.84-4.6-6.08-7.27-11.46-7.27-7.86,0-12.98,5.56-12.98,14.08s5.15,14.03,13.3,14.03c3.87,0,7.08-1.19,9.47-3.55,1.14-1.16,1.75-2.02,2.8-4.23l-5.44-1.75c-.46,1.25-.78,1.75-1.34,2.39-1.34,1.48-3.26,2.3-5.51,2.3s-4.42-.91-5.76-2.57c-1.05-1.34-1.48-2.62-1.71-5.15h20.02c-.06-1.07-.06-1.21-.06-1.3Zm-19.78-3.26c.69-3.87,3.32-6.26,6.9-6.26,2.16,0,3.73,.6,4.97,1.84,1.16,1.16,1.71,2.39,2.03,4.42h-13.9Z"/><path class="bl" d="M194.43,195.3c-.14-3.14-.46-4.78-1.34-6.99-1.84-4.6-6.08-7.27-11.46-7.27-7.86,0-12.98,5.56-12.98,14.08s5.15,14.03,13.3,14.03c3.87,0,7.08-1.19,9.47-3.55,1.14-1.16,1.75-2.02,2.8-4.23l-5.44-1.75c-.46,1.25-.78,1.75-1.34,2.39-1.34,1.48-3.26,2.3-5.51,2.3s-4.42-.91-5.76-2.57c-1.05-1.34-1.48-2.62-1.71-5.15h20.02c-.06-1.07-.06-1.21-.06-1.3Zm-19.78-3.26c.69-3.87,3.32-6.26,6.9-6.26,2.16,0,3.73,.6,4.97,1.84,1.16,1.16,1.71,2.39,2.03,4.42h-13.9Z"/><path class="bn" d="M211.45,204.09c-2.21,0-3.03-.82-3.03-3.08v-14.26h2.07c2.12,0,2.99,.05,4.51,.28v-5.44c-1.48,.23-2.48,.27-4.65,.27h-1.93v-.03h-5.94v.03h-1.7c-1.93,0-2.8-.05-4.14-.27v5.44c1.52-.23,2.39-.28,4.1-.28h1.75v15.46c0,4.83,2.12,6.72,7.4,6.72,2.39,0,3.78-.23,5.76-.96l-.82-4.87c-1.45,.77-2.18,1-3.38,1Z"/><path class="bl" d="M211.45,204.09c-2.21,0-3.03-.82-3.03-3.08v-14.26h2.07c2.12,0,2.99,.05,4.51,.28v-5.44c-1.48,.23-2.48,.27-4.65,.27h-1.93v-.03h-5.94v.03h-1.7c-1.93,0-2.8-.05-4.14-.27v5.44c1.52-.23,2.39-.28,4.1-.28h1.75v15.46c0,4.83,2.12,6.72,7.4,6.72,2.39,0,3.78-.23,5.76-.96l-.82-4.87c-1.45,.77-2.18,1-3.38,1Z"/><path class="bg" d="M209.1,178.05h-5.92v-4.57l5.92-1.34v5.91Z"/><path class="bg" d="M245.34,183.28s-.18-5.22-.12-7.08h-5.92l.03,7.08h6.01Z"/><path class="bi" d="M246.01,168.3s-5.56-2.37-5.65-2.25c-.63,.85-1.25,7.54-1.04,7.54h6.03s.19-3.13,.67-5.29Z"/><path class="bk" d="M246.78,165.13l-5.59-2.39s1-3.01,2.96-6.23c0,0,4.47,4.34,4.39,4.41-.5,.53-1.76,4.22-1.76,4.22Z"/><path class="bh" d="M253.98,154.73s-3.32,2.8-3.73,3.6c-.04,.06-4.29-4.29-4.29-4.29,0,0,2.42-2.84,5.62-5l2.4,5.69Z"/><path class="bf" d="M262.85,151.3c-.74,0-4.41,1.2-5.06,1.85l-2.18-5.59s3.52-1.85,7.25-2.48v6.22Z"/><path class="bj" d="M272.56,150.03c-3.35,0-6.71,.59-6.71,.59v-6.08c1.12-.42,6.71-.54,6.71-.54,0,0,.37,6.03,0,6.03Z"/><path class="bm" d="M257.92,186.19v-4.33h-6.26c.28,1.89,.32,3.17,.32,5.99v14.44c0,2.39-.09,3.73-.32,5.99h6.58c-.23-2.16-.32-3.49-.32-5.99v-8.51c.27-2.21,.73-3.26,1.89-4.6,1.3-1.52,3.03-2.25,5.33-2.25,1.2,0,2.16,.18,4.1,.73l1.61-5.8c-2.07-.37-3.17-.5-4.28-.5-4.15-.01-7,1.56-8.65,4.82Z"/><path class="ay" d="M257.92,186.19v-4.33h-6.26c.28,1.89,.32,3.17,.32,5.99v14.44c0,2.39-.09,3.73-.32,5.99h6.58c-.23-2.16-.32-3.49-.32-5.99v-8.51c.27-2.21,.73-3.26,1.89-4.6,1.3-1.52,3.03-2.25,5.33-2.25,1.2,0,2.16,.18,4.1,.73l1.61-5.8c-2.07-.37-3.17-.5-4.28-.5-4.15-.01-7,1.56-8.65,4.82Z"/><path class="bm" d="M298.86,195.3c-.14-3.14-.46-4.78-1.34-6.99-1.84-4.6-6.06-7.27-11.45-7.27-7.86,0-12.98,5.56-12.98,14.08s5.15,14.03,13.3,14.03c3.87,0,7.08-1.19,9.48-3.55,1.16-1.16,1.75-2.02,2.8-4.23l-5.43-1.75c-.46,1.25-.78,1.75-1.34,2.39-1.34,1.48-3.26,2.3-5.52,2.3s-4.42-.91-5.76-2.57c-1.05-1.34-1.48-2.62-1.71-5.15h20.02c-.08-1.07-.08-1.21-.08-1.3Zm-19.79-3.26c.69-3.87,3.31-6.26,6.9-6.26,2.16,0,3.73,.6,4.97,1.84,1.16,1.16,1.71,2.39,2.03,4.42h-13.9Z"/><path class="b`" d="M298.86,195.3c-.14-3.14-.46-4.78-1.34-6.99-1.84-4.6-6.06-7.27-11.45-7.27-7.86,0-12.98,5.56-12.98,14.08s5.15,14.03,13.3,14.03c3.87,0,7.08-1.19,9.48-3.55,1.16-1.16,1.75-2.02,2.8-4.23l-5.43-1.75c-.46,1.25-.78,1.75-1.34,2.39-1.34,1.48-3.26,2.3-5.52,2.3s-4.42-.91-5.76-2.57c-1.05-1.34-1.48-2.62-1.71-5.15h20.02c-.08-1.07-.08-1.21-.08-1.3Zm-19.79-3.26c.69-3.87,3.31-6.26,6.9-6.26,2.16,0,3.73,.6,4.97,1.84,1.16,1.16,1.71,2.39,2.03,4.42h-13.9Z"/><path class="bm" d="M326.83,190.15c0-3.12-.6-4.87-2.16-6.35-1.98-1.94-4.65-2.71-9.06-2.71-3.96,0-6.53,.69-8.79,2.35-1.75,1.25-2.57,2.44-3.64,5.1l5.88,1.05c.55-1.66,.96-2.3,1.84-2.94,1.05-.82,2.94-1.34,4.78-1.34,3.49,0,5.29,1.38,5.29,4.05v2.35c-6.58,.14-9.99,.59-12.98,1.84-3.17,1.34-5.19,4.23-5.19,7.45,0,4.83,3.4,7.74,9.02,7.74,1.48,0,2.94-.18,4.28-.55,1.89-.51,3.03-1.16,4.88-2.9v2.99h6.21c-.28-2.07-.37-3.32-.37-5.76v-12.37Zm-5.85,7.86c0,1.61-.55,2.94-1.66,4.05-1.57,1.52-3.96,2.44-6.4,2.44-2.57,0-4.19-1.34-4.19-3.49,0-3.59,3.46-5.1,12.23-5.29v2.3h.01Z"/><path class="bc" d="M326.83,190.15c0-3.12-.6-4.87-2.16-6.35-1.98-1.94-4.65-2.71-9.06-2.71-3.96,0-6.53,.69-8.79,2.35-1.75,1.25-2.57,2.44-3.64,5.1l5.88,1.05c.55-1.66,.96-2.3,1.84-2.94,1.05-.82,2.94-1.34,4.78-1.34,3.49,0,5.29,1.38,5.29,4.05v2.35c-6.58,.14-9.99,.59-12.98,1.84-3.17,1.34-5.19,4.23-5.19,7.45,0,4.83,3.4,7.74,9.02,7.74,1.48,0,2.94-.18,4.28-.55,1.89-.51,3.03-1.16,4.88-2.9v2.99h6.21c-.28-2.07-.37-3.32-.37-5.76v-12.37Zm-5.85,7.86c0,1.61-.55,2.94-1.66,4.05-1.57,1.52-3.96,2.44-6.4,2.44-2.57,0-4.19-1.34-4.19-3.49,0-3.59,3.46-5.1,12.23-5.29v2.3h.01Z"/><path class="bm" d="M373.11,190.93c0-3.26-.64-5.33-2.16-6.99-1.57-1.71-3.96-2.62-6.9-2.62-2.07,0-3.64,.37-5.15,1.19-1.43,.73-2.3,1.57-3.87,3.64-.55-1.43-.93-2.03-1.75-2.76-1.43-1.38-3.46-2.07-5.94-2.07-3.82,0-7.22,1.8-8.56,4.6,.05-.73,.05-1.43,.05-1.71v-2.35h-6.17c.23,1.75,.32,3.08,.32,5.99v14.44c0,2.48-.09,4.01-.32,5.99h6.49c-.23-2.12-.32-3.49-.32-5.99v-9.11c.5-2.21,.96-3.26,1.98-4.6,1.25-1.61,2.8-2.39,4.74-2.39,2.99,0,4.46,1.93,4.46,5.79v10.31c0,2.62-.09,4.05-.37,5.99h6.63c-.23-1.89-.32-3.44-.32-5.99v-9.11c.55-2.85,1.29-4.33,2.9-5.71,1.11-.96,2.25-1.38,3.78-1.38,3.08,0,4.51,1.84,4.51,5.88v10.31c0,2.71-.09,4.1-.37,5.99h6.72c-.28-1.89-.37-3.4-.37-5.99v-11.36h-.01Z"/><path class="ba" d="M373.11,190.93c0-3.26-.64-5.33-2.16-6.99-1.57-1.71-3.96-2.62-6.9-2.62-2.07,0-3.64,.37-5.15,1.19-1.43,.73-2.3,1.57-3.87,3.64-.55-1.43-.93-2.03-1.75-2.76-1.43-1.38-3.46-2.07-5.94-2.07-3.82,0-7.22,1.8-8.56,4.6,.05-.73,.05-1.43,.05-1.71v-2.35h-6.17c.23,1.75,.32,3.08,.32,5.99v14.44c0,2.48-.09,4.01-.32,5.99h6.49c-.23-2.12-.32-3.49-.32-5.99v-9.11c.5-2.21,.96-3.26,1.98-4.6,1.25-1.61,2.8-2.39,4.74-2.39,2.99,0,4.46,1.93,4.46,5.79v10.31c0,2.62-.09,4.05-.37,5.99h6.63c-.23-1.89-.32-3.44-.32-5.99v-9.11c.55-2.85,1.29-4.33,2.9-5.71,1.11-.96,2.25-1.38,3.78-1.38,3.08,0,4.51,1.84,4.51,5.88v10.31c0,2.71-.09,4.1-.37,5.99h6.72c-.28-1.89-.37-3.4-.37-5.99v-11.36h-.01Z"/><path class="bm" d="M399.14,195.07c-1.52-1.16-3.41-1.8-8.1-2.8-2.62-.6-3.58-.87-4.6-1.38-.93-.5-1.43-1.29-1.43-2.16,0-1.93,1.93-3.23,4.78-3.23,3,0,4.55,1.1,5.06,3.64l6.08-.78c-.64-2.25-1.28-3.4-2.48-4.55-1.89-1.75-4.88-2.67-8.65-2.67-4.19,0-7.31,1.2-9.2,3.59-.91,1.14-1.43,2.67-1.43,4.28,0,2.67,1.43,4.88,4.05,6.12,1.57,.73,2.99,1.2,6.63,1.98,3.68,.82,3.96,.87,4.83,1.48,.73,.5,1.19,1.38,1.19,2.3,0,2.16-2.12,3.5-5.52,3.5-3.58,0-5.29-1.25-6.07-4.37l-6.31,.78c.55,2.07,.96,2.99,1.8,4.1,1.98,2.67,5.53,4.1,10.26,4.1,4.19,0,7.41-1.01,9.52-2.99,1.38-1.29,2.25-3.32,2.25-5.2,0-2.54-.87-4.43-2.67-5.72Z"/><path class="bb" d="M399.14,195.07c-1.52-1.16-3.41-1.8-8.1-2.8-2.62-.6-3.58-.87-4.6-1.38-.93-.5-1.43-1.29-1.43-2.16,0-1.93,1.93-3.23,4.78-3.23,3,0,4.55,1.1,5.06,3.64l6.08-.78c-.64-2.25-1.28-3.4-2.48-4.55-1.89-1.75-4.88-2.67-8.65-2.67-4.19,0-7.31,1.2-9.2,3.59-.91,1.14-1.43,2.67-1.43,4.28,0,2.67,1.43,4.88,4.05,6.12,1.57,.73,2.99,1.2,6.63,1.98,3.68,.82,3.96,.87,4.83,1.48,.73,.5,1.19,1.38,1.19,2.3,0,2.16-2.12,3.5-5.52,3.5-3.58,0-5.29-1.25-6.07-4.37l-6.31,.78c.55,2.07,.96,2.99,1.8,4.1,1.98,2.67,5.53,4.1,10.26,4.1,4.19,0,7.41-1.01,9.52-2.99,1.38-1.29,2.25-3.32,2.25-5.2,0-2.54-.87-4.43-2.67-5.72Z"/><path class="bm" d="M239.75,185.88v.04c-1.01-1.34-1.52-1.89-2.34-2.53-1.8-1.43-4.14-2.12-6.99-2.12-7.6,0-12.43,5.33-12.43,13.76,0,4.97,1.7,9.15,4.78,11.55,2.03,1.61,4.46,2.35,7.68,2.35,4.46,0,6.9-1.2,9.29-4.55-.05,.59-.05,1.11-.05,1.66v2.25h6.12c-.23-2.03-.32-3.49-.32-6.21v-16.2h-5.74Zm-2.07,15.07c-1.38,1.89-3.73,3.03-6.17,3.03-4.6,0-7.54-3.44-7.54-8.93s2.85-8.97,7.31-8.97c2.21,0,4.55,1.01,5.98,2.57,1.34,1.48,2.21,3.87,2.21,6.12,0,2.42-.64,4.66-1.79,6.18Z"/><path class="bd" d="M239.75,185.88v.04c-1.01-1.34-1.52-1.89-2.34-2.53-1.8-1.43-4.14-2.12-6.99-2.12-7.6,0-12.43,5.33-12.43,13.76,0,4.97,1.7,9.15,4.78,11.55,2.03,1.61,4.46,2.35,7.68,2.35,4.46,0,6.9-1.2,9.29-4.55-.05,.59-.05,1.11-.05,1.66v2.25h6.12c-.23-2.03-.32-3.49-.32-6.21v-16.2h-5.74Zm-2.07,15.07c-1.38,1.89-3.73,3.03-6.17,3.03-4.6,0-7.54-3.44-7.54-8.93s2.85-8.97,7.31-8.97c2.21,0,4.55,1.01,5.98,2.57,1.34,1.48,2.21,3.87,2.21,6.12,0,2.42-.64,4.66-1.79,6.18Z"/></svg>