<svg width="30" height="29" viewBox="0 0 30 29" fill="none" xmlns="http://www.w3.org/2000/svg">
<g clip-path="url(#clip0_1288_1217)">
<path d="M30 14.5887C30 6.5303 23.2838 -0.00195312 15 -0.00195312C6.71253 -0.000140625 -0.00372314 6.5303 -0.00372314 14.5905C-0.00372314 21.8713 5.48253 27.9069 12.6525 29.0017V18.8064H8.84628V14.5905H12.6563V11.3733C12.6563 7.71748 14.8969 5.69836 18.3225 5.69836C19.965 5.69836 21.6806 5.98292 21.6806 5.98292V9.57167H19.7888C17.9269 9.57167 17.3457 10.6972 17.3457 11.8518V14.5887H21.5044L20.8406 18.8045H17.3438V28.9999C24.5138 27.9051 30 21.8695 30 14.5887Z" fill="#555555"/>
</g>
<defs>
<clipPath id="clip0_1288_1217">
<rect width="30" height="29" fill="white"/>
</clipPath>
</defs>
</svg>
