<svg width="50" height="50" viewBox="0 0 50 50" fill="none" xmlns="http://www.w3.org/2000/svg">
<circle cx="25" cy="25" r="24" fill="url(#paint0_linear_118_44)" stroke="url(#paint1_linear_118_44)" stroke-width="2"/>
<rect x="13.8496" y="11.9497" width="22.7954" height="25.6448" fill="#444444"/>
<path d="M34.465 12.395H16.0292C14.6954 12.395 13.4162 12.9249 12.473 13.868C11.5299 14.8112 11 16.0904 11 17.4243L11 34.9708C11 36.3046 11.5299 37.5838 12.473 38.527C13.4162 39.4701 14.6954 40 16.0292 40H34.465C35.1255 40 35.7796 39.8699 36.3899 39.617C37.0001 39.3642 37.5546 38.9937 38.0216 38.5265C38.4886 38.0594 38.8591 37.5049 39.1117 36.8945C39.3644 36.2842 39.4944 35.6301 39.4942 34.9696V17.4231C39.4939 16.0894 38.9639 14.8105 38.0208 13.8676C37.0776 12.9247 35.7986 12.395 34.465 12.395V12.395ZM30.6064 20.1549C30.3191 20.1549 30.1742 19.9401 30.084 19.6337C29.7789 18.4821 29.3835 18.1414 29.1496 18.1414C28.9157 18.1414 28.556 18.5735 28.1606 19.4711C27.6656 20.6227 27.2655 21.81 26.9651 23.0257L29.0214 23.0234C29.152 23.3558 29.0333 23.7357 28.7388 23.9399H26.7074C26.0426 26.1696 25.4834 28.3185 24.8173 30.4224C24.5291 31.4935 24.0872 32.5173 23.5054 33.4618C23.1708 33.9367 22.73 34.3269 22.218 34.6015C21.706 34.876 21.137 35.0273 20.5563 35.0432C19.6385 35.0432 18.7397 34.6122 18.7397 33.6588C18.7825 33.0616 19.2431 32.5784 19.8368 32.5072C19.9393 32.5031 20.0409 32.528 20.13 32.5791C20.219 32.6301 20.2918 32.7052 20.3402 32.7957C20.7901 33.6054 21.2211 34.072 21.4194 34.072C21.6165 34.072 21.7791 33.8025 22.1021 32.6342L24.4623 23.9411L22.7646 23.9387C22.7065 23.7768 22.7013 23.6005 22.7497 23.4354C22.7981 23.2703 22.8977 23.1248 23.0341 23.0198H24.7235C25.0287 21.9572 25.4466 20.9302 25.9678 19.9567C26.3137 19.2076 26.8592 18.5682 27.5444 18.1085C28.2296 17.6488 29.0282 17.3866 29.8525 17.3506C31.2012 17.3506 31.758 17.9977 31.758 18.8252C31.755 19.1475 31.6375 19.4581 31.4266 19.7017C31.2156 19.9453 30.9249 20.1059 30.6064 20.1549V20.1549Z" fill="#444444"/>
<path d="M38.9942 33.5746V33.5747C38.9944 34.1695 38.8773 34.7586 38.6498 35.3083C38.4222 35.8579 38.0886 36.3573 37.668 36.778C37.2474 37.1987 36.7481 37.5324 36.1985 37.7601C35.6489 37.9878 35.0599 38.105 34.465 38.105H16.0292C14.828 38.105 13.676 37.6278 12.8266 36.7784C11.9772 35.929 11.5 34.777 11.5 33.5757V16.0292C11.5 14.828 11.9772 13.676 12.8266 12.8266C13.676 11.9772 14.828 11.5 16.0292 11.5H34.465C35.666 11.5 36.8179 11.977 37.6673 12.8262C38.5166 13.6753 38.9939 14.827 38.9942 16.028C38.9942 16.0281 38.9942 16.0281 38.9942 16.0282V33.5746ZM30.6064 19.2599H30.6446L30.6824 19.2541C31.1182 19.1871 31.5159 18.9673 31.8045 18.634C32.0932 18.3008 32.2539 17.8757 32.258 17.4349L32.258 17.4349V17.4302C32.258 16.8994 32.0753 16.3811 31.6374 16.0038C31.2091 15.6347 30.6004 15.4556 29.8525 15.4556H29.8416L29.8307 15.4561C28.9147 15.4961 28.0273 15.7875 27.2659 16.2983C26.5086 16.8063 25.9049 17.5119 25.5202 18.3384C25.0449 19.2281 24.653 20.1611 24.3515 21.1248H23.0341H22.8639L22.7291 21.2286C22.5089 21.3981 22.3481 21.633 22.2699 21.8997C22.1917 22.1663 22.2001 22.4509 22.2939 22.7125L22.4125 23.0432L22.7639 23.0437L23.8087 23.0452L21.6201 31.106C21.62 31.1064 21.6199 31.1067 21.6198 31.1071C21.5026 31.531 21.4122 31.8142 21.34 32.0011C21.1824 31.8165 20.9865 31.534 20.7789 31.1608C20.6863 30.9894 20.5477 30.8472 20.3786 30.7502C20.208 30.6525 20.0134 30.6048 19.817 30.6126L19.797 30.6134L19.7772 30.6157C18.9456 30.7155 18.3009 31.3921 18.241 32.2281L18.2397 32.2459V32.2638C18.2397 32.9249 18.5629 33.4196 19.0259 33.7292C19.4697 34.0259 20.0289 34.1482 20.5563 34.1482V34.1484L20.57 34.148C21.2285 34.1299 21.8737 33.9584 22.4543 33.6471C23.0348 33.3358 23.5347 32.8932 23.9141 32.3547L23.923 32.3421L23.9311 32.329C24.5363 31.3465 24.9964 30.2819 25.2973 29.1679C25.6905 27.925 26.0508 26.6524 26.4152 25.365C26.6329 24.5959 26.8521 23.8215 27.0808 23.0449H28.7388H28.8953L29.0238 22.9558C29.5051 22.6219 29.7037 21.9978 29.4868 21.4455L29.362 21.128L29.0208 21.1283L27.6134 21.13C27.8836 20.1576 28.2197 19.2048 28.6192 18.2755C28.808 17.847 28.9778 17.5548 29.1127 17.3785C29.1296 17.3564 29.1453 17.3371 29.1596 17.3202C29.1677 17.3304 29.1763 17.3417 29.1854 17.3542C29.3024 17.5156 29.457 17.8246 29.6007 18.3668L29.6005 18.3668L29.6044 18.38C29.658 18.562 29.7434 18.7763 29.9008 18.95C30.0762 19.1435 30.3175 19.2599 30.6064 19.2599ZM21.2168 32.2586C21.2168 32.2584 21.218 32.2568 21.2205 32.254C21.2181 32.2573 21.2168 32.2587 21.2168 32.2586ZM21.5453 32.202C21.5509 32.2047 21.5538 32.2066 21.5538 32.2069C21.5539 32.2071 21.5511 32.2058 21.5453 32.202ZM29.2613 17.2216C29.2613 17.2217 29.2602 17.2224 29.2582 17.2235C29.2603 17.2221 29.2613 17.2215 29.2613 17.2216Z" fill="url(#paint2_linear_118_44)" stroke="url(#paint3_linear_118_44)"/>
<defs>
<linearGradient id="paint0_linear_118_44" x1="25.0282" y1="-8.40329" x2="25.0282" y2="57.7026" gradientUnits="userSpaceOnUse">
<stop offset="0.0260417" stop-color="#418AFF"/>
<stop offset="0.473958" stop-color="#2D7AF5"/>
<stop offset="1" stop-color="#114DAC"/>
</linearGradient>
<linearGradient id="paint1_linear_118_44" x1="31.0811" y1="2.02703" x2="21.6216" y2="43.9189" gradientUnits="userSpaceOnUse">
<stop stop-color="#C7C7C7"/>
<stop offset="0.380208" stop-color="#CAC2C2"/>
<stop offset="1" stop-color="#D5D5D5"/>
</linearGradient>
<linearGradient id="paint2_linear_118_44" x1="25.2471" y1="11" x2="25.2471" y2="38.605" gradientUnits="userSpaceOnUse">
<stop stop-color="#EBEBEB"/>
<stop offset="1" stop-color="#D9D9D9"/>
</linearGradient>
<linearGradient id="paint3_linear_118_44" x1="32.5444" y1="14.3665" x2="22.5985" y2="31.477" gradientUnits="userSpaceOnUse">
<stop stop-color="white"/>
<stop offset="1" stop-color="white" stop-opacity="0"/>
</linearGradient>
</defs>
</svg>
