<?xml version="1.0" encoding="utf-8"?>
<!-- Generator: Adobe Illustrator 26.0.0, SVG Export Plug-In . SVG Version: 6.00 Build 0)  -->
<svg version="1.1" id="Capa_1" xmlns="http://www.w3.org/2000/svg" xmlns:xlink="http://www.w3.org/1999/xlink" x="0px" y="0px"
	 viewBox="0 0 512 512" style="enable-background:new 0 0 512 512;" xml:space="preserve">
<style type="text/css">
	.st0{clip-path:url(#SVGID_00000129177723552843684490000008685343294058927028_);}
	.st1{fill:url(#SVGID_00000076561344549802140040000015654960689755662490_);}
	.st2{opacity:0.35;}
	.st3{opacity:0.5;fill:#C8C8C8;enable-background:new    ;}
	.st4{opacity:0.5;fill-rule:evenodd;clip-rule:evenodd;fill:#C8C8C8;enable-background:new    ;}
	.st5{opacity:0.5;fill:#FFFFFF;enable-background:new    ;}
	.st6{opacity:0.5;fill:#F8AF45;enable-background:new    ;}
	.st7{fill:#C1C1C1;fill-opacity:0.59;}
	.st8{fill:#C9C5C5;}
	.st9{fill-rule:evenodd;clip-rule:evenodd;fill:#C9C5C5;}
	.st10{fill:#FFFFFF;}
	.st11{fill-rule:evenodd;clip-rule:evenodd;fill:url(#SVGID_00000045592890635526706330000016950629586505792149_);}
	.st12{fill:#E4E4E4;}
	.st13{fill:#C1C1C1;fill-opacity:0.6;}
	.st14{fill:#A00045;}
	.st15{fill-rule:evenodd;clip-rule:evenodd;fill:#A00045;}
	.st16{fill:#FF006E;}
	.st17{fill:url(#SVGID_00000056413403168610345290000006736155215882541711_);}
	.st18{fill-rule:evenodd;clip-rule:evenodd;fill:url(#SVGID_00000160185688389958882800000003381711922095902344_);}
	.st19{fill:#CA1362;}
	.st20{fill:#C1C1C1;fill-opacity:0.37;}
	.st21{fill:#ECA817;}
	.st22{fill-rule:evenodd;clip-rule:evenodd;fill:#ECA817;}
	.st23{fill:url(#SVGID_00000048490417364043044220000007104157577933900715_);}
	.st24{fill-rule:evenodd;clip-rule:evenodd;fill:url(#SVGID_00000028288501483225861530000010981825210111337661_);}
	.st25{fill:#FFB93A;}
	.st26{fill:#4C129D;}
	.st27{fill-rule:evenodd;clip-rule:evenodd;fill:#4C129D;}
	.st28{fill:url(#SVGID_00000134220864195881883340000018045700195927682491_);}
	.st29{fill-rule:evenodd;clip-rule:evenodd;fill:url(#SVGID_00000101797463373564989890000001933763269137546917_);}
	.st30{fill:#641BCC;}
	.st31{fill:#244D8F;stroke:#244D8F;stroke-width:2;}
	.st32{fill:url(#SVGID_00000156565778880618896560000000606941236484331444_);}
	.st33{fill:none;stroke:url(#SVGID_00000170244668331289204730000004005458625723611800_);stroke-width:2;}
	.st34{fill:#3478E4;}
	.st35{clip-path:url(#SVGID_00000090998140694752096810000011699034529309697705_);}
	.st36{fill:url(#SVGID_00000142176414353237247380000016478187799616789158_);}
	.st37{fill-rule:evenodd;clip-rule:evenodd;fill:url(#SVGID_00000010996293259564620340000008839440216460541117_);}
	.st38{fill:url(#SVGID_00000117638564913718768140000010711604313947463336_);}
	.st39{fill-rule:evenodd;clip-rule:evenodd;fill:url(#SVGID_00000154410193547723516020000007573501321318300555_);}
	.st40{fill:url(#SVGID_00000075143438980057780760000010778357237341953176_);}
	.st41{fill-rule:evenodd;clip-rule:evenodd;fill:url(#SVGID_00000040547891875482171350000007363938013259617460_);}
	.st42{fill:url(#SVGID_00000134221381152467425240000000216362913493250442_);}
	.st43{fill-rule:evenodd;clip-rule:evenodd;fill:url(#SVGID_00000088103727187343280260000009908161769856736174_);}
	.st44{fill:url(#SVGID_00000034086160169654300360000004384138860952203427_);}
	.st45{fill:none;stroke:url(#SVGID_00000163783592106264771720000013274892377993718708_);stroke-width:2;}
	.st46{clip-path:url(#SVGID_00000018207390401246552450000004503024542199921062_);}
	.st47{fill:url(#SVGID_00000076583457975391673220000012673949800675569542_);}
	.st48{fill-rule:evenodd;clip-rule:evenodd;fill:url(#SVGID_00000182486249349010859830000017035740111651038398_);}
	.st49{fill:url(#SVGID_00000075150898485461146470000003024945932882734236_);}
	.st50{fill-rule:evenodd;clip-rule:evenodd;fill:url(#SVGID_00000121258345470052467040000012312838509428105915_);}
	.st51{fill:url(#SVGID_00000164478113744495867180000007336879150324750006_);}
	.st52{fill-rule:evenodd;clip-rule:evenodd;fill:url(#SVGID_00000049216345537451834060000011512207109537133441_);}
	.st53{fill:url(#SVGID_00000109708731046206444930000017169830010763010441_);}
	.st54{fill-rule:evenodd;clip-rule:evenodd;fill:url(#SVGID_00000121281407381680394110000015369171904984334722_);}
	.st55{fill:url(#SVGID_00000029012645110100389410000010712359459034060471_);}
	.st56{fill:none;stroke:url(#SVGID_00000129187737208994888460000015759600333297358231_);stroke-width:2;}
	.st57{clip-path:url(#SVGID_00000183232892249294271330000017562018395188959157_);}
	.st58{fill:url(#SVGID_00000088112464614900014860000001783223690932462518_);}
	.st59{fill:url(#SVGID_00000092419707438484028410000016248492581856256675_);}
	.st60{fill:url(#SVGID_00000142888193228345366490000015031698827707361441_);}
	.st61{fill:url(#SVGID_00000092442909878764503850000013145193192056983965_);}
	.st62{fill:url(#SVGID_00000007407009429450104780000008050830863484191379_);}
	.st63{fill:url(#SVGID_00000126288070771209318200000012416615764821677709_);}
	.st64{fill:url(#SVGID_00000102526630202081562130000016830934802477683105_);}
	.st65{fill:url(#SVGID_00000044135924067613345340000010082317140416505012_);}
	.st66{fill:url(#SVGID_00000061472362325330890290000005031395466551344049_);}
	.st67{fill:url(#SVGID_00000153664758081469768480000010160180600881023165_);}
	.st68{fill:url(#SVGID_00000098910184273952298540000004632628649440712580_);}
	.st69{fill:url(#SVGID_00000090975530105953417490000009245891232164424322_);}
	.st70{fill:url(#SVGID_00000098943510537840256900000013811804471554243747_);}
	.st71{fill:url(#SVGID_00000129171858637202553750000013792886885223459229_);}
	.st72{fill:url(#SVGID_00000031187798400305803920000009353044101374010008_);}
	.st73{fill:#FFFFFF;fill-opacity:0.8;}
	.st74{fill:url(#SVGID_00000135689692912780846750000017790716071749347242_);}
	.st75{fill:url(#SVGID_00000084503073834738372960000004406313204514037937_);}
	.st76{fill:url(#SVGID_00000088811220536228224600000017806240357094839440_);}
	.st77{fill:url(#SVGID_00000179647051695453931340000004539971546990865807_);}
	.st78{fill:url(#SVGID_00000011736718399639637510000007042759713537835420_);}
	.st79{fill:url(#SVGID_00000014620302518557928060000000300979903058162578_);}
	.st80{fill-rule:evenodd;clip-rule:evenodd;fill:url(#SVGID_00000157272311491517514510000008866464643831141051_);}
	.st81{fill:#474747;}
	.st82{fill:#919296;}
	.st83{fill:#ED4028;}
	.st84{fill:#EF5A28;}
	.st85{fill:#F17028;}
	.st86{fill:#F38028;}
	.st87{fill:#F9A325;}
	.st88{fill:#FBB723;}
	.st89{fill:#1E1E1E;}
	.st90{fill:url(#SVGID_00000065047958644957877130000008697598442872609709_);}
	.st91{fill:url(#SVGID_00000162314763227870118300000014076882686977584548_);}
	.st92{fill:url(#SVGID_00000160191113554069673250000006830935453588838331_);}
	.st93{fill:url(#SVGID_00000023268519713631208410000010769358583848445094_);}
	.st94{fill:url(#SVGID_00000004517758752503043630000017703923861992862365_);}
	.st95{fill:url(#SVGID_00000136392362993206732300000000936582656617364388_);}
	.st96{clip-path:url(#SVGID_00000004524273056568131320000003678769239669798817_);}
	.st97{fill:url(#SVGID_00000114064013869006927040000004916042270161852546_);}
	.st98{fill:url(#SVGID_00000088128297286181680390000000957431200434783118_);}
	.st99{fill:url(#SVGID_00000085940582987553290540000002578407248624315057_);}
	.st100{fill:url(#SVGID_00000134240762602877803510000004654619167164579459_);}
	.st101{fill:url(#SVGID_00000110431835948994660990000010365893394099527316_);}
	.st102{fill:url(#SVGID_00000107561615780276091770000003167379228400241043_);}
	.st103{fill:url(#SVGID_00000080914981593554784820000002972962511611784842_);}
	.st104{fill:url(#SVGID_00000147940476961056763140000009446062323624085681_);}
	.st105{fill:url(#SVGID_00000007386190626349577780000013122595279660575364_);}
	.st106{fill:url(#SVGID_00000098933082144040468440000009973510746943821957_);}
	.st107{fill:url(#SVGID_00000171717821457234193630000009521138501414978732_);}
	.st108{fill:url(#SVGID_00000083789054867212365140000015974833230640299404_);}
	.st109{fill:url(#SVGID_00000072998346425384043660000008359206274972759475_);}
	.st110{fill:url(#SVGID_00000068634928199877945040000012802981888099350917_);}
	.st111{fill:url(#SVGID_00000114761845342304689010000010836535656032648114_);}
	.st112{fill:url(#SVGID_00000129192289911373235780000018344987676825354405_);}
	.st113{fill:url(#SVGID_00000011718701274091161670000004941180047671345578_);}
	.st114{fill:url(#SVGID_00000013915380263048125960000006973609845601071030_);}
	.st115{fill:url(#SVGID_00000018233854725660410130000004203249320552962176_);}
	.st116{fill:url(#SVGID_00000059298106450205151340000017891478464423032195_);}
	.st117{fill:url(#SVGID_00000053504057230396816490000003144267917432802205_);}
	.st118{fill-rule:evenodd;clip-rule:evenodd;fill:url(#SVGID_00000075131240633615897010000010110137589303957143_);}
	.st119{fill:url(#SVGID_00000096748707995361767580000000678099549469093551_);}
	.st120{fill:url(#SVGID_00000085968998957351159740000000566612889605593018_);}
	.st121{fill:url(#SVGID_00000130616025444612040480000010427541855715749534_);}
	.st122{fill:url(#SVGID_00000008845877688085853070000008899376418569070214_);}
	.st123{fill:url(#SVGID_00000007389297979549915830000014430363762010048944_);}
	.st124{fill:url(#SVGID_00000155842443773942671490000007073513997770939524_);}
	.st125{fill:#231F20;}
	.st126{fill:url(#SVGID_00000174587653094568860290000001527201372364205747_);}
	.st127{fill:url(#SVGID_00000156559241505867743080000004374170606600429756_);}
	.st128{fill:url(#SVGID_00000008862085943327243410000016246778087000389252_);}
	.st129{fill:url(#SVGID_00000171714634866438174000000013096420096899546811_);}
	.st130{fill:url(#SVGID_00000032629436712206357520000012167975613122229918_);}
	.st131{fill:url(#SVGID_00000094576915522173836110000004655492459381102759_);}
	.st132{fill:url(#SVGID_00000144300599894764615070000002535186150943622805_);}
	.st133{fill:url(#SVGID_00000109031584598877468770000016077368981085150398_);}
	.st134{fill:url(#SVGID_00000044165093429062320890000006254038705709298612_);}
	.st135{fill:url(#SVGID_00000029752882525544810520000002005509090032944555_);}
	.st136{fill:url(#SVGID_00000015348192680547613330000004837692013970781094_);}
	.st137{fill:url(#SVGID_00000041982846319526943870000008006129707607111085_);}
	.st138{fill:url(#SVGID_00000018938737806731026230000014797988575827036062_);}
	.st139{fill:url(#SVGID_00000011031259141208637530000008540346602676257950_);}
	.st140{fill:url(#SVGID_00000098205600284359630840000011148420008477405058_);}
	.st141{fill:url(#SVGID_00000153707248211061035690000004799681431614558127_);}
	.st142{fill:url(#SVGID_00000178918619140781819210000005768722741276805555_);}
	.st143{fill:url(#SVGID_00000153676430116374418410000003721040876643016349_);}
	.st144{fill:url(#SVGID_00000075871165713425952490000010862298955040009363_);}
	.st145{fill:url(#SVGID_00000167388260517252612280000008212521272027644816_);}
	.st146{fill:url(#SVGID_00000092427349759506075950000014553456931482377616_);}
	.st147{fill-rule:evenodd;clip-rule:evenodd;fill:url(#SVGID_00000116955773781197138980000009689179363783767198_);}
	.st148{fill:url(#SVGID_00000095338725249836629050000001647568197322464680_);}
	.st149{fill:url(#SVGID_00000127752038105172885290000005974613731482753449_);}
	.st150{fill:url(#SVGID_00000177461185744769308210000001718646059651965838_);}
	.st151{fill:url(#SVGID_00000155840801715940502170000000947540430607722122_);}
	.st152{fill:url(#SVGID_00000047043541846627107360000011935553280351480203_);}
	.st153{fill:url(#SVGID_00000016788352877274261330000015132586139739498389_);}
	.st154{fill:url(#SVGID_00000097502190025245797220000000069604948113205392_);}
	.st155{fill:url(#SVGID_00000117645520233731511640000004920386159153014699_);}
	.st156{fill:url(#SVGID_00000075879077898983556510000000353083174913208731_);}
	.st157{fill:url(#SVGID_00000167369285890280495870000008470172017707076271_);}
	.st158{fill:url(#SVGID_00000123407282587707830790000012323105267129490819_);}
	.st159{fill:url(#SVGID_00000142890604075683463190000004093038348165617339_);}
	.st160{fill-rule:evenodd;clip-rule:evenodd;fill:#FFFFFF;fill-opacity:0.49;}
	.st161{fill:url(#SVGID_00000139973023657928816740000011511252271399782847_);}
	.st162{fill:url(#SVGID_00000104665163200946728020000013290102703791668375_);}
	.st163{fill:url(#SVGID_00000126316078301556645170000001499179312592584624_);}
	.st164{fill:#F5F5F5;}
	.st165{fill:url(#SVGID_00000008131551859784369470000014841022045861819551_);}
	.st166{fill:#F9F9F9;}
	.st167{fill:url(#SVGID_00000124878845789803775250000000573428634723246015_);}
	.st168{fill:url(#SVGID_00000101070568597704763440000009588771729345358002_);}
	.st169{fill:url(#SVGID_00000098925887158389266110000003518743198306622134_);}
	.st170{fill:url(#SVGID_00000096047054671115159560000007709578831050530203_);}
	.st171{fill:url(#SVGID_00000122692578522317159110000002078428726005348015_);}
	.st172{fill:url(#SVGID_00000150100337981045134630000015488743167752426881_);}
	.st173{fill:url(#SVGID_00000133519652018628848470000006551164548950756003_);}
	.st174{fill:url(#SVGID_00000129193011384067396780000015827451063124365964_);}
	.st175{fill:url(#SVGID_00000023962061850997141660000013887752209840787606_);}
	.st176{fill:url(#SVGID_00000156572270179019502060000014812160829651969966_);}
	.st177{fill:url(#SVGID_00000094615802387137546140000016554701387757914255_);}
	.st178{fill:url(#SVGID_00000073690358445674805130000013242334774373574033_);}
	.st179{fill:url(#SVGID_00000016049848925543723520000003350307878017144749_);}
	.st180{fill:url(#SVGID_00000052066963162252373440000004164159917481615750_);}
	.st181{fill:url(#SVGID_00000080180920507024081950000007884315541241713335_);}
	.st182{fill:url(#SVGID_00000075865915555631042420000008701400926951487144_);}
	.st183{fill:url(#SVGID_00000073721763773482044950000004681171183804145825_);}
	.st184{fill:url(#SVGID_00000149348973780198802120000000280416875460725390_);}
	.st185{fill:url(#SVGID_00000160909011770659907880000007759072468448341904_);}
	.st186{fill:url(#SVGID_00000011712074439865762460000012888525250652376977_);}
	.st187{fill:url(#SVGID_00000052102725356837885810000000627954217406839691_);}
	.st188{fill:url(#SVGID_00000021098775786526644540000016018287776880658821_);}
	.st189{fill:url(#SVGID_00000033349565994028076490000009962664761349626263_);}
	.st190{fill:url(#SVGID_00000174597057891014752200000012454333158387333030_);}
	.st191{fill:url(#SVGID_00000137821081220728942990000007397879601953417862_);}
	.st192{fill:url(#SVGID_00000050655721085386797130000000235060842479481733_);}
	.st193{fill:url(#SVGID_00000080190011514680961120000011582178530718939549_);}
	.st194{fill-rule:evenodd;clip-rule:evenodd;fill:url(#SVGID_00000181768300777277672250000002428276201391212456_);}
	.st195{fill:url(#SVGID_00000145042260441825187770000005749645890472924043_);}
	.st196{fill:url(#SVGID_00000098936368345899928130000005112120955110090931_);}
	.st197{fill:url(#SVGID_00000113332322518261741980000009248687936054874504_);}
	.st198{fill:url(#SVGID_00000119092853990428446270000005220167145571677837_);}
	.st199{fill:url(#SVGID_00000130636338975915227010000004648526081245710004_);}
	.st200{fill:url(#SVGID_00000142892203130955544510000007437716423914912661_);}
	.st201{fill-rule:evenodd;clip-rule:evenodd;fill:#FFFFFF;}
	.st202{fill:url(#SVGID_00000085227501766892767330000010068980191881870265_);}
	.st203{fill:url(#SVGID_00000021812400409254729750000011802131499069710001_);}
	.st204{fill:url(#SVGID_00000155140913808003295320000007134536696841708459_);}
	.st205{fill:url(#SVGID_00000098188936188872977320000018196811441329867681_);}
	.st206{fill:url(#SVGID_00000018202388965639435350000012283762831641734550_);}
	.st207{fill:url(#SVGID_00000115510753043156664310000004522197580582561963_);}
	.st208{fill:url(#SVGID_00000152955304359222485000000004306658687770087313_);}
	.st209{fill:url(#SVGID_00000065054968366959456650000011489768809350392747_);}
	.st210{fill:url(#SVGID_00000071534070811816547400000004893911540808064957_);}
	.st211{fill:url(#SVGID_00000148661299045185871570000007000627753260894906_);}
	.st212{fill:url(#SVGID_00000054235636330693812970000012970824880246229936_);}
	.st213{fill:url(#SVGID_00000126285816019742063640000013037098187069690516_);}
	.st214{fill:url(#SVGID_00000160913173440705594640000005767768241585331627_);}
	.st215{fill:url(#SVGID_00000114787683048225539860000011825396129712091574_);}
	.st216{fill:url(#SVGID_00000150083873198699355620000002675039605970645379_);}
	.st217{fill:url(#SVGID_00000134236704857652789050000005332352095414615990_);}
	.st218{fill:url(#SVGID_00000177442121050439172320000008711661996640141451_);}
	.st219{fill:url(#SVGID_00000042729351932928380830000005301847551161990582_);}
	.st220{fill:url(#SVGID_00000147214079316281557770000017452403781710347683_);}
	.st221{fill:url(#SVGID_00000023988436623328963470000010592857018162183054_);}
	.st222{fill:url(#SVGID_00000029015270112512031230000013745381680022348443_);}
	.st223{fill:url(#SVGID_00000070805226251232742100000007898136076960990881_);}
	.st224{fill:url(#SVGID_00000020380966671314624590000011701312762357692300_);}
	.st225{fill:url(#SVGID_00000138559394695951807980000006647307607429666192_);}
	.st226{fill:url(#SVGID_00000111191537065302617910000017325509253815132561_);}
	.st227{fill:url(#SVGID_00000088125694481792465710000008124979777470142143_);}
	.st228{fill:url(#SVGID_00000145053412756259348790000016680664170750544302_);}
	.st229{fill-rule:evenodd;clip-rule:evenodd;fill:url(#SVGID_00000159432333524983931740000004020293235506958514_);}
	.st230{fill:url(#SVGID_00000170958737512988330960000003192328893048265114_);}
	.st231{fill:url(#SVGID_00000017478403319173330880000001800090941465394867_);}
	.st232{fill:url(#SVGID_00000170969034493689930810000011730759995701713829_);}
	.st233{fill:url(#SVGID_00000065759678898868778460000009716622724301248137_);}
	.st234{fill:url(#SVGID_00000132046970162025540350000017542564793128710284_);}
	.st235{fill:url(#SVGID_00000161604852854386071320000001232956088544581031_);}
	.st236{fill:url(#SVGID_00000021108498629648901690000013794384507216460431_);}
	.st237{fill:url(#SVGID_00000145017968674194746800000003583776768217228176_);}
	.st238{fill:url(#SVGID_00000182526010098396696130000011329984729075263104_);}
	.st239{fill:url(#SVGID_00000006685544554366051330000001428726366103298731_);}
	.st240{fill:url(#SVGID_00000036238215470035316880000000042778916482210476_);}
	.st241{fill:url(#SVGID_00000002352021160680886380000006994399171461398956_);}
	.st242{fill:url(#SVGID_00000103246705839199754060000017089007624916032684_);}
	.st243{fill:url(#SVGID_00000085948119058318960140000010223205831193742728_);}
	.st244{fill:url(#SVGID_00000093145649125010686050000017597171932708405396_);}
	.st245{fill:url(#SVGID_00000079451984185224229470000016673944586039899814_);}
	.st246{fill:url(#SVGID_00000107549722886734217140000003756138414132038790_);}
	.st247{fill:url(#SVGID_00000005227840951901250220000002276533336305951149_);}
	.st248{fill:url(#SVGID_00000148627682108919726790000018050913866038753420_);}
	.st249{fill:url(#SVGID_00000090267785474976169560000007733704391380058800_);}
	.st250{fill:url(#SVGID_00000037679007569919373320000008325031448830705552_);}
	.st251{fill:url(#SVGID_00000000905140413514747460000006574806689913953195_);}
	.st252{fill:url(#SVGID_00000075841503115369866560000017751196409193491118_);}
	.st253{fill:url(#SVGID_00000156584948308167773780000013408772574428543638_);}
	.st254{fill:url(#SVGID_00000157998487762944184460000011672310148616290193_);}
	.st255{fill:url(#SVGID_00000171678055448689080610000016816864421693368504_);}
	.st256{fill:url(#SVGID_00000088102169491568655580000002767250462160678305_);}
	.st257{fill-rule:evenodd;clip-rule:evenodd;fill:url(#SVGID_00000145053022414991166690000009262483593121263806_);}
	.st258{fill:url(#SVGID_00000005250126595199905800000000883374401440735115_);}
	.st259{fill:url(#SVGID_00000096741306847496786670000005156314202024730514_);}
	.st260{fill:url(#SVGID_00000118387593677972232010000015530576355258805428_);}
	.st261{fill:url(#SVGID_00000161629135357336247270000005682486789649669526_);}
	.st262{fill:url(#SVGID_00000150785273889660896990000011061197986606289571_);}
	.st263{fill:url(#SVGID_00000070119779509022285620000005462507614375595928_);}
	.st264{fill:url(#SVGID_00000020361788953452867420000009902276042679079320_);}
	.st265{fill:url(#SVGID_00000018237676054231456050000005783397704037625003_);}
	.st266{fill:url(#SVGID_00000111151490266277899290000003070037010029584537_);}
	.st267{fill:url(#SVGID_00000096053040283512694390000009039831514695895214_);}
	.st268{fill:url(#SVGID_00000054228441654878807350000008935212448765849732_);}
	.st269{fill:url(#SVGID_00000011029841409088831180000016484172259326410670_);}
	.st270{fill:url(#SVGID_00000020377508784957746220000009684488836946095237_);}
	.st271{fill:url(#SVGID_00000085971099715552918170000005301754211653228215_);}
	.st272{fill:url(#SVGID_00000070104402478529254300000003033394221009331873_);}
	.st273{fill:url(#SVGID_00000121969833906658147320000007313667066281696653_);}
</style>
<g>
	<g>
		<path class="st10" d="M349.78,347.82h0.02c0.68-2.25,1.02-4.68,1.02-7.24v-8.19c0-13.23-8.92-22.11-22.2-22.11h-36.1
			c-0.97,0-1.93,0.05-2.87,0.15c-2.56-1.19-5.32-1.81-8.06-1.81c-3.23,0-6.39,0.85-9.16,2.44c-2.15-0.84-4.44-1.27-6.78-1.27
			c-3.89,0-7.74,1.2-11.14,3.47l-0.46,0.31l-0.43,0.33c-1.64,1.27-3.02,2.77-4.13,4.43c-2.6-5.36-7.69-9.22-14.11-10.23
			c-1.48-0.29-2.71-0.33-3.52-0.33c-5.5,0-10.44,2.17-13.89,5.96c-1.65-0.4-3.38-0.63-5.18-0.69c-3.45-3.6-8.36-5.61-13.86-5.61
			c-5.49,0-10.29,2.02-13.77,5.62c-9.53,0.34-16.87,5.65-19.63,14.14c-3.57,3.44-5.59,8.26-5.59,13.47s1.83,9.57,5.1,12.97
			c-0.94,2.49-1.42,5.2-1.42,8.08v4.43c0,0.2,0,0.4,0.01,0.6c-2.4,3.19-3.69,7.13-3.69,11.35c0,4.22,1.25,7.94,3.52,11.08
			c-1.53,2.71-2.35,5.81-2.35,9.06c0,0.88,0.05,2.23,0.4,3.87c1.69,9.02,9.3,15.32,18.53,15.32h1.82l0.97-0.16
			c7.04-0.95,13.1-2.51,18.45-4.77c0.34,0.19,0.67,0.38,0.98,0.56l0.39,0.23l0.41,0.2c2.63,1.31,5.36,2.02,8.13,2.1
			c2.32,0.99,4.85,1.51,7.37,1.51c4.18,0,8.22-1.37,11.68-3.96c1.91-1.38,3.77-2.83,5.54-4.34c1.18,1.09,2.4,2.16,3.65,3.2l0.13,0.1
			l0.25,0.2c3.56,2.76,7.94,4.29,12.34,4.29c2.29,0,4.51-0.4,6.59-1.16c3.43,0.96,7.44,1.5,11.2,1.5c5.79,0,10.98-1.55,15.18-4.5
			c0.59,0.05,1.18,0.07,1.78,0.07h1.09l0.63-0.06c4.52-0.39,9.83-1,14.96-1.74c2.45,2.69,5.69,4.58,9.38,5.45
			c3.09,0.77,6.74,1.2,10.29,1.2c13.02,0,22.51-6.84,25.37-18.29c2.61-9.92,3.27-29.51,3.43-40.3
			C352.12,354.73,351.36,351.06,349.78,347.82z M343.67,397.78c-1.1,4.45-5.28,14.44-20.39,14.44c-3.12,0-6.41-0.39-9.08-1.06
			c-3.63-0.85-6.56-3.02-8.34-5.98c-6.61,1.01-13.02,1.75-17.66,2.15l-0.42,0.04h-0.88c-1.1,0-2.17-0.12-3.18-0.35
			c-3.51,3.1-8.22,4.78-13.75,4.78c-3.64,0-7.69-0.6-10.83-1.61l-0.28-0.09l-0.27-0.1c-0.03-0.01-0.06-0.03-0.09-0.04
			c-1.94,0.96-4.1,1.5-6.32,1.5c-3.26,0-6.52-1.14-9.19-3.21l-0.13-0.1l-0.13-0.11c-2.42-2.01-4.68-4.1-6.78-6.28
			c-2.7,2.58-5.61,4.99-8.74,7.24c-2.57,1.94-5.55,2.96-8.63,2.96c-2.21,0-4.34-0.53-6.25-1.51c-0.2,0.01-0.41,0.01-0.61,0.01
			c-2.14,0-4.28-0.53-6.35-1.56l-0.28-0.14l-0.26-0.15c-0.99-0.58-2.1-1.18-3.35-1.82c-5.41,2.6-11.79,4.38-19.32,5.4l-0.68,0.1
			h-1.42c-6.75,0-12.32-4.66-13.51-11.19c-0.25-1.15-0.29-2.11-0.29-2.86c0-3.72,1.47-7.04,3.92-9.43
			c-3.11-2.42-5.09-6.28-5.09-10.7c0-3.85,1.43-7.22,3.81-9.6c-0.09-0.76-0.13-1.55-0.13-2.35v-4.43c0-3.09,0.69-5.86,1.96-8.18
			c-0.29-0.73-0.53-1.5-0.71-2.3c-3.02-2.39-4.93-6.18-4.93-10.57s1.93-8.21,4.97-10.6c1.78-7.27,7.81-11.89,16.1-11.89h1.42
			c2.41-3.43,6.41-5.6,11.36-5.6s9.06,2.15,11.43,5.6h1.6c2.96,0,5.64,0.59,7.93,1.66c2.28-4.25,6.67-6.92,11.96-6.92
			c0.69,0,1.57,0.03,2.63,0.24c6.96,1.06,11.75,6.53,11.75,13.56v0.57h5.32c0.37-3.65,2.21-7,5.21-9.32l0.29-0.23l0.31-0.21
			c2.54-1.71,5.41-2.61,8.28-2.61c2.59,0,5.08,0.74,7.21,2.09c2.42-2.08,5.47-3.25,8.73-3.25c2.32,0,4.67,0.61,6.81,1.78
			c0.12,0.06,0.24,0.12,0.36,0.19c1.19-0.21,2.45-0.32,3.77-0.32h36.1c10.36,0,17.06,6.66,17.06,16.98v8.18
			c0,2.88-0.53,5.48-1.52,7.72c1.55,2.35,2.85,5.72,2.77,10.37C346.81,367.18,346.24,388.06,343.67,397.78z"/>
		<path class="st10" d="M254.29,391.86l-0.01,0.01c-0.69-0.5-1.37-1.02-2.03-1.54s-1.31-1.06-1.94-1.61
			c-1.89-1.64-3.64-3.38-5.27-5.24c-1.09-1.24-2.12-2.53-3.09-3.88c-0.49-0.67-0.97-1.36-1.43-2.06c2.64-4.76,4.74-10.05,6.29-15.84
			c0.78-2.89,1.42-5.91,1.92-9.04s0.87-6.39,1.09-9.76h2.02c1.84,0,3.03-1.35,3.03-3.45s-1.21-3.53-3.03-3.53h-17.87
			c0.1-0.43,0.2-0.86,0.29-1.28c0.06-0.28,0.12-0.54,0.18-0.81c0.08-0.34,0.15-0.69,0.22-1.02c0.11-0.5,0.21-0.99,0.3-1.48
			c0.06-0.31,0.13-0.62,0.18-0.92c0.1-0.52,0.19-1.02,0.28-1.52c0.04-0.24,0.09-0.5,0.13-0.74c0.12-0.73,0.23-1.43,0.33-2.12
			c0,0,0,0,0-0.01c0.05-0.2,0.07-0.37,0.08-0.52c0.01-0.16,0.01-0.29,0.01-0.42c0-2-1.18-3.22-3.32-3.44
			c-0.31-0.09-0.53-0.09-0.79-0.09c-2.01,0-3.17,1.09-3.36,3.13c-0.04,0.46-0.1,0.94-0.15,1.45c-0.02,0.14-0.04,0.29-0.05,0.43
			c-0.04,0.38-0.09,0.75-0.14,1.15c-0.03,0.2-0.06,0.41-0.09,0.61c-0.05,0.36-0.1,0.72-0.15,1.09c-0.04,0.24-0.08,0.48-0.11,0.73
			c-0.06,0.36-0.11,0.72-0.17,1.09c-0.04,0.26-0.1,0.54-0.14,0.81c-0.06,0.36-0.13,0.72-0.2,1.09c-0.05,0.29-0.12,0.58-0.18,0.88
			c-0.07,0.37-0.15,0.73-0.23,1.11c-0.07,0.3-0.14,0.62-0.21,0.92c-0.08,0.37-0.17,0.74-0.26,1.12c-0.08,0.32-0.16,0.64-0.24,0.97
			c-0.1,0.38-0.19,0.75-0.29,1.13c-0.09,0.33-0.18,0.66-0.28,0.99c-0.11,0.38-0.21,0.76-0.33,1.14c-0.1,0.34-0.21,0.67-0.32,1.01
			c-0.12,0.38-0.24,0.76-0.37,1.15c-0.11,0.34-0.24,0.68-0.36,1.02c-0.13,0.38-0.27,0.76-0.41,1.15c-0.13,0.34-0.26,0.68-0.4,1.02
			c-0.15,0.38-0.3,0.76-0.46,1.14c-0.14,0.34-0.29,0.68-0.44,1.02c-0.17,0.37-0.33,0.75-0.51,1.12c-0.16,0.34-0.32,0.67-0.49,1
			c-0.18,0.37-0.37,0.74-0.56,1.1c-0.17,0.33-0.35,0.66-0.54,0.98c-0.2,0.36-0.4,0.71-0.61,1.07c-0.19,0.32-0.39,0.64-0.59,0.96
			c-0.31,0.49-0.61,0.98-0.93,1.45c-0.08,0.13-0.15,0.25-0.22,0.37c-0.14-0.28-0.32-0.53-0.52-0.77c-0.02-0.03-0.04-0.07-0.06-0.09
			c-0.04-0.05-0.08-0.1-0.13-0.14c-0.04-0.04-0.08-0.08-0.11-0.12c0,0-0.01,0-0.01-0.01c-0.23-0.22-0.49-0.4-0.77-0.57
			c-0.07-0.04-0.14-0.08-0.21-0.12c-0.28-0.15-0.59-0.29-0.92-0.39c-0.01,0-0.02-0.01-0.04-0.01c-0.35-0.11-0.73-0.18-1.14-0.24
			c-0.1-0.01-0.2-0.03-0.3-0.04c-0.42-0.05-0.85-0.08-1.32-0.08c0,0,0,0,0,0h-10.26v-3.06h9.67c1.65,0,2.97-0.28,3.98-0.85
			c0.67-0.38,1.2-0.89,1.6-1.53c0.59-0.97,0.88-2.24,0.88-3.82l0,0v-3.16h2.74c0.19,0,0.37-0.02,0.54-0.05
			c1.02-0.21,1.69-1.02,1.86-2.24c0.03-0.2,0.04-0.42,0.04-0.65s-0.01-0.44-0.04-0.65c-0.2-1.43-1.08-2.3-2.4-2.3h-2.74v-2.99
			c0-4.29-2.05-6.29-6.46-6.29h-9.67v-2.9c0-0.31-0.04-0.63-0.13-0.94c-0.1-0.31-0.26-0.61-0.51-0.87
			c-0.49-0.52-1.33-0.89-2.72-0.89c-0.52,0-0.99,0.06-1.4,0.19c-1.24,0.37-1.96,1.26-1.96,2.51v2.9h-9.43c-4.35,0-6.37,2-6.37,6.29
			v2.99h-2.16c-1.02,0-1.79,0.67-2.11,1.74c-0.11,0.36-0.16,0.76-0.16,1.2c0,1.76,0.91,2.94,2.28,2.94h2.16v3.16l0,0
			c0,1.59,0.28,2.86,0.87,3.82c0.39,0.64,0.91,1.15,1.58,1.53c0.99,0.57,2.3,0.85,3.93,0.85h9.43v3.06h-10.34
			c-3.13,0-5.05,1.05-5.82,3.19c-0.26,0.71-0.38,1.55-0.38,2.51v4.43l0,0c0,0.47,0.03,0.91,0.1,1.33c0.13,0.82,0.38,1.53,0.77,2.11
			c0.96,1.46,2.73,2.18,5.34,2.18h6.95c-0.25,0.48-0.51,0.96-0.78,1.44c-0.35,0.62-0.7,1.24-1.08,1.86h-12.28
			c-0.21,0-0.41,0.02-0.6,0.05c-0.76,0.14-1.33,0.55-1.69,1.18c-0.27,0.48-0.41,1.08-0.41,1.79c0,1.9,1.08,3.11,2.69,3.11h7.87
			c-0.62,0.7-1.24,1.38-1.87,2.06c-0.65,0.65-1.08,1.42-1.26,2.21c-0.06,0.27-0.09,0.54-0.09,0.81l0,0l0,0
			c0,0.17,0.01,0.35,0.04,0.52c0.14,0.88,0.66,1.8,1.72,2.42c0.42,0.25,0.94,0.44,1.54,0.57c0.79,0.19,1.6,0.4,2.41,0.63
			c0.2,0.06,0.4,0.11,0.6,0.17c0.81,0.24,1.63,0.49,2.46,0.76c0.62,0.21,1.24,0.42,1.86,0.65c-0.54,0.23-1.11,0.45-1.69,0.65
			c-0.13,0.05-0.26,0.09-0.39,0.13c-0.76,0.26-1.54,0.51-2.35,0.74c-0.06,0.02-0.12,0.04-0.18,0.05c-0.84,0.23-1.72,0.44-2.62,0.64
			c-0.17,0.04-0.34,0.07-0.51,0.11c-0.89,0.18-1.8,0.35-2.74,0.49c-0.17,0.03-0.34,0.05-0.51,0.08c-0.99,0.15-1.99,0.28-3.04,0.38
			c0,0,0,0-0.01,0c-1.33,0.14-2.24,0.78-2.61,1.8c-0.06,0.17-0.11,0.35-0.14,0.54c-0.03,0.19-0.05,0.39-0.05,0.6l0,0l0,0
			c0,0.06,0,0.13,0.01,0.19c0,0.13,0.02,0.26,0.05,0.4c0.01,0.07,0.02,0.13,0.04,0.21c0.11,0.89,0.51,1.64,1.12,2.16
			s1.4,0.82,2.32,0.82h0.66c2.16-0.29,4.19-0.65,6.12-1.08c5.76-1.28,10.49-3.19,14.33-5.77c2.23,1.06,4.19,2.03,5.91,2.95
			c1.04,0.55,1.99,1.07,2.87,1.58c0.32,0.16,0.63,0.28,0.92,0.36c0.15,0.04,0.29,0.07,0.43,0.09c0.14,0.02,0.28,0.03,0.42,0.03
			c0.17,0,0.34-0.02,0.5-0.05c0.05-0.01,0.1-0.02,0.15-0.04c0.12-0.03,0.23-0.06,0.34-0.1c0.05-0.02,0.11-0.04,0.16-0.06
			c0.12-0.05,0.23-0.11,0.34-0.18c0.04-0.02,0.08-0.05,0.12-0.07c0.15-0.1,0.29-0.2,0.43-0.33c0,0,0.01-0.01,0.01-0.01
			c0.04-0.03,0.07-0.07,0.1-0.11c0.08-0.08,0.16-0.16,0.24-0.24c0.01-0.01,0.02-0.02,0.02-0.03c0.01-0.01,0.02-0.03,0.03-0.05
			c0.18-0.22,0.36-0.47,0.5-0.74c0,0,0,0,0-0.01c0.02-0.05,0.05-0.09,0.07-0.14c0.01-0.03,0.03-0.06,0.04-0.09c0,0,0,0,0,0
			c0,0,0,0,0,0c0.01,0.11,0.02,0.21,0.03,0.31c0,0.03,0.01,0.06,0.02,0.09c0.02,0.09,0.04,0.18,0.06,0.27
			c0.02,0.08,0.04,0.15,0.06,0.23c0.03,0.09,0.07,0.18,0.1,0.26c0.02,0.05,0.04,0.1,0.06,0.16c0.01,0.03,0.03,0.05,0.04,0.08
			c0.02,0.04,0.04,0.07,0.06,0.11c0.02,0.04,0.04,0.09,0.07,0.13c0.05,0.08,0.11,0.16,0.16,0.24c0.74,1.21,1.85,1.88,3.1,1.88
			c0.85,0,1.73-0.33,2.52-0.95c0.73-0.52,1.44-1.05,2.14-1.59c0.23-0.18,0.46-0.37,0.69-0.55c0.46-0.36,0.92-0.73,1.37-1.1
			c0.27-0.22,0.53-0.45,0.79-0.68c0.4-0.34,0.79-0.68,1.18-1.03c0.28-0.25,0.54-0.5,0.81-0.75c0.36-0.34,0.73-0.67,1.08-1.02
			c0.27-0.26,0.54-0.53,0.8-0.8c0.34-0.34,0.68-0.68,1.01-1.02c0.26-0.28,0.52-0.56,0.78-0.84c0.32-0.34,0.64-0.69,0.95-1.04
			c0.25-0.29,0.5-0.57,0.75-0.86c0.3-0.35,0.6-0.71,0.89-1.07c0.24-0.29,0.48-0.59,0.71-0.89c0.14-0.17,0.28-0.34,0.41-0.51
			c0.28-0.36,0.55-0.72,0.81-1.08c0.25,0.37,0.51,0.74,0.77,1.11c0.11,0.15,0.22,0.29,0.32,0.44c0.2,0.28,0.4,0.55,0.61,0.83
			c0.25,0.34,0.51,0.68,0.77,1.02c0.21,0.27,0.42,0.54,0.64,0.81c0.27,0.33,0.54,0.66,0.81,0.99c0.22,0.26,0.44,0.52,0.66,0.78
			c0.28,0.33,0.57,0.65,0.86,0.98c0.22,0.25,0.45,0.5,0.68,0.75c0.3,0.33,0.62,0.65,0.93,0.98c0.23,0.24,0.45,0.47,0.68,0.71
			c0.33,0.34,0.67,0.67,1.01,1c0.22,0.22,0.44,0.44,0.67,0.65c0.38,0.36,0.78,0.72,1.18,1.08c0.19,0.18,0.38,0.35,0.58,0.53
			c0.6,0.53,1.21,1.06,1.84,1.58c0.21,0.17,0.44,0.31,0.67,0.44c0.7,0.39,1.47,0.6,2.21,0.6c0.8,0,1.58-0.26,2.22-0.7
			c0.38-0.26,0.7-0.59,0.94-0.96c0.14-0.19,0.27-0.39,0.38-0.59c0.33-0.61,0.49-1.27,0.49-1.95c0-0.91-0.27-1.74-0.77-2.43
			C255.14,392.51,254.75,392.15,254.29,391.86z M216.17,393.24c-0.01,0.01-0.01,0.01-0.02,0.01c-0.07,0.06-0.14,0.13-0.21,0.2
			c-0.02,0.02-0.04,0.05-0.07,0.08c-0.1,0.11-0.19,0.22-0.28,0.33c-0.04,0.05-0.08,0.1-0.12,0.16c-0.12,0.17-0.22,0.35-0.31,0.53
			c-0.02-0.18-0.06-0.35-0.11-0.52c-0.01-0.05-0.03-0.09-0.05-0.14c-0.05-0.14-0.1-0.27-0.17-0.4c-0.01-0.02-0.02-0.05-0.03-0.07
			c-0.01-0.01-0.01-0.02-0.02-0.03c-0.04-0.06-0.08-0.12-0.12-0.19c-0.03-0.05-0.06-0.1-0.09-0.14c0-0.01-0.01-0.01-0.01-0.01
			c-0.17-0.22-0.37-0.43-0.61-0.62c-0.01-0.01-0.02-0.02-0.03-0.02c-0.25-0.19-0.52-0.36-0.83-0.51l-0.01-0.01
			c-0.02-0.01-0.04-0.02-0.07-0.03c-0.15-0.08-0.31-0.15-0.47-0.23c-0.06-0.03-0.13-0.06-0.2-0.1c-0.13-0.06-0.26-0.13-0.4-0.19
			c-0.08-0.04-0.16-0.07-0.23-0.11c-0.14-0.06-0.28-0.13-0.42-0.2c-0.08-0.04-0.17-0.08-0.26-0.12c-0.15-0.07-0.32-0.15-0.48-0.22
			c-0.08-0.04-0.16-0.07-0.24-0.11c-0.19-0.09-0.39-0.18-0.59-0.27c-0.07-0.03-0.13-0.06-0.2-0.09c-0.53-0.24-1.09-0.5-1.71-0.77
			c-0.02-0.01-0.04-0.02-0.07-0.03c-0.37-0.17-0.76-0.34-1.17-0.52c0.3-0.32,0.59-0.64,0.88-0.98c0.01-0.01,0.01-0.02,0.02-0.02
			c0.26-0.3,0.51-0.61,0.75-0.92c0.07-0.09,0.13-0.18,0.2-0.27c0.18-0.24,0.37-0.48,0.55-0.73c0.09-0.13,0.18-0.26,0.27-0.38
			c0.15-0.22,0.31-0.44,0.46-0.67c0.09-0.14,0.19-0.29,0.28-0.43c0.14-0.22,0.29-0.45,0.43-0.68c0.09-0.15,0.19-0.3,0.28-0.46
			c0.14-0.24,0.28-0.48,0.42-0.73c0.09-0.15,0.17-0.31,0.26-0.46c0.15-0.27,0.3-0.55,0.45-0.84c0.07-0.14,0.15-0.27,0.22-0.42
			c0.22-0.42,0.43-0.86,0.64-1.3c0,0,0-0.01,0.01-0.01h6.81c0.6,0,1.13-0.18,1.56-0.49c0.14-0.11,0.27-0.23,0.39-0.36
			c0.47-0.54,0.74-1.32,0.74-2.25l0,0l0,0c0-0.33-0.03-0.62-0.07-0.89c-0.19-1.05-0.73-1.6-1.32-1.88c-0.44-0.21-0.92-0.26-1.3-0.26
			h-21.37c0.24-0.42,0.47-0.85,0.7-1.28c0.02-0.04,0.04-0.09,0.07-0.13c0.34-0.63,0.68-1.26,1-1.89h12.66
			c1.06,0,1.98-0.11,2.75-0.34c1.17-0.34,2.03-0.94,2.6-1.82c0.57-0.88,0.85-2.02,0.85-3.46v-2.79c0,0,0.02,0.01,0.04,0.03
			l0.05,0.04c0,0,0,0,0.01,0c0.17,0.15,0.36,0.28,0.55,0.39c0.06,0.04,0.13,0.06,0.2,0.1c0.13,0.07,0.26,0.14,0.39,0.19
			c0.02,0.01,0.03,0.02,0.05,0.02c0.1,0.04,0.21,0.06,0.31,0.09c0.06,0.02,0.12,0.04,0.18,0.05c0.18,0.04,0.37,0.06,0.55,0.06
			c0.55,0,1.08-0.15,1.55-0.42s0.88-0.68,1.21-1.18c0.25-0.37,0.48-0.73,0.7-1.1c0.03-0.04,0.04-0.08,0.07-0.12
			c0.31-0.5,0.6-1,0.86-1.49c0.14,0.61,0.29,1.22,0.45,1.82c0.04,0.14,0.08,0.28,0.11,0.42c0.09,0.36,0.19,0.71,0.28,1.06
			c0.13,0.47,0.26,0.94,0.39,1.4c0.1,0.35,0.2,0.7,0.31,1.05c0.13,0.45,0.27,0.9,0.41,1.35c0.11,0.34,0.22,0.68,0.33,1.02
			c0.14,0.44,0.29,0.88,0.44,1.31c0.11,0.33,0.23,0.66,0.34,0.98c0.16,0.44,0.32,0.87,0.48,1.3c0.12,0.31,0.23,0.62,0.35,0.93
			c0.17,0.44,0.35,0.88,0.53,1.32c0.12,0.28,0.23,0.57,0.35,0.85c0.2,0.48,0.41,0.95,0.62,1.41c0.1,0.23,0.2,0.47,0.31,0.7
			c0.32,0.69,0.65,1.38,0.99,2.05c-0.49,0.74-1,1.46-1.53,2.17c-3.7,4.99-8.3,9.36-13.98,13.33c0,0,0,0-0.01,0.01
			C216.49,392.99,216.32,393.11,216.17,393.24z M211.96,336.34h-9.66v-3.89h8.34c1.03,0,1.32,0.27,1.32,1.23V336.34z M211.96,341.81
			v2.74c0,1.12-0.34,1.32-1.32,1.32h-8.34v-4.06H211.96z M211.17,359.63c0.06,0,0.11,0.01,0.16,0.01c0.06,0.01,0.13,0.01,0.18,0.02
			c0.05,0.01,0.09,0.02,0.13,0.03c0.05,0.01,0.1,0.03,0.14,0.04c0.04,0.01,0.07,0.03,0.1,0.04c0.04,0.02,0.07,0.04,0.1,0.06
			c0.03,0.02,0.05,0.04,0.07,0.06c0.02,0.02,0.03,0.04,0.05,0.06c0.07,0.08,0.11,0.18,0.14,0.3c0,0.02,0.01,0.04,0.01,0.06
			c0.02,0.13,0.04,0.28,0.04,0.45v3.01c0,0.19-0.01,0.36-0.05,0.51s-0.11,0.26-0.21,0.36c-0.21,0.19-0.59,0.28-1.22,0.28h-8.5v-5.31
			h8.5v-0.01C210.94,359.62,211.06,359.62,211.17,359.63z M203.83,381.78c-0.23,0.36-0.47,0.7-0.72,1.05
			c-0.14,0.19-0.28,0.38-0.43,0.57c-0.27,0.35-0.56,0.69-0.85,1.02c-0.14,0.15-0.27,0.31-0.41,0.46c-0.44,0.47-0.89,0.92-1.36,1.35
			c-0.37-0.13-0.74-0.25-1.11-0.38c-0.12-0.04-0.23-0.08-0.35-0.11c-0.26-0.08-0.51-0.17-0.77-0.25c-0.14-0.05-0.28-0.09-0.42-0.14
			c-0.23-0.07-0.47-0.15-0.7-0.22c-0.14-0.05-0.29-0.09-0.43-0.13c-0.23-0.07-0.46-0.14-0.69-0.21c-0.14-0.04-0.27-0.08-0.41-0.12
			c-0.24-0.07-0.48-0.14-0.72-0.22c-0.11-0.03-0.23-0.07-0.34-0.1c-0.28-0.08-0.55-0.16-0.82-0.24c-0.07-0.02-0.13-0.04-0.2-0.06
			c-0.31-0.09-0.62-0.18-0.91-0.26c-0.07-0.02-0.15-0.04-0.22-0.06c-0.01,0-0.01,0-0.02-0.01c-0.26-0.07-0.52-0.15-0.76-0.21
			c-0.08-0.03-0.14-0.05-0.19-0.08c-0.05-0.03-0.09-0.05-0.12-0.07c0.02-0.03,0.05-0.07,0.08-0.12c0.01-0.01,0.03-0.03,0.04-0.05
			c0.05-0.06,0.11-0.12,0.19-0.21l0.11-0.12c0.03-0.03,0.06-0.07,0.09-0.1c0.02-0.02,0.04-0.05,0.06-0.07
			c0.11-0.11,0.21-0.23,0.32-0.35c0.01-0.01,0.03-0.03,0.04-0.04c0.32-0.35,0.65-0.73,0.99-1.13c0.07-0.08,0.13-0.16,0.2-0.24
			c0.35-0.42,0.71-0.86,1.05-1.34h11.02c0,0,0,0,0,0c-0.27,0.55-0.57,1.08-0.89,1.6C204.09,381.39,203.96,381.59,203.83,381.78z
			 M187.16,364.92c-0.13,0-0.25-0.01-0.36-0.01c-0.06,0-0.11-0.01-0.17-0.02c-0.07-0.01-0.13-0.02-0.19-0.03
			c-0.05-0.01-0.09-0.02-0.13-0.03c-0.05-0.01-0.1-0.03-0.14-0.05c-0.03-0.01-0.07-0.03-0.1-0.04c-0.04-0.02-0.07-0.04-0.1-0.07
			c-0.02-0.02-0.05-0.03-0.07-0.05c-0.01-0.01-0.02-0.03-0.03-0.04c-0.07-0.09-0.12-0.19-0.15-0.32c0-0.01,0-0.03-0.01-0.04
			c-0.03-0.13-0.03-0.28-0.03-0.45v-3.01c0-0.57,0.07-0.88,0.44-1.03c0.22-0.09,0.55-0.13,1.04-0.13h8.42v5.31L187.16,364.92
			L187.16,364.92C187.16,364.92,187.16,364.92,187.16,364.92z M186.6,332.69c0.19-0.18,0.52-0.24,1.06-0.24h7.92v3.89h-9.24v-2.66
			c0-0.25,0.01-0.46,0.05-0.62C186.44,332.9,186.5,332.78,186.6,332.69z M186.36,344.98c-0.01-0.1-0.01-0.22-0.01-0.34v-2.82v-0.01
			h9.24v4.06h-7.92c-0.14,0-0.26,0-0.37-0.01C186.64,345.81,186.41,345.6,186.36,344.98z M230.71,346.99
			c0.48-1.31,0.94-2.66,1.36-4.09h10.42v0.01c-0.04,0.43-0.08,0.85-0.11,1.28c-0.01,0.11-0.02,0.22-0.03,0.32
			c-0.03,0.37-0.07,0.73-0.1,1.1c-0.05,0.55-0.1,1.09-0.15,1.63c-0.05,0.5-0.1,1-0.16,1.49c-0.04,0.38-0.08,0.77-0.12,1.15
			c-0.07,0.59-0.16,1.19-0.24,1.78c-0.04,0.29-0.07,0.58-0.12,0.87c-0.14,0.89-0.3,1.78-0.49,2.69c-0.25,1.26-0.53,2.49-0.83,3.71
			c-0.1,0.4-0.21,0.78-0.32,1.17c-0.22,0.81-0.44,1.61-0.68,2.4c-0.14,0.45-0.29,0.88-0.43,1.32c-0.23,0.7-0.47,1.4-0.72,2.09
			c-0.17,0.45-0.34,0.89-0.51,1.33c-0.35,0.89-0.71,1.78-1.1,2.63c-0.3-0.67-0.59-1.35-0.87-2.04c-0.14-0.33-0.27-0.67-0.4-1.01
			c-0.18-0.45-0.35-0.91-0.52-1.37c-0.13-0.35-0.25-0.7-0.38-1.05c-0.16-0.46-0.32-0.93-0.48-1.4c-0.12-0.36-0.24-0.72-0.35-1.08
			c-0.15-0.48-0.3-0.97-0.44-1.46c-0.11-0.37-0.22-0.73-0.32-1.1c-0.14-0.5-0.27-1.01-0.41-1.52c-0.1-0.37-0.19-0.74-0.29-1.11
			c-0.13-0.54-0.26-1.09-0.38-1.64c-0.08-0.36-0.17-0.71-0.24-1.08c-0.13-0.62-0.26-1.24-0.38-1.87c-0.06-0.31-0.13-0.62-0.19-0.93
			c-0.18-0.95-0.34-1.91-0.5-2.88c0,0,0-0.01,0-0.01C230.4,347.87,230.55,347.42,230.71,346.99z"/>
		<path class="st10" d="M336.63,355.76c-0.01-0.09-0.01-0.18-0.02-0.27c-0.03-0.35-0.08-0.69-0.15-1.01c0-0.01-0.01-0.02-0.01-0.03
			c-0.07-0.3-0.15-0.59-0.25-0.86c-0.03-0.07-0.05-0.15-0.08-0.22c-0.11-0.27-0.23-0.53-0.37-0.78c0,0,0-0.01-0.01-0.01
			c-0.01-0.01-0.01-0.01-0.02-0.02c-0.2-0.33-0.43-0.63-0.69-0.9c-0.01-0.01-0.01-0.02-0.02-0.03c0,0-0.01-0.01-0.01-0.01
			c0,0-0.01-0.01-0.01-0.01v0.02c0,0-0.01-0.01-0.01-0.01c0,0-0.01-0.01-0.01-0.01c-0.02-0.02-0.05-0.04-0.07-0.05
			c-0.18-0.17-0.37-0.33-0.58-0.48c-0.03-0.02-0.05-0.05-0.09-0.07c-0.03-0.02-0.07-0.04-0.11-0.06c-0.29-0.19-0.59-0.37-0.94-0.51
			c-0.02-0.01-0.05-0.02-0.07-0.03c-0.33-0.14-0.69-0.25-1.08-0.35c-0.07-0.02-0.14-0.04-0.21-0.06c-0.4-0.09-0.82-0.16-1.27-0.21
			c-0.09-0.01-0.18-0.02-0.28-0.03c-0.48-0.04-0.97-0.07-1.51-0.07h-29.25c0.15-0.25,0.3-0.5,0.44-0.75
			c0.15-0.26,0.29-0.53,0.43-0.8c0.1-0.19,0.2-0.37,0.3-0.56c0.32-0.62,0.65-1.27,0.96-1.95h26.94c2.32,0,4.01-0.53,5.13-1.62
			c0.56-0.54,0.97-1.23,1.25-2.06s0.41-1.81,0.41-2.94l0,0v-8.19l0,0c0-0.86-0.08-1.63-0.23-2.32s-0.39-1.29-0.7-1.81
			c-0.31-0.52-0.7-0.96-1.18-1.32c-0.16-0.12-0.32-0.23-0.5-0.33c-1.06-0.62-2.45-0.92-4.18-0.92h-36.1c-1.74,0-3.13,0.3-4.18,0.92
			c-0.18,0.1-0.34,0.21-0.5,0.33c-0.47,0.36-0.87,0.8-1.18,1.32c-0.31,0.52-0.54,1.13-0.7,1.81c-0.15,0.69-0.23,1.46-0.23,2.32l0,0
			v8.19l0,0c0,1.13,0.13,2.11,0.41,2.94c0.27,0.83,0.69,1.52,1.25,2.06c1.12,1.09,2.81,1.62,5.13,1.62h1.5
			c-0.24,0.44-0.51,0.87-0.77,1.31c-0.16,0.26-0.31,0.51-0.47,0.76c-0.2,0.31-0.41,0.62-0.62,0.92c-0.17,0.24-0.34,0.49-0.52,0.73
			c-0.22,0.3-0.45,0.59-0.68,0.88c-0.18,0.23-0.36,0.46-0.55,0.69c-0.24,0.29-0.49,0.57-0.74,0.85c-0.19,0.21-0.38,0.43-0.57,0.63
			c-0.26,0.28-0.53,0.54-0.8,0.81c-0.19,0.19-0.38,0.39-0.58,0.57c-0.29,0.27-0.59,0.53-0.89,0.79c-0.19,0.16-0.37,0.33-0.55,0.48
			c-0.33,0.28-0.68,0.53-1.02,0.79c-0.16,0.12-0.31,0.25-0.47,0.36c-0.51,0.36-1.02,0.7-1.54,1.02c-0.25,0.16-0.48,0.33-0.69,0.51
			c-0.07,0.06-0.12,0.13-0.18,0.19c-0.13,0.13-0.26,0.25-0.37,0.39c0,0,0,0-0.01,0.01c-0.1,0.13-0.17,0.27-0.25,0.4
			c-0.04,0.07-0.1,0.14-0.14,0.22c-0.11,0.22-0.19,0.44-0.24,0.67c-0.05-0.51-0.09-1.01-0.15-1.5c-0.03-0.26-0.06-0.5-0.09-0.76
			c-0.05-0.43-0.1-0.85-0.15-1.27c-0.06-0.51-0.13-1-0.2-1.5c-0.06-0.41-0.12-0.81-0.18-1.21c-0.08-0.49-0.16-0.97-0.24-1.44
			c-0.07-0.39-0.14-0.78-0.21-1.16c-0.09-0.47-0.19-0.94-0.29-1.4c-0.08-0.36-0.15-0.73-0.23-1.09c-0.11-0.47-0.22-0.92-0.34-1.38
			c-0.08-0.34-0.17-0.68-0.26-1.01c-0.13-0.47-0.26-0.93-0.4-1.39c-0.09-0.3-0.17-0.61-0.27-0.91c-0.16-0.51-0.33-1-0.49-1.49
			c-0.08-0.24-0.16-0.49-0.24-0.73c-0.26-0.73-0.53-1.44-0.81-2.15c1.47-1.75,2.88-3.61,4.23-5.54c0.68-0.97,1.33-1.95,1.98-2.96
			c0.64-1,1.27-2.03,1.87-3.07c0.2-0.3,0.35-0.6,0.45-0.89c0.05-0.15,0.09-0.29,0.12-0.44c0.03-0.14,0.04-0.29,0.04-0.43l0,0l0,0
			c0-0.45-0.1-0.88-0.3-1.27c-0.32-0.65-0.9-1.21-1.68-1.6c-0.95-0.54-1.9-0.69-2.74-0.47c-0.42,0.11-0.81,0.31-1.17,0.6
			c-0.36,0.29-0.67,0.66-0.94,1.12c-0.32,0.65-0.67,1.29-1.04,1.94c-0.12,0.22-0.26,0.43-0.39,0.65c-0.25,0.43-0.51,0.86-0.78,1.28
			c-0.17,0.26-0.35,0.52-0.52,0.77c-0.26,0.39-0.52,0.78-0.8,1.17c-0.2,0.27-0.41,0.55-0.61,0.83c-0.35,0.47-0.7,0.95-1.08,1.43
			c0,0,0,0,0,0c-0.13-0.23-0.27-0.46-0.41-0.69c-0.14-0.24-0.3-0.47-0.45-0.71c-0.16-0.26-0.32-0.52-0.49-0.78
			c-0.24-0.37-0.5-0.74-0.75-1.11c-0.17-0.24-0.33-0.48-0.5-0.72c-0.29-0.41-0.6-0.81-0.9-1.22c-0.15-0.2-0.29-0.39-0.44-0.59
			c-0.47-0.6-0.94-1.19-1.44-1.78c-0.72-0.84-1.74-1.24-2.87-1.1c-0.68,0.08-1.4,0.36-2.13,0.84c-0.43,0.33-0.75,0.72-0.98,1.16
			s-0.34,0.91-0.34,1.41l0,0l0,0c0,0.17,0.02,0.35,0.05,0.54c0.07,0.37,0.21,0.75,0.41,1.13c0.1,0.19,0.22,0.38,0.35,0.56
			c0.58,0.67,1.13,1.36,1.66,2.06c1.06,1.41,2.04,2.87,2.92,4.39c0.44,0.76,0.86,1.53,1.25,2.31c-1.83,1.8-3.71,3.48-5.62,5
			c-0.64,0.51-1.28,1-1.92,1.47c-0.9,0.6-1.44,1.6-1.44,2.68c0,0.2,0.01,0.39,0.04,0.58c0.08,0.57,0.29,1.1,0.66,1.69
			c0.8,1.09,1.8,1.67,2.91,1.67c0.34,0,0.7-0.07,1.07-0.19c0.19-0.06,0.38-0.14,0.58-0.24s0.39-0.2,0.59-0.33l0.02-0.02l0.02-0.02
			c0.01-0.01,0.02-0.01,0.02-0.02c0.54-0.42,1.05-0.83,1.55-1.24c0.17-0.14,0.32-0.27,0.49-0.41c0.33-0.28,0.67-0.56,0.99-0.83
			c0.18-0.16,0.36-0.31,0.53-0.47c0.28-0.25,0.56-0.5,0.83-0.75c0.18-0.17,0.36-0.33,0.53-0.5c0.14-0.13,0.28-0.26,0.42-0.39
			c0.2-0.2,0.4-0.39,0.6-0.59c0,0,0,0,0,0c0.17,0.55,0.33,1.11,0.49,1.68c0.09,0.32,0.18,0.63,0.27,0.96
			c0.12,0.46,0.24,0.94,0.35,1.42c0.08,0.32,0.15,0.63,0.23,0.95c0.12,0.54,0.23,1.1,0.34,1.66c0.06,0.28,0.12,0.55,0.17,0.83
			c0.16,0.85,0.31,1.72,0.45,2.62c0,0,0,0,0,0.01c-3.6,6.17-8.46,11.85-13.36,15.6c-0.91,0.71-1.4,1.7-1.4,2.81l0,0l0,0
			c0,0.19,0.02,0.38,0.05,0.56c0.03,0.19,0.08,0.38,0.14,0.57c0.13,0.39,0.32,0.78,0.57,1.19l0.03,0.04l0.03,0.04
			c0.43,0.47,0.89,0.84,1.37,1.08c0.48,0.25,0.99,0.37,1.5,0.37c0.83,0,1.63-0.31,2.31-0.89c0.4-0.34,0.79-0.69,1.19-1.06
			c0.13-0.12,0.26-0.25,0.39-0.38c0.27-0.26,0.54-0.51,0.8-0.78c0.16-0.16,0.32-0.33,0.47-0.49c0.24-0.25,0.48-0.5,0.72-0.76
			c0.17-0.18,0.33-0.37,0.5-0.56c0.23-0.26,0.46-0.52,0.69-0.78c0.17-0.2,0.34-0.4,0.51-0.6c0.22-0.27,0.45-0.54,0.67-0.81
			c0.17-0.21,0.34-0.42,0.51-0.64c0.22-0.28,0.43-0.56,0.65-0.84c0.17-0.22,0.33-0.44,0.49-0.66c0.21-0.29,0.42-0.58,0.63-0.88
			c0.16-0.22,0.32-0.45,0.47-0.67c0.07-0.11,0.15-0.21,0.22-0.31c0.24-0.35,0.48-0.71,0.71-1.07c0.02,0.49,0.04,0.98,0.05,1.47
			c0.03,0.89,0.05,1.79,0.07,2.71c0,0.19,0.01,0.37,0.01,0.56c0.01,0.96,0.02,1.93,0.02,2.93c0,3.35-0.11,6.4-0.31,9
			c-0.18,2.24-0.42,4.15-0.74,5.67c-0.16,0.76-0.33,1.41-0.51,1.96c-0.65,2.33-1.7,3.15-4.02,3.15c-0.8,0-1.9-0.15-2.93-0.39
			c-0.62-0.14-1.22-0.31-1.72-0.5c-0.17-0.05-0.45-0.14-0.74-0.18c-0.1-0.01-0.19-0.02-0.29-0.02c-0.87,0-1.63,0.37-2.2,1.03
			c-0.34,0.4-0.62,0.9-0.8,1.48l-0.02,0.06c-0.05,0.22-0.09,0.44-0.12,0.67c-0.03,0.23-0.06,0.46-0.06,0.7l0,0l0,0
			c0,0.55,0.11,1.07,0.31,1.52c0.2,0.45,0.51,0.84,0.89,1.15c0.26,0.2,0.55,0.37,0.88,0.5c2.15,0.69,5.1,1.12,7.71,1.12
			c4.31,0,7.2-1.53,8.82-4.65c0.23-0.45,0.44-0.93,0.61-1.44c0.64-1.89,1.16-4.03,1.55-6.46c0.26-1.62,0.47-3.36,0.63-5.23
			c0.16-1.87,0.26-3.87,0.31-6.01c0.03-1.07,0.04-2.17,0.04-3.31c0-0.95-0.01-1.88-0.02-2.79c0-0.3-0.01-0.59-0.02-0.88
			c-0.01-0.62-0.03-1.23-0.05-1.83c-0.01-0.33-0.02-0.65-0.04-0.98c-0.02-0.56-0.04-1.1-0.07-1.65c-0.02-0.33-0.03-0.65-0.05-0.97
			c-0.01-0.2-0.02-0.41-0.03-0.62c-0.01-0.19-0.02-0.38-0.04-0.57c0-0.01,0-0.01,0-0.02c-0.02-0.34-0.04-0.67-0.07-1
			c0.11,0.25,0.25,0.51,0.43,0.77c0,0,0,0,0,0c0.12,0.19,0.26,0.37,0.4,0.53c0.03,0.03,0.06,0.05,0.09,0.08
			c0.06,0.06,0.13,0.12,0.19,0.18c0.13,0.12,0.27,0.22,0.41,0.31c0.08,0.05,0.15,0.1,0.23,0.14c0.15,0.08,0.31,0.15,0.47,0.2
			c0.07,0.02,0.15,0.06,0.22,0.07c0.24,0.06,0.49,0.1,0.74,0.1c0,0,0,0,0,0c0.7,0,1.45-0.24,2.19-0.67
			c0.11-0.06,0.21-0.11,0.32-0.18c1.4-0.93,2.73-1.97,3.99-3.11c0.63-0.57,1.24-1.17,1.84-1.79s1.17-1.27,1.73-1.94h32.39
			c1.57,0,2.04,0.49,2.14,1.29c0.01,0.11,0.02,0.24,0.02,0.36c0,0.87-0.01,1.74-0.02,2.6c-0.04,3.44-0.13,6.74-0.26,9.85
			c-0.36,8.55-1.04,15.62-1.96,19.94c-0.06,0.3-0.13,0.57-0.2,0.82c-0.01,0.03-0.01,0.06-0.02,0.08c-0.07,0.24-0.14,0.45-0.22,0.65
			c-0.01,0.03-0.02,0.06-0.04,0.09c-0.08,0.19-0.17,0.36-0.27,0.51c-0.02,0.03-0.03,0.05-0.05,0.07c-0.1,0.15-0.22,0.28-0.34,0.4
			c-0.02,0.02-0.04,0.03-0.06,0.05c-0.13,0.11-0.28,0.22-0.44,0.3c-0.01,0.01-0.03,0.01-0.04,0.02c-0.17,0.08-0.36,0.16-0.56,0.21
			c-0.01,0-0.02,0.01-0.03,0.01c-0.21,0.06-0.44,0.1-0.69,0.13c-0.03,0-0.06,0.01-0.09,0.01c-0.24,0.03-0.51,0.05-0.8,0.06
			c-0.05,0-0.11,0.01-0.16,0.01c-0.23,0.01-0.47,0.01-0.73,0.01c0,0,0,0,0,0c-0.16,0-0.32,0-0.49-0.01
			c0.08-0.04,0.15-0.07,0.22-0.12c0.09-0.06,0.19-0.12,0.27-0.18c0.09-0.07,0.17-0.15,0.25-0.22c0.06-0.05,0.13-0.1,0.18-0.16
			c0.02-0.02,0.05-0.04,0.07-0.06c0.14-0.15,0.25-0.31,0.35-0.47c0.02-0.03,0.03-0.07,0.05-0.1c0.09-0.17,0.17-0.35,0.22-0.53
			c0.02-0.06,0.04-0.12,0.05-0.18c0.05-0.22,0.09-0.46,0.09-0.7c0,0,0,0,0,0l0,0l0,0c0-0.21-0.03-0.43-0.08-0.65
			c-0.05-0.22-0.14-0.44-0.25-0.66c-0.17-0.29-0.36-0.61-0.55-0.93c-0.01-0.02-0.02-0.04-0.04-0.06c-0.18-0.3-0.38-0.62-0.58-0.94
			c-0.05-0.07-0.1-0.15-0.14-0.22c-0.17-0.27-0.35-0.55-0.53-0.83c-0.07-0.11-0.15-0.22-0.22-0.33c-0.16-0.25-0.33-0.5-0.5-0.75
			c-0.09-0.13-0.18-0.26-0.27-0.39c-0.16-0.23-0.32-0.46-0.49-0.69c-0.11-0.15-0.22-0.3-0.32-0.44c-0.15-0.21-0.3-0.42-0.46-0.63
			c-0.12-0.16-0.24-0.31-0.36-0.47c-0.15-0.19-0.3-0.39-0.44-0.57c-0.12-0.15-0.24-0.3-0.37-0.45c-0.13-0.15-0.25-0.31-0.38-0.46
			c-0.04-0.05-0.09-0.1-0.13-0.15c-0.2-0.2-0.41-0.37-0.62-0.52c0.36-0.03,0.71-0.07,1.03-0.13c0.05-0.01,0.09-0.02,0.13-0.03
			c0.15-0.03,0.29-0.07,0.44-0.11c0.22-0.06,0.44-0.12,0.63-0.19c0.14-0.05,0.26-0.11,0.39-0.17c0.18-0.08,0.35-0.17,0.51-0.27
			c0.12-0.07,0.23-0.15,0.33-0.23c0.15-0.11,0.28-0.23,0.41-0.36c0.09-0.09,0.18-0.19,0.27-0.29c0.12-0.14,0.22-0.3,0.32-0.46
			c0.07-0.11,0.14-0.23,0.2-0.35c0.09-0.18,0.16-0.38,0.23-0.58c0.04-0.13,0.1-0.25,0.13-0.39c0.06-0.23,0.11-0.49,0.15-0.75
			c0.02-0.13,0.05-0.24,0.07-0.38c0.05-0.4,0.07-0.83,0.07-1.29v-7.19l0,0c0-1.59-0.27-2.83-0.85-3.77c-0.1-0.16-0.2-0.3-0.31-0.44
			c-0.45-0.56-1.05-0.98-1.79-1.28c-0.93-0.37-2.09-0.55-3.5-0.55h-8.17v-2.57l0,0c0,0,0,0,0-0.01c0-0.22-0.02-0.43-0.06-0.62
			c-0.01-0.07-0.04-0.14-0.06-0.2c-0.03-0.12-0.06-0.24-0.1-0.35c-0.03-0.07-0.07-0.12-0.11-0.19c-0.05-0.1-0.1-0.2-0.17-0.29
			c-0.04-0.06-0.1-0.1-0.14-0.16c-0.07-0.08-0.14-0.17-0.23-0.24c0,0,0,0-0.01-0.01c-0.07-0.06-0.15-0.1-0.23-0.15
			c-0.08-0.05-0.14-0.11-0.23-0.15c-0.09-0.05-0.2-0.08-0.3-0.12c-0.09-0.03-0.17-0.08-0.26-0.1c-0.12-0.04-0.27-0.06-0.4-0.09
			c-0.08-0.02-0.16-0.04-0.25-0.05c-0.23-0.03-0.48-0.05-0.74-0.05c-0.26,0-0.5,0.02-0.73,0.05c-0.07,0.01-0.13,0.03-0.2,0.04
			c-0.15,0.03-0.31,0.05-0.44,0.1c-0.08,0.02-0.15,0.06-0.23,0.09c-0.11,0.04-0.23,0.08-0.33,0.14c-0.08,0.04-0.14,0.09-0.21,0.14
			c-0.08,0.05-0.17,0.1-0.24,0.16c0,0-0.01,0.01-0.01,0.01c-0.08,0.07-0.15,0.15-0.22,0.23c-0.05,0.06-0.11,0.11-0.16,0.17
			c-0.06,0.08-0.1,0.18-0.15,0.27c-0.04,0.07-0.09,0.13-0.12,0.21c-0.05,0.11-0.07,0.23-0.1,0.34c-0.02,0.07-0.05,0.13-0.06,0.21
			c-0.04,0.19-0.06,0.4-0.06,0.62c0,0,0,0,0,0l0,0v2.57h-7.25c-4.52,0-6.62,1.97-6.62,6.2v7.02c0,1.32,0.19,2.41,0.59,3.27
			c0.16,0.35,0.36,0.66,0.59,0.94c0.12,0.14,0.24,0.27,0.37,0.39c1.06,0.98,2.7,1.43,4.99,1.43h7.34v6.71
			c-1.92,0.21-3.81,0.4-5.64,0.56c-1.22,0.11-2.42,0.2-3.58,0.28c-1.75,0.12-3.42,0.21-4.99,0.27c-0.7,0.04-1.31,0.23-1.8,0.56
			c-0.16,0.11-0.31,0.23-0.44,0.37c-0.4,0.41-0.67,0.93-0.78,1.54c-0.04,0.2-0.06,0.42-0.06,0.64v0.56l0,0
			c0.03,0.32,0.09,0.62,0.16,0.88c0.14,0.53,0.35,0.93,0.61,1.25c0.38,0.47,0.86,0.74,1.36,0.88c0.33,0.09,0.67,0.13,0.99,0.13h0.47
			c0.95-0.08,1.97-0.18,3.05-0.29c2.16-0.22,4.56-0.49,7.09-0.82c6.32-0.81,13.45-1.93,19.65-3.32c0.09,0.17,0.19,0.33,0.29,0.5
			c0.1,0.17,0.19,0.34,0.29,0.5c0,0,0,0,0,0.01c0.11,0.18,0.21,0.36,0.3,0.52c0,0,0,0,0,0c0.02,0.04,0.04,0.07,0.06,0.1
			c0.01,0.01,0.01,0.02,0.02,0.03c0.11,0.16,0.23,0.32,0.36,0.45c-0.17-0.04-0.33-0.08-0.47-0.11c0,0,0,0,0,0
			c-0.16-0.05-0.31-0.08-0.45-0.09c-0.03,0-0.05-0.01-0.08-0.01c-0.02,0-0.03,0-0.05-0.01c-0.01,0-0.02,0-0.04,0c0,0-0.01,0-0.01,0
			c-0.09,0-0.16,0-0.23,0c0,0,0,0,0,0c-1.43,0-2.54,1.09-2.77,2.73c-0.05,0.16-0.07,0.31-0.09,0.46s-0.01,0.29-0.01,0.42l0,0l0,0
			c0,0.91,0.28,1.63,0.79,2.16c0.17,0.18,0.36,0.34,0.58,0.46c0.29,0.17,0.63,0.3,1.01,0.38c1.85,0.48,4.35,0.77,6.67,0.77
			c1.51,0,2.84-0.13,4.02-0.41c0.88-0.2,1.67-0.49,2.38-0.85c1.88-0.96,3.13-2.5,3.82-4.63c0.09-0.27,0.16-0.54,0.23-0.83
			c0.2-0.73,0.39-1.59,0.57-2.57c0.54-2.93,1.02-6.93,1.4-11.69c0.25-3.18,0.47-6.7,0.63-10.47c0.04-0.94,0.08-1.9,0.11-2.88
			c0.11-2.92,0.18-5.98,0.23-9.14l0,0l0,0C336.68,356.49,336.66,356.12,336.63,355.76z M293.87,339.67c-1.08,0-1.47-0.22-1.55-0.96
			c-0.01-0.11-0.02-0.22-0.02-0.35v-6.68c0-1.03,0.34-1.32,1.57-1.32h6.41v9.32H293.87z M314.24,330.35v9.32h-7.82v-9.32H314.24z
			 M327.04,330.35c1.02,0,1.39,0.22,1.47,0.96c0.01,0.11,0.02,0.22,0.02,0.35v6.68c0,1.03-0.32,1.32-1.49,1.32h-6.67v-9.32H327.04z
			 M315.91,373.86L315.91,373.86c0,0.11,0,0.21-0.01,0.3c-0.01,0.09-0.02,0.18-0.04,0.25c-0.12,0.47-0.48,0.68-1.43,0.68h-6.84
			v-7.65h6.84c1.27,0,1.49,0.38,1.49,1.23V373.86z M313.51,385.82c-0.95,0.17-1.92,0.32-2.88,0.47c-0.03,0.01-0.07,0.01-0.1,0.02
			c-0.98,0.14-1.97,0.28-2.94,0.4v-5.81h6.02c-0.04,0.02-0.08,0.05-0.13,0.08c-0.14,0.1-0.26,0.21-0.37,0.32
			c-0.04,0.03-0.06,0.07-0.1,0.1c-0.07,0.07-0.13,0.14-0.19,0.21c-0.01,0.01-0.02,0.03-0.03,0.04c-0.02,0.02-0.03,0.05-0.05,0.07
			c-0.07,0.1-0.13,0.19-0.19,0.28c-0.02,0.03-0.04,0.06-0.05,0.1c-0.06,0.12-0.11,0.23-0.15,0.34c-0.01,0.02-0.01,0.04-0.02,0.07
			c-0.03,0.09-0.05,0.18-0.06,0.27c0,0.03-0.01,0.06-0.01,0.09c-0.01,0.1-0.02,0.2-0.02,0.28l0,0l0,0c0,0.18,0.02,0.35,0.05,0.53
			c0.01,0.05,0.03,0.1,0.04,0.15c0.03,0.12,0.06,0.25,0.11,0.37c0.02,0.06,0.06,0.12,0.09,0.18c0.05,0.11,0.1,0.22,0.16,0.33
			c0.04,0.06,0.09,0.12,0.13,0.18c0.06,0.09,0.12,0.19,0.19,0.27c0.01,0.01,0.02,0.03,0.03,0.04c0.14,0.17,0.27,0.36,0.42,0.55
			c0,0,0.01,0.01,0.01,0.01c0.01,0.01,0.02,0.03,0.03,0.05C313.5,385.81,313.5,385.82,313.51,385.82
			C313.51,385.82,313.51,385.82,313.51,385.82z M293.5,368.26c0.02-0.13,0.05-0.24,0.1-0.34c0.04-0.06,0.08-0.12,0.13-0.17
			c0.21-0.2,0.58-0.3,1.22-0.3h6.08v7.65h-6.08v-0.01l0,0c-0.95,0-1.31-0.21-1.43-0.68c-0.02-0.08-0.03-0.16-0.04-0.25
			c-0.01-0.09-0.01-0.19-0.01-0.3v-5.18C293.47,368.53,293.48,368.39,293.5,368.26z"/>
	</g>
	<g>
		<g>
			<path class="st10" d="M484.42,211.98c-0.15-2.99-0.83-5.55-1.47-7.44c-1.2-3.78-3.59-8.3-8.15-11.85
				c-3.41-2.65-6.97-3.96-9.35-4.66c-3.65-1.07-7.2-1.33-10.07-1.33c-3.15,0-7.13,0.28-11.16,1.55c-3.97,1.25-8.86,3.8-12.56,8.68
				c-3.43-4.6-8.08-7.32-12.39-8.68c-4.08-1.29-8.12-1.55-11.26-1.55c-3.14,0-7.18,0.26-11.26,1.55c-0.87,0.28-1.74,0.6-2.61,0.98
				c-3.49-1.94-8.01-3.64-13.31-3.64c-6.26,0-11.14,2.45-14.18,4.49c-1.3,0.87-2.48,1.82-3.57,2.79l-0.05-0.04l-0.04-0.03
				c-3.41-2.66-6.98-3.97-9.36-4.67c-3.65-1.07-7.2-1.33-10.07-1.33c-3.14,0-7.18,0.26-11.26,1.55c-3.81,1.21-7.76,3.41-10.97,6.9
				c-9.2-6.13-19.75-9.35-31.26-9.35c-7.48,0-14.72,1.53-21.56,4.48c-6.65,2.86-12.62,6.85-17.79,11.92
				c-0.13,0.12-0.25,0.24-0.37,0.37c-10.91-10.25-24.31-15.87-39.4-15.87h-9.22c-4.12-0.06-7.3-0.1-9.46-0.1
				c-3.14,0-7.18,0.26-11.26,1.55c-0.79,0.25-1.59,0.54-2.38,0.88c-1.16-0.48-2.23-0.83-3.14-1.1c-3.65-1.07-7.19-1.33-10.07-1.33
				c-3.14,0-7.12,0.28-11.16,1.55c-3.97,1.25-8.85,3.8-12.56,8.68c-3.43-4.6-8.08-7.32-12.38-8.68c-4.08-1.29-8.13-1.55-11.26-1.55
				c-3.13,0-7.19,0.26-11.27,1.55c-2.37,0.75-4.8,1.89-7.06,3.49c-3.24-1.75-6.51-2.86-8.98-3.61c-5.56-1.78-11.31-2.54-17.06-2.54
				c-11.77,0-23.39,3.58-32.42,12.61c-8,7.99-12.51,18.23-12.51,29.8c0,6.83,1.31,13.88,4.8,20.45c-3.04,3.99-6.12,9.72-6.12,16.92
				c0,8.83,4.89,15.34,7.17,18.15l0.02,0.02l0.52,0.63c1.77,2.41,3.78,4.35,5.32,5.72l0.19,0.17l0.2,0.17
				c2.09,1.78,4.34,3.42,6.68,4.95l0.37,0.25l0.39,0.22c3.77,2.24,7.84,3.77,11.74,4.89l0.21,0.06l0.22,0.06
				c4.64,1.21,9.37,1.77,14.13,1.77c4.76,0,9.89-0.74,14.64-2.15c4.97-1.47,9.62-3.68,13.91-6.49c1.68-1.09,3.25-2.29,4.7-3.59
				c3.14,2.72,6.59,5.03,10.29,6.94l0.06,0.03l0.06,0.03c7.3,3.71,15.16,5.43,23.23,5.43s15.8-1.63,23.1-5.22l0.11-0.05l0.11-0.06
				c2.1-1.07,4.13-2.26,6.06-3.58c3.28,3.2,7.05,5.04,10.24,6.05c3.98,1.26,7.9,1.55,11.06,1.55h18.48
				c15.13,0,28.63-5.41,39.45-15.81c11.05,11.29,25.09,17.12,40.88,17.12c11.35,0,21.73-3.19,30.69-9.3c0.72,0.73,1.5,1.43,2.36,2.1
				c3.41,2.65,6.98,3.96,9.36,4.66c3.65,1.07,7.2,1.33,10.07,1.33c3.14,0,7.18-0.26,11.26-1.55c2.91-0.92,5.89-2.42,8.57-4.63
				c0.99,0.89,2.06,1.75,3.23,2.55c2.86,1.97,7.81,4.64,14.31,4.64c9.29,0,16.2-5.2,19.53-8l0.18-0.15l0.16-0.15
				c0.31-0.27,0.64-0.56,0.98-0.88c2.04,1.44,4.18,2.74,6.42,3.89l0.06,0.03l0.05,0.03h0.01c7.3,3.71,15.16,5.43,23.22,5.43
				s15.81-1.63,23.1-5.22l0.12-0.05l0.11-0.06c6.67-3.39,12.56-8.05,17.21-14.12c4.02-5.22,7.11-10.99,9.24-17.22
				c2.2-6.25,3.34-12.74,3.34-19.37v-30.5C484.56,214.91,484.54,213.44,484.42,211.98z M479.23,247.11c0,6.03-1.04,11.92-3.05,17.63
				c-1.94,5.69-4.76,10.94-8.42,15.71c-4.12,5.38-9.37,9.56-15.4,12.62l-0.09,0.04l-0.08,0.05c-6.49,3.19-13.5,4.66-20.75,4.66
				s-14.31-1.55-20.81-4.85l-0.05-0.02l-0.04-0.03c-3.4-1.75-6.54-3.86-9.38-6.34c-1.4,1.71-2.84,3.07-3.98,4.07l-0.12,0.11
				l-0.13,0.11c-3.13,2.63-8.79,6.75-16.1,6.75c-5.01,0-8.9-2.05-11.29-3.7c-2.45-1.68-4.5-3.75-6.17-5.7l-0.14-0.15
				c-2.69,3.78-6.43,6.08-10.11,7.24c-3.35,1.06-6.78,1.3-9.66,1.3c-2.58,0-5.57-0.23-8.57-1.11c-2.05-0.61-4.91-1.68-7.59-3.76
				c-2.03-1.58-3.55-3.43-4.66-5.3c-8.92,7.46-19.64,11.38-31.66,11.38c-14.43,0-27.13-5.3-37.19-15.64l-0.05-0.05
				c-1.24-1.29-2.41-2.62-3.5-3.98c-0.85,0.99-1.74,1.95-2.68,2.9c-10.02,10.19-22.61,15.46-36.91,15.46h-18.48
				c-2.86,0-6.18-0.27-9.46-1.3c-3.64-1.15-8.02-3.57-10.96-8.35h-0.01c-2.82,2.43-5.96,4.49-9.34,6.21l-0.08,0.04l-0.09,0.05
				c-6.49,3.19-13.49,4.66-20.74,4.66s-14.32-1.55-20.82-4.85l-0.04-0.02l-0.04-0.03c-4.86-2.5-9.19-5.73-12.83-9.72
				c-2.14,2.53-4.64,4.78-7.52,6.64c-3.89,2.56-8.06,4.54-12.51,5.85c-4.28,1.27-8.67,1.93-13.13,1.93c-4.46,0-8.62-0.51-12.78-1.6
				l-0.16-0.04l-0.16-0.05c-3.62-1.03-7.23-2.41-10.48-4.34l-0.29-0.17l-0.27-0.18c-2.19-1.42-4.25-2.94-6.15-4.55l-0.15-0.13
				l-0.14-0.12c-1.44-1.29-3.18-2.99-4.66-5.01l-0.59-0.73l-0.02-0.02c-2.14-2.63-5.98-7.9-5.98-14.79c0-7.33,4.1-12.95,7.33-16.41
				c-0.53-0.77-1.02-1.56-1.48-2.36l-0.1-0.17l-0.09-0.17c-3.11-5.73-4.34-12-4.34-18.25c0-10.09,3.9-18.99,10.94-26.04
				c7.83-7.82,17.98-11.04,28.66-11.04c5.3,0,10.51,0.69,15.47,2.29c3.27,0.99,7.49,2.5,11.02,5.09c2.43-2.46,5.34-4.06,8.22-4.97
				c3.34-1.06,6.78-1.3,9.65-1.3s6.32,0.24,9.66,1.3c4.28,1.35,8.84,4.33,11.47,9.63c0.98,1.87,1.96,4.26,2.42,7.02
				c0.04,0.25,0.08,0.49,0.11,0.74c0.05-0.42,0.11-0.84,0.18-1.25c0.54-3.09,1.72-5.7,3.01-7.8c2.94-4.77,7.33-7.19,10.97-8.34
				c3.31-1.05,6.69-1.3,9.55-1.3c2.58,0,5.57,0.23,8.57,1.11c1.32,0.39,2.97,0.97,4.7,1.89c1.28-0.72,2.61-1.29,3.92-1.7
				c3.35-1.06,6.78-1.3,9.66-1.3c2.13,0,5.28,0.03,9.41,0.1h9.27c13.81,0,26.03,5.15,36.06,14.72c1.24,1.17,2.41,2.38,3.5,3.62
				c1.22-1.53,2.53-2.99,3.94-4.37c4.7-4.6,10.12-8.23,16.17-10.83c6.19-2.67,12.71-4.05,19.45-4.05c12.21,0,23.18,3.97,32.44,11.51
				c2.69-5.03,7.09-7.94,11.39-9.3c3.35-1.06,6.78-1.3,9.66-1.3c2.58,0,5.57,0.23,8.56,1.11c2.06,0.61,4.92,1.68,7.59,3.76
				c1.38,1.07,2.5,2.25,3.42,3.49l0.16-0.19c1.69-1.98,3.79-4.09,6.34-5.8c2.51-1.69,6.35-3.58,11.2-3.58
				c5.35,0,9.82,2.21,13.06,4.42c1.45-0.87,2.96-1.54,4.47-2.01c3.34-1.06,6.78-1.3,9.65-1.3s6.31,0.24,9.66,1.3
				c4.28,1.35,8.83,4.33,11.47,9.63c0.97,1.87,1.96,4.26,2.42,7.02c0.04,0.25,0.07,0.49,0.11,0.74c0.05-0.42,0.11-0.84,0.18-1.25
				c0.53-3.09,1.72-5.7,3.01-7.8c2.94-4.77,7.32-7.19,10.96-8.34c3.31-1.05,6.69-1.3,9.56-1.3c2.58,0,5.57,0.23,8.56,1.11
				c2.06,0.61,4.92,1.68,7.59,3.76c3.53,2.74,5.4,6.26,6.36,9.29c0.55,1.61,1.1,3.72,1.21,6.13c0.11,1.27,0.13,2.61,0.13,3.76
				V247.11z"/>
			<path class="st10" d="M48.57,270.83c-1.75-2.16-2.63-3.94-2.63-5.35c0-2.02,1.45-4.44,4.34-7.27c1.68-1.62,3.37-2.42,5.05-2.42
				c2.09,0,4.65,1.51,7.68,4.54l0.51,0.51c0.27,0.34,0.67,0.77,1.21,1.31c0.54,0.54,1.58,1.28,3.13,2.22
				c1.55,0.88,3.06,1.31,4.54,1.31c6.26,0,9.39-2.56,9.39-7.68c0-1.55-0.88-2.83-2.63-3.84c-1.68-1.08-3.8-1.85-6.36-2.32
				s-5.32-1.21-8.28-2.22c-2.96-1.08-5.72-2.32-8.28-3.74c-2.56-1.41-4.71-3.64-6.46-6.67c-1.68-3.1-2.52-6.8-2.52-11.11
				c0-5.93,2.19-11.08,6.56-15.45c4.44-4.44,10.47-6.66,18.08-6.66c4.04,0,7.71,0.54,11.01,1.62c3.37,1.01,5.69,2.05,6.97,3.13
				l2.02,1.51l0.5,0.4c2.09,1.95,3.13,3.57,3.13,4.85c0,1.41-0.81,3.3-2.42,5.66c-2.29,3.37-4.65,5.05-7.07,5.05
				c-1.41,0-3.16-0.67-5.25-2.02c-0.2-0.13-0.61-0.47-1.21-1.01c-0.54-0.54-1.04-0.94-1.51-1.21c-0.47-0.34-1.28-0.64-2.42-0.91
				c-1.08-0.34-2.36-0.51-3.84-0.51c-1.62,0-3.16,0.54-4.65,1.62c-1.41,1.01-2.12,2.36-2.12,4.04c0,2.02,0.84,3.6,2.52,4.75
				c1.75,1.14,3.91,1.92,6.46,2.32s5.35,1.04,8.38,1.92c3.03,0.81,5.82,1.82,8.38,3.03c2.56,1.21,4.68,3.33,6.36,6.36
				c1.75,2.96,2.63,6.67,2.63,11.11c0,4.44-0.88,8.15-2.63,11.51c-1.75,3.3-4.04,5.86-6.87,7.68c-2.76,1.82-5.62,3.17-8.58,4.04
				c-2.96,0.87-5.92,1.31-8.89,1.31c-3.16,0-6.16-0.37-8.99-1.11c-2.83-0.81-5.15-1.75-6.97-2.83c-1.75-1.14-3.3-2.29-4.65-3.43
				c-1.28-1.14-2.19-2.12-2.73-2.93l-0.91-1.11H48.57z"/>
			<path class="st10" d="M163.63,207.1c1.75,0,3.2,0.17,4.34,0.51s2.02,0.74,2.63,1.21s1.04,1.18,1.31,2.12
				c0.34,0.94,0.51,1.75,0.51,2.42c0.07,0.61,0.1,1.55,0.1,2.83v30.5c0,4.31-0.74,8.55-2.22,12.72c-1.41,4.18-3.47,8.01-6.16,11.51
				c-2.63,3.43-6.06,6.23-10.3,8.38c-4.24,2.09-8.96,3.13-14.14,3.13c-5.18,0-9.8-1.08-14.04-3.23c-4.17-2.15-7.57-4.95-10.2-8.38
				c-2.63-3.5-4.65-7.34-6.06-11.51c-1.41-4.24-2.12-8.52-2.12-12.83v-30.4c0-1.62,0.03-2.79,0.1-3.54
				c0.14-0.81,0.47-1.72,1.01-2.73c0.54-1.01,1.45-1.72,2.73-2.12s3-0.61,5.15-0.61c2.15,0,3.87,0.2,5.15,0.61
				c1.28,0.4,2.15,1.11,2.63,2.12c0.54,1.01,0.88,1.92,1.01,2.73c0.14,0.81,0.2,2.02,0.2,3.64v30.3c0,2.02,0.24,4.01,0.71,5.96
				c0.47,1.89,1.21,3.8,2.22,5.76c1.08,1.89,2.63,3.4,4.65,4.54c2.02,1.14,4.41,1.72,7.17,1.72c4.91,0,8.58-1.82,11.01-5.45
				c2.42-3.64,3.64-7.84,3.64-12.62v-30.9c0-1.48,0.07-2.59,0.2-3.33c0.13-0.81,0.47-1.65,1.01-2.53c0.54-0.88,1.45-1.51,2.73-1.92
				c1.28-0.4,2.96-0.61,5.05-0.61H163.63z"/>
			<path class="st10" d="M246.03,243.76c0,10.23-3.64,19.02-10.91,26.36c-7.2,7.34-15.96,11.01-26.26,11.01h-18.48
				c-2.02,0-3.67-0.2-4.95-0.61c-1.28-0.4-2.19-1.04-2.73-1.92c-0.54-0.94-0.88-1.85-1.01-2.73c-0.13-0.94-0.2-2.19-0.2-3.74v-56.15
				c0-1.62,0.03-2.79,0.1-3.54c0.13-0.74,0.47-1.62,1.01-2.63c0.54-1.01,1.45-1.72,2.73-2.12s3-0.61,5.15-0.61
				c2.02,0,5.12,0.03,9.29,0.1h9.39c9.76,0,18.35,3.54,25.75,10.6c7.41,7,11.11,15.65,11.11,25.96L246.03,243.76z M228.15,244.16
				c0-5.39-1.92-9.9-5.76-13.53c-3.77-3.7-8.21-5.55-13.33-5.55h-9.7v38.18h9.8c4.85,0,9.22-1.78,13.13-5.35
				C226.19,254.27,228.15,249.7,228.15,244.16L228.15,244.16z"/>
			<path class="st10" d="M288.28,206.29c9.96,0,18.62,3.6,25.96,10.81c7.34,7.21,11.01,16.33,11.01,27.37
				c0,10.3-3.5,19.22-10.5,26.76c-7,7.47-15.52,11.21-25.55,11.21c-10.03,0-19.26-3.7-26.46-11.11
				c-7.14-7.41-10.71-16.23-10.71-26.46c0-5.59,1.01-10.81,3.03-15.65c2.02-4.92,4.71-9.02,8.08-12.32
				c3.37-3.3,7.24-5.89,11.61-7.78C279.13,207.23,283.64,206.29,288.28,206.29z M288.58,264.56c4.85,0,9.19-1.82,13.03-5.45
				c3.84-3.64,5.76-8.55,5.76-14.75s-1.95-10.94-5.86-14.64c-3.84-3.7-8.11-5.55-12.83-5.55s-9.19,1.89-13.03,5.66
				c-3.84,3.7-5.76,8.59-5.76,14.64s1.92,10.77,5.76,14.54C279.55,262.71,283.86,264.56,288.58,264.56z"/>
			<path class="st10" d="M364.5,244.06c10.3,9.9,17.61,17.34,21.91,22.32c2.22,2.49,3.33,4.48,3.33,5.96c0,1.95-1.41,4.17-4.24,6.67
				c-2.56,2.15-4.71,3.23-6.46,3.23s-3.74-1.41-6.16-4.24l-22.22-25.35v19.69c0,1.62-0.07,2.79-0.2,3.53
				c-0.07,0.74-0.37,1.62-0.91,2.63c-0.54,1.01-1.45,1.72-2.73,2.12c-1.28,0.4-3,0.61-5.15,0.61c-1.75,0-3.2-0.17-4.34-0.51
				c-1.14-0.34-2.02-0.74-2.63-1.21c-0.61-0.47-1.08-1.14-1.41-2.02c-0.27-0.94-0.44-1.72-0.51-2.32v-59.08
				c0-1.55,0.03-2.69,0.1-3.43c0.13-0.81,0.47-1.72,1.01-2.73c0.54-1.01,1.45-1.72,2.73-2.12c1.28-0.4,3-0.61,5.15-0.61
				c1.75,0,3.2,0.17,4.34,0.51c1.14,0.34,2.02,0.74,2.62,1.21c0.61,0.47,1.04,1.18,1.31,2.12c0.34,0.88,0.51,1.65,0.51,2.32
				c0.07,0.61,0.1,1.55,0.1,2.83v19.29c9.16-10.3,16.56-18.75,22.22-25.35c2.36-2.76,4.41-4.14,6.16-4.14s3.9,1.08,6.46,3.23
				c2.83,2.49,4.24,4.71,4.24,6.67c0,1.48-1.11,3.47-3.33,5.96c-1.88,2.22-4.68,5.18-8.38,8.89c-3.64,3.7-6.8,6.87-9.49,9.49
				l-4.04,3.84L364.5,244.06z"/>
			<path class="st10" d="M453.59,207.1c1.75,0,3.2,0.17,4.34,0.51c1.14,0.34,2.02,0.74,2.63,1.21c0.61,0.47,1.04,1.18,1.31,2.12
				c0.34,0.94,0.51,1.75,0.51,2.42c0.07,0.61,0.1,1.55,0.1,2.83v30.5c0,4.31-0.74,8.55-2.22,12.72c-1.41,4.18-3.47,8.01-6.16,11.51
				c-2.63,3.43-6.06,6.23-10.3,8.38c-4.24,2.09-8.96,3.13-14.14,3.13s-9.8-1.08-14.04-3.23c-4.17-2.15-7.57-4.95-10.2-8.38
				c-2.63-3.5-4.65-7.34-6.06-11.51c-1.41-4.24-2.12-8.52-2.12-12.83v-30.4c0-1.62,0.03-2.79,0.1-3.54
				c0.14-0.81,0.47-1.72,1.01-2.73c0.54-1.01,1.45-1.72,2.73-2.12c1.28-0.4,3-0.61,5.15-0.61s3.87,0.2,5.15,0.61
				c1.28,0.4,2.15,1.11,2.62,2.12c0.54,1.01,0.88,1.92,1.01,2.73c0.13,0.81,0.2,2.02,0.2,3.64v30.3c0,2.02,0.24,4.01,0.71,5.96
				c0.47,1.89,1.21,3.8,2.22,5.76c1.08,1.89,2.63,3.4,4.65,4.54c2.02,1.14,4.41,1.72,7.17,1.72c4.92,0,8.58-1.82,11.01-5.45
				c2.42-3.64,3.64-7.84,3.64-12.62v-30.9c0-1.48,0.07-2.59,0.2-3.33c0.13-0.81,0.47-1.65,1.01-2.53c0.54-0.88,1.45-1.51,2.73-1.92
				c1.28-0.4,2.96-0.61,5.05-0.61H453.59z"/>
			<path class="st10" d="M48.57,270.83c-1.75-2.16-2.63-3.94-2.63-5.35c0-2.02,1.45-4.44,4.34-7.27c1.68-1.62,3.37-2.42,5.05-2.42
				c2.09,0,4.65,1.51,7.68,4.54l0.51,0.51c0.27,0.34,0.67,0.77,1.21,1.31c0.54,0.54,1.58,1.28,3.13,2.22
				c1.55,0.88,3.06,1.31,4.54,1.31c6.26,0,9.39-2.56,9.39-7.68c0-1.55-0.88-2.83-2.63-3.84c-1.68-1.08-3.8-1.85-6.36-2.32
				s-5.32-1.21-8.28-2.22c-2.96-1.08-5.72-2.32-8.28-3.74c-2.56-1.41-4.71-3.64-6.46-6.67c-1.68-3.1-2.52-6.8-2.52-11.11
				c0-5.93,2.19-11.08,6.56-15.45c4.44-4.44,10.47-6.66,18.08-6.66c4.04,0,7.71,0.54,11.01,1.62c3.37,1.01,5.69,2.05,6.97,3.13
				l2.02,1.51l0.5,0.4c2.09,1.95,3.13,3.57,3.13,4.85c0,1.41-0.81,3.3-2.42,5.66c-2.29,3.37-4.65,5.05-7.07,5.05
				c-1.41,0-3.16-0.67-5.25-2.02c-0.2-0.13-0.61-0.47-1.21-1.01c-0.54-0.54-1.04-0.94-1.51-1.21c-0.47-0.34-1.28-0.64-2.42-0.91
				c-1.08-0.34-2.36-0.51-3.84-0.51c-1.62,0-3.16,0.54-4.65,1.62c-1.41,1.01-2.12,2.36-2.12,4.04c0,2.02,0.84,3.6,2.52,4.75
				c1.75,1.14,3.91,1.92,6.46,2.32s5.35,1.04,8.38,1.92c3.03,0.81,5.82,1.82,8.38,3.03c2.56,1.21,4.68,3.33,6.36,6.36
				c1.75,2.96,2.63,6.67,2.63,11.11c0,4.44-0.88,8.15-2.63,11.51c-1.75,3.3-4.04,5.86-6.87,7.68c-2.76,1.82-5.62,3.17-8.58,4.04
				c-2.96,0.87-5.92,1.31-8.89,1.31c-3.16,0-6.16-0.37-8.99-1.11c-2.83-0.81-5.15-1.75-6.97-2.83c-1.75-1.14-3.3-2.29-4.65-3.43
				c-1.28-1.14-2.19-2.12-2.73-2.93l-0.91-1.11H48.57z"/>
			<path class="st10" d="M48.57,270.83c-1.75-2.16-2.63-3.94-2.63-5.35c0-2.02,1.45-4.44,4.34-7.27c1.68-1.62,3.37-2.42,5.05-2.42
				c2.09,0,4.65,1.51,7.68,4.54l0.51,0.51c0.27,0.34,0.67,0.77,1.21,1.31c0.54,0.54,1.58,1.28,3.13,2.22
				c1.55,0.88,3.06,1.31,4.54,1.31c6.26,0,9.39-2.56,9.39-7.68c0-1.55-0.88-2.83-2.63-3.84c-1.68-1.08-3.8-1.85-6.36-2.32
				s-5.32-1.21-8.28-2.22c-2.96-1.08-5.72-2.32-8.28-3.74c-2.56-1.41-4.71-3.64-6.46-6.67c-1.68-3.1-2.52-6.8-2.52-11.11
				c0-5.93,2.19-11.08,6.56-15.45c4.44-4.44,10.47-6.66,18.08-6.66c4.04,0,7.71,0.54,11.01,1.62c3.37,1.01,5.69,2.05,6.97,3.13
				l2.02,1.51l0.5,0.4c2.09,1.95,3.13,3.57,3.13,4.85c0,1.41-0.81,3.3-2.42,5.66c-2.29,3.37-4.65,5.05-7.07,5.05
				c-1.41,0-3.16-0.67-5.25-2.02c-0.2-0.13-0.61-0.47-1.21-1.01c-0.54-0.54-1.04-0.94-1.51-1.21c-0.47-0.34-1.28-0.64-2.42-0.91
				c-1.08-0.34-2.36-0.51-3.84-0.51c-1.62,0-3.16,0.54-4.65,1.62c-1.41,1.01-2.12,2.36-2.12,4.04c0,2.02,0.84,3.6,2.52,4.75
				c1.75,1.14,3.91,1.92,6.46,2.32s5.35,1.04,8.38,1.92c3.03,0.81,5.82,1.82,8.38,3.03c2.56,1.21,4.68,3.33,6.36,6.36
				c1.75,2.96,2.63,6.67,2.63,11.11c0,4.44-0.88,8.15-2.63,11.51c-1.75,3.3-4.04,5.86-6.87,7.68c-2.76,1.82-5.62,3.17-8.58,4.04
				c-2.96,0.87-5.92,1.31-8.89,1.31c-3.16,0-6.16-0.37-8.99-1.11c-2.83-0.81-5.15-1.75-6.97-2.83c-1.75-1.14-3.3-2.29-4.65-3.43
				c-1.28-1.14-2.19-2.12-2.73-2.93l-0.91-1.11H48.57z"/>
			<path class="st10" d="M163.63,207.1c1.75,0,3.2,0.17,4.34,0.51s2.02,0.74,2.63,1.21s1.04,1.18,1.31,2.12
				c0.34,0.94,0.51,1.75,0.51,2.42c0.07,0.61,0.1,1.55,0.1,2.83v30.5c0,4.31-0.74,8.55-2.22,12.72c-1.41,4.18-3.47,8.01-6.16,11.51
				c-2.63,3.43-6.06,6.23-10.3,8.38c-4.24,2.09-8.96,3.13-14.14,3.13c-5.18,0-9.8-1.08-14.04-3.23c-4.17-2.15-7.57-4.95-10.2-8.38
				c-2.63-3.5-4.65-7.34-6.06-11.51c-1.41-4.24-2.12-8.52-2.12-12.83v-30.4c0-1.62,0.03-2.79,0.1-3.54
				c0.14-0.81,0.47-1.72,1.01-2.73c0.54-1.01,1.45-1.72,2.73-2.12s3-0.61,5.15-0.61c2.15,0,3.87,0.2,5.15,0.61
				c1.28,0.4,2.15,1.11,2.63,2.12c0.54,1.01,0.88,1.92,1.01,2.73c0.14,0.81,0.2,2.02,0.2,3.64v30.3c0,2.02,0.24,4.01,0.71,5.96
				c0.47,1.89,1.21,3.8,2.22,5.76c1.08,1.89,2.63,3.4,4.65,4.54c2.02,1.14,4.41,1.72,7.17,1.72c4.91,0,8.58-1.82,11.01-5.45
				c2.42-3.64,3.64-7.84,3.64-12.62v-30.9c0-1.48,0.07-2.59,0.2-3.33c0.13-0.81,0.47-1.65,1.01-2.53c0.54-0.88,1.45-1.51,2.73-1.92
				c1.28-0.4,2.96-0.61,5.05-0.61H163.63z"/>
			<path class="st10" d="M163.63,207.1c1.75,0,3.2,0.17,4.34,0.51s2.02,0.74,2.63,1.21s1.04,1.18,1.31,2.12
				c0.34,0.94,0.51,1.75,0.51,2.42c0.07,0.61,0.1,1.55,0.1,2.83v30.5c0,4.31-0.74,8.55-2.22,12.72c-1.41,4.18-3.47,8.01-6.16,11.51
				c-2.63,3.43-6.06,6.23-10.3,8.38c-4.24,2.09-8.96,3.13-14.14,3.13c-5.18,0-9.8-1.08-14.04-3.23c-4.17-2.15-7.57-4.95-10.2-8.38
				c-2.63-3.5-4.65-7.34-6.06-11.51c-1.41-4.24-2.12-8.52-2.12-12.83v-30.4c0-1.62,0.03-2.79,0.1-3.54
				c0.14-0.81,0.47-1.72,1.01-2.73c0.54-1.01,1.45-1.72,2.73-2.12s3-0.61,5.15-0.61c2.15,0,3.87,0.2,5.15,0.61
				c1.28,0.4,2.15,1.11,2.63,2.12c0.54,1.01,0.88,1.92,1.01,2.73c0.14,0.81,0.2,2.02,0.2,3.64v30.3c0,2.02,0.24,4.01,0.71,5.96
				c0.47,1.89,1.21,3.8,2.22,5.76c1.08,1.89,2.63,3.4,4.65,4.54c2.02,1.14,4.41,1.72,7.17,1.72c4.91,0,8.58-1.82,11.01-5.45
				c2.42-3.64,3.64-7.84,3.64-12.62v-30.9c0-1.48,0.07-2.59,0.2-3.33c0.13-0.81,0.47-1.65,1.01-2.53c0.54-0.88,1.45-1.51,2.73-1.92
				c1.28-0.4,2.96-0.61,5.05-0.61H163.63z"/>
			<path class="st10" d="M246.03,243.76c0,10.23-3.64,19.02-10.91,26.36c-7.2,7.34-15.96,11.01-26.26,11.01h-18.48
				c-2.02,0-3.67-0.2-4.95-0.61c-1.28-0.4-2.19-1.04-2.73-1.92c-0.54-0.94-0.88-1.85-1.01-2.73c-0.13-0.94-0.2-2.19-0.2-3.74v-56.15
				c0-1.62,0.03-2.79,0.1-3.54c0.13-0.74,0.47-1.62,1.01-2.63c0.54-1.01,1.45-1.72,2.73-2.12s3-0.61,5.15-0.61
				c2.02,0,5.12,0.03,9.29,0.1h9.39c9.76,0,18.35,3.54,25.75,10.6c7.41,7,11.11,15.65,11.11,25.96L246.03,243.76z M228.15,244.16
				c0-5.39-1.92-9.9-5.76-13.53c-3.77-3.7-8.21-5.55-13.33-5.55h-9.7v38.18h9.8c4.85,0,9.22-1.78,13.13-5.35
				C226.19,254.27,228.15,249.7,228.15,244.16L228.15,244.16z"/>
			<path class="st10" d="M246.03,243.76c0,10.23-3.64,19.02-10.91,26.36c-7.2,7.34-15.96,11.01-26.26,11.01h-18.48
				c-2.02,0-3.67-0.2-4.95-0.61c-1.28-0.4-2.19-1.04-2.73-1.92c-0.54-0.94-0.88-1.85-1.01-2.73c-0.13-0.94-0.2-2.19-0.2-3.74v-56.15
				c0-1.62,0.03-2.79,0.1-3.54c0.13-0.74,0.47-1.62,1.01-2.63c0.54-1.01,1.45-1.72,2.73-2.12s3-0.61,5.15-0.61
				c2.02,0,5.12,0.03,9.29,0.1h9.39c9.76,0,18.35,3.54,25.75,10.6c7.41,7,11.11,15.65,11.11,25.96L246.03,243.76z M228.15,244.16
				c0-5.39-1.92-9.9-5.76-13.53c-3.77-3.7-8.21-5.55-13.33-5.55h-9.7v38.18h9.8c4.85,0,9.22-1.78,13.13-5.35
				C226.19,254.27,228.15,249.7,228.15,244.16L228.15,244.16z"/>
			<path class="st10" d="M288.28,206.29c9.96,0,18.62,3.6,25.96,10.81c7.34,7.21,11.01,16.33,11.01,27.37
				c0,10.3-3.5,19.22-10.5,26.76c-7,7.47-15.52,11.21-25.55,11.21c-10.03,0-19.26-3.7-26.46-11.11
				c-7.14-7.41-10.71-16.23-10.71-26.46c0-5.59,1.01-10.81,3.03-15.65c2.02-4.92,4.71-9.02,8.08-12.32
				c3.37-3.3,7.24-5.89,11.61-7.78C279.13,207.23,283.64,206.29,288.28,206.29z M288.58,264.56c4.85,0,9.19-1.82,13.03-5.45
				c3.84-3.64,5.76-8.55,5.76-14.75s-1.95-10.94-5.86-14.64c-3.84-3.7-8.11-5.55-12.83-5.55s-9.19,1.89-13.03,5.66
				c-3.84,3.7-5.76,8.59-5.76,14.64s1.92,10.77,5.76,14.54C279.55,262.71,283.86,264.56,288.58,264.56z"/>
			<path class="st10" d="M288.28,206.29c9.96,0,18.62,3.6,25.96,10.81c7.34,7.21,11.01,16.33,11.01,27.37
				c0,10.3-3.5,19.22-10.5,26.76c-7,7.47-15.52,11.21-25.55,11.21c-10.03,0-19.26-3.7-26.46-11.11
				c-7.14-7.41-10.71-16.23-10.71-26.46c0-5.59,1.01-10.81,3.03-15.65c2.02-4.92,4.71-9.02,8.08-12.32
				c3.37-3.3,7.24-5.89,11.61-7.78C279.13,207.23,283.64,206.29,288.28,206.29z M288.58,264.56c4.85,0,9.19-1.82,13.03-5.45
				c3.84-3.64,5.76-8.55,5.76-14.75s-1.95-10.94-5.86-14.64c-3.84-3.7-8.11-5.55-12.83-5.55s-9.19,1.89-13.03,5.66
				c-3.84,3.7-5.76,8.59-5.76,14.64s1.92,10.77,5.76,14.54C279.55,262.71,283.86,264.56,288.58,264.56z"/>
			<path class="st10" d="M364.5,244.06c10.3,9.9,17.61,17.34,21.91,22.32c2.22,2.49,3.33,4.48,3.33,5.96c0,1.95-1.41,4.17-4.24,6.67
				c-2.56,2.15-4.71,3.23-6.46,3.23s-3.74-1.41-6.16-4.24l-22.22-25.35v19.69c0,1.62-0.07,2.79-0.2,3.53
				c-0.07,0.74-0.37,1.62-0.91,2.63c-0.54,1.01-1.45,1.72-2.73,2.12c-1.28,0.4-3,0.61-5.15,0.61c-1.75,0-3.2-0.17-4.34-0.51
				c-1.14-0.34-2.02-0.74-2.63-1.21c-0.61-0.47-1.08-1.14-1.41-2.02c-0.27-0.94-0.44-1.72-0.51-2.32v-59.08
				c0-1.55,0.03-2.69,0.1-3.43c0.13-0.81,0.47-1.72,1.01-2.73c0.54-1.01,1.45-1.72,2.73-2.12c1.28-0.4,3-0.61,5.15-0.61
				c1.75,0,3.2,0.17,4.34,0.51c1.14,0.34,2.02,0.74,2.62,1.21c0.61,0.47,1.04,1.18,1.31,2.12c0.34,0.88,0.51,1.65,0.51,2.32
				c0.07,0.61,0.1,1.55,0.1,2.83v19.29c9.16-10.3,16.56-18.75,22.22-25.35c2.36-2.76,4.41-4.14,6.16-4.14s3.9,1.08,6.46,3.23
				c2.83,2.49,4.24,4.71,4.24,6.67c0,1.48-1.11,3.47-3.33,5.96c-1.88,2.22-4.68,5.18-8.38,8.89c-3.64,3.7-6.8,6.87-9.49,9.49
				l-4.04,3.84L364.5,244.06z"/>
			<path class="st10" d="M364.5,244.06c10.3,9.9,17.61,17.34,21.91,22.32c2.22,2.49,3.33,4.48,3.33,5.96c0,1.95-1.41,4.17-4.24,6.67
				c-2.56,2.15-4.71,3.23-6.46,3.23s-3.74-1.41-6.16-4.24l-22.22-25.35v19.69c0,1.62-0.07,2.79-0.2,3.53
				c-0.07,0.74-0.37,1.62-0.91,2.63c-0.54,1.01-1.45,1.72-2.73,2.12c-1.28,0.4-3,0.61-5.15,0.61c-1.75,0-3.2-0.17-4.34-0.51
				c-1.14-0.34-2.02-0.74-2.63-1.21c-0.61-0.47-1.08-1.14-1.41-2.02c-0.27-0.94-0.44-1.72-0.51-2.32v-59.08
				c0-1.55,0.03-2.69,0.1-3.43c0.13-0.81,0.47-1.72,1.01-2.73c0.54-1.01,1.45-1.72,2.73-2.12c1.28-0.4,3-0.61,5.15-0.61
				c1.75,0,3.2,0.17,4.34,0.51c1.14,0.34,2.02,0.74,2.62,1.21c0.61,0.47,1.04,1.18,1.31,2.12c0.34,0.88,0.51,1.65,0.51,2.32
				c0.07,0.61,0.1,1.55,0.1,2.83v19.29c9.16-10.3,16.56-18.75,22.22-25.35c2.36-2.76,4.41-4.14,6.16-4.14s3.9,1.08,6.46,3.23
				c2.83,2.49,4.24,4.71,4.24,6.67c0,1.48-1.11,3.47-3.33,5.96c-1.88,2.22-4.68,5.18-8.38,8.89c-3.64,3.7-6.8,6.87-9.49,9.49
				l-4.04,3.84L364.5,244.06z"/>
			<path class="st10" d="M453.59,207.1c1.75,0,3.2,0.17,4.34,0.51c1.14,0.34,2.02,0.74,2.63,1.21c0.61,0.47,1.04,1.18,1.31,2.12
				c0.34,0.94,0.51,1.75,0.51,2.42c0.07,0.61,0.1,1.55,0.1,2.83v30.5c0,4.31-0.74,8.55-2.22,12.72c-1.41,4.18-3.47,8.01-6.16,11.51
				c-2.63,3.43-6.06,6.23-10.3,8.38c-4.24,2.09-8.96,3.13-14.14,3.13s-9.8-1.08-14.04-3.23c-4.17-2.15-7.57-4.95-10.2-8.38
				c-2.63-3.5-4.65-7.34-6.06-11.51c-1.41-4.24-2.12-8.52-2.12-12.83v-30.4c0-1.62,0.03-2.79,0.1-3.54
				c0.14-0.81,0.47-1.72,1.01-2.73c0.54-1.01,1.45-1.72,2.73-2.12c1.28-0.4,3-0.61,5.15-0.61s3.87,0.2,5.15,0.61
				c1.28,0.4,2.15,1.11,2.62,2.12c0.54,1.01,0.88,1.92,1.01,2.73c0.13,0.81,0.2,2.02,0.2,3.64v30.3c0,2.02,0.24,4.01,0.71,5.96
				c0.47,1.89,1.21,3.8,2.22,5.76c1.08,1.89,2.63,3.4,4.65,4.54c2.02,1.14,4.41,1.72,7.17,1.72c4.92,0,8.58-1.82,11.01-5.45
				c2.42-3.64,3.64-7.84,3.64-12.62v-30.9c0-1.48,0.07-2.59,0.2-3.33c0.13-0.81,0.47-1.65,1.01-2.53c0.54-0.88,1.45-1.51,2.73-1.92
				c1.28-0.4,2.96-0.61,5.05-0.61H453.59z"/>
			<path class="st10" d="M453.59,207.1c1.75,0,3.2,0.17,4.34,0.51c1.14,0.34,2.02,0.74,2.63,1.21c0.61,0.47,1.04,1.18,1.31,2.12
				c0.34,0.94,0.51,1.75,0.51,2.42c0.07,0.61,0.1,1.55,0.1,2.83v30.5c0,4.31-0.74,8.55-2.22,12.72c-1.41,4.18-3.47,8.01-6.16,11.51
				c-2.63,3.43-6.06,6.23-10.3,8.38c-4.24,2.09-8.96,3.13-14.14,3.13s-9.8-1.08-14.04-3.23c-4.17-2.15-7.57-4.95-10.2-8.38
				c-2.63-3.5-4.65-7.34-6.06-11.51c-1.41-4.24-2.12-8.52-2.12-12.83v-30.4c0-1.62,0.03-2.79,0.1-3.54
				c0.14-0.81,0.47-1.72,1.01-2.73c0.54-1.01,1.45-1.72,2.73-2.12c1.28-0.4,3-0.61,5.15-0.61s3.87,0.2,5.15,0.61
				c1.28,0.4,2.15,1.11,2.62,2.12c0.54,1.01,0.88,1.92,1.01,2.73c0.13,0.81,0.2,2.02,0.2,3.64v30.3c0,2.02,0.24,4.01,0.71,5.96
				c0.47,1.89,1.21,3.8,2.22,5.76c1.08,1.89,2.63,3.4,4.65,4.54c2.02,1.14,4.41,1.72,7.17,1.72c4.92,0,8.58-1.82,11.01-5.45
				c2.42-3.64,3.64-7.84,3.64-12.62v-30.9c0-1.48,0.07-2.59,0.2-3.33c0.13-0.81,0.47-1.65,1.01-2.53c0.54-0.88,1.45-1.51,2.73-1.92
				c1.28-0.4,2.96-0.61,5.05-0.61H453.59z"/>
		</g>
		<g>
			<path class="st10" d="M136.48,150.67c0-3.66-0.55-5.84-1.86-7.64c-1.97-2.67-5.08-4.04-9.29-4.04c-4.91,0-7.81,1.53-11.14,5.78
				c0.11-1.37,0.11-1.53,0.11-2.35v-2.9h-7.43c0.32,2.24,0.44,4.1,0.44,7.11v17.15c0,3.05-0.11,4.76-0.44,7.11h7.87
				c-0.34-2.35-0.44-4.42-0.44-7.11v-11.03c2.41-5.4,5.63-8.13,9.57-8.13c2.07,0,3.71,0.82,4.59,2.24c0.66,1.04,0.93,2.52,0.93,4.81
				v12.13c0,2.79-0.11,4.64-0.38,7.11h7.92c-0.34-2.01-0.44-4.09-0.44-7.11V150.67z"/>
			<path class="st10" d="M136.48,150.67c0-3.66-0.55-5.84-1.86-7.64c-1.97-2.67-5.08-4.04-9.29-4.04c-4.91,0-7.81,1.53-11.14,5.78
				c0.11-1.37,0.11-1.53,0.11-2.35v-2.9h-7.43c0.32,2.24,0.44,4.1,0.44,7.11v17.15c0,3.05-0.11,4.76-0.44,7.11h7.87
				c-0.34-2.35-0.44-4.42-0.44-7.11v-11.03c2.41-5.4,5.63-8.13,9.57-8.13c2.07,0,3.71,0.82,4.59,2.24c0.66,1.04,0.93,2.52,0.93,4.81
				v12.13c0,2.79-0.11,4.64-0.38,7.11h7.92c-0.34-2.01-0.44-4.09-0.44-7.11V150.67z"/>
			<path class="st10" d="M172.91,155.48c-0.17-3.72-0.55-5.67-1.59-8.3c-2.18-5.46-7.22-8.63-13.61-8.63
				c-9.34,0-15.41,6.61-15.41,16.72c0,10.22,6.12,16.66,15.79,16.66c4.59,0,8.41-1.42,11.24-4.21c1.36-1.37,2.07-2.39,3.33-5.02
				l-6.45-2.07c-0.55,1.48-0.93,2.07-1.59,2.84c-1.59,1.75-3.88,2.73-6.54,2.73c-2.79,0-5.25-1.08-6.84-3.05
				c-1.25-1.59-1.75-3.11-2.03-6.12h23.77C172.91,155.75,172.91,155.59,172.91,155.48z M149.43,151.6c0.82-4.59,3.94-7.43,8.19-7.43
				c2.56,0,4.42,0.72,5.9,2.18c1.37,1.37,2.03,2.84,2.41,5.25H149.43z"/>
			<path class="st10" d="M172.91,155.48c-0.17-3.72-0.55-5.67-1.59-8.3c-2.18-5.46-7.22-8.63-13.61-8.63
				c-9.34,0-15.41,6.61-15.41,16.72c0,10.22,6.12,16.66,15.79,16.66c4.59,0,8.41-1.42,11.24-4.21c1.36-1.37,2.07-2.39,3.33-5.02
				l-6.45-2.07c-0.55,1.48-0.93,2.07-1.59,2.84c-1.59,1.75-3.88,2.73-6.54,2.73c-2.79,0-5.25-1.08-6.84-3.05
				c-1.25-1.59-1.75-3.11-2.03-6.12h23.77C172.91,155.75,172.91,155.59,172.91,155.48z M149.43,151.6c0.82-4.59,3.94-7.43,8.19-7.43
				c2.56,0,4.42,0.72,5.9,2.18c1.37,1.37,2.03,2.84,2.41,5.25H149.43z"/>
			<path class="st10" d="M193.13,165.91c-2.62,0-3.6-0.98-3.6-3.66v-16.93h2.46c2.52,0,3.55,0.06,5.35,0.34v-6.45
				c-1.75,0.27-2.94,0.32-5.52,0.32h-2.29v-0.03h-7.05v0.03h-2.01c-2.29,0-3.33-0.06-4.91-0.32v6.45c1.8-0.27,2.84-0.34,4.87-0.34
				h2.07v18.35c0,5.74,2.52,7.98,8.79,7.98c2.84,0,4.49-0.27,6.84-1.14l-0.98-5.78C195.42,165.64,194.55,165.91,193.13,165.91z"/>
			<path class="st10" d="M193.13,165.91c-2.62,0-3.6-0.98-3.6-3.66v-16.93h2.46c2.52,0,3.55,0.06,5.35,0.34v-6.45
				c-1.75,0.27-2.94,0.32-5.52,0.32h-2.29v-0.03h-7.05v0.03h-2.01c-2.29,0-3.33-0.06-4.91-0.32v6.45c1.8-0.27,2.84-0.34,4.87-0.34
				h2.07v18.35c0,5.74,2.52,7.98,8.79,7.98c2.84,0,4.49-0.27,6.84-1.14l-0.98-5.78C195.42,165.64,194.55,165.91,193.13,165.91z"/>
			<path class="st10" d="M190.34,135.01h-7.03v-5.43l7.03-1.59V135.01z"/>
			<path class="st10" d="M233.36,141.21c0,0-0.21-6.19-0.14-8.41h-7.03l0.03,8.41H233.36z"/>
			<path class="st10" d="M234.15,123.43c0,0-6.61-2.81-6.71-2.67c-0.75,1.01-1.48,8.96-1.24,8.96c0.24,0,7.16,0,7.16,0
				S233.59,125.99,234.15,123.43z"/>
			<path class="st10" d="M235.07,119.66l-6.64-2.84c0,0,1.19-3.57,3.51-7.4c0,0,5.31,5.16,5.22,5.23
				C236.56,115.28,235.07,119.66,235.07,119.66z"/>
			<path class="st10" d="M243.61,107.32c0,0-3.94,3.33-4.42,4.27c-0.05,0.08-5.1-5.1-5.1-5.1s2.87-3.37,6.67-5.93L243.61,107.32z"/>
			<path class="st10" d="M254.15,103.24c-0.89,0-5.23,1.42-6.01,2.2l-2.59-6.64c0,0,4.18-2.2,8.6-2.94V103.24z"/>
			<path class="st10" d="M265.67,101.73c-3.98,0-7.96,0.7-7.96,0.7v-7.22c1.33-0.5,7.96-0.64,7.96-0.64S266.11,101.73,265.67,101.73
				z"/>
			<path class="st10" d="M248.29,144.66v-5.14h-7.43c0.34,2.24,0.38,3.77,0.38,7.11v17.15c0,2.84-0.11,4.42-0.38,7.11h7.81
				c-0.27-2.56-0.38-4.15-0.38-7.11v-10.1c0.32-2.62,0.87-3.88,2.24-5.46c1.54-1.8,3.6-2.67,6.33-2.67c1.42,0,2.56,0.21,4.87,0.87
				l1.91-6.88c-2.46-0.44-3.77-0.6-5.08-0.6C253.63,138.93,250.25,140.79,248.29,144.66z"/>
			<path class="st10" d="M248.29,144.66v-5.14h-7.43c0.34,2.24,0.38,3.77,0.38,7.11v17.15c0,2.84-0.11,4.42-0.38,7.11h7.81
				c-0.27-2.56-0.38-4.15-0.38-7.11v-10.1c0.32-2.62,0.87-3.88,2.24-5.46c1.54-1.8,3.6-2.67,6.33-2.67c1.42,0,2.56,0.21,4.87,0.87
				l1.91-6.88c-2.46-0.44-3.77-0.6-5.08-0.6C253.63,138.93,250.25,140.79,248.29,144.66z"/>
			<path class="st10" d="M296.9,155.48c-0.17-3.72-0.55-5.67-1.59-8.3c-2.18-5.46-7.2-8.63-13.59-8.63
				c-9.34,0-15.41,6.61-15.41,16.72c0,10.22,6.12,16.66,15.79,16.66c4.59,0,8.41-1.42,11.26-4.21c1.37-1.37,2.07-2.39,3.33-5.02
				l-6.45-2.07c-0.55,1.48-0.93,2.07-1.59,2.84c-1.59,1.75-3.87,2.73-6.56,2.73c-2.79,0-5.25-1.08-6.83-3.05
				c-1.25-1.59-1.75-3.11-2.03-6.12h23.77C296.9,155.75,296.9,155.59,296.9,155.48z M273.4,151.6c0.82-4.59,3.94-7.43,8.19-7.43
				c2.56,0,4.42,0.72,5.9,2.18c1.37,1.37,2.03,2.84,2.41,5.25H273.4z"/>
			<path class="st10" d="M296.9,155.48c-0.17-3.72-0.55-5.67-1.59-8.3c-2.18-5.46-7.2-8.63-13.59-8.63
				c-9.34,0-15.41,6.61-15.41,16.72c0,10.22,6.12,16.66,15.79,16.66c4.59,0,8.41-1.42,11.26-4.21c1.37-1.37,2.07-2.39,3.33-5.02
				l-6.45-2.07c-0.55,1.48-0.93,2.07-1.59,2.84c-1.59,1.75-3.87,2.73-6.56,2.73c-2.79,0-5.25-1.08-6.83-3.05
				c-1.25-1.59-1.75-3.11-2.03-6.12h23.77C296.9,155.75,296.9,155.59,296.9,155.48z M273.4,151.6c0.82-4.59,3.94-7.43,8.19-7.43
				c2.56,0,4.42,0.72,5.9,2.18c1.37,1.37,2.03,2.84,2.41,5.25H273.4z"/>
			<path class="st10" d="M330.11,149.36c0-3.71-0.72-5.78-2.56-7.54c-2.35-2.3-5.52-3.22-10.76-3.22c-4.7,0-7.75,0.82-10.44,2.79
				c-2.07,1.48-3.05,2.9-4.32,6.06l6.99,1.25c0.66-1.97,1.14-2.73,2.18-3.49c1.25-0.98,3.49-1.59,5.68-1.59
				c4.15,0,6.29,1.63,6.29,4.81v2.79c-7.81,0.17-11.85,0.7-15.41,2.18c-3.77,1.59-6.16,5.02-6.16,8.85c0,5.74,4.04,9.18,10.71,9.18
				c1.75,0,3.49-0.21,5.08-0.66c2.24-0.61,3.6-1.37,5.8-3.45v3.55h7.37c-0.34-2.46-0.44-3.94-0.44-6.83V149.36z M323.17,158.7
				c0,1.91-0.66,3.49-1.97,4.81c-1.86,1.8-4.7,2.9-7.6,2.9c-3.05,0-4.97-1.59-4.97-4.15c0-4.26,4.1-6.06,14.52-6.29v2.73H323.17z"/>
			<path class="st10" d="M330.11,149.36c0-3.71-0.72-5.78-2.56-7.54c-2.35-2.3-5.52-3.22-10.76-3.22c-4.7,0-7.75,0.82-10.44,2.79
				c-2.07,1.48-3.05,2.9-4.32,6.06l6.99,1.25c0.66-1.97,1.14-2.73,2.18-3.49c1.25-0.98,3.49-1.59,5.68-1.59
				c4.15,0,6.29,1.63,6.29,4.81v2.79c-7.81,0.17-11.85,0.7-15.41,2.18c-3.77,1.59-6.16,5.02-6.16,8.85c0,5.74,4.04,9.18,10.71,9.18
				c1.75,0,3.49-0.21,5.08-0.66c2.24-0.61,3.6-1.37,5.8-3.45v3.55h7.37c-0.34-2.46-0.44-3.94-0.44-6.83V149.36z M323.17,158.7
				c0,1.91-0.66,3.49-1.97,4.81c-1.86,1.8-4.7,2.9-7.6,2.9c-3.05,0-4.97-1.59-4.97-4.15c0-4.26,4.1-6.06,14.52-6.29v2.73H323.17z"/>
			<path class="st10" d="M385.05,150.29c0-3.87-0.76-6.33-2.56-8.3c-1.86-2.03-4.7-3.11-8.19-3.11c-2.46,0-4.32,0.44-6.12,1.42
				c-1.69,0.87-2.73,1.86-4.59,4.32c-0.66-1.69-1.1-2.41-2.07-3.28c-1.69-1.63-4.1-2.46-7.05-2.46c-4.53,0-8.57,2.14-10.16,5.46
				c0.06-0.87,0.06-1.69,0.06-2.03v-2.79h-7.32c0.27,2.07,0.38,3.66,0.38,7.11v17.15c0,2.94-0.11,4.76-0.38,7.11h7.7
				c-0.27-2.52-0.38-4.15-0.38-7.11v-10.82c0.6-2.62,1.14-3.88,2.35-5.46c1.48-1.91,3.33-2.84,5.63-2.84c3.55,0,5.29,2.29,5.29,6.88
				v12.24c0,3.11-0.11,4.81-0.44,7.11h7.87c-0.28-2.24-0.38-4.09-0.38-7.11v-10.82c0.66-3.39,1.53-5.14,3.45-6.77
				c1.31-1.14,2.67-1.63,4.49-1.63c3.66,0,5.35,2.18,5.35,6.99v12.24c0,3.22-0.11,4.87-0.44,7.11h7.98
				c-0.34-2.24-0.44-4.04-0.44-7.11v-13.49H385.05z"/>
			<path class="st10" d="M385.05,150.29c0-3.87-0.76-6.33-2.56-8.3c-1.86-2.03-4.7-3.11-8.19-3.11c-2.46,0-4.32,0.44-6.12,1.42
				c-1.69,0.87-2.73,1.86-4.59,4.32c-0.66-1.69-1.1-2.41-2.07-3.28c-1.69-1.63-4.1-2.46-7.05-2.46c-4.53,0-8.57,2.14-10.16,5.46
				c0.06-0.87,0.06-1.69,0.06-2.03v-2.79h-7.32c0.27,2.07,0.38,3.66,0.38,7.11v17.15c0,2.94-0.11,4.76-0.38,7.11h7.7
				c-0.27-2.52-0.38-4.15-0.38-7.11v-10.82c0.6-2.62,1.14-3.88,2.35-5.46c1.48-1.91,3.33-2.84,5.63-2.84c3.55,0,5.29,2.29,5.29,6.88
				v12.24c0,3.11-0.11,4.81-0.44,7.11h7.87c-0.28-2.24-0.38-4.09-0.38-7.11v-10.82c0.66-3.39,1.53-5.14,3.45-6.77
				c1.31-1.14,2.67-1.63,4.49-1.63c3.66,0,5.35,2.18,5.35,6.99v12.24c0,3.22-0.11,4.87-0.44,7.11h7.98
				c-0.34-2.24-0.44-4.04-0.44-7.11v-13.49H385.05z"/>
			<path class="st10" d="M415.96,155.2c-1.8-1.37-4.04-2.14-9.61-3.33c-3.11-0.72-4.26-1.04-5.46-1.63
				c-1.1-0.59-1.69-1.53-1.69-2.56c0-2.29,2.29-3.83,5.68-3.83c3.55,0,5.4,1.31,6.01,4.32l7.22-0.93c-0.76-2.67-1.53-4.04-2.94-5.4
				c-2.24-2.07-5.8-3.17-10.27-3.17c-4.97,0-8.68,1.42-10.92,4.26c-1.08,1.36-1.69,3.17-1.69,5.08c0,3.17,1.69,5.8,4.81,7.26
				c1.86,0.87,3.55,1.42,7.87,2.35c4.36,0.98,4.7,1.04,5.74,1.75c0.87,0.6,1.42,1.63,1.42,2.73c0,2.56-2.52,4.15-6.56,4.15
				c-4.26,0-6.29-1.48-7.2-5.19l-7.49,0.93c0.66,2.46,1.14,3.55,2.14,4.87c2.35,3.17,6.56,4.87,12.17,4.87
				c4.97,0,8.8-1.21,11.3-3.55c1.63-1.53,2.67-3.94,2.67-6.18C419.13,158.97,418.09,156.73,415.96,155.2z"/>
			<path class="st10" d="M415.96,155.2c-1.8-1.37-4.04-2.14-9.61-3.33c-3.11-0.72-4.26-1.04-5.46-1.63
				c-1.1-0.59-1.69-1.53-1.69-2.56c0-2.29,2.29-3.83,5.68-3.83c3.55,0,5.4,1.31,6.01,4.32l7.22-0.93c-0.76-2.67-1.53-4.04-2.94-5.4
				c-2.24-2.07-5.8-3.17-10.27-3.17c-4.97,0-8.68,1.42-10.92,4.26c-1.08,1.36-1.69,3.17-1.69,5.08c0,3.17,1.69,5.8,4.81,7.26
				c1.86,0.87,3.55,1.42,7.87,2.35c4.36,0.98,4.7,1.04,5.74,1.75c0.87,0.6,1.42,1.63,1.42,2.73c0,2.56-2.52,4.15-6.56,4.15
				c-4.26,0-6.29-1.48-7.2-5.19l-7.49,0.93c0.66,2.46,1.14,3.55,2.14,4.87c2.35,3.17,6.56,4.87,12.17,4.87
				c4.97,0,8.8-1.21,11.3-3.55c1.63-1.53,2.67-3.94,2.67-6.18C419.13,158.97,418.09,156.73,415.96,155.2z"/>
			<path class="st10" d="M226.72,144.3v0.05c-1.21-1.59-1.8-2.24-2.78-3.01c-2.14-1.69-4.91-2.52-8.3-2.52
				c-9.02,0-14.75,6.33-14.75,16.34c0,5.9,2.01,10.86,5.68,13.72c2.41,1.91,5.29,2.79,9.12,2.79c5.29,0,8.19-1.42,11.03-5.4
				c-0.06,0.7-0.06,1.31-0.06,1.97v2.67h7.26c-0.27-2.41-0.38-4.15-0.38-7.37V144.3H226.72z M224.27,162.19
				c-1.63,2.24-4.42,3.6-7.32,3.6c-5.46,0-8.96-4.09-8.96-10.6c0-6.5,3.39-10.65,8.68-10.65c2.62,0,5.4,1.21,7.09,3.05
				c1.59,1.75,2.62,4.59,2.62,7.26C226.39,157.72,225.62,160.39,224.27,162.19z"/>
			<path class="st10" d="M226.72,144.3v0.05c-1.21-1.59-1.8-2.24-2.78-3.01c-2.14-1.69-4.91-2.52-8.3-2.52
				c-9.02,0-14.75,6.33-14.75,16.34c0,5.9,2.01,10.86,5.68,13.72c2.41,1.91,5.29,2.79,9.12,2.79c5.29,0,8.19-1.42,11.03-5.4
				c-0.06,0.7-0.06,1.31-0.06,1.97v2.67h7.26c-0.27-2.41-0.38-4.15-0.38-7.37V144.3H226.72z M224.27,162.19
				c-1.63,2.24-4.42,3.6-7.32,3.6c-5.46,0-8.96-4.09-8.96-10.6c0-6.5,3.39-10.65,8.68-10.65c2.62,0,5.4,1.21,7.09,3.05
				c1.59,1.75,2.62,4.59,2.62,7.26C226.39,157.72,225.62,160.39,224.27,162.19z"/>
		</g>
	</g>
</g>
</svg>
