<?xml version="1.0" encoding="utf-8"?>
<!-- Generator: Adobe Illustrator 26.0.0, SVG Export Plug-In . SVG Version: 6.00 Build 0)  -->
<svg version="1.1" id="Capa_1" xmlns="http://www.w3.org/2000/svg" xmlns:xlink="http://www.w3.org/1999/xlink" x="0px" y="0px"
	 viewBox="0 0 512 512" style="enable-background:new 0 0 512 512;" xml:space="preserve">
<style type="text/css">
	.st0{clip-path:url(#SVGID_00000156556681840110471060000007360405588257530021_);}
	.st1{fill:url(#SVGID_00000169515580863641422610000011165003792353203600_);}
	.st2{opacity:0.35;}
	.st3{opacity:0.5;fill:#C8C8C8;enable-background:new    ;}
	.st4{opacity:0.5;fill-rule:evenodd;clip-rule:evenodd;fill:#C8C8C8;enable-background:new    ;}
	.st5{opacity:0.5;fill:#FFFFFF;enable-background:new    ;}
	.st6{opacity:0.5;fill:#F8AF45;enable-background:new    ;}
	.st7{fill:#C1C1C1;fill-opacity:0.59;}
	.st8{fill:#C9C5C5;}
	.st9{fill-rule:evenodd;clip-rule:evenodd;fill:#C9C5C5;}
	.st10{fill:#FFFFFF;}
	.st11{fill-rule:evenodd;clip-rule:evenodd;fill:url(#SVGID_00000079473591977391490210000014123056747773387658_);}
	.st12{fill:#E4E4E4;}
	.st13{fill:#C1C1C1;fill-opacity:0.6;}
	.st14{fill:#A00045;}
	.st15{fill-rule:evenodd;clip-rule:evenodd;fill:#A00045;}
	.st16{fill:#FF006E;}
	.st17{fill:url(#SVGID_00000054960873648956086110000007258802169483115959_);}
	.st18{fill-rule:evenodd;clip-rule:evenodd;fill:url(#SVGID_00000093151595429413768320000007915813918064691850_);}
	.st19{fill:#CA1362;}
	.st20{fill:#C1C1C1;fill-opacity:0.37;}
	.st21{fill:#ECA817;}
	.st22{fill-rule:evenodd;clip-rule:evenodd;fill:#ECA817;}
	.st23{fill:url(#SVGID_00000085244601461596258420000008734896430628996030_);}
	.st24{fill-rule:evenodd;clip-rule:evenodd;fill:url(#SVGID_00000049921642584446740480000004913792897652044466_);}
	.st25{fill:#FFB93A;}
	.st26{fill:#4C129D;}
	.st27{fill-rule:evenodd;clip-rule:evenodd;fill:#4C129D;}
	.st28{fill:url(#SVGID_00000041976882992364658010000013688033367920830650_);}
	.st29{fill-rule:evenodd;clip-rule:evenodd;fill:url(#SVGID_00000000937133042577447500000015458987465875891111_);}
	.st30{fill:#641BCC;}
	.st31{fill:#244D8F;stroke:#244D8F;stroke-width:2;}
	.st32{fill:url(#SVGID_00000101785222321092160020000008284811593340022168_);}
	.st33{fill:none;stroke:url(#SVGID_00000038404930287794415010000005853366302210993334_);stroke-width:2;}
	.st34{fill:#3478E4;}
	.st35{clip-path:url(#SVGID_00000060743958809089122220000010345506045624478614_);}
	.st36{fill:url(#SVGID_00000175303511051076005580000007675031376370596279_);}
	.st37{fill-rule:evenodd;clip-rule:evenodd;fill:url(#SVGID_00000141432110232247557220000014463538593765706651_);}
	.st38{fill:url(#SVGID_00000168118980053372078790000002678736337626377358_);}
	.st39{fill-rule:evenodd;clip-rule:evenodd;fill:url(#SVGID_00000083782574479642270550000014669494994036298146_);}
	.st40{fill:url(#SVGID_00000181805812552521374340000007840370486874363052_);}
	.st41{fill-rule:evenodd;clip-rule:evenodd;fill:url(#SVGID_00000091723571870129170560000009940142765903596683_);}
	.st42{fill:url(#SVGID_00000141429278210472517240000012985928235747170437_);}
	.st43{fill-rule:evenodd;clip-rule:evenodd;fill:url(#SVGID_00000179635524004640429340000006018138366152505781_);}
	.st44{fill:url(#SVGID_00000139268665424543116240000016999430511856765088_);}
	.st45{fill:none;stroke:url(#SVGID_00000168821725136442137140000007055103975945544861_);stroke-width:2;}
	.st46{clip-path:url(#SVGID_00000116942151862160917180000005553424640318476930_);}
	.st47{fill:url(#SVGID_00000135659532609548798800000001411894561219216560_);}
	.st48{fill-rule:evenodd;clip-rule:evenodd;fill:url(#SVGID_00000076580121508520095570000004410657168074531212_);}
	.st49{fill:url(#SVGID_00000049182684033582008620000008607806815173128581_);}
	.st50{fill-rule:evenodd;clip-rule:evenodd;fill:url(#SVGID_00000099624848204441448420000008940052880141555627_);}
	.st51{fill:url(#SVGID_00000104668912366986501870000008172219983311545486_);}
	.st52{fill-rule:evenodd;clip-rule:evenodd;fill:url(#SVGID_00000134229002312545183480000015450898939128501665_);}
	.st53{fill:url(#SVGID_00000010277798987830727200000011037556730496771497_);}
	.st54{fill-rule:evenodd;clip-rule:evenodd;fill:url(#SVGID_00000045611288740341996910000016911838435940452491_);}
	.st55{fill:url(#SVGID_00000161614695037269737790000017013678184851564441_);}
	.st56{fill:none;stroke:url(#SVGID_00000154405233133398275210000016573209752725340051_);stroke-width:2;}
	.st57{clip-path:url(#SVGID_00000066500259056491087560000007356790092256059309_);}
	.st58{fill:url(#SVGID_00000076574831616856406660000004616923071681396921_);}
	.st59{fill:url(#SVGID_00000120534048138103276150000011403839828266977163_);}
	.st60{fill:url(#SVGID_00000045580109839362509270000016490542970798840985_);}
	.st61{fill:url(#SVGID_00000006703666127156527340000014889292809371345848_);}
	.st62{fill:url(#SVGID_00000154426222672717595080000013974065276854657205_);}
	.st63{fill:url(#SVGID_00000008132175328018816390000016210437876319697839_);}
	.st64{fill:url(#SVGID_00000073709928529730115770000002660206614830871445_);}
	.st65{fill:url(#SVGID_00000088830481576238756890000017091044863664444038_);}
	.st66{fill:url(#SVGID_00000023970876235866811470000002662710355072208768_);}
	.st67{fill:url(#SVGID_00000022559361690014063240000003144156475943085759_);}
	.st68{fill:url(#SVGID_00000005262291630493532900000008695391620772838554_);}
	.st69{fill:url(#SVGID_00000049206677745079169330000007146402917364047007_);}
	.st70{fill:url(#SVGID_00000069379650453524170250000015512154483745989037_);}
	.st71{fill:url(#SVGID_00000031923691881135145130000012295117507195268765_);}
	.st72{fill:url(#SVGID_00000101088714467220711940000014673526743212643984_);}
	.st73{fill:#FFFFFF;fill-opacity:0.8;}
	.st74{fill:url(#SVGID_00000078727797142509899100000003229096740630596798_);}
	.st75{fill:url(#SVGID_00000026146455781445278610000015565478589846010530_);}
	.st76{fill:url(#SVGID_00000042000042003050766930000002177883639355149468_);}
	.st77{fill:url(#SVGID_00000020400096175451771230000005258333916907617713_);}
	.st78{fill:url(#SVGID_00000176764413642600524220000006110766556670175653_);}
	.st79{fill:url(#SVGID_00000038383419279163274330000011926977871123069854_);}
	.st80{fill-rule:evenodd;clip-rule:evenodd;fill:url(#SVGID_00000150078733208292540170000015079889449089528966_);}
	.st81{fill:#474747;}
	.st82{fill:#919296;}
	.st83{fill:#ED4028;}
	.st84{fill:#EF5A28;}
	.st85{fill:#F17028;}
	.st86{fill:#F38028;}
	.st87{fill:#F9A325;}
	.st88{fill:#FBB723;}
	.st89{fill:#1E1E1E;}
	.st90{fill:url(#SVGID_00000098900941696826309310000017036423213689982864_);}
	.st91{fill:url(#SVGID_00000182519744520901823020000009077421418676480651_);}
	.st92{fill:url(#SVGID_00000118398231563491027870000011716579268508316335_);}
	.st93{fill:url(#SVGID_00000063622535278781599010000017080805237862317219_);}
	.st94{fill:url(#SVGID_00000099647380052533828010000000889592435128938430_);}
	.st95{fill:url(#SVGID_00000166663439639388620220000016296111986641230489_);}
	.st96{clip-path:url(#SVGID_00000116933899701011216610000015414441527725830552_);}
	.st97{fill:url(#SVGID_00000142143838109283055510000002665254104968891320_);}
	.st98{fill:url(#SVGID_00000038371550062007844970000005302666829556106417_);}
	.st99{fill:url(#SVGID_00000085244798659498193930000006218109016016332184_);}
	.st100{fill:url(#SVGID_00000114792487442684203820000017960231220943176614_);}
	.st101{fill:url(#SVGID_00000057133210705726788320000004454377634619117742_);}
	.st102{fill:url(#SVGID_00000165949865874819115290000013734720030412488870_);}
	.st103{fill:url(#SVGID_00000008136065359726205950000012543529023540236969_);}
	.st104{fill:url(#SVGID_00000111167159119332254970000012423999984399901107_);}
	.st105{fill:url(#SVGID_00000177447873234194246640000017545556461814893441_);}
	.st106{fill:url(#SVGID_00000026125214462548543420000017831818150295137670_);}
	.st107{fill:url(#SVGID_00000014599073831761873910000003094441395655078817_);}
	.st108{fill:url(#SVGID_00000075141939361022729820000005704910734717088916_);}
	.st109{fill:url(#SVGID_00000085251860621304685650000012728293970323588480_);}
	.st110{fill:url(#SVGID_00000106139368225090373660000005304677479235710117_);}
	.st111{fill:url(#SVGID_00000039094476476006679420000015354872295755948439_);}
	.st112{fill:url(#SVGID_00000101799211108874348910000004218884954452451714_);}
	.st113{fill:url(#SVGID_00000157305249831123164480000009190542732973897887_);}
	.st114{fill:url(#SVGID_00000065056594575381232970000011007888291932219064_);}
	.st115{fill:url(#SVGID_00000161608095994418489710000012764045583445456297_);}
	.st116{fill:url(#SVGID_00000060722093771482473640000011323207918570277019_);}
	.st117{fill:url(#SVGID_00000086654941251181623400000002287535232995209902_);}
	.st118{fill-rule:evenodd;clip-rule:evenodd;fill:url(#SVGID_00000077315962639428490450000015102975397020970671_);}
	.st119{fill:url(#SVGID_00000105417553391825662170000005619903690899822753_);}
	.st120{fill:url(#SVGID_00000065752845418153568750000001289897375803159982_);}
	.st121{fill:url(#SVGID_00000145762425949687608310000015569631427822420920_);}
	.st122{fill:url(#SVGID_00000127007576206153397610000008440969499555033482_);}
	.st123{fill:url(#SVGID_00000129894844774676983040000001879686122991548856_);}
	.st124{fill:url(#SVGID_00000023265616267941657830000013804101935299538348_);}
	.st125{fill:#231F20;}
	.st126{fill:url(#SVGID_00000119800196729481591180000001561518540874054275_);}
	.st127{fill:url(#SVGID_00000041273606802368044710000008543983796075489209_);}
	.st128{fill:url(#SVGID_00000160162989984179747820000006512353064867864455_);}
	.st129{fill:url(#SVGID_00000113342908844650953270000012410170391334972579_);}
	.st130{fill:url(#SVGID_00000070119649584199897710000004285059050837085116_);}
	.st131{fill:url(#SVGID_00000054257063295959166860000017793092387289759392_);}
	.st132{fill:url(#SVGID_00000119796025349964074000000006905392146608144810_);}
	.st133{fill:url(#SVGID_00000156553776848839490670000009725527972998008730_);}
	.st134{fill:url(#SVGID_00000037687582411645247400000009309549723856735134_);}
	.st135{fill:url(#SVGID_00000178169914753961299300000015772418055672622764_);}
	.st136{fill:url(#SVGID_00000098222919577541152050000007960833430432918678_);}
	.st137{fill:url(#SVGID_00000063618727845275508460000002431945803403498157_);}
	.st138{fill:url(#SVGID_00000071559277147583206320000010355834791588954254_);}
	.st139{fill:url(#SVGID_00000049942425627089019350000018085905518906044332_);}
	.st140{fill:url(#SVGID_00000087409865884112174360000010764307324264358281_);}
	.st141{fill:url(#SVGID_00000139973358360495078450000006147108489087876510_);}
	.st142{fill:url(#SVGID_00000053530772378925768440000018323939581788836511_);}
	.st143{fill:url(#SVGID_00000085930344516443027440000013566637873005567134_);}
	.st144{fill:url(#SVGID_00000044140899370645827490000005975605251482394771_);}
	.st145{fill:url(#SVGID_00000173150475804523848550000002517141130749068963_);}
	.st146{fill:url(#SVGID_00000065037679420995596120000013433853290078750642_);}
	.st147{fill-rule:evenodd;clip-rule:evenodd;fill:url(#SVGID_00000132771689902292090450000011923927956163145613_);}
	.st148{fill:url(#SVGID_00000074436944990678190420000017510615411261528704_);}
	.st149{fill:url(#SVGID_00000049903914627431029780000007339537439215637145_);}
	.st150{fill:url(#SVGID_00000109030502022312363320000003944385323258245546_);}
	.st151{fill:url(#SVGID_00000138556255450969461700000014921756445621177008_);}
	.st152{fill:url(#SVGID_00000160177503663003281810000007645219171084969612_);}
	.st153{fill:url(#SVGID_00000121970029079719266470000015068408153826567831_);}
	.st154{fill:url(#SVGID_00000021838793659264903420000011806005009688503463_);}
	.st155{fill:url(#SVGID_00000042708820577316975360000013614253401184152198_);}
	.st156{fill:url(#SVGID_00000066514534730650190130000006014726417730808244_);}
	.st157{fill:url(#SVGID_00000022527631775469410390000013370259607168748930_);}
	.st158{fill:url(#SVGID_00000013889153996716731850000002905377561122222525_);}
	.st159{fill:url(#SVGID_00000048482186749212776750000002436169511515061174_);}
	.st160{fill-rule:evenodd;clip-rule:evenodd;fill:#FFFFFF;fill-opacity:0.49;}
	.st161{fill:url(#SVGID_00000047775898416098444140000012084422490097968828_);}
	.st162{fill:url(#SVGID_00000178198752113506023530000012733693851545712004_);}
	.st163{fill:url(#SVGID_00000051355736433821060000000014635749644828556938_);}
	.st164{fill:#F5F5F5;}
	.st165{fill:url(#SVGID_00000046301723014719969350000003015694675301963955_);}
	.st166{fill:#F9F9F9;}
	.st167{fill:url(#SVGID_00000000218311441044736770000010777565613943967883_);}
	.st168{fill:url(#SVGID_00000026865275396718206150000006027974120378346663_);}
	.st169{fill:url(#SVGID_00000174574412155561963670000013647270167304253572_);}
	.st170{fill:url(#SVGID_00000079446485010423707150000006466641261734346174_);}
	.st171{fill:url(#SVGID_00000113317636945277031800000002939074433954740668_);}
	.st172{fill:url(#SVGID_00000099663599916275725660000016406693228325894536_);}
	.st173{fill:url(#SVGID_00000070837671117598886400000017777857389960835254_);}
	.st174{fill:url(#SVGID_00000121979520226090439690000005776161777429785486_);}
	.st175{fill:url(#SVGID_00000105407183642856742280000011144107563330519690_);}
	.st176{fill:url(#SVGID_00000059279554369211978300000007742220856044990346_);}
	.st177{fill:url(#SVGID_00000081627847679751463750000015469955525435832988_);}
	.st178{fill:url(#SVGID_00000152252200714518611590000007722993686669901193_);}
	.st179{fill:url(#SVGID_00000047028377011209190220000012990006030141500095_);}
	.st180{fill:url(#SVGID_00000088125014096629207570000003916110449659283627_);}
	.st181{fill:url(#SVGID_00000157279878724985089680000010355198400974839459_);}
	.st182{fill:url(#SVGID_00000183210312122905558600000003820317203206081455_);}
	.st183{fill:url(#SVGID_00000139294106443097619780000007732834357082112650_);}
	.st184{fill:url(#SVGID_00000178198260785426376570000006937483402825967546_);}
	.st185{fill:url(#SVGID_00000037686944082827653370000009007824230093057200_);}
	.st186{fill:url(#SVGID_00000007399216581247787350000009354256444839451796_);}
	.st187{fill:url(#SVGID_00000023994891466627144340000014952235267909047476_);}
	.st188{fill:url(#SVGID_00000175298738955118051090000007270079155242423977_);}
	.st189{fill:url(#SVGID_00000039104104882788506760000007190384654146172576_);}
	.st190{fill:url(#SVGID_00000182490874279635878050000009576780501946053527_);}
	.st191{fill:url(#SVGID_00000085973230675503206370000017490528576379943330_);}
	.st192{fill:url(#SVGID_00000115511393531113318230000003646443754010341306_);}
	.st193{fill:url(#SVGID_00000049905328670300314350000006984303549749547946_);}
	.st194{fill-rule:evenodd;clip-rule:evenodd;fill:url(#SVGID_00000126306135228463771770000015962261054496137098_);}
	.st195{fill:url(#SVGID_00000124156222970045127480000011958144240633563052_);}
	.st196{fill:url(#SVGID_00000109742027898279897790000003214926918486272645_);}
	.st197{fill:url(#SVGID_00000070085301453666317710000014569949537265184648_);}
	.st198{fill:url(#SVGID_00000130646603170045047100000016962331216709984173_);}
	.st199{fill:url(#SVGID_00000100368235644898169660000001591119839580397731_);}
	.st200{fill:url(#SVGID_00000044880527641022657040000017125908138928587669_);}
	.st201{fill-rule:evenodd;clip-rule:evenodd;fill:#FFFFFF;}
	.st202{fill:url(#SVGID_00000062160767280242440070000005569489421557348267_);}
	.st203{fill:url(#SVGID_00000054975029062833449180000008016810513182668958_);}
	.st204{fill:url(#SVGID_00000106112752874354153560000006419194866919684246_);}
	.st205{fill:url(#SVGID_00000085953774739799828360000000323346914281136257_);}
	.st206{fill:url(#SVGID_00000161627684337886914910000012380097633793854856_);}
	.st207{fill:url(#SVGID_00000053544431411345310140000016710879807914179752_);}
	.st208{fill:url(#SVGID_00000158722726363039100890000009509896772523816585_);}
	.st209{fill:url(#SVGID_00000129899059109493980510000009546911809425027485_);}
	.st210{fill:url(#SVGID_00000106841123435542462730000010434593125035668117_);}
	.st211{fill:url(#SVGID_00000078754601545278059160000006373782773195053966_);}
	.st212{fill:url(#SVGID_00000153686246667224909050000000177470736465327038_);}
	.st213{fill:url(#SVGID_00000176755915866376836130000012872154597810667153_);}
	.st214{fill:url(#SVGID_00000163037505216010983420000006851818625022876826_);}
	.st215{fill:url(#SVGID_00000177453981213309303620000017424843245149469617_);}
	.st216{fill:url(#SVGID_00000029045502361375892740000012116674040307720837_);}
	.st217{fill:url(#SVGID_00000160889149287806328330000012045142141309419955_);}
	.st218{fill:url(#SVGID_00000060723431818115310830000013146890341494178960_);}
	.st219{fill:url(#SVGID_00000121280286566754646860000011872138682062478267_);}
	.st220{fill:url(#SVGID_00000082346796340552993360000008167897822542664585_);}
	.st221{fill:url(#SVGID_00000147212832984466218020000014319038202392521094_);}
	.st222{fill:url(#SVGID_00000150782435892711990040000010639045848242500796_);}
	.st223{fill:url(#SVGID_00000094581767847158226070000001282207609332285887_);}
	.st224{fill:url(#SVGID_00000095332536309607454370000006861420310528009885_);}
	.st225{fill:url(#SVGID_00000048477897023876785530000014091073619542417835_);}
	.st226{fill:url(#SVGID_00000073690596681865951730000011980437245589503922_);}
	.st227{fill:url(#SVGID_00000138572994333183543080000003199816802381452453_);}
	.st228{fill:url(#SVGID_00000082344416478004852280000015861960096866208682_);}
	.st229{fill-rule:evenodd;clip-rule:evenodd;fill:url(#SVGID_00000023272023516935635940000012553039727167543446_);}
	.st230{fill:url(#SVGID_00000109735966431166012180000001718819454338627724_);}
	.st231{fill:url(#SVGID_00000014608190453312117190000000869054755531327114_);}
	.st232{fill:url(#SVGID_00000025438542426984555880000007010045249755913637_);}
	.st233{fill:url(#SVGID_00000038384720101039919960000016408089465022243472_);}
	.st234{fill:url(#SVGID_00000123438235532729177960000013862839255539246255_);}
	.st235{fill:url(#SVGID_00000111899586813280445830000012678606956222832267_);}
	.st236{fill:url(#SVGID_00000129923855473901224760000007450310603928673198_);}
	.st237{fill:url(#SVGID_00000068649038381127692920000000113202366926337940_);}
	.st238{fill:url(#SVGID_00000098933979957874388520000017600507057239350183_);}
	.st239{fill:url(#SVGID_00000135677911020728605830000005899577947155471498_);}
	.st240{fill:url(#SVGID_00000057112226188562744750000006800888196706390451_);}
	.st241{fill:url(#SVGID_00000173843196751672259710000004528059509492868008_);}
	.st242{fill:url(#SVGID_00000038400087687711404130000003443751511513895054_);}
	.st243{fill:url(#SVGID_00000091697655671607149640000003105620090123703989_);}
	.st244{fill:url(#SVGID_00000096769733366368311710000013997448025022134945_);}
	.st245{fill:url(#SVGID_00000161596719106004679620000004995443089399291565_);}
	.st246{fill:url(#SVGID_00000095299051969806728610000006149122378141314967_);}
	.st247{fill:url(#SVGID_00000081619072538699651090000001975957652448847238_);}
	.st248{fill:url(#SVGID_00000104687449587369782900000007439768797987126691_);}
	.st249{fill:url(#SVGID_00000035523651359203952390000010335352689402625703_);}
	.st250{fill:url(#SVGID_00000112616958592548492130000015171523575889145739_);}
	.st251{fill:url(#SVGID_00000007421583801351013230000001715670498177963434_);}
	.st252{fill:url(#SVGID_00000023959359062487000810000005797117773208322975_);}
	.st253{fill:url(#SVGID_00000110464307803287439970000016302001505291137413_);}
	.st254{fill:url(#SVGID_00000143597493623891961980000006168981325816997018_);}
	.st255{fill:url(#SVGID_00000051367677093298760000000005975807814152809403_);}
	.st256{fill:url(#SVGID_00000143588466031873067810000007305637379213044366_);}
	.st257{fill-rule:evenodd;clip-rule:evenodd;fill:url(#SVGID_00000085940306780597200760000006763635500124707516_);}
	.st258{fill:url(#SVGID_00000062893276444438794340000001942207695731200683_);}
	.st259{fill:url(#SVGID_00000154409545658409576220000015657487392147032734_);}
	.st260{fill:url(#SVGID_00000018931876298539216800000000446717604748772258_);}
	.st261{fill:url(#SVGID_00000011017175899866409130000015875255563618805894_);}
	.st262{fill:url(#SVGID_00000078006066457099118500000008481768131434070680_);}
	.st263{fill:url(#SVGID_00000054267492112087140780000015890150868818245777_);}
	.st264{fill:url(#SVGID_00000092428835336992650640000016951509396922279833_);}
	.st265{fill:url(#SVGID_00000061431872469047338540000018162263506235831426_);}
	.st266{fill:url(#SVGID_00000098206855864197244110000008077989928760034190_);}
	.st267{fill:url(#SVGID_00000106860563822147382310000016831891114518756531_);}
	.st268{fill:url(#SVGID_00000001643664826092942630000016230809056466430603_);}
	.st269{fill:url(#SVGID_00000129923652417748246610000001466299250107477888_);}
	.st270{fill:url(#SVGID_00000062162165730875210490000001484622288605367982_);}
	.st271{fill:url(#SVGID_00000142869073311293408420000015342797364922474652_);}
	.st272{fill:url(#SVGID_00000177472760894941338800000011968407606301078668_);}
	.st273{fill:url(#SVGID_00000106126532182763130100000015692056926693121958_);}
</style>
<g>
	<defs>
		<rect id="SVGID_1_" x="-577.5" y="566.5" width="517" height="517"/>
	</defs>
	<clipPath id="SVGID_00000150782546274351002810000005344251202616277145_">
		<use xlink:href="#SVGID_1_"  style="overflow:visible;"/>
	</clipPath>
	<g style="clip-path:url(#SVGID_00000150782546274351002810000005344251202616277145_);">
		<g class="st2">
		</g>
	</g>
</g>
<g>
	<defs>
		<rect id="SVGID_00000129928597526878825080000003240691174042613436_" x="-577.5" y="-2.5" width="517" height="517"/>
	</defs>
	<clipPath id="SVGID_00000136386403793893276290000018093534109237089201_">
		<use xlink:href="#SVGID_00000129928597526878825080000003240691174042613436_"  style="overflow:visible;"/>
	</clipPath>
	<g style="clip-path:url(#SVGID_00000136386403793893276290000018093534109237089201_);">
		
			<linearGradient id="SVGID_00000088131748422708892360000015716106762691681154_" gradientUnits="userSpaceOnUse" x1="-39.793" y1="-309.5255" x2="-293.0471" y2="-1062.8577" gradientTransform="matrix(1 0 0 -1 -50 -446)">
			<stop  offset="0" style="stop-color:#FAFDFF"/>
			<stop  offset="0.4792" style="stop-color:#FFFFFF"/>
			<stop  offset="1" style="stop-color:#FCFEFF"/>
		</linearGradient>
		
			<rect x="-811.94" y="-45.75" style="fill:url(#SVGID_00000088131748422708892360000015716106762691681154_);" width="1167.21" height="642.75"/>
		<g class="st2">
			<path class="st3" d="M19.1,89.15L-50.63,57.9c-10.55-4.73-15.29-17.16-10.55-27.7l31.25-69.73C-25.2-50.09-12.78-54.83-2.23-50.1
				l69.73,31.25C78.06-14.12,82.8-1.69,78.06,8.85L46.81,78.59C42.08,89.14,29.65,93.87,19.1,89.15z M-3.65-46.93
				c-8.8-3.94-19.16,0.01-23.1,8.81L-58,31.61c-3.94,8.8,0,19.17,8.8,23.11l69.73,31.25c8.8,3.94,19.16-0.01,23.1-8.81L74.89,7.43
				c3.95-8.8,0-19.17-8.8-23.11L-3.65-46.93z"/>
			<path class="st3" d="M-27.88,193.97l-69.74-31.25c-10.55-4.73-15.29-17.16-10.55-27.7l31.25-69.73
				c4.73-10.55,17.16-15.29,27.71-10.56l69.73,31.25c10.55,4.73,15.29,17.16,10.56,27.7l-31.25,69.73
				C-4.9,193.96-17.33,198.69-27.88,193.97z M-50.63,57.89c-8.8-3.94-19.16,0.01-23.1,8.81l-31.25,69.73
				c-3.94,8.8,0,19.17,8.8,23.11l69.74,31.25c8.8,3.95,19.16-0.01,23.1-8.8l31.25-69.73c3.95-8.8,0-19.17-8.8-23.11L-50.63,57.89z"
				/>
			<path class="st3" d="M29.95,345.77l-69.73-31.25c-10.55-4.73-15.29-17.16-10.55-27.7l31.25-69.73
				c4.73-10.55,17.16-15.29,27.71-10.56l69.73,31.25c10.55,4.73,15.29,17.16,10.56,27.7l-31.25,69.73
				C52.94,345.76,40.5,350.49,29.95,345.77z M7.2,209.69c-8.8-3.95-19.16,0.01-23.1,8.8l-31.25,69.73c-3.94,8.8,0,19.17,8.8,23.11
				l69.73,31.25c8.8,3.94,19.16-0.01,23.1-8.81l31.25-69.73c3.95-8.8,0-19.17-8.8-23.11L7.2,209.69z"/>
			<path class="st3" d="M-17.03,450.59l-69.73-31.25c-10.55-4.73-15.29-17.16-10.55-27.7l31.25-69.73
				c4.73-10.55,17.16-15.29,27.71-10.56l69.74,31.25c10.55,4.73,15.29,17.16,10.55,27.71l-31.25,69.73
				C5.96,450.58-6.48,455.31-17.03,450.59z M-39.78,314.51c-8.8-3.94-19.16,0.01-23.1,8.81l-31.25,69.73
				c-3.95,8.8,0,19.17,8.8,23.11l69.74,31.25c8.8,3.94,19.16-0.01,23.1-8.81l31.25-69.74c3.94-8.8,0-19.17-8.8-23.11L-39.78,314.51z
				"/>
		</g>
	</g>
</g>
<g>
	<defs>
		<rect id="SVGID_00000012470465309328583240000012614033116887528345_" x="-577.5" y="-569.5" width="517" height="517"/>
	</defs>
	<clipPath id="SVGID_00000108279913371801417750000010386141231819907462_">
		<use xlink:href="#SVGID_00000012470465309328583240000012614033116887528345_"  style="overflow:visible;"/>
	</clipPath>
	<g style="clip-path:url(#SVGID_00000108279913371801417750000010386141231819907462_);">
		
			<linearGradient id="SVGID_00000054948849876222692710000007570561734245411732_" gradientUnits="userSpaceOnUse" x1="-39.4281" y1="250.3194" x2="-292.6822" y2="-503.0128" gradientTransform="matrix(1 0 0 -1 -50 -446)">
			<stop  offset="0" style="stop-color:#FAFDFF"/>
			<stop  offset="0.4792" style="stop-color:#FFFFFF"/>
			<stop  offset="1" style="stop-color:#FCFEFF"/>
		</linearGradient>
		
			<rect x="-811.57" y="-605.59" style="fill:url(#SVGID_00000054948849876222692710000007570561734245411732_);" width="1167.21" height="642.75"/>
		<g class="st2">
		</g>
	</g>
</g>
<g>
	<g>
		<path class="st125" d="M484.42,220.27c-0.15-2.99-0.83-5.55-1.47-7.44c-1.2-3.78-3.59-8.3-8.15-11.85
			c-3.41-2.65-6.97-3.96-9.35-4.66c-3.65-1.07-7.2-1.33-10.07-1.33c-3.15,0-7.13,0.28-11.16,1.55c-3.97,1.25-8.86,3.8-12.56,8.68
			c-3.43-4.6-8.08-7.32-12.39-8.68c-4.08-1.29-8.12-1.55-11.26-1.55c-3.14,0-7.18,0.26-11.26,1.55c-0.87,0.28-1.74,0.6-2.61,0.98
			c-3.49-1.94-8.01-3.64-13.31-3.64c-6.26,0-11.14,2.45-14.18,4.49c-1.3,0.87-2.48,1.82-3.57,2.79l-0.05-0.04l-0.04-0.03
			c-3.41-2.66-6.98-3.97-9.36-4.67c-3.65-1.07-7.2-1.33-10.07-1.33c-3.14,0-7.18,0.26-11.26,1.55c-3.81,1.21-7.76,3.41-10.97,6.9
			c-9.2-6.13-19.75-9.35-31.26-9.35c-7.48,0-14.72,1.53-21.56,4.48c-6.65,2.86-12.62,6.85-17.79,11.92
			c-0.13,0.12-0.25,0.24-0.37,0.37c-10.91-10.25-24.31-15.87-39.4-15.87h-9.22c-4.12-0.06-7.3-0.1-9.46-0.1
			c-3.14,0-7.18,0.26-11.26,1.55c-0.79,0.25-1.59,0.54-2.38,0.88c-1.16-0.48-2.23-0.83-3.14-1.1c-3.65-1.07-7.19-1.33-10.07-1.33
			c-3.14,0-7.12,0.28-11.16,1.55c-3.97,1.25-8.85,3.8-12.56,8.68c-3.43-4.6-8.08-7.32-12.38-8.68c-4.08-1.29-8.13-1.55-11.26-1.55
			c-3.13,0-7.19,0.26-11.27,1.55c-2.37,0.75-4.8,1.89-7.06,3.49c-3.24-1.75-6.51-2.86-8.98-3.61c-5.56-1.78-11.31-2.54-17.06-2.54
			c-11.77,0-23.39,3.58-32.42,12.61c-8,7.99-12.51,18.23-12.51,29.8c0,6.83,1.31,13.88,4.8,20.45c-3.04,3.99-6.12,9.72-6.12,16.92
			c0,8.83,4.89,15.34,7.17,18.15l0.02,0.02l0.52,0.63c1.77,2.41,3.78,4.35,5.32,5.72l0.19,0.17l0.2,0.17
			c2.09,1.78,4.34,3.42,6.68,4.95l0.37,0.25l0.39,0.22c3.77,2.24,7.84,3.77,11.74,4.89l0.21,0.06l0.22,0.06
			c4.64,1.21,9.37,1.77,14.13,1.77c4.76,0,9.89-0.74,14.64-2.15c4.97-1.47,9.62-3.68,13.91-6.49c1.68-1.09,3.25-2.29,4.7-3.59
			c3.14,2.72,6.59,5.03,10.29,6.94l0.06,0.03l0.06,0.03c7.3,3.71,15.16,5.43,23.23,5.43s15.8-1.63,23.1-5.22l0.11-0.05l0.11-0.06
			c2.1-1.07,4.13-2.26,6.06-3.58c3.28,3.2,7.05,5.04,10.24,6.05c3.98,1.26,7.9,1.55,11.06,1.55h18.48
			c15.13,0,28.63-5.41,39.45-15.81c11.05,11.29,25.09,17.12,40.88,17.12c11.35,0,21.73-3.19,30.69-9.3c0.72,0.73,1.5,1.43,2.36,2.1
			c3.41,2.65,6.98,3.96,9.36,4.66c3.65,1.07,7.2,1.33,10.07,1.33c3.14,0,7.18-0.26,11.26-1.55c2.91-0.92,5.89-2.42,8.57-4.63
			c0.99,0.89,2.06,1.75,3.23,2.55c2.86,1.97,7.81,4.64,14.31,4.64c9.29,0,16.2-5.2,19.53-8l0.18-0.15l0.16-0.15
			c0.31-0.27,0.64-0.56,0.98-0.88c2.04,1.44,4.18,2.74,6.42,3.89l0.06,0.03l0.05,0.03h0.01c7.3,3.71,15.16,5.43,23.22,5.43
			s15.81-1.63,23.1-5.22l0.12-0.05l0.11-0.06c6.67-3.39,12.56-8.05,17.21-14.12c4.02-5.22,7.11-10.99,9.24-17.22
			c2.2-6.25,3.34-12.74,3.34-19.37v-30.5C484.56,223.2,484.54,221.73,484.42,220.27z M479.23,255.4c0,6.03-1.04,11.92-3.05,17.63
			c-1.94,5.69-4.76,10.94-8.42,15.71c-4.12,5.38-9.37,9.56-15.4,12.62l-0.09,0.04l-0.08,0.05c-6.49,3.19-13.5,4.66-20.75,4.66
			s-14.31-1.55-20.81-4.85l-0.05-0.02l-0.04-0.03c-3.4-1.75-6.54-3.86-9.38-6.34c-1.4,1.71-2.84,3.07-3.98,4.07l-0.12,0.11
			l-0.13,0.11c-3.13,2.63-8.79,6.75-16.1,6.75c-5.01,0-8.9-2.05-11.29-3.7c-2.45-1.68-4.5-3.75-6.17-5.7l-0.14-0.15
			c-2.69,3.78-6.43,6.08-10.11,7.24c-3.35,1.06-6.78,1.3-9.66,1.3c-2.58,0-5.57-0.23-8.57-1.11c-2.05-0.61-4.91-1.68-7.59-3.76
			c-2.03-1.58-3.55-3.43-4.66-5.3c-8.92,7.46-19.64,11.38-31.66,11.38c-14.43,0-27.13-5.3-37.19-15.64l-0.05-0.05
			c-1.24-1.29-2.41-2.62-3.5-3.98c-0.85,0.99-1.74,1.95-2.68,2.9c-10.02,10.19-22.61,15.46-36.91,15.46h-18.48
			c-2.86,0-6.18-0.27-9.46-1.3c-3.64-1.15-8.02-3.57-10.96-8.35h-0.01c-2.82,2.43-5.96,4.49-9.34,6.21l-0.08,0.04l-0.09,0.05
			c-6.49,3.19-13.49,4.66-20.74,4.66s-14.32-1.55-20.82-4.85l-0.04-0.02l-0.04-0.03c-4.86-2.5-9.19-5.73-12.83-9.72
			c-2.14,2.53-4.64,4.78-7.52,6.64c-3.89,2.56-8.06,4.54-12.51,5.85c-4.28,1.27-8.67,1.93-13.13,1.93c-4.46,0-8.62-0.51-12.78-1.6
			l-0.16-0.04l-0.16-0.05c-3.62-1.03-7.23-2.41-10.48-4.34l-0.29-0.17l-0.27-0.18c-2.19-1.42-4.25-2.94-6.15-4.55l-0.15-0.13
			l-0.14-0.12c-1.44-1.29-3.18-2.99-4.66-5.01l-0.59-0.73l-0.02-0.02c-2.14-2.63-5.98-7.9-5.98-14.79c0-7.33,4.1-12.95,7.33-16.41
			c-0.53-0.77-1.02-1.56-1.48-2.36l-0.1-0.17l-0.09-0.17c-3.11-5.73-4.34-12-4.34-18.25c0-10.09,3.9-18.99,10.94-26.04
			c7.83-7.82,17.98-11.04,28.66-11.04c5.3,0,10.51,0.69,15.47,2.29c3.27,0.99,7.49,2.5,11.02,5.09c2.43-2.46,5.34-4.06,8.22-4.97
			c3.34-1.06,6.78-1.3,9.65-1.3s6.32,0.24,9.66,1.3c4.28,1.35,8.84,4.33,11.47,9.63c0.98,1.87,1.96,4.26,2.42,7.02
			c0.04,0.25,0.08,0.49,0.11,0.74c0.05-0.42,0.11-0.84,0.18-1.25c0.54-3.09,1.72-5.7,3.01-7.8c2.94-4.77,7.33-7.19,10.97-8.34
			c3.31-1.05,6.69-1.3,9.55-1.3c2.58,0,5.57,0.23,8.57,1.11c1.32,0.39,2.97,0.97,4.7,1.89c1.28-0.72,2.61-1.29,3.92-1.7
			c3.35-1.06,6.78-1.3,9.66-1.3c2.13,0,5.28,0.03,9.41,0.1h9.27c13.81,0,26.03,5.15,36.06,14.72c1.24,1.17,2.41,2.38,3.5,3.62
			c1.22-1.53,2.53-2.99,3.94-4.37c4.7-4.6,10.12-8.23,16.17-10.83c6.19-2.67,12.71-4.05,19.45-4.05c12.21,0,23.18,3.97,32.44,11.51
			c2.69-5.03,7.09-7.94,11.39-9.3c3.35-1.06,6.78-1.3,9.66-1.3c2.58,0,5.57,0.23,8.56,1.11c2.06,0.61,4.92,1.68,7.59,3.76
			c1.38,1.07,2.5,2.25,3.42,3.49l0.16-0.19c1.69-1.98,3.79-4.09,6.34-5.8c2.51-1.69,6.35-3.58,11.2-3.58
			c5.35,0,9.82,2.21,13.06,4.42c1.45-0.87,2.96-1.54,4.47-2.01c3.34-1.06,6.78-1.3,9.65-1.3s6.31,0.24,9.66,1.3
			c4.28,1.35,8.83,4.33,11.47,9.63c0.97,1.87,1.96,4.26,2.42,7.02c0.04,0.25,0.07,0.49,0.11,0.74c0.05-0.42,0.11-0.84,0.18-1.25
			c0.53-3.09,1.72-5.7,3.01-7.8c2.94-4.77,7.32-7.19,10.96-8.34c3.31-1.05,6.69-1.3,9.56-1.3c2.58,0,5.57,0.23,8.56,1.11
			c2.06,0.61,4.92,1.68,7.59,3.76c3.53,2.74,5.4,6.26,6.36,9.29c0.55,1.61,1.1,3.72,1.21,6.13c0.11,1.27,0.13,2.61,0.13,3.76V255.4z
			"/>
		<path class="st125" d="M48.57,279.12c-1.75-2.16-2.63-3.94-2.63-5.35c0-2.02,1.45-4.44,4.34-7.27c1.68-1.62,3.37-2.42,5.05-2.42
			c2.09,0,4.65,1.51,7.68,4.54l0.51,0.51c0.27,0.34,0.67,0.77,1.21,1.31s1.58,1.28,3.13,2.22c1.55,0.88,3.06,1.31,4.54,1.31
			c6.26,0,9.39-2.56,9.39-7.68c0-1.55-0.88-2.83-2.63-3.84c-1.68-1.08-3.8-1.85-6.36-2.32s-5.32-1.21-8.28-2.22
			c-2.96-1.08-5.72-2.32-8.28-3.74c-2.56-1.41-4.71-3.64-6.46-6.67c-1.68-3.1-2.52-6.8-2.52-11.11c0-5.93,2.19-11.08,6.56-15.45
			c4.44-4.44,10.47-6.66,18.08-6.66c4.04,0,7.71,0.54,11.01,1.62c3.37,1.01,5.69,2.05,6.97,3.13l2.02,1.51l0.5,0.4
			c2.09,1.95,3.13,3.57,3.13,4.85c0,1.41-0.81,3.3-2.42,5.66c-2.29,3.37-4.65,5.05-7.07,5.05c-1.41,0-3.16-0.67-5.25-2.02
			c-0.2-0.13-0.61-0.47-1.21-1.01c-0.54-0.54-1.04-0.94-1.51-1.21c-0.47-0.34-1.28-0.64-2.42-0.91c-1.08-0.34-2.36-0.51-3.84-0.51
			c-1.62,0-3.16,0.54-4.65,1.62c-1.41,1.01-2.12,2.36-2.12,4.04c0,2.02,0.84,3.6,2.52,4.75c1.75,1.14,3.91,1.92,6.46,2.32
			c2.55,0.4,5.35,1.04,8.38,1.92c3.03,0.81,5.82,1.82,8.38,3.03c2.56,1.21,4.68,3.33,6.36,6.36c1.75,2.96,2.63,6.67,2.63,11.11
			s-0.88,8.15-2.63,11.51c-1.75,3.3-4.04,5.86-6.87,7.68c-2.76,1.82-5.62,3.17-8.58,4.04s-5.92,1.31-8.89,1.31
			c-3.16,0-6.16-0.37-8.99-1.11c-2.83-0.81-5.15-1.75-6.97-2.83c-1.75-1.14-3.3-2.29-4.65-3.43c-1.28-1.14-2.19-2.12-2.73-2.93
			l-0.91-1.11H48.57z"/>
		<path class="st125" d="M163.63,215.39c1.75,0,3.2,0.17,4.34,0.51c1.14,0.34,2.02,0.74,2.63,1.21s1.04,1.18,1.31,2.12
			c0.34,0.94,0.51,1.75,0.51,2.42c0.07,0.61,0.1,1.55,0.1,2.83v30.5c0,4.31-0.74,8.55-2.22,12.72c-1.41,4.18-3.47,8.01-6.16,11.51
			c-2.63,3.43-6.06,6.23-10.3,8.38c-4.24,2.09-8.96,3.13-14.14,3.13c-5.18,0-9.8-1.08-14.04-3.23c-4.17-2.15-7.57-4.95-10.2-8.38
			c-2.63-3.5-4.65-7.34-6.06-11.51c-1.41-4.24-2.12-8.52-2.12-12.83v-30.4c0-1.62,0.03-2.79,0.1-3.54c0.14-0.81,0.47-1.72,1.01-2.73
			c0.54-1.01,1.45-1.72,2.73-2.12c1.28-0.4,3-0.61,5.15-0.61c2.15,0,3.87,0.2,5.15,0.61c1.28,0.4,2.15,1.11,2.63,2.12
			c0.54,1.01,0.88,1.92,1.01,2.73c0.14,0.81,0.2,2.02,0.2,3.64v30.3c0,2.02,0.24,4.01,0.71,5.96c0.47,1.89,1.21,3.8,2.22,5.76
			c1.08,1.89,2.63,3.4,4.65,4.54c2.02,1.14,4.41,1.72,7.17,1.72c4.91,0,8.58-1.82,11.01-5.45c2.42-3.64,3.64-7.84,3.64-12.62v-30.9
			c0-1.48,0.07-2.59,0.2-3.33c0.13-0.81,0.47-1.65,1.01-2.53c0.54-0.88,1.45-1.51,2.73-1.92c1.28-0.4,2.96-0.61,5.05-0.61H163.63z"
			/>
		<path class="st125" d="M246.03,252.05c0,10.23-3.64,19.02-10.91,26.36c-7.2,7.34-15.96,11.01-26.26,11.01h-18.48
			c-2.02,0-3.67-0.2-4.95-0.61c-1.28-0.4-2.19-1.04-2.73-1.92c-0.54-0.94-0.88-1.85-1.01-2.73c-0.13-0.94-0.2-2.19-0.2-3.74v-56.15
			c0-1.62,0.03-2.79,0.1-3.54c0.13-0.74,0.47-1.62,1.01-2.63c0.54-1.01,1.45-1.72,2.73-2.12c1.28-0.4,3-0.61,5.15-0.61
			c2.02,0,5.12,0.03,9.29,0.1h9.39c9.76,0,18.35,3.54,25.75,10.6c7.41,7,11.11,15.65,11.11,25.96L246.03,252.05z M228.15,252.45
			c0-5.39-1.92-9.9-5.76-13.53c-3.77-3.7-8.21-5.55-13.33-5.55h-9.7v38.18h9.8c4.85,0,9.22-1.78,13.13-5.35
			C226.19,262.56,228.15,257.99,228.15,252.45L228.15,252.45z"/>
		<path class="st125" d="M288.28,214.58c9.96,0,18.62,3.6,25.96,10.81c7.34,7.21,11.01,16.33,11.01,27.37
			c0,10.3-3.5,19.22-10.5,26.76c-7,7.47-15.52,11.21-25.55,11.21c-10.03,0-19.26-3.7-26.46-11.11
			c-7.14-7.41-10.71-16.23-10.71-26.46c0-5.59,1.01-10.81,3.03-15.65c2.02-4.92,4.71-9.02,8.08-12.32s7.24-5.89,11.61-7.78
			C279.13,215.52,283.64,214.58,288.28,214.58z M288.58,272.85c4.85,0,9.19-1.82,13.03-5.45c3.84-3.64,5.76-8.55,5.76-14.75
			s-1.95-10.94-5.86-14.64c-3.84-3.7-8.11-5.55-12.83-5.55s-9.19,1.89-13.03,5.66c-3.84,3.7-5.76,8.59-5.76,14.64
			c0,6.05,1.92,10.77,5.76,14.54C279.55,271,283.86,272.85,288.58,272.85z"/>
		<path class="st125" d="M364.5,252.35c10.3,9.9,17.61,17.34,21.91,22.32c2.22,2.49,3.33,4.48,3.33,5.96c0,1.95-1.41,4.17-4.24,6.67
			c-2.56,2.15-4.71,3.23-6.46,3.23s-3.74-1.41-6.16-4.24l-22.22-25.35v19.69c0,1.62-0.07,2.79-0.2,3.53
			c-0.07,0.74-0.37,1.62-0.91,2.63c-0.54,1.01-1.45,1.72-2.73,2.12s-3,0.61-5.15,0.61c-1.75,0-3.2-0.17-4.34-0.51
			c-1.14-0.34-2.02-0.74-2.63-1.21c-0.61-0.47-1.08-1.14-1.41-2.02c-0.27-0.94-0.44-1.72-0.51-2.32v-59.08
			c0-1.55,0.03-2.69,0.1-3.43c0.13-0.81,0.47-1.72,1.01-2.73c0.54-1.01,1.45-1.72,2.73-2.12c1.28-0.4,3-0.61,5.15-0.61
			c1.75,0,3.2,0.17,4.34,0.51c1.14,0.34,2.02,0.74,2.62,1.21c0.61,0.47,1.04,1.18,1.31,2.12c0.34,0.88,0.51,1.65,0.51,2.32
			c0.07,0.61,0.1,1.55,0.1,2.83v19.29c9.16-10.3,16.56-18.75,22.22-25.35c2.36-2.76,4.41-4.14,6.16-4.14s3.9,1.08,6.46,3.23
			c2.83,2.49,4.24,4.71,4.24,6.67c0,1.48-1.11,3.47-3.33,5.96c-1.88,2.22-4.68,5.18-8.38,8.89c-3.64,3.7-6.8,6.87-9.49,9.49
			l-4.04,3.84L364.5,252.35z"/>
		<path class="st125" d="M453.59,215.39c1.75,0,3.2,0.17,4.34,0.51c1.14,0.34,2.02,0.74,2.63,1.21c0.61,0.47,1.04,1.18,1.31,2.12
			c0.34,0.94,0.51,1.75,0.51,2.42c0.07,0.61,0.1,1.55,0.1,2.83v30.5c0,4.31-0.74,8.55-2.22,12.72c-1.41,4.18-3.47,8.01-6.16,11.51
			c-2.63,3.43-6.06,6.23-10.3,8.38c-4.24,2.09-8.96,3.13-14.14,3.13s-9.8-1.08-14.04-3.23c-4.17-2.15-7.57-4.95-10.2-8.38
			c-2.63-3.5-4.65-7.34-6.06-11.51c-1.41-4.24-2.12-8.52-2.12-12.83v-30.4c0-1.62,0.03-2.79,0.1-3.54c0.14-0.81,0.47-1.72,1.01-2.73
			c0.54-1.01,1.45-1.72,2.73-2.12c1.28-0.4,3-0.61,5.15-0.61s3.87,0.2,5.15,0.61c1.28,0.4,2.15,1.11,2.62,2.12
			c0.54,1.01,0.88,1.92,1.01,2.73s0.2,2.02,0.2,3.64v30.3c0,2.02,0.24,4.01,0.71,5.96c0.47,1.89,1.21,3.8,2.22,5.76
			c1.08,1.89,2.63,3.4,4.65,4.54c2.02,1.14,4.41,1.72,7.17,1.72c4.92,0,8.58-1.82,11.01-5.45c2.42-3.64,3.64-7.84,3.64-12.62v-30.9
			c0-1.48,0.07-2.59,0.2-3.33c0.13-0.81,0.47-1.65,1.01-2.53c0.54-0.88,1.45-1.51,2.73-1.92c1.28-0.4,2.96-0.61,5.05-0.61H453.59z"
			/>
		<path class="st125" d="M48.57,279.12c-1.75-2.16-2.63-3.94-2.63-5.35c0-2.02,1.45-4.44,4.34-7.27c1.68-1.62,3.37-2.42,5.05-2.42
			c2.09,0,4.65,1.51,7.68,4.54l0.51,0.51c0.27,0.34,0.67,0.77,1.21,1.31s1.58,1.28,3.13,2.22c1.55,0.88,3.06,1.31,4.54,1.31
			c6.26,0,9.39-2.56,9.39-7.68c0-1.55-0.88-2.83-2.63-3.84c-1.68-1.08-3.8-1.85-6.36-2.32s-5.32-1.21-8.28-2.22
			c-2.96-1.08-5.72-2.32-8.28-3.74c-2.56-1.41-4.71-3.64-6.46-6.67c-1.68-3.1-2.52-6.8-2.52-11.11c0-5.93,2.19-11.08,6.56-15.45
			c4.44-4.44,10.47-6.66,18.08-6.66c4.04,0,7.71,0.54,11.01,1.62c3.37,1.01,5.69,2.05,6.97,3.13l2.02,1.51l0.5,0.4
			c2.09,1.95,3.13,3.57,3.13,4.85c0,1.41-0.81,3.3-2.42,5.66c-2.29,3.37-4.65,5.05-7.07,5.05c-1.41,0-3.16-0.67-5.25-2.02
			c-0.2-0.13-0.61-0.47-1.21-1.01c-0.54-0.54-1.04-0.94-1.51-1.21c-0.47-0.34-1.28-0.64-2.42-0.91c-1.08-0.34-2.36-0.51-3.84-0.51
			c-1.62,0-3.16,0.54-4.65,1.62c-1.41,1.01-2.12,2.36-2.12,4.04c0,2.02,0.84,3.6,2.52,4.75c1.75,1.14,3.91,1.92,6.46,2.32
			c2.55,0.4,5.35,1.04,8.38,1.92c3.03,0.81,5.82,1.82,8.38,3.03c2.56,1.21,4.68,3.33,6.36,6.36c1.75,2.96,2.63,6.67,2.63,11.11
			s-0.88,8.15-2.63,11.51c-1.75,3.3-4.04,5.86-6.87,7.68c-2.76,1.82-5.62,3.17-8.58,4.04s-5.92,1.31-8.89,1.31
			c-3.16,0-6.16-0.37-8.99-1.11c-2.83-0.81-5.15-1.75-6.97-2.83c-1.75-1.14-3.3-2.29-4.65-3.43c-1.28-1.14-2.19-2.12-2.73-2.93
			l-0.91-1.11H48.57z"/>
		<path class="st125" d="M48.57,279.12c-1.75-2.16-2.63-3.94-2.63-5.35c0-2.02,1.45-4.44,4.34-7.27c1.68-1.62,3.37-2.42,5.05-2.42
			c2.09,0,4.65,1.51,7.68,4.54l0.51,0.51c0.27,0.34,0.67,0.77,1.21,1.31s1.58,1.28,3.13,2.22c1.55,0.88,3.06,1.31,4.54,1.31
			c6.26,0,9.39-2.56,9.39-7.68c0-1.55-0.88-2.83-2.63-3.84c-1.68-1.08-3.8-1.85-6.36-2.32s-5.32-1.21-8.28-2.22
			c-2.96-1.08-5.72-2.32-8.28-3.74c-2.56-1.41-4.71-3.64-6.46-6.67c-1.68-3.1-2.52-6.8-2.52-11.11c0-5.93,2.19-11.08,6.56-15.45
			c4.44-4.44,10.47-6.66,18.08-6.66c4.04,0,7.71,0.54,11.01,1.62c3.37,1.01,5.69,2.05,6.97,3.13l2.02,1.51l0.5,0.4
			c2.09,1.95,3.13,3.57,3.13,4.85c0,1.41-0.81,3.3-2.42,5.66c-2.29,3.37-4.65,5.05-7.07,5.05c-1.41,0-3.16-0.67-5.25-2.02
			c-0.2-0.13-0.61-0.47-1.21-1.01c-0.54-0.54-1.04-0.94-1.51-1.21c-0.47-0.34-1.28-0.64-2.42-0.91c-1.08-0.34-2.36-0.51-3.84-0.51
			c-1.62,0-3.16,0.54-4.65,1.62c-1.41,1.01-2.12,2.36-2.12,4.04c0,2.02,0.84,3.6,2.52,4.75c1.75,1.14,3.91,1.92,6.46,2.32
			c2.55,0.4,5.35,1.04,8.38,1.92c3.03,0.81,5.82,1.82,8.38,3.03c2.56,1.21,4.68,3.33,6.36,6.36c1.75,2.96,2.63,6.67,2.63,11.11
			s-0.88,8.15-2.63,11.51c-1.75,3.3-4.04,5.86-6.87,7.68c-2.76,1.82-5.62,3.17-8.58,4.04s-5.92,1.31-8.89,1.31
			c-3.16,0-6.16-0.37-8.99-1.11c-2.83-0.81-5.15-1.75-6.97-2.83c-1.75-1.14-3.3-2.29-4.65-3.43c-1.28-1.14-2.19-2.12-2.73-2.93
			l-0.91-1.11H48.57z"/>
		<path class="st125" d="M163.63,215.39c1.75,0,3.2,0.17,4.34,0.51c1.14,0.34,2.02,0.74,2.63,1.21s1.04,1.18,1.31,2.12
			c0.34,0.94,0.51,1.75,0.51,2.42c0.07,0.61,0.1,1.55,0.1,2.83v30.5c0,4.31-0.74,8.55-2.22,12.72c-1.41,4.18-3.47,8.01-6.16,11.51
			c-2.63,3.43-6.06,6.23-10.3,8.38c-4.24,2.09-8.96,3.13-14.14,3.13c-5.18,0-9.8-1.08-14.04-3.23c-4.17-2.15-7.57-4.95-10.2-8.38
			c-2.63-3.5-4.65-7.34-6.06-11.51c-1.41-4.24-2.12-8.52-2.12-12.83v-30.4c0-1.62,0.03-2.79,0.1-3.54c0.14-0.81,0.47-1.72,1.01-2.73
			c0.54-1.01,1.45-1.72,2.73-2.12c1.28-0.4,3-0.61,5.15-0.61c2.15,0,3.87,0.2,5.15,0.61c1.28,0.4,2.15,1.11,2.63,2.12
			c0.54,1.01,0.88,1.92,1.01,2.73c0.14,0.81,0.2,2.02,0.2,3.64v30.3c0,2.02,0.24,4.01,0.71,5.96c0.47,1.89,1.21,3.8,2.22,5.76
			c1.08,1.89,2.63,3.4,4.65,4.54c2.02,1.14,4.41,1.72,7.17,1.72c4.91,0,8.58-1.82,11.01-5.45c2.42-3.64,3.64-7.84,3.64-12.62v-30.9
			c0-1.48,0.07-2.59,0.2-3.33c0.13-0.81,0.47-1.65,1.01-2.53c0.54-0.88,1.45-1.51,2.73-1.92c1.28-0.4,2.96-0.61,5.05-0.61H163.63z"
			/>
		<path class="st125" d="M163.63,215.39c1.75,0,3.2,0.17,4.34,0.51c1.14,0.34,2.02,0.74,2.63,1.21s1.04,1.18,1.31,2.12
			c0.34,0.94,0.51,1.75,0.51,2.42c0.07,0.61,0.1,1.55,0.1,2.83v30.5c0,4.31-0.74,8.55-2.22,12.72c-1.41,4.18-3.47,8.01-6.16,11.51
			c-2.63,3.43-6.06,6.23-10.3,8.38c-4.24,2.09-8.96,3.13-14.14,3.13c-5.18,0-9.8-1.08-14.04-3.23c-4.17-2.15-7.57-4.95-10.2-8.38
			c-2.63-3.5-4.65-7.34-6.06-11.51c-1.41-4.24-2.12-8.52-2.12-12.83v-30.4c0-1.62,0.03-2.79,0.1-3.54c0.14-0.81,0.47-1.72,1.01-2.73
			c0.54-1.01,1.45-1.72,2.73-2.12c1.28-0.4,3-0.61,5.15-0.61c2.15,0,3.87,0.2,5.15,0.61c1.28,0.4,2.15,1.11,2.63,2.12
			c0.54,1.01,0.88,1.92,1.01,2.73c0.14,0.81,0.2,2.02,0.2,3.64v30.3c0,2.02,0.24,4.01,0.71,5.96c0.47,1.89,1.21,3.8,2.22,5.76
			c1.08,1.89,2.63,3.4,4.65,4.54c2.02,1.14,4.41,1.72,7.17,1.72c4.91,0,8.58-1.82,11.01-5.45c2.42-3.64,3.64-7.84,3.64-12.62v-30.9
			c0-1.48,0.07-2.59,0.2-3.33c0.13-0.81,0.47-1.65,1.01-2.53c0.54-0.88,1.45-1.51,2.73-1.92c1.28-0.4,2.96-0.61,5.05-0.61H163.63z"
			/>
		<path class="st125" d="M246.03,252.05c0,10.23-3.64,19.02-10.91,26.36c-7.2,7.34-15.96,11.01-26.26,11.01h-18.48
			c-2.02,0-3.67-0.2-4.95-0.61c-1.28-0.4-2.19-1.04-2.73-1.92c-0.54-0.94-0.88-1.85-1.01-2.73c-0.13-0.94-0.2-2.19-0.2-3.74v-56.15
			c0-1.62,0.03-2.79,0.1-3.54c0.13-0.74,0.47-1.62,1.01-2.63c0.54-1.01,1.45-1.72,2.73-2.12c1.28-0.4,3-0.61,5.15-0.61
			c2.02,0,5.12,0.03,9.29,0.1h9.39c9.76,0,18.35,3.54,25.75,10.6c7.41,7,11.11,15.65,11.11,25.96L246.03,252.05z M228.15,252.45
			c0-5.39-1.92-9.9-5.76-13.53c-3.77-3.7-8.21-5.55-13.33-5.55h-9.7v38.18h9.8c4.85,0,9.22-1.78,13.13-5.35
			C226.19,262.56,228.15,257.99,228.15,252.45L228.15,252.45z"/>
		<path class="st125" d="M246.03,252.05c0,10.23-3.64,19.02-10.91,26.36c-7.2,7.34-15.96,11.01-26.26,11.01h-18.48
			c-2.02,0-3.67-0.2-4.95-0.61c-1.28-0.4-2.19-1.04-2.73-1.92c-0.54-0.94-0.88-1.85-1.01-2.73c-0.13-0.94-0.2-2.19-0.2-3.74v-56.15
			c0-1.62,0.03-2.79,0.1-3.54c0.13-0.74,0.47-1.62,1.01-2.63c0.54-1.01,1.45-1.72,2.73-2.12c1.28-0.4,3-0.61,5.15-0.61
			c2.02,0,5.12,0.03,9.29,0.1h9.39c9.76,0,18.35,3.54,25.75,10.6c7.41,7,11.11,15.65,11.11,25.96L246.03,252.05z M228.15,252.45
			c0-5.39-1.92-9.9-5.76-13.53c-3.77-3.7-8.21-5.55-13.33-5.55h-9.7v38.18h9.8c4.85,0,9.22-1.78,13.13-5.35
			C226.19,262.56,228.15,257.99,228.15,252.45L228.15,252.45z"/>
		<path class="st125" d="M288.28,214.58c9.96,0,18.62,3.6,25.96,10.81c7.34,7.21,11.01,16.33,11.01,27.37
			c0,10.3-3.5,19.22-10.5,26.76c-7,7.47-15.52,11.21-25.55,11.21c-10.03,0-19.26-3.7-26.46-11.11
			c-7.14-7.41-10.71-16.23-10.71-26.46c0-5.59,1.01-10.81,3.03-15.65c2.02-4.92,4.71-9.02,8.08-12.32s7.24-5.89,11.61-7.78
			C279.13,215.52,283.64,214.58,288.28,214.58z M288.58,272.85c4.85,0,9.19-1.82,13.03-5.45c3.84-3.64,5.76-8.55,5.76-14.75
			s-1.95-10.94-5.86-14.64c-3.84-3.7-8.11-5.55-12.83-5.55s-9.19,1.89-13.03,5.66c-3.84,3.7-5.76,8.59-5.76,14.64
			c0,6.05,1.92,10.77,5.76,14.54C279.55,271,283.86,272.85,288.58,272.85z"/>
		<path class="st125" d="M288.28,214.58c9.96,0,18.62,3.6,25.96,10.81c7.34,7.21,11.01,16.33,11.01,27.37
			c0,10.3-3.5,19.22-10.5,26.76c-7,7.47-15.52,11.21-25.55,11.21c-10.03,0-19.26-3.7-26.46-11.11
			c-7.14-7.41-10.71-16.23-10.71-26.46c0-5.59,1.01-10.81,3.03-15.65c2.02-4.92,4.71-9.02,8.08-12.32s7.24-5.89,11.61-7.78
			C279.13,215.52,283.64,214.58,288.28,214.58z M288.58,272.85c4.85,0,9.19-1.82,13.03-5.45c3.84-3.64,5.76-8.55,5.76-14.75
			s-1.95-10.94-5.86-14.64c-3.84-3.7-8.11-5.55-12.83-5.55s-9.19,1.89-13.03,5.66c-3.84,3.7-5.76,8.59-5.76,14.64
			c0,6.05,1.92,10.77,5.76,14.54C279.55,271,283.86,272.85,288.58,272.85z"/>
		<path class="st125" d="M364.5,252.35c10.3,9.9,17.61,17.34,21.91,22.32c2.22,2.49,3.33,4.48,3.33,5.96c0,1.95-1.41,4.17-4.24,6.67
			c-2.56,2.15-4.71,3.23-6.46,3.23s-3.74-1.41-6.16-4.24l-22.22-25.35v19.69c0,1.62-0.07,2.79-0.2,3.53
			c-0.07,0.74-0.37,1.62-0.91,2.63c-0.54,1.01-1.45,1.72-2.73,2.12s-3,0.61-5.15,0.61c-1.75,0-3.2-0.17-4.34-0.51
			c-1.14-0.34-2.02-0.74-2.63-1.21c-0.61-0.47-1.08-1.14-1.41-2.02c-0.27-0.94-0.44-1.72-0.51-2.32v-59.08
			c0-1.55,0.03-2.69,0.1-3.43c0.13-0.81,0.47-1.72,1.01-2.73c0.54-1.01,1.45-1.72,2.73-2.12c1.28-0.4,3-0.61,5.15-0.61
			c1.75,0,3.2,0.17,4.34,0.51c1.14,0.34,2.02,0.74,2.62,1.21c0.61,0.47,1.04,1.18,1.31,2.12c0.34,0.88,0.51,1.65,0.51,2.32
			c0.07,0.61,0.1,1.55,0.1,2.83v19.29c9.16-10.3,16.56-18.75,22.22-25.35c2.36-2.76,4.41-4.14,6.16-4.14s3.9,1.08,6.46,3.23
			c2.83,2.49,4.24,4.71,4.24,6.67c0,1.48-1.11,3.47-3.33,5.96c-1.88,2.22-4.68,5.18-8.38,8.89c-3.64,3.7-6.8,6.87-9.49,9.49
			l-4.04,3.84L364.5,252.35z"/>
		<path class="st125" d="M364.5,252.35c10.3,9.9,17.61,17.34,21.91,22.32c2.22,2.49,3.33,4.48,3.33,5.96c0,1.95-1.41,4.17-4.24,6.67
			c-2.56,2.15-4.71,3.23-6.46,3.23s-3.74-1.41-6.16-4.24l-22.22-25.35v19.69c0,1.62-0.07,2.79-0.2,3.53
			c-0.07,0.74-0.37,1.62-0.91,2.63c-0.54,1.01-1.45,1.72-2.73,2.12s-3,0.61-5.15,0.61c-1.75,0-3.2-0.17-4.34-0.51
			c-1.14-0.34-2.02-0.74-2.63-1.21c-0.61-0.47-1.08-1.14-1.41-2.02c-0.27-0.94-0.44-1.72-0.51-2.32v-59.08
			c0-1.55,0.03-2.69,0.1-3.43c0.13-0.81,0.47-1.72,1.01-2.73c0.54-1.01,1.45-1.72,2.73-2.12c1.28-0.4,3-0.61,5.15-0.61
			c1.75,0,3.2,0.17,4.34,0.51c1.14,0.34,2.02,0.74,2.62,1.21c0.61,0.47,1.04,1.18,1.31,2.12c0.34,0.88,0.51,1.65,0.51,2.32
			c0.07,0.61,0.1,1.55,0.1,2.83v19.29c9.16-10.3,16.56-18.75,22.22-25.35c2.36-2.76,4.41-4.14,6.16-4.14s3.9,1.08,6.46,3.23
			c2.83,2.49,4.24,4.71,4.24,6.67c0,1.48-1.11,3.47-3.33,5.96c-1.88,2.22-4.68,5.18-8.38,8.89c-3.64,3.7-6.8,6.87-9.49,9.49
			l-4.04,3.84L364.5,252.35z"/>
		<path class="st125" d="M453.59,215.39c1.75,0,3.2,0.17,4.34,0.51c1.14,0.34,2.02,0.74,2.63,1.21c0.61,0.47,1.04,1.18,1.31,2.12
			c0.34,0.94,0.51,1.75,0.51,2.42c0.07,0.61,0.1,1.55,0.1,2.83v30.5c0,4.31-0.74,8.55-2.22,12.72c-1.41,4.18-3.47,8.01-6.16,11.51
			c-2.63,3.43-6.06,6.23-10.3,8.38c-4.24,2.09-8.96,3.13-14.14,3.13s-9.8-1.08-14.04-3.23c-4.17-2.15-7.57-4.95-10.2-8.38
			c-2.63-3.5-4.65-7.34-6.06-11.51c-1.41-4.24-2.12-8.52-2.12-12.83v-30.4c0-1.62,0.03-2.79,0.1-3.54c0.14-0.81,0.47-1.72,1.01-2.73
			c0.54-1.01,1.45-1.72,2.73-2.12c1.28-0.4,3-0.61,5.15-0.61s3.87,0.2,5.15,0.61c1.28,0.4,2.15,1.11,2.62,2.12
			c0.54,1.01,0.88,1.92,1.01,2.73s0.2,2.02,0.2,3.64v30.3c0,2.02,0.24,4.01,0.71,5.96c0.47,1.89,1.21,3.8,2.22,5.76
			c1.08,1.89,2.63,3.4,4.65,4.54c2.02,1.14,4.41,1.72,7.17,1.72c4.92,0,8.58-1.82,11.01-5.45c2.42-3.64,3.64-7.84,3.64-12.62v-30.9
			c0-1.48,0.07-2.59,0.2-3.33c0.13-0.81,0.47-1.65,1.01-2.53c0.54-0.88,1.45-1.51,2.73-1.92c1.28-0.4,2.96-0.61,5.05-0.61H453.59z"
			/>
		<path class="st125" d="M453.59,215.39c1.75,0,3.2,0.17,4.34,0.51c1.14,0.34,2.02,0.74,2.63,1.21c0.61,0.47,1.04,1.18,1.31,2.12
			c0.34,0.94,0.51,1.75,0.51,2.42c0.07,0.61,0.1,1.55,0.1,2.83v30.5c0,4.31-0.74,8.55-2.22,12.72c-1.41,4.18-3.47,8.01-6.16,11.51
			c-2.63,3.43-6.06,6.23-10.3,8.38c-4.24,2.09-8.96,3.13-14.14,3.13s-9.8-1.08-14.04-3.23c-4.17-2.15-7.57-4.95-10.2-8.38
			c-2.63-3.5-4.65-7.34-6.06-11.51c-1.41-4.24-2.12-8.52-2.12-12.83v-30.4c0-1.62,0.03-2.79,0.1-3.54c0.14-0.81,0.47-1.72,1.01-2.73
			c0.54-1.01,1.45-1.72,2.73-2.12c1.28-0.4,3-0.61,5.15-0.61s3.87,0.2,5.15,0.61c1.28,0.4,2.15,1.11,2.62,2.12
			c0.54,1.01,0.88,1.92,1.01,2.73s0.2,2.02,0.2,3.64v30.3c0,2.02,0.24,4.01,0.71,5.96c0.47,1.89,1.21,3.8,2.22,5.76
			c1.08,1.89,2.63,3.4,4.65,4.54c2.02,1.14,4.41,1.72,7.17,1.72c4.92,0,8.58-1.82,11.01-5.45c2.42-3.64,3.64-7.84,3.64-12.62v-30.9
			c0-1.48,0.07-2.59,0.2-3.33c0.13-0.81,0.47-1.65,1.01-2.53c0.54-0.88,1.45-1.51,2.73-1.92c1.28-0.4,2.96-0.61,5.05-0.61H453.59z"
			/>
	</g>
	<g>
		<path class="st125" d="M136.48,158.96c0-3.66-0.55-5.84-1.86-7.64c-1.97-2.67-5.08-4.04-9.29-4.04c-4.91,0-7.81,1.53-11.14,5.78
			c0.11-1.37,0.11-1.53,0.11-2.35v-2.9h-7.43c0.32,2.24,0.44,4.1,0.44,7.11v17.15c0,3.05-0.11,4.76-0.44,7.11h7.87
			c-0.34-2.35-0.44-4.42-0.44-7.11v-11.03c2.41-5.4,5.63-8.13,9.57-8.13c2.07,0,3.71,0.82,4.59,2.24c0.66,1.04,0.93,2.52,0.93,4.81
			v12.13c0,2.79-0.11,4.64-0.38,7.11h7.92c-0.34-2.01-0.44-4.09-0.44-7.11V158.96z"/>
		<path class="st125" d="M136.48,158.96c0-3.66-0.55-5.84-1.86-7.64c-1.97-2.67-5.08-4.04-9.29-4.04c-4.91,0-7.81,1.53-11.14,5.78
			c0.11-1.37,0.11-1.53,0.11-2.35v-2.9h-7.43c0.32,2.24,0.44,4.1,0.44,7.11v17.15c0,3.05-0.11,4.76-0.44,7.11h7.87
			c-0.34-2.35-0.44-4.42-0.44-7.11v-11.03c2.41-5.4,5.63-8.13,9.57-8.13c2.07,0,3.71,0.82,4.59,2.24c0.66,1.04,0.93,2.52,0.93,4.81
			v12.13c0,2.79-0.11,4.64-0.38,7.11h7.92c-0.34-2.01-0.44-4.09-0.44-7.11V158.96z"/>
		<path class="st125" d="M172.91,163.77c-0.17-3.72-0.55-5.67-1.59-8.3c-2.18-5.46-7.22-8.63-13.61-8.63
			c-9.34,0-15.41,6.61-15.41,16.72c0,10.22,6.12,16.66,15.79,16.66c4.59,0,8.41-1.42,11.24-4.21c1.36-1.37,2.07-2.39,3.33-5.02
			l-6.45-2.07c-0.55,1.48-0.93,2.07-1.59,2.84c-1.59,1.75-3.88,2.73-6.54,2.73c-2.79,0-5.25-1.08-6.84-3.05
			c-1.25-1.59-1.75-3.11-2.03-6.12h23.77C172.91,164.04,172.91,163.87,172.91,163.77z M149.43,159.89c0.82-4.59,3.94-7.43,8.19-7.43
			c2.56,0,4.42,0.72,5.9,2.18c1.37,1.37,2.03,2.84,2.41,5.25H149.43z"/>
		<path class="st125" d="M172.91,163.77c-0.17-3.72-0.55-5.67-1.59-8.3c-2.18-5.46-7.22-8.63-13.61-8.63
			c-9.34,0-15.41,6.61-15.41,16.72c0,10.22,6.12,16.66,15.79,16.66c4.59,0,8.41-1.42,11.24-4.21c1.36-1.37,2.07-2.39,3.33-5.02
			l-6.45-2.07c-0.55,1.48-0.93,2.07-1.59,2.84c-1.59,1.75-3.88,2.73-6.54,2.73c-2.79,0-5.25-1.08-6.84-3.05
			c-1.25-1.59-1.75-3.11-2.03-6.12h23.77C172.91,164.04,172.91,163.87,172.91,163.77z M149.43,159.89c0.82-4.59,3.94-7.43,8.19-7.43
			c2.56,0,4.42,0.72,5.9,2.18c1.37,1.37,2.03,2.84,2.41,5.25H149.43z"/>
		<path class="st125" d="M193.13,174.2c-2.62,0-3.6-0.98-3.6-3.66v-16.93h2.46c2.52,0,3.55,0.06,5.35,0.34v-6.45
			c-1.75,0.27-2.94,0.32-5.52,0.32h-2.29v-0.03h-7.05v0.03h-2.01c-2.29,0-3.33-0.06-4.91-0.32v6.45c1.8-0.27,2.84-0.34,4.87-0.34
			h2.07v18.35c0,5.74,2.52,7.98,8.79,7.98c2.84,0,4.49-0.27,6.84-1.14l-0.98-5.78C195.42,173.93,194.55,174.2,193.13,174.2z"/>
		<path class="st125" d="M193.13,174.2c-2.62,0-3.6-0.98-3.6-3.66v-16.93h2.46c2.52,0,3.55,0.06,5.35,0.34v-6.45
			c-1.75,0.27-2.94,0.32-5.52,0.32h-2.29v-0.03h-7.05v0.03h-2.01c-2.29,0-3.33-0.06-4.91-0.32v6.45c1.8-0.27,2.84-0.34,4.87-0.34
			h2.07v18.35c0,5.74,2.52,7.98,8.79,7.98c2.84,0,4.49-0.27,6.84-1.14l-0.98-5.78C195.42,173.93,194.55,174.2,193.13,174.2z"/>
		<path class="st125" d="M190.34,143.29h-7.03v-5.43l7.03-1.59V143.29z"/>
		<path class="st125" d="M233.36,149.5c0,0-0.21-6.19-0.14-8.41h-7.03l0.03,8.41H233.36z"/>
		<path class="st125" d="M234.15,131.71c0,0-6.61-2.81-6.71-2.67c-0.75,1.01-1.48,8.96-1.24,8.96c0.24,0,7.16,0,7.16,0
			S233.59,134.28,234.15,131.71z"/>
		<path class="st125" d="M235.07,127.94l-6.64-2.84c0,0,1.19-3.57,3.51-7.4c0,0,5.31,5.16,5.22,5.23
			C236.56,123.57,235.07,127.94,235.07,127.94z"/>
		<path class="st125" d="M243.61,115.6c0,0-3.94,3.33-4.42,4.27c-0.05,0.08-5.1-5.1-5.1-5.1s2.87-3.37,6.67-5.93L243.61,115.6z"/>
		<path class="st125" d="M254.15,111.53c-0.89,0-5.23,1.42-6.01,2.2l-2.59-6.64c0,0,4.18-2.2,8.6-2.94V111.53z"/>
		<path class="st125" d="M265.67,110.02c-3.98,0-7.96,0.7-7.96,0.7v-7.22c1.33-0.5,7.96-0.64,7.96-0.64S266.11,110.02,265.67,110.02
			z"/>
		<path class="st125" d="M248.29,152.95v-5.14h-7.43c0.34,2.24,0.38,3.77,0.38,7.11v17.15c0,2.84-0.11,4.42-0.38,7.11h7.81
			c-0.27-2.56-0.38-4.15-0.38-7.11v-10.1c0.32-2.62,0.87-3.88,2.24-5.46c1.54-1.8,3.6-2.67,6.33-2.67c1.42,0,2.56,0.21,4.87,0.87
			l1.91-6.88c-2.46-0.44-3.77-0.6-5.08-0.6C253.63,147.21,250.25,149.07,248.29,152.95z"/>
		<path class="st125" d="M248.29,152.95v-5.14h-7.43c0.34,2.24,0.38,3.77,0.38,7.11v17.15c0,2.84-0.11,4.42-0.38,7.11h7.81
			c-0.27-2.56-0.38-4.15-0.38-7.11v-10.1c0.32-2.62,0.87-3.88,2.24-5.46c1.54-1.8,3.6-2.67,6.33-2.67c1.42,0,2.56,0.21,4.87,0.87
			l1.91-6.88c-2.46-0.44-3.77-0.6-5.08-0.6C253.63,147.21,250.25,149.07,248.29,152.95z"/>
		<path class="st125" d="M296.9,163.77c-0.17-3.72-0.55-5.67-1.59-8.3c-2.18-5.46-7.2-8.63-13.59-8.63
			c-9.34,0-15.41,6.61-15.41,16.72c0,10.22,6.12,16.66,15.79,16.66c4.59,0,8.41-1.42,11.26-4.21c1.37-1.37,2.07-2.39,3.33-5.02
			l-6.45-2.07c-0.55,1.48-0.93,2.07-1.59,2.84c-1.59,1.75-3.87,2.73-6.56,2.73c-2.79,0-5.25-1.08-6.83-3.05
			c-1.25-1.59-1.75-3.11-2.03-6.12h23.77C296.9,164.04,296.9,163.87,296.9,163.77z M273.4,159.89c0.82-4.59,3.94-7.43,8.19-7.43
			c2.56,0,4.42,0.72,5.9,2.18c1.37,1.37,2.03,2.84,2.41,5.25H273.4z"/>
		<path class="st125" d="M296.9,163.77c-0.17-3.72-0.55-5.67-1.59-8.3c-2.18-5.46-7.2-8.63-13.59-8.63
			c-9.34,0-15.41,6.61-15.41,16.72c0,10.22,6.12,16.66,15.79,16.66c4.59,0,8.41-1.42,11.26-4.21c1.37-1.37,2.07-2.39,3.33-5.02
			l-6.45-2.07c-0.55,1.48-0.93,2.07-1.59,2.84c-1.59,1.75-3.87,2.73-6.56,2.73c-2.79,0-5.25-1.08-6.83-3.05
			c-1.25-1.59-1.75-3.11-2.03-6.12h23.77C296.9,164.04,296.9,163.87,296.9,163.77z M273.4,159.89c0.82-4.59,3.94-7.43,8.19-7.43
			c2.56,0,4.42,0.72,5.9,2.18c1.37,1.37,2.03,2.84,2.41,5.25H273.4z"/>
		<path class="st125" d="M330.11,157.65c0-3.71-0.72-5.78-2.56-7.54c-2.35-2.3-5.52-3.22-10.76-3.22c-4.7,0-7.75,0.82-10.44,2.79
			c-2.07,1.48-3.05,2.9-4.32,6.06l6.99,1.25c0.66-1.97,1.14-2.73,2.18-3.49c1.25-0.98,3.49-1.59,5.68-1.59
			c4.15,0,6.29,1.63,6.29,4.81v2.79c-7.81,0.17-11.85,0.7-15.41,2.18c-3.77,1.59-6.16,5.02-6.16,8.85c0,5.74,4.04,9.18,10.71,9.18
			c1.75,0,3.49-0.21,5.08-0.66c2.24-0.61,3.6-1.37,5.8-3.45v3.55h7.37c-0.34-2.46-0.44-3.94-0.44-6.83V157.65z M323.17,166.98
			c0,1.91-0.66,3.49-1.97,4.81c-1.86,1.8-4.7,2.9-7.6,2.9c-3.05,0-4.97-1.59-4.97-4.15c0-4.26,4.1-6.06,14.52-6.29v2.73H323.17z"/>
		<path class="st125" d="M330.11,157.65c0-3.71-0.72-5.78-2.56-7.54c-2.35-2.3-5.52-3.22-10.76-3.22c-4.7,0-7.75,0.82-10.44,2.79
			c-2.07,1.48-3.05,2.9-4.32,6.06l6.99,1.25c0.66-1.97,1.14-2.73,2.18-3.49c1.25-0.98,3.49-1.59,5.68-1.59
			c4.15,0,6.29,1.63,6.29,4.81v2.79c-7.81,0.17-11.85,0.7-15.41,2.18c-3.77,1.59-6.16,5.02-6.16,8.85c0,5.74,4.04,9.18,10.71,9.18
			c1.75,0,3.49-0.21,5.08-0.66c2.24-0.61,3.6-1.37,5.8-3.45v3.55h7.37c-0.34-2.46-0.44-3.94-0.44-6.83V157.65z M323.17,166.98
			c0,1.91-0.66,3.49-1.97,4.81c-1.86,1.8-4.7,2.9-7.6,2.9c-3.05,0-4.97-1.59-4.97-4.15c0-4.26,4.1-6.06,14.52-6.29v2.73H323.17z"/>
		<path class="st125" d="M385.05,158.58c0-3.87-0.76-6.33-2.56-8.3c-1.86-2.03-4.7-3.11-8.19-3.11c-2.46,0-4.32,0.44-6.12,1.42
			c-1.69,0.87-2.73,1.86-4.59,4.32c-0.66-1.69-1.1-2.41-2.07-3.28c-1.69-1.63-4.1-2.46-7.05-2.46c-4.53,0-8.57,2.14-10.16,5.46
			c0.06-0.87,0.06-1.69,0.06-2.03v-2.79h-7.32c0.27,2.07,0.38,3.66,0.38,7.11v17.15c0,2.94-0.11,4.76-0.38,7.11h7.7
			c-0.27-2.52-0.38-4.15-0.38-7.11v-10.82c0.6-2.62,1.14-3.88,2.35-5.46c1.48-1.91,3.33-2.84,5.63-2.84c3.55,0,5.29,2.29,5.29,6.88
			v12.24c0,3.11-0.11,4.81-0.44,7.11h7.87c-0.28-2.24-0.38-4.09-0.38-7.11v-10.82c0.66-3.39,1.53-5.14,3.45-6.77
			c1.31-1.14,2.67-1.63,4.49-1.63c3.66,0,5.35,2.18,5.35,6.99v12.24c0,3.22-0.11,4.87-0.44,7.11h7.98
			c-0.34-2.24-0.44-4.04-0.44-7.11v-13.49H385.05z"/>
		<path class="st125" d="M385.05,158.58c0-3.87-0.76-6.33-2.56-8.3c-1.86-2.03-4.7-3.11-8.19-3.11c-2.46,0-4.32,0.44-6.12,1.42
			c-1.69,0.87-2.73,1.86-4.59,4.32c-0.66-1.69-1.1-2.41-2.07-3.28c-1.69-1.63-4.1-2.46-7.05-2.46c-4.53,0-8.57,2.14-10.16,5.46
			c0.06-0.87,0.06-1.69,0.06-2.03v-2.79h-7.32c0.27,2.07,0.38,3.66,0.38,7.11v17.15c0,2.94-0.11,4.76-0.38,7.11h7.7
			c-0.27-2.52-0.38-4.15-0.38-7.11v-10.82c0.6-2.62,1.14-3.88,2.35-5.46c1.48-1.91,3.33-2.84,5.63-2.84c3.55,0,5.29,2.29,5.29,6.88
			v12.24c0,3.11-0.11,4.81-0.44,7.11h7.87c-0.28-2.24-0.38-4.09-0.38-7.11v-10.82c0.66-3.39,1.53-5.14,3.45-6.77
			c1.31-1.14,2.67-1.63,4.49-1.63c3.66,0,5.35,2.18,5.35,6.99v12.24c0,3.22-0.11,4.87-0.44,7.11h7.98
			c-0.34-2.24-0.44-4.04-0.44-7.11v-13.49H385.05z"/>
		<path class="st125" d="M415.96,163.49c-1.8-1.37-4.04-2.14-9.61-3.33c-3.11-0.72-4.26-1.04-5.46-1.63
			c-1.1-0.59-1.69-1.53-1.69-2.56c0-2.29,2.29-3.83,5.68-3.83c3.55,0,5.4,1.31,6.01,4.32l7.22-0.93c-0.76-2.67-1.53-4.04-2.94-5.4
			c-2.24-2.07-5.8-3.17-10.27-3.17c-4.97,0-8.68,1.42-10.92,4.26c-1.08,1.36-1.69,3.17-1.69,5.08c0,3.17,1.69,5.8,4.81,7.26
			c1.86,0.87,3.55,1.42,7.87,2.35c4.36,0.98,4.7,1.04,5.74,1.75c0.87,0.6,1.42,1.63,1.42,2.73c0,2.56-2.52,4.15-6.56,4.15
			c-4.26,0-6.29-1.48-7.2-5.19l-7.49,0.93c0.66,2.46,1.14,3.55,2.14,4.87c2.35,3.17,6.56,4.87,12.17,4.87c4.97,0,8.8-1.21,11.3-3.55
			c1.63-1.53,2.67-3.94,2.67-6.18C419.13,167.26,418.09,165.02,415.96,163.49z"/>
		<path class="st125" d="M415.96,163.49c-1.8-1.37-4.04-2.14-9.61-3.33c-3.11-0.72-4.26-1.04-5.46-1.63
			c-1.1-0.59-1.69-1.53-1.69-2.56c0-2.29,2.29-3.83,5.68-3.83c3.55,0,5.4,1.31,6.01,4.32l7.22-0.93c-0.76-2.67-1.53-4.04-2.94-5.4
			c-2.24-2.07-5.8-3.17-10.27-3.17c-4.97,0-8.68,1.42-10.92,4.26c-1.08,1.36-1.69,3.17-1.69,5.08c0,3.17,1.69,5.8,4.81,7.26
			c1.86,0.87,3.55,1.42,7.87,2.35c4.36,0.98,4.7,1.04,5.74,1.75c0.87,0.6,1.42,1.63,1.42,2.73c0,2.56-2.52,4.15-6.56,4.15
			c-4.26,0-6.29-1.48-7.2-5.19l-7.49,0.93c0.66,2.46,1.14,3.55,2.14,4.87c2.35,3.17,6.56,4.87,12.17,4.87c4.97,0,8.8-1.21,11.3-3.55
			c1.63-1.53,2.67-3.94,2.67-6.18C419.13,167.26,418.09,165.02,415.96,163.49z"/>
		<path class="st125" d="M226.72,152.58v0.05c-1.21-1.59-1.8-2.24-2.78-3.01c-2.14-1.69-4.91-2.52-8.3-2.52
			c-9.02,0-14.75,6.33-14.75,16.34c0,5.9,2.01,10.86,5.68,13.72c2.41,1.91,5.29,2.79,9.12,2.79c5.29,0,8.19-1.42,11.03-5.4
			c-0.06,0.7-0.06,1.31-0.06,1.97v2.67h7.26c-0.27-2.41-0.38-4.15-0.38-7.37v-19.24H226.72z M224.27,170.48
			c-1.63,2.24-4.42,3.6-7.32,3.6c-5.46,0-8.96-4.09-8.96-10.6c0-6.5,3.39-10.65,8.68-10.65c2.62,0,5.4,1.21,7.09,3.05
			c1.59,1.75,2.62,4.59,2.62,7.26C226.39,166.01,225.62,168.68,224.27,170.48z"/>
		<path class="st125" d="M226.72,152.58v0.05c-1.21-1.59-1.8-2.24-2.78-3.01c-2.14-1.69-4.91-2.52-8.3-2.52
			c-9.02,0-14.75,6.33-14.75,16.34c0,5.9,2.01,10.86,5.68,13.72c2.41,1.91,5.29,2.79,9.12,2.79c5.29,0,8.19-1.42,11.03-5.4
			c-0.06,0.7-0.06,1.31-0.06,1.97v2.67h7.26c-0.27-2.41-0.38-4.15-0.38-7.37v-19.24H226.72z M224.27,170.48
			c-1.63,2.24-4.42,3.6-7.32,3.6c-5.46,0-8.96-4.09-8.96-10.6c0-6.5,3.39-10.65,8.68-10.65c2.62,0,5.4,1.21,7.09,3.05
			c1.59,1.75,2.62,4.59,2.62,7.26C226.39,166.01,225.62,168.68,224.27,170.48z"/>
	</g>
	<g>
		<path class="st125" d="M358.97,358.55L358.97,358.55c0.19-2.66,0.33-5.69,0.45-9.18c0.11-3.63,0.16-8.62,0.16-14.88v-11.74
			c0-2.05-1.66-3.7-3.7-3.7h-61.44c-4.59,0-8.75,2-11.61,5.19c-2.86-3.19-7.01-5.19-11.6-5.19h-49.05
			c-8.62,0-15.62,6.99-15.62,15.61v13.07c-2.53-1.24-4.8-3.4-6.93-6.52c-2.06-3.03-2.6-4.65-2.73-5.09v-1.46
			c0-8.62-6.99-15.61-15.61-15.61h-12.21c-8.62,0-15.61,6.99-15.61,15.61v0.56c-0.51,2.77-1.9,5.23-4.34,7.71
			c-2.36,2.34-4.85,4-7.64,5.06c-4.11,1.56-7.39,4.8-9,8.9c-1.61,4.1-1.4,8.7,0.56,12.63l4.35,8.79c0.15,0.32,0.32,0.61,0.49,0.9
			c-3.87,2.86-6.37,7.43-6.37,12.57v10.16c0,8.62,7,15.61,15.62,15.61h55.92c3.06,0,5.92-0.88,8.34-2.41
			c2.41,1.53,5.27,2.41,8.33,2.41h52.92c8.62,0,15.62-6.99,15.62-15.61v-7.53c0.93,0.17,1.89,0.27,2.86,0.27h6.24v8.84
			c0,8.62,7,15.62,15.62,15.62h13.23c8.62,0,15.61-7,15.61-15.62v-8.84h5.14c8.62,0,15.61-6.99,15.61-15.61v-10.56
			C362.57,364.72,361.22,361.25,358.97,358.55z M357.62,379.06c0,5.88-4.78,10.65-10.65,10.65h-10.11v13.81
			c0,5.88-4.78,10.65-10.64,10.65h-13.23c-5.88,0-10.65-4.78-10.65-10.65v-13.81h-19.13c0.06,0.45,0.1,0.9,0.1,1.37v10.86
			c0,5.88-4.78,10.65-10.65,10.65h-52.92c-3.37,0-6.38-1.58-8.33-4.04c-1.95,2.46-4.97,4.04-8.34,4.04h-55.92
			c-5.89,0-10.65-4.78-10.65-10.65v-10.16c0-3.41,1.58-6.53,4.34-8.56l3.57-2.64l-2.22-3.84c-0.11-0.2-0.23-0.41-0.33-0.62
			l-4.36-8.79c-1.33-2.68-1.46-5.82-0.37-8.61c1.09-2.79,3.33-5,6.14-6.08c3.44-1.3,6.51-3.33,9.37-6.19
			c3.18-3.22,5.03-6.58,5.72-10.33l0.08-0.44v-1c0-5.88,4.78-10.65,10.65-10.65h12.21c5.88,0,10.64,4.78,10.64,10.65v2.15l0.19,0.66
			c0.33,1.18,1.19,3.27,3.39,6.52c3.03,4.46,6.43,7.36,10.39,8.86c2.43,0.94,4.42,2.71,5.62,4.99v-23.18
			c0-5.88,4.78-10.65,10.65-10.65h49.05c5.89,0,10.65,4.78,10.65,10.65v10.95c0,1.49-0.31,2.96-0.91,4.31h3.86v-0.29l-0.33-0.86
			c-0.46-1.21-0.7-2.48-0.7-3.79v-10.32c0-5.88,4.78-10.65,10.65-10.65h56.47c2.05,0,3.7,1.66,3.7,3.71v6.77
			c0,6.21-0.05,11.17-0.15,14.74c-0.11,3.44-0.26,6.38-0.44,8.99l-0.12,1.98l1.27,1.52c1.58,1.9,2.45,4.31,2.45,6.78V379.06z"/>
		<path class="st125" d="M150.74,370.22c0.15,0.3,0.48,0.46,0.81,0.39c5.12-1.16,10.17-3.67,15.14-7.53
			c3.25-2.49,5.72-4.89,7.41-7.17c0.29-0.39,0.86-0.38,1.15,0.01c2.37,3.13,5.58,6.14,9.63,9.02c4.2,2.99,8.21,5.01,12.04,6.05
			c0.32,0.09,0.65-0.06,0.82-0.35l5-8.95c0.22-0.39,0.04-0.86-0.38-1.02c-5.87-2.24-10.89-6.43-15.07-12.57
			c-3.52-5.21-5.28-9.57-5.28-13.1v-1.8c0-0.4-0.32-0.72-0.72-0.72h-12.21c-0.4,0-0.72,0.32-0.72,0.72v1.59c0,0.02,0,0.04,0,0.05
			c0,0.02,0,0.03,0,0.05c-0.79,6.35-3.69,12.03-8.67,17.07c-3.85,3.85-8.14,6.68-12.9,8.48c-0.09,0.04-0.17,0.09-0.24,0.15
			c-0.02,0.02-0.04,0.04-0.05,0.07c-0.04,0.05-0.08,0.1-0.1,0.15c-0.01,0.03-0.02,0.06-0.03,0.09c-0.02,0.06-0.03,0.11-0.03,0.17
			c0,0.03,0,0.07,0,0.1c0,0.02,0,0.04,0,0.06c0.01,0.06,0.03,0.12,0.05,0.18c0,0,0,0,0,0c0,0.01,0.01,0.01,0.01,0.02l-0.01-0.02
			L150.74,370.22z"/>
		<path class="st125" d="M203.06,389.6h-55.91c-0.4,0-0.72,0.32-0.72,0.72v10.16c0,0.4,0.32,0.72,0.72,0.72h55.92
			c0.4,0,0.72-0.32,0.72-0.72v-10.16h-0.01C203.78,389.92,203.46,389.6,203.06,389.6z"/>
		<path class="st125" d="M272.64,388.88h-16.79c-0.4,0-0.72-0.32-0.72-0.72v-9.76c0-0.06-0.02-0.11-0.03-0.17v-5.44h16.43
			c0.4,0,0.72-0.32,0.72-0.72v-10.71c0-0.4-0.32-0.72-0.72-0.72h-34.22l-0.01-0.01c-0.4,0-0.72-0.32-0.72-0.72v-14.34
			c0-0.4,0.32-0.72,0.72-0.72h33.9c0.4,0,0.72-0.32,0.72-0.72V333.2c0-0.4-0.32-0.72-0.72-0.72h-49.05c-0.4,0-0.72,0.32-0.72,0.72
			v29.97c0,3.94,0.45,6.47,1.34,7.57c1.1,1.37,3.71,2.05,7.81,2.05h9.23v15.69c-0.12,0.24-0.36,0.4-0.64,0.4h-19.47
			c-0.4,0-0.72,0.32-0.72,0.72v10.87c0,0.4,0.32,0.72,0.72,0.72h52.92c0.4,0,0.72-0.32,0.72-0.72V389.6
			C273.36,389.21,273.04,388.88,272.64,388.88z"/>
		<path class="st125" d="M346.97,366.33h-2.64l0.27-21.1l-0.01,0.02c0-0.17,0.01-0.34,0.01-0.52c0-0.13,0-0.27,0.01-0.41
			c0.01-0.35,0.01-0.71,0.02-1.07c0-0.21,0.01-0.43,0.01-0.65c0-0.28,0.01-0.57,0.01-0.87c0-0.31,0.01-0.62,0.01-0.93
			c0-0.2,0-0.4,0.01-0.59c0-0.42,0.01-0.85,0.01-1.28c0-0.02,0-0.04,0-0.06c0.01-1.79,0.02-3.73,0.02-5.83v-0.55h-50.25
			c-0.4,0-0.72,0.32-0.72,0.72v10.32c0,0.4,0.32,0.72,0.72,0.72h34.93c0.4,0,0.72,0.32,0.72,0.72v2.59c0,0.4-0.32,0.72-0.72,0.72
			h-33.9c-0.4,0-0.72,0.32-0.72,0.72v10h-0.01c0,0.03,0,0.06,0.01,0.09c0,0.04,0.02,0.07,0.03,0.11c0.01,0.04,0.02,0.07,0.03,0.11
			c0.02,0.05,0.06,0.09,0.09,0.13c0.02,0.03,0.04,0.06,0.06,0.08c0.04,0.04,0.09,0.07,0.14,0.1c0.03,0.02,0.05,0.04,0.08,0.05
			c0.08,0.03,0.17,0.05,0.27,0.05h33.33c0.08,0,0.15,0.02,0.21,0.04v6.59h-37.88c-0.4,0-0.72,0.32-0.72,0.72v10.56
			c0,0.4,0.32,0.72,0.72,0.72h20.42c0.4,0,0.72,0.32,0.72,0.72v23.02c0,0.4,0.32,0.72,0.72,0.72h13.24c0.4,0,0.72-0.32,0.72-0.72
			v-23.02c0-0.4,0.32-0.72,0.72-0.72h19.31c0.4,0,0.72-0.32,0.72-0.72v-10.56C347.68,366.65,347.36,366.33,346.97,366.33z"/>
	</g>
</g>
</svg>
