<?xml version="1.0" encoding="utf-8"?>
<!-- Generator: Adobe Illustrator 26.0.0, SVG Export Plug-In . SVG Version: 6.00 Build 0)  -->
<svg version="1.1" id="Capa_1" xmlns="http://www.w3.org/2000/svg" xmlns:xlink="http://www.w3.org/1999/xlink" x="0px" y="0px"
	 viewBox="0 0 512 512" style="enable-background:new 0 0 512 512;" xml:space="preserve">
<style type="text/css">
	.st0{clip-path:url(#SVGID_00000137849821607571966600000012382721456064701333_);}
	.st1{fill:url(#SVGID_00000007421280924684543310000007108198792283633833_);}
	.st2{opacity:0.35;}
	.st3{opacity:0.5;fill:#C8C8C8;enable-background:new    ;}
	.st4{opacity:0.5;fill-rule:evenodd;clip-rule:evenodd;fill:#C8C8C8;enable-background:new    ;}
	.st5{opacity:0.5;fill:#FFFFFF;enable-background:new    ;}
	.st6{opacity:0.5;fill:#F8AF45;enable-background:new    ;}
	.st7{fill:#C1C1C1;fill-opacity:0.59;}
	.st8{fill:#C9C5C5;}
	.st9{fill-rule:evenodd;clip-rule:evenodd;fill:#C9C5C5;}
	.st10{fill:#FFFFFF;}
	.st11{fill-rule:evenodd;clip-rule:evenodd;fill:url(#SVGID_00000181088427751809247840000001186136297467205817_);}
	.st12{fill:#E4E4E4;}
	.st13{fill:#C1C1C1;fill-opacity:0.6;}
	.st14{fill:#A00045;}
	.st15{fill-rule:evenodd;clip-rule:evenodd;fill:#A00045;}
	.st16{fill:#FF006E;}
	.st17{fill:url(#SVGID_00000173867185204349436880000001170108304952051369_);}
	.st18{fill-rule:evenodd;clip-rule:evenodd;fill:url(#SVGID_00000171001565824373590750000013099703283703828645_);}
	.st19{fill:#CA1362;}
	.st20{fill:#C1C1C1;fill-opacity:0.37;}
	.st21{fill:#ECA817;}
	.st22{fill-rule:evenodd;clip-rule:evenodd;fill:#ECA817;}
	.st23{fill:url(#SVGID_00000183217114663608206450000008101068173258697647_);}
	.st24{fill-rule:evenodd;clip-rule:evenodd;fill:url(#SVGID_00000026855640652933216020000003840530435945495424_);}
	.st25{fill:#FFB93A;}
	.st26{fill:#4C129D;}
	.st27{fill-rule:evenodd;clip-rule:evenodd;fill:#4C129D;}
	.st28{fill:url(#SVGID_00000044884411824206180780000010382989235913932181_);}
	.st29{fill-rule:evenodd;clip-rule:evenodd;fill:url(#SVGID_00000051380903328991957190000000135752367297370240_);}
	.st30{fill:#641BCC;}
	.st31{fill:#244D8F;stroke:#244D8F;stroke-width:2;}
	.st32{fill:url(#SVGID_00000135678003238626638140000016354091100850888125_);}
	.st33{fill:none;stroke:url(#SVGID_00000032614675881750024160000000547675922385958060_);stroke-width:2;}
	.st34{fill:#3478E4;}
	.st35{clip-path:url(#SVGID_00000077288030126500218930000009082608013535839633_);}
	.st36{fill:url(#SVGID_00000121968605937553746370000015982761507647426191_);}
	.st37{fill-rule:evenodd;clip-rule:evenodd;fill:url(#SVGID_00000155106039471400441730000001209585972336926901_);}
	.st38{fill:url(#SVGID_00000168088627929764445280000010838334912891868040_);}
	.st39{fill-rule:evenodd;clip-rule:evenodd;fill:url(#SVGID_00000037671549770678531510000012968375066305262772_);}
	.st40{fill:url(#SVGID_00000096059507332779908590000008531268442571310494_);}
	.st41{fill-rule:evenodd;clip-rule:evenodd;fill:url(#SVGID_00000103244930659222295830000016743091741159787648_);}
	.st42{fill:url(#SVGID_00000144296760005929021170000013709421219625271958_);}
	.st43{fill-rule:evenodd;clip-rule:evenodd;fill:url(#SVGID_00000043459268505579253010000016502049423018134957_);}
	.st44{fill:url(#SVGID_00000132769911347654980070000003119191997815790504_);}
	.st45{fill:none;stroke:url(#SVGID_00000077289098635017019100000011172941188604632991_);stroke-width:2;}
	.st46{clip-path:url(#SVGID_00000074418457736791538780000009944166609729141419_);}
	.st47{fill:url(#SVGID_00000015320903976272918100000007940520804166832804_);}
	.st48{fill-rule:evenodd;clip-rule:evenodd;fill:url(#SVGID_00000140714579444426860650000015417180087998119840_);}
	.st49{fill:url(#SVGID_00000026851650278729860760000013373648755120361876_);}
	.st50{fill-rule:evenodd;clip-rule:evenodd;fill:url(#SVGID_00000039822013455628177670000005602361096731838620_);}
	.st51{fill:url(#SVGID_00000180334144316806396690000008782696835439139474_);}
	.st52{fill-rule:evenodd;clip-rule:evenodd;fill:url(#SVGID_00000127044734821754305050000014039340496137968778_);}
	.st53{fill:url(#SVGID_00000109725678182300955630000008299347225326204601_);}
	.st54{fill-rule:evenodd;clip-rule:evenodd;fill:url(#SVGID_00000114047834160827220590000003438747826971738288_);}
	.st55{fill:url(#SVGID_00000168806850350099838970000001558764283838032318_);}
	.st56{fill:none;stroke:url(#SVGID_00000022543875479584645460000011139609014529082796_);stroke-width:2;}
	.st57{clip-path:url(#SVGID_00000142876977249368869220000016263808413866544301_);}
	.st58{fill:url(#SVGID_00000080187729593269644700000005164773579722727579_);}
	.st59{fill:url(#SVGID_00000072250267107472352200000000075995548191830969_);}
	.st60{fill:url(#SVGID_00000150810503542557618370000016416860048149182638_);}
	.st61{fill:url(#SVGID_00000152976156600528378300000002782270697220572090_);}
	.st62{fill:url(#SVGID_00000107546988185438844150000008309606772296166317_);}
	.st63{fill:url(#SVGID_00000149377460065642859220000012670911301235327151_);}
	.st64{fill:url(#SVGID_00000010994588179857207500000007493865483477183161_);}
	.st65{fill:url(#SVGID_00000093169489594362311520000012392207233261728939_);}
	.st66{fill:url(#SVGID_00000161610155543157648770000016057053430383691677_);}
	.st67{fill:url(#SVGID_00000156584539553034013730000008918789722145598882_);}
	.st68{fill:url(#SVGID_00000014594770849181795920000010586737393622959545_);}
	.st69{fill:url(#SVGID_00000058575072018929528420000004040590453413950852_);}
	.st70{fill:url(#SVGID_00000158734474478118687380000014631718809505331593_);}
	.st71{fill:url(#SVGID_00000041289696740317431600000005700905929261126588_);}
	.st72{fill:url(#SVGID_00000070090690382409551930000009647225611846539167_);}
	.st73{fill:#FFFFFF;fill-opacity:0.8;}
	.st74{fill:url(#SVGID_00000093173512131892042740000003331622486643274682_);}
	.st75{fill:url(#SVGID_00000157282285014521063220000003964651952446438545_);}
	.st76{fill:url(#SVGID_00000018924586613700660840000011172737175250271154_);}
	.st77{fill:url(#SVGID_00000015337782477751938670000007769399971121848227_);}
	.st78{fill:url(#SVGID_00000163044049190742610860000014103895919129968003_);}
	.st79{fill:url(#SVGID_00000083067165119745968660000013251266548817821607_);}
	.st80{fill-rule:evenodd;clip-rule:evenodd;fill:url(#SVGID_00000126294592340264343920000005486676398896732058_);}
	.st81{fill:#474747;}
	.st82{fill:#919296;}
	.st83{fill:#ED4028;}
	.st84{fill:#EF5A28;}
	.st85{fill:#F17028;}
	.st86{fill:#F38028;}
	.st87{fill:#F9A325;}
	.st88{fill:#FBB723;}
	.st89{fill:#1E1E1E;}
	.st90{fill:url(#SVGID_00000124871076208909027900000012901028381762858881_);}
	.st91{fill:url(#SVGID_00000108285769944737619870000010105389986905652669_);}
	.st92{fill:url(#SVGID_00000074409738266424096240000001657945925265807769_);}
	.st93{fill:url(#SVGID_00000183967872426601407020000007535046812062766011_);}
	.st94{fill:url(#SVGID_00000133493106189453952780000007979772229663668119_);}
	.st95{fill:url(#SVGID_00000024722285744330105630000004413413475333455262_);}
	.st96{clip-path:url(#SVGID_00000108310239342211516850000005495993088951005830_);}
	.st97{fill:url(#SVGID_00000133519402046121944360000017899905477026874030_);}
	.st98{fill:url(#SVGID_00000039133486131720309600000010557039813790166671_);}
	.st99{fill:url(#SVGID_00000021088576143003294950000014524385479657221548_);}
	.st100{fill:url(#SVGID_00000122698904633010997440000005925501704630987914_);}
	.st101{fill:url(#SVGID_00000144306336597140814560000006090507153158075008_);}
	.st102{fill:url(#SVGID_00000020399796342054860640000007587621770243079097_);}
	.st103{fill:url(#SVGID_00000153705872617849990050000006217491157726471615_);}
	.st104{fill:url(#SVGID_00000070823498055373650680000010101462682708157874_);}
	.st105{fill:url(#SVGID_00000170971842437657858320000015428489656385863605_);}
	.st106{fill:url(#SVGID_00000106143829145763981550000011158688124635386775_);}
	.st107{fill:url(#SVGID_00000095303762381544155070000009665269273353822877_);}
	.st108{fill:url(#SVGID_00000023268424053786605340000014108132920431481518_);}
	.st109{fill:url(#SVGID_00000116236226871805880670000011538305635731420315_);}
	.st110{fill:url(#SVGID_00000119807039539413344550000013972311772191363715_);}
	.st111{fill:url(#SVGID_00000103264856804501227790000001545324565761181883_);}
	.st112{fill:url(#SVGID_00000044897057990906622790000000973065383633214635_);}
	.st113{fill:url(#SVGID_00000176725031804384593070000003119407521820466583_);}
	.st114{fill:url(#SVGID_00000036231197639544606470000000186478127429273273_);}
	.st115{fill:url(#SVGID_00000005982868551227574110000006386630854246026654_);}
	.st116{fill:url(#SVGID_00000064323731601431674560000006698235274319259798_);}
	.st117{fill:url(#SVGID_00000037657767251469717990000004240588709597472902_);}
	.st118{fill-rule:evenodd;clip-rule:evenodd;fill:url(#SVGID_00000113310702486749033910000002169347080106518406_);}
	.st119{fill:url(#SVGID_00000127726928919504195900000013257241419686539921_);}
	.st120{fill:url(#SVGID_00000135681958921909858490000001408154114231727749_);}
	.st121{fill:url(#SVGID_00000181794776269368338880000013521047467783041975_);}
	.st122{fill:url(#SVGID_00000063605556378984152750000010101270631292200866_);}
	.st123{fill:url(#SVGID_00000170993868935573190720000000988757296948247225_);}
	.st124{fill:url(#SVGID_00000156546577577913564060000010956063882432179369_);}
	.st125{fill:#231F20;}
	.st126{fill:url(#SVGID_00000076589499430402093520000002116282971581401007_);}
	.st127{fill:url(#SVGID_00000001641370075073605350000006791687078999769226_);}
	.st128{fill:url(#SVGID_00000057142981435407698020000008140407940761609370_);}
	.st129{fill:url(#SVGID_00000029014171925153315110000006026313386090154141_);}
	.st130{fill:url(#SVGID_00000084490165346671175000000006533680824018487686_);}
	.st131{fill:url(#SVGID_00000137847183417692308920000005471922966275353529_);}
	.st132{fill:url(#SVGID_00000126318778248791302240000009635465210451927742_);}
	.st133{fill:url(#SVGID_00000173153345076107804310000009599039259587044248_);}
	.st134{fill:url(#SVGID_00000100352239413242447720000012275543467442335158_);}
	.st135{fill:url(#SVGID_00000087370142065167240370000005280343501681176233_);}
	.st136{fill:url(#SVGID_00000010309828086143247000000011511450637247519423_);}
	.st137{fill:url(#SVGID_00000049189189988433634660000010194042522938414756_);}
	.st138{fill:url(#SVGID_00000162350051781080780270000013363671879902619528_);}
	.st139{fill:url(#SVGID_00000147919211272349162270000009982490933970854322_);}
	.st140{fill:url(#SVGID_00000087414801524324193860000001883533768778218157_);}
	.st141{fill:url(#SVGID_00000047761897778518006540000015016067967456717205_);}
	.st142{fill:url(#SVGID_00000136373371235334571610000011714055918285371792_);}
	.st143{fill:url(#SVGID_00000147914827939863282240000012224567294289102755_);}
	.st144{fill:url(#SVGID_00000127762521362644838920000014423880119056610454_);}
	.st145{fill:url(#SVGID_00000061432927942610492770000002669427984259991185_);}
	.st146{fill:url(#SVGID_00000052787711237075214110000017398312458817441189_);}
	.st147{fill-rule:evenodd;clip-rule:evenodd;fill:url(#SVGID_00000157298303209205114280000017621091234141610629_);}
	.st148{fill:url(#SVGID_00000067928019782043276510000011703932502589856401_);}
	.st149{fill:url(#SVGID_00000018946807830999412260000008215637395267831173_);}
	.st150{fill:url(#SVGID_00000056423910975839590280000011033252732556130477_);}
	.st151{fill:url(#SVGID_00000046309804952052161760000011579490943152603021_);}
	.st152{fill:url(#SVGID_00000154421097224550589090000016658940534456319401_);}
	.st153{fill:url(#SVGID_00000070079320815984014270000011792948540328934312_);}
	.st154{fill:url(#SVGID_00000065070846962205765030000008131796417401611657_);}
	.st155{fill:url(#SVGID_00000075877895141159021680000004790947414282831255_);}
	.st156{fill:url(#SVGID_00000082361294686559965310000008006084166066824857_);}
	.st157{fill:url(#SVGID_00000008140425015505972430000003038107241364912807_);}
	.st158{fill:url(#SVGID_00000078019080074864061400000000252093131573507735_);}
	.st159{fill:url(#SVGID_00000150082097091332259160000002814254705121733007_);}
	.st160{fill-rule:evenodd;clip-rule:evenodd;fill:#FFFFFF;fill-opacity:0.49;}
	.st161{fill:url(#SVGID_00000163049602390891137840000011880427205003369133_);}
	.st162{fill:url(#SVGID_00000079469737311631617560000005579778275701452988_);}
	.st163{fill:url(#SVGID_00000024684603516461278320000011846025780768478647_);}
	.st164{fill:#F5F5F5;}
	.st165{fill:url(#SVGID_00000062180863298767510370000015657730919368156600_);}
	.st166{fill:#F9F9F9;}
	.st167{fill:url(#SVGID_00000170274875838457759110000018009358225149173682_);}
	.st168{fill:url(#SVGID_00000094586617782198085790000016275110807822149768_);}
	.st169{fill:url(#SVGID_00000044151823604428339650000008871030235266753933_);}
	.st170{fill:url(#SVGID_00000064332620173438817240000002279607802777866919_);}
	.st171{fill:url(#SVGID_00000147916534936668123050000017821741299199866791_);}
	.st172{fill:url(#SVGID_00000072240094564159751210000003575286383452650658_);}
	.st173{fill:url(#SVGID_00000043444906012430885740000007073366948838358717_);}
	.st174{fill:url(#SVGID_00000162343440746934957200000008151731472028577468_);}
	.st175{fill:url(#SVGID_00000166635431268425905070000005418711512044755627_);}
	.st176{fill:url(#SVGID_00000003091815649802373890000010481064939737218476_);}
	.st177{fill:url(#SVGID_00000137825005584021629070000000345887582469779078_);}
	.st178{fill:url(#SVGID_00000174559577058222570620000014027373975904250020_);}
	.st179{fill:url(#SVGID_00000164471646841437903730000006178495580247963292_);}
	.st180{fill:url(#SVGID_00000173149062452916213900000018277150452800176773_);}
	.st181{fill:url(#SVGID_00000064333407690425452340000000033105888581330569_);}
	.st182{fill:url(#SVGID_00000174591657961582296130000000432399407910441148_);}
	.st183{fill:url(#SVGID_00000063613532690924493960000009067273978748203187_);}
	.st184{fill:url(#SVGID_00000183226583827571352060000010399400131547046274_);}
	.st185{fill:url(#SVGID_00000128485928259100708810000010375763193610066614_);}
	.st186{fill:url(#SVGID_00000132066006546901159520000013574245143442627968_);}
	.st187{fill:url(#SVGID_00000111898753053343307040000004881846750138557630_);}
	.st188{fill:url(#SVGID_00000036935367544032395380000016200478187928254851_);}
	.st189{fill:url(#SVGID_00000053541187489328840010000014321459156583241097_);}
	.st190{fill:url(#SVGID_00000090997088457721961980000007712765624399336073_);}
	.st191{fill:url(#SVGID_00000105390340890135191080000009146478643242553232_);}
	.st192{fill:url(#SVGID_00000074443519143628625770000007392817302392877458_);}
	.st193{fill:url(#SVGID_00000014607358785263637250000014113363555889117867_);}
	.st194{fill-rule:evenodd;clip-rule:evenodd;fill:url(#SVGID_00000009565891142251230400000003747169995360140981_);}
	.st195{fill:url(#SVGID_00000109017269512633604880000013945348650840044945_);}
	.st196{fill:url(#SVGID_00000137127939585563212650000003489874267871280053_);}
	.st197{fill:url(#SVGID_00000028318864629250752260000006925146087773742747_);}
	.st198{fill:url(#SVGID_00000000915642606956476130000003610388200140925109_);}
	.st199{fill:url(#SVGID_00000052783749138972132920000015203463604408466365_);}
	.st200{fill:url(#SVGID_00000060009398287809348170000012338671811374258052_);}
	.st201{fill-rule:evenodd;clip-rule:evenodd;fill:#FFFFFF;}
	.st202{fill:url(#SVGID_00000047755301464536609960000004818381556583511705_);}
	.st203{fill:url(#SVGID_00000100382049512739650240000009378374918678700699_);}
	.st204{fill:url(#SVGID_00000163035067944469645560000003235710739528768409_);}
	.st205{fill:url(#SVGID_00000044897679685375614430000002669714620057492130_);}
	.st206{fill:url(#SVGID_00000134933975080843180270000014094456168035175574_);}
	.st207{fill:url(#SVGID_00000072992301033450508330000018227074231591779764_);}
	.st208{fill:url(#SVGID_00000072962664652349381460000005361234630304790420_);}
	.st209{fill:url(#SVGID_00000010271964963601295650000010061286295067617215_);}
	.st210{fill:url(#SVGID_00000045596205229154011730000000110346183313625762_);}
	.st211{fill:url(#SVGID_00000079450355142086497480000006220912474232580253_);}
	.st212{fill:url(#SVGID_00000053530012959699713560000015778592488310176436_);}
	.st213{fill:url(#SVGID_00000005262494519371900380000018384854766877660839_);}
	.st214{fill:url(#SVGID_00000088114080788274683820000006905798989159707309_);}
	.st215{fill:url(#SVGID_00000054235319173253862890000012960554800040380310_);}
	.st216{fill:url(#SVGID_00000098943397592515144140000010164540513033605023_);}
	.st217{fill:url(#SVGID_00000128460967119858618530000012344879112310696580_);}
	.st218{fill:url(#SVGID_00000040540522926932391420000009763174409362714552_);}
	.st219{fill:url(#SVGID_00000062175005595540089560000004279835911893958535_);}
	.st220{fill:url(#SVGID_00000119816871384714483730000013301459337693906603_);}
	.st221{fill:url(#SVGID_00000106132702919422752470000013043558129721494966_);}
	.st222{fill:url(#SVGID_00000009559091217722571510000002635728334214674616_);}
	.st223{fill:url(#SVGID_00000060708713156031249320000007747561924592779935_);}
	.st224{fill:url(#SVGID_00000143587456813469090930000005513125075422045824_);}
	.st225{fill:url(#SVGID_00000178899183379303376260000006214618940220667023_);}
	.st226{fill:url(#SVGID_00000144334661094121828630000008774000541822501263_);}
	.st227{fill:url(#SVGID_00000177466148287846888340000006402906323711855009_);}
	.st228{fill:url(#SVGID_00000091697290388732358730000008036624212075011256_);}
	.st229{fill-rule:evenodd;clip-rule:evenodd;fill:url(#SVGID_00000059296464791474507580000006427423874099911814_);}
	.st230{fill:url(#SVGID_00000149366371414814229300000013797560769270696601_);}
	.st231{fill:url(#SVGID_00000059286364655874205660000003450605812536453042_);}
	.st232{fill:url(#SVGID_00000149374135448412951970000016334183059223913904_);}
	.st233{fill:url(#SVGID_00000099623922174265849380000007947835901414794382_);}
	.st234{fill:url(#SVGID_00000168116064943630588030000003505681893533368235_);}
	.st235{fill:url(#SVGID_00000151542658115683512980000006353157965196373391_);}
	.st236{fill:url(#SVGID_00000016065245305600228030000015385167328429228458_);}
	.st237{fill:url(#SVGID_00000093147282535739253130000005165168439645176736_);}
	.st238{fill:url(#SVGID_00000175324916309438307180000017353930604290801804_);}
	.st239{fill:url(#SVGID_00000169557483858974575390000014697475330159385501_);}
	.st240{fill:url(#SVGID_00000047022146919786807110000008448556628017284796_);}
	.st241{fill:url(#SVGID_00000003820394973157150260000006887712559728641933_);}
	.st242{fill:url(#SVGID_00000101087602347882871130000001743724072976326312_);}
	.st243{fill:url(#SVGID_00000096034030166812349270000016666241642835826082_);}
	.st244{fill:url(#SVGID_00000072260528287859997380000016738051898954303397_);}
	.st245{fill:url(#SVGID_00000148630551797738733950000001725407357872104628_);}
	.st246{fill:url(#SVGID_00000098931961952463699100000000067556177293676938_);}
	.st247{fill:url(#SVGID_00000175307182487825134630000013506636251019468978_);}
	.st248{fill:url(#SVGID_00000027594230600926907300000002736143149311624608_);}
	.st249{fill:url(#SVGID_00000166668431163622242840000013409788447393067673_);}
	.st250{fill:url(#SVGID_00000018936819850284419890000017701029676590381246_);}
	.st251{fill:url(#SVGID_00000091697138524437882360000016458543825075137688_);}
	.st252{fill:url(#SVGID_00000127030557332426315460000015684928848198110084_);}
	.st253{fill:url(#SVGID_00000062173324490557182650000009783746551107312788_);}
	.st254{fill:url(#SVGID_00000026151857817243737570000016281165884589145770_);}
	.st255{fill:url(#SVGID_00000077293666796915336360000001444758738045313675_);}
	.st256{fill:url(#SVGID_00000165206368908115086180000000532000489894129855_);}
	.st257{fill-rule:evenodd;clip-rule:evenodd;fill:url(#SVGID_00000161629997894323228140000005425743629576337828_);}
	.st258{fill:url(#SVGID_00000111889375633465306120000017617230827293757871_);}
	.st259{fill:url(#SVGID_00000148647315577946973390000000281919849337482133_);}
	.st260{fill:url(#SVGID_00000151527579534654622730000009692024706409478536_);}
	.st261{fill:url(#SVGID_00000097501272365022254080000011567524319863462787_);}
	.st262{fill:url(#SVGID_00000066512577855387698810000017682621672653016720_);}
	.st263{fill:url(#SVGID_00000084526384335680214120000013834802093400304783_);}
	.st264{fill:url(#SVGID_00000049192588682587747460000014658884560486733727_);}
	.st265{fill:url(#SVGID_00000132777498780161216180000004212498467530857893_);}
	.st266{fill:url(#SVGID_00000000204149650586313550000016362450357451675806_);}
	.st267{fill:url(#SVGID_00000060015742678226725700000002452457592292193715_);}
	.st268{fill:url(#SVGID_00000178194255900533429610000009961153046021936531_);}
	.st269{fill:url(#SVGID_00000183210720898655207670000003268809082922454448_);}
	.st270{fill:url(#SVGID_00000039842119693217844300000012378915887494753939_);}
	.st271{fill:url(#SVGID_00000160158765151674099290000015525153073379165318_);}
	.st272{fill:url(#SVGID_00000098928961683845015680000016340603372011830166_);}
	.st273{fill:url(#SVGID_00000150071578264342179090000013430374127037747609_);}
</style>
<g>
	<g>
		<path class="st10" d="M484.42,220.27c-0.15-2.99-0.83-5.55-1.47-7.44c-1.2-3.78-3.59-8.3-8.15-11.85
			c-3.41-2.65-6.97-3.96-9.35-4.66c-3.65-1.07-7.2-1.33-10.07-1.33c-3.15,0-7.13,0.28-11.16,1.55c-3.97,1.25-8.86,3.8-12.56,8.68
			c-3.43-4.6-8.08-7.32-12.39-8.68c-4.08-1.29-8.12-1.55-11.26-1.55c-3.14,0-7.18,0.26-11.26,1.55c-0.87,0.28-1.74,0.6-2.61,0.98
			c-3.49-1.94-8.01-3.64-13.31-3.64c-6.26,0-11.14,2.45-14.18,4.49c-1.3,0.87-2.48,1.82-3.57,2.79l-0.05-0.04l-0.04-0.03
			c-3.41-2.66-6.98-3.97-9.36-4.67c-3.65-1.07-7.2-1.33-10.07-1.33c-3.14,0-7.18,0.26-11.26,1.55c-3.81,1.21-7.76,3.41-10.97,6.9
			c-9.2-6.13-19.75-9.35-31.26-9.35c-7.48,0-14.72,1.53-21.56,4.48c-6.65,2.86-12.62,6.85-17.79,11.92
			c-0.13,0.12-0.25,0.24-0.37,0.37c-10.91-10.25-24.31-15.87-39.4-15.87h-9.22c-4.12-0.06-7.3-0.1-9.46-0.1
			c-3.14,0-7.18,0.26-11.26,1.55c-0.79,0.25-1.59,0.54-2.38,0.88c-1.16-0.48-2.23-0.83-3.14-1.1c-3.65-1.07-7.19-1.33-10.07-1.33
			c-3.14,0-7.12,0.28-11.16,1.55c-3.97,1.25-8.85,3.8-12.56,8.68c-3.43-4.6-8.08-7.32-12.38-8.68c-4.08-1.29-8.13-1.55-11.26-1.55
			c-3.13,0-7.19,0.26-11.27,1.55c-2.37,0.75-4.8,1.89-7.06,3.49c-3.24-1.75-6.51-2.86-8.98-3.61c-5.56-1.78-11.31-2.54-17.06-2.54
			c-11.77,0-23.39,3.58-32.42,12.61c-8,7.99-12.51,18.23-12.51,29.8c0,6.83,1.31,13.88,4.8,20.45c-3.04,3.99-6.12,9.72-6.12,16.92
			c0,8.83,4.89,15.34,7.17,18.15l0.02,0.02l0.52,0.63c1.77,2.41,3.78,4.35,5.32,5.72l0.19,0.17l0.2,0.17
			c2.09,1.78,4.34,3.42,6.68,4.95l0.37,0.25l0.39,0.22c3.77,2.24,7.84,3.77,11.74,4.89l0.21,0.06l0.22,0.06
			c4.64,1.21,9.37,1.77,14.13,1.77c4.76,0,9.89-0.74,14.64-2.15c4.97-1.47,9.62-3.68,13.91-6.49c1.68-1.09,3.25-2.29,4.7-3.59
			c3.14,2.72,6.59,5.03,10.29,6.94l0.06,0.03l0.06,0.03c7.3,3.71,15.16,5.43,23.23,5.43s15.8-1.63,23.1-5.22l0.11-0.05l0.11-0.06
			c2.1-1.07,4.13-2.26,6.06-3.58c3.28,3.2,7.05,5.04,10.24,6.05c3.98,1.26,7.9,1.55,11.06,1.55h18.48
			c15.13,0,28.63-5.41,39.45-15.81c11.05,11.29,25.09,17.12,40.88,17.12c11.35,0,21.73-3.19,30.69-9.3c0.72,0.73,1.5,1.43,2.36,2.1
			c3.41,2.65,6.98,3.96,9.36,4.66c3.65,1.07,7.2,1.33,10.07,1.33c3.14,0,7.18-0.26,11.26-1.55c2.91-0.92,5.89-2.42,8.57-4.63
			c0.99,0.89,2.06,1.75,3.23,2.55c2.86,1.97,7.81,4.64,14.31,4.64c9.29,0,16.2-5.2,19.53-8l0.18-0.15l0.16-0.15
			c0.31-0.27,0.64-0.56,0.98-0.88c2.04,1.44,4.18,2.74,6.42,3.89l0.06,0.03l0.05,0.03h0.01c7.3,3.71,15.16,5.43,23.22,5.43
			s15.81-1.63,23.1-5.22l0.12-0.05l0.11-0.06c6.67-3.39,12.56-8.05,17.21-14.12c4.02-5.22,7.11-10.99,9.24-17.22
			c2.2-6.25,3.34-12.74,3.34-19.37v-30.5C484.56,223.2,484.54,221.73,484.42,220.27z M479.23,255.4c0,6.03-1.04,11.92-3.05,17.63
			c-1.94,5.69-4.76,10.94-8.42,15.71c-4.12,5.38-9.37,9.56-15.4,12.62l-0.09,0.04l-0.08,0.05c-6.49,3.19-13.5,4.66-20.75,4.66
			s-14.31-1.55-20.81-4.85l-0.05-0.02l-0.04-0.03c-3.4-1.75-6.54-3.86-9.38-6.34c-1.4,1.71-2.84,3.07-3.98,4.07l-0.12,0.11
			l-0.13,0.11c-3.13,2.63-8.79,6.75-16.1,6.75c-5.01,0-8.9-2.05-11.29-3.7c-2.45-1.68-4.5-3.75-6.17-5.7l-0.14-0.15
			c-2.69,3.78-6.43,6.08-10.11,7.24c-3.35,1.06-6.78,1.3-9.66,1.3c-2.58,0-5.57-0.23-8.57-1.11c-2.05-0.61-4.91-1.68-7.59-3.76
			c-2.03-1.58-3.55-3.43-4.66-5.3c-8.92,7.46-19.64,11.38-31.66,11.38c-14.43,0-27.13-5.3-37.19-15.64l-0.05-0.05
			c-1.24-1.29-2.41-2.62-3.5-3.98c-0.85,0.99-1.74,1.95-2.68,2.9c-10.02,10.19-22.61,15.46-36.91,15.46h-18.48
			c-2.86,0-6.18-0.27-9.46-1.3c-3.64-1.15-8.02-3.57-10.96-8.35h-0.01c-2.82,2.43-5.96,4.49-9.34,6.21l-0.08,0.04l-0.09,0.05
			c-6.49,3.19-13.49,4.66-20.74,4.66s-14.32-1.55-20.82-4.85l-0.04-0.02l-0.04-0.03c-4.86-2.5-9.19-5.73-12.83-9.72
			c-2.14,2.53-4.64,4.78-7.52,6.64c-3.89,2.56-8.06,4.54-12.51,5.85c-4.28,1.27-8.67,1.93-13.13,1.93c-4.46,0-8.62-0.51-12.78-1.6
			l-0.16-0.04l-0.16-0.05c-3.62-1.03-7.23-2.41-10.48-4.34l-0.29-0.17l-0.27-0.18c-2.19-1.42-4.25-2.94-6.15-4.55l-0.15-0.13
			l-0.14-0.12c-1.44-1.29-3.18-2.99-4.66-5.01l-0.59-0.73l-0.02-0.02c-2.14-2.63-5.98-7.9-5.98-14.79c0-7.33,4.1-12.95,7.33-16.41
			c-0.53-0.77-1.02-1.56-1.48-2.36l-0.1-0.17l-0.09-0.17c-3.11-5.73-4.34-12-4.34-18.25c0-10.09,3.9-18.99,10.94-26.04
			c7.83-7.82,17.98-11.04,28.66-11.04c5.3,0,10.51,0.69,15.47,2.29c3.27,0.99,7.49,2.5,11.02,5.09c2.43-2.46,5.34-4.06,8.22-4.97
			c3.34-1.06,6.78-1.3,9.65-1.3s6.32,0.24,9.66,1.3c4.28,1.35,8.84,4.33,11.47,9.63c0.98,1.87,1.96,4.26,2.42,7.02
			c0.04,0.25,0.08,0.49,0.11,0.74c0.05-0.42,0.11-0.84,0.18-1.25c0.54-3.09,1.72-5.7,3.01-7.8c2.94-4.77,7.33-7.19,10.97-8.34
			c3.31-1.05,6.69-1.3,9.55-1.3c2.58,0,5.57,0.23,8.57,1.11c1.32,0.39,2.97,0.97,4.7,1.89c1.28-0.72,2.61-1.29,3.92-1.7
			c3.35-1.06,6.78-1.3,9.66-1.3c2.13,0,5.28,0.03,9.41,0.1h9.27c13.81,0,26.03,5.15,36.06,14.72c1.24,1.17,2.41,2.38,3.5,3.62
			c1.22-1.53,2.53-2.99,3.94-4.37c4.7-4.6,10.12-8.23,16.17-10.83c6.19-2.67,12.71-4.05,19.45-4.05c12.21,0,23.18,3.97,32.44,11.51
			c2.69-5.03,7.09-7.94,11.39-9.3c3.35-1.06,6.78-1.3,9.66-1.3c2.58,0,5.57,0.23,8.56,1.11c2.06,0.61,4.92,1.68,7.59,3.76
			c1.38,1.07,2.5,2.25,3.42,3.49l0.16-0.19c1.69-1.98,3.79-4.09,6.34-5.8c2.51-1.69,6.35-3.58,11.2-3.58
			c5.35,0,9.82,2.21,13.06,4.42c1.45-0.87,2.96-1.54,4.47-2.01c3.34-1.06,6.78-1.3,9.65-1.3s6.31,0.24,9.66,1.3
			c4.28,1.35,8.83,4.33,11.47,9.63c0.97,1.87,1.96,4.26,2.42,7.02c0.04,0.25,0.07,0.49,0.11,0.74c0.05-0.42,0.11-0.84,0.18-1.25
			c0.53-3.09,1.72-5.7,3.01-7.8c2.94-4.77,7.32-7.19,10.96-8.34c3.31-1.05,6.69-1.3,9.56-1.3c2.58,0,5.57,0.23,8.56,1.11
			c2.06,0.61,4.92,1.68,7.59,3.76c3.53,2.74,5.4,6.26,6.36,9.29c0.55,1.61,1.1,3.72,1.21,6.13c0.11,1.27,0.13,2.61,0.13,3.76V255.4z
			"/>
		<path class="st10" d="M48.57,279.12c-1.75-2.16-2.63-3.94-2.63-5.35c0-2.02,1.45-4.44,4.34-7.27c1.68-1.62,3.37-2.42,5.05-2.42
			c2.09,0,4.65,1.51,7.68,4.54l0.51,0.51c0.27,0.34,0.67,0.77,1.21,1.31s1.58,1.28,3.13,2.22c1.55,0.88,3.06,1.31,4.54,1.31
			c6.26,0,9.39-2.56,9.39-7.68c0-1.55-0.88-2.83-2.63-3.84c-1.68-1.08-3.8-1.85-6.36-2.32s-5.32-1.21-8.28-2.22
			c-2.96-1.08-5.72-2.32-8.28-3.74c-2.56-1.41-4.71-3.64-6.46-6.67c-1.68-3.1-2.52-6.8-2.52-11.11c0-5.93,2.19-11.08,6.56-15.45
			c4.44-4.44,10.47-6.66,18.08-6.66c4.04,0,7.71,0.54,11.01,1.62c3.37,1.01,5.69,2.05,6.97,3.13l2.02,1.51l0.5,0.4
			c2.09,1.95,3.13,3.57,3.13,4.85c0,1.41-0.81,3.3-2.42,5.66c-2.29,3.37-4.65,5.05-7.07,5.05c-1.41,0-3.16-0.67-5.25-2.02
			c-0.2-0.13-0.61-0.47-1.21-1.01c-0.54-0.54-1.04-0.94-1.51-1.21c-0.47-0.34-1.28-0.64-2.42-0.91c-1.08-0.34-2.36-0.51-3.84-0.51
			c-1.62,0-3.16,0.54-4.65,1.62c-1.41,1.01-2.12,2.36-2.12,4.04c0,2.02,0.84,3.6,2.52,4.75c1.75,1.14,3.91,1.92,6.46,2.32
			c2.55,0.4,5.35,1.04,8.38,1.92c3.03,0.81,5.82,1.82,8.38,3.03c2.56,1.21,4.68,3.33,6.36,6.36c1.75,2.96,2.63,6.67,2.63,11.11
			s-0.88,8.15-2.63,11.51c-1.75,3.3-4.04,5.86-6.87,7.68c-2.76,1.82-5.62,3.17-8.58,4.04s-5.92,1.31-8.89,1.31
			c-3.16,0-6.16-0.37-8.99-1.11c-2.83-0.81-5.15-1.75-6.97-2.83c-1.75-1.14-3.3-2.29-4.65-3.43c-1.28-1.14-2.19-2.12-2.73-2.93
			l-0.91-1.11H48.57z"/>
		<path class="st10" d="M163.63,215.39c1.75,0,3.2,0.17,4.34,0.51c1.14,0.34,2.02,0.74,2.63,1.21s1.04,1.18,1.31,2.12
			c0.34,0.94,0.51,1.75,0.51,2.42c0.07,0.61,0.1,1.55,0.1,2.83v30.5c0,4.31-0.74,8.55-2.22,12.72c-1.41,4.18-3.47,8.01-6.16,11.51
			c-2.63,3.43-6.06,6.23-10.3,8.38c-4.24,2.09-8.96,3.13-14.14,3.13c-5.18,0-9.8-1.08-14.04-3.23c-4.17-2.15-7.57-4.95-10.2-8.38
			c-2.63-3.5-4.65-7.34-6.06-11.51c-1.41-4.24-2.12-8.52-2.12-12.83v-30.4c0-1.62,0.03-2.79,0.1-3.54c0.14-0.81,0.47-1.72,1.01-2.73
			c0.54-1.01,1.45-1.72,2.73-2.12c1.28-0.4,3-0.61,5.15-0.61c2.15,0,3.87,0.2,5.15,0.61c1.28,0.4,2.15,1.11,2.63,2.12
			c0.54,1.01,0.88,1.92,1.01,2.73c0.14,0.81,0.2,2.02,0.2,3.64v30.3c0,2.02,0.24,4.01,0.71,5.96c0.47,1.89,1.21,3.8,2.22,5.76
			c1.08,1.89,2.63,3.4,4.65,4.54c2.02,1.14,4.41,1.72,7.17,1.72c4.91,0,8.58-1.82,11.01-5.45c2.42-3.64,3.64-7.84,3.64-12.62v-30.9
			c0-1.48,0.07-2.59,0.2-3.33c0.13-0.81,0.47-1.65,1.01-2.53c0.54-0.88,1.45-1.51,2.73-1.92c1.28-0.4,2.96-0.61,5.05-0.61H163.63z"
			/>
		<path class="st10" d="M246.03,252.05c0,10.23-3.64,19.02-10.91,26.36c-7.2,7.34-15.96,11.01-26.26,11.01h-18.48
			c-2.02,0-3.67-0.2-4.95-0.61c-1.28-0.4-2.19-1.04-2.73-1.92c-0.54-0.94-0.88-1.85-1.01-2.73c-0.13-0.94-0.2-2.19-0.2-3.74v-56.15
			c0-1.62,0.03-2.79,0.1-3.54c0.13-0.74,0.47-1.62,1.01-2.63c0.54-1.01,1.45-1.72,2.73-2.12c1.28-0.4,3-0.61,5.15-0.61
			c2.02,0,5.12,0.03,9.29,0.1h9.39c9.76,0,18.35,3.54,25.75,10.6c7.41,7,11.11,15.65,11.11,25.96L246.03,252.05z M228.15,252.45
			c0-5.39-1.92-9.9-5.76-13.53c-3.77-3.7-8.21-5.55-13.33-5.55h-9.7v38.18h9.8c4.85,0,9.22-1.78,13.13-5.35
			C226.19,262.56,228.15,257.99,228.15,252.45L228.15,252.45z"/>
		<path class="st10" d="M288.28,214.58c9.96,0,18.62,3.6,25.96,10.81c7.34,7.21,11.01,16.33,11.01,27.37
			c0,10.3-3.5,19.22-10.5,26.76c-7,7.47-15.52,11.21-25.55,11.21c-10.03,0-19.26-3.7-26.46-11.11
			c-7.14-7.41-10.71-16.23-10.71-26.46c0-5.59,1.01-10.81,3.03-15.65c2.02-4.92,4.71-9.02,8.08-12.32s7.24-5.89,11.61-7.78
			C279.13,215.52,283.64,214.58,288.28,214.58z M288.58,272.85c4.85,0,9.19-1.82,13.03-5.45c3.84-3.64,5.76-8.55,5.76-14.75
			s-1.95-10.94-5.86-14.64c-3.84-3.7-8.11-5.55-12.83-5.55s-9.19,1.89-13.03,5.66c-3.84,3.7-5.76,8.59-5.76,14.64
			c0,6.05,1.92,10.77,5.76,14.54C279.55,271,283.86,272.85,288.58,272.85z"/>
		<path class="st10" d="M364.5,252.35c10.3,9.9,17.61,17.34,21.91,22.32c2.22,2.49,3.33,4.48,3.33,5.96c0,1.95-1.41,4.17-4.24,6.67
			c-2.56,2.15-4.71,3.23-6.46,3.23s-3.74-1.41-6.16-4.24l-22.22-25.35v19.69c0,1.62-0.07,2.79-0.2,3.53
			c-0.07,0.74-0.37,1.62-0.91,2.63c-0.54,1.01-1.45,1.72-2.73,2.12s-3,0.61-5.15,0.61c-1.75,0-3.2-0.17-4.34-0.51
			c-1.14-0.34-2.02-0.74-2.63-1.21c-0.61-0.47-1.08-1.14-1.41-2.02c-0.27-0.94-0.44-1.72-0.51-2.32v-59.08
			c0-1.55,0.03-2.69,0.1-3.43c0.13-0.81,0.47-1.72,1.01-2.73c0.54-1.01,1.45-1.72,2.73-2.12c1.28-0.4,3-0.61,5.15-0.61
			c1.75,0,3.2,0.17,4.34,0.51c1.14,0.34,2.02,0.74,2.62,1.21c0.61,0.47,1.04,1.18,1.31,2.12c0.34,0.88,0.51,1.65,0.51,2.32
			c0.07,0.61,0.1,1.55,0.1,2.83v19.29c9.16-10.3,16.56-18.75,22.22-25.35c2.36-2.76,4.41-4.14,6.16-4.14s3.9,1.08,6.46,3.23
			c2.83,2.49,4.24,4.71,4.24,6.67c0,1.48-1.11,3.47-3.33,5.96c-1.88,2.22-4.68,5.18-8.38,8.89c-3.64,3.7-6.8,6.87-9.49,9.49
			l-4.04,3.84L364.5,252.35z"/>
		<path class="st10" d="M453.59,215.39c1.75,0,3.2,0.17,4.34,0.51c1.14,0.34,2.02,0.74,2.63,1.21c0.61,0.47,1.04,1.18,1.31,2.12
			c0.34,0.94,0.51,1.75,0.51,2.42c0.07,0.61,0.1,1.55,0.1,2.83v30.5c0,4.31-0.74,8.55-2.22,12.72c-1.41,4.18-3.47,8.01-6.16,11.51
			c-2.63,3.43-6.06,6.23-10.3,8.38c-4.24,2.09-8.96,3.13-14.14,3.13s-9.8-1.08-14.04-3.23c-4.17-2.15-7.57-4.95-10.2-8.38
			c-2.63-3.5-4.65-7.34-6.06-11.51c-1.41-4.24-2.12-8.52-2.12-12.83v-30.4c0-1.62,0.03-2.79,0.1-3.54c0.14-0.81,0.47-1.72,1.01-2.73
			c0.54-1.01,1.45-1.72,2.73-2.12c1.28-0.4,3-0.61,5.15-0.61s3.87,0.2,5.15,0.61c1.28,0.4,2.15,1.11,2.62,2.12
			c0.54,1.01,0.88,1.92,1.01,2.73s0.2,2.02,0.2,3.64v30.3c0,2.02,0.24,4.01,0.71,5.96c0.47,1.89,1.21,3.8,2.22,5.76
			c1.08,1.89,2.63,3.4,4.65,4.54c2.02,1.14,4.41,1.72,7.17,1.72c4.92,0,8.58-1.82,11.01-5.45c2.42-3.64,3.64-7.84,3.64-12.62v-30.9
			c0-1.48,0.07-2.59,0.2-3.33c0.13-0.81,0.47-1.65,1.01-2.53c0.54-0.88,1.45-1.51,2.73-1.92c1.28-0.4,2.96-0.61,5.05-0.61H453.59z"
			/>
		<path class="st10" d="M48.57,279.12c-1.75-2.16-2.63-3.94-2.63-5.35c0-2.02,1.45-4.44,4.34-7.27c1.68-1.62,3.37-2.42,5.05-2.42
			c2.09,0,4.65,1.51,7.68,4.54l0.51,0.51c0.27,0.34,0.67,0.77,1.21,1.31s1.58,1.28,3.13,2.22c1.55,0.88,3.06,1.31,4.54,1.31
			c6.26,0,9.39-2.56,9.39-7.68c0-1.55-0.88-2.83-2.63-3.84c-1.68-1.08-3.8-1.85-6.36-2.32s-5.32-1.21-8.28-2.22
			c-2.96-1.08-5.72-2.32-8.28-3.74c-2.56-1.41-4.71-3.64-6.46-6.67c-1.68-3.1-2.52-6.8-2.52-11.11c0-5.93,2.19-11.08,6.56-15.45
			c4.44-4.44,10.47-6.66,18.08-6.66c4.04,0,7.71,0.54,11.01,1.62c3.37,1.01,5.69,2.05,6.97,3.13l2.02,1.51l0.5,0.4
			c2.09,1.95,3.13,3.57,3.13,4.85c0,1.41-0.81,3.3-2.42,5.66c-2.29,3.37-4.65,5.05-7.07,5.05c-1.41,0-3.16-0.67-5.25-2.02
			c-0.2-0.13-0.61-0.47-1.21-1.01c-0.54-0.54-1.04-0.94-1.51-1.21c-0.47-0.34-1.28-0.64-2.42-0.91c-1.08-0.34-2.36-0.51-3.84-0.51
			c-1.62,0-3.16,0.54-4.65,1.62c-1.41,1.01-2.12,2.36-2.12,4.04c0,2.02,0.84,3.6,2.52,4.75c1.75,1.14,3.91,1.92,6.46,2.32
			c2.55,0.4,5.35,1.04,8.38,1.92c3.03,0.81,5.82,1.82,8.38,3.03c2.56,1.21,4.68,3.33,6.36,6.36c1.75,2.96,2.63,6.67,2.63,11.11
			s-0.88,8.15-2.63,11.51c-1.75,3.3-4.04,5.86-6.87,7.68c-2.76,1.82-5.62,3.17-8.58,4.04s-5.92,1.31-8.89,1.31
			c-3.16,0-6.16-0.37-8.99-1.11c-2.83-0.81-5.15-1.75-6.97-2.83c-1.75-1.14-3.3-2.29-4.65-3.43c-1.28-1.14-2.19-2.12-2.73-2.93
			l-0.91-1.11H48.57z"/>
		<path class="st10" d="M48.57,279.12c-1.75-2.16-2.63-3.94-2.63-5.35c0-2.02,1.45-4.44,4.34-7.27c1.68-1.62,3.37-2.42,5.05-2.42
			c2.09,0,4.65,1.51,7.68,4.54l0.51,0.51c0.27,0.34,0.67,0.77,1.21,1.31s1.58,1.28,3.13,2.22c1.55,0.88,3.06,1.31,4.54,1.31
			c6.26,0,9.39-2.56,9.39-7.68c0-1.55-0.88-2.83-2.63-3.84c-1.68-1.08-3.8-1.85-6.36-2.32s-5.32-1.21-8.28-2.22
			c-2.96-1.08-5.72-2.32-8.28-3.74c-2.56-1.41-4.71-3.64-6.46-6.67c-1.68-3.1-2.52-6.8-2.52-11.11c0-5.93,2.19-11.08,6.56-15.45
			c4.44-4.44,10.47-6.66,18.08-6.66c4.04,0,7.71,0.54,11.01,1.62c3.37,1.01,5.69,2.05,6.97,3.13l2.02,1.51l0.5,0.4
			c2.09,1.95,3.13,3.57,3.13,4.85c0,1.41-0.81,3.3-2.42,5.66c-2.29,3.37-4.65,5.05-7.07,5.05c-1.41,0-3.16-0.67-5.25-2.02
			c-0.2-0.13-0.61-0.47-1.21-1.01c-0.54-0.54-1.04-0.94-1.51-1.21c-0.47-0.34-1.28-0.64-2.42-0.91c-1.08-0.34-2.36-0.51-3.84-0.51
			c-1.62,0-3.16,0.54-4.65,1.62c-1.41,1.01-2.12,2.36-2.12,4.04c0,2.02,0.84,3.6,2.52,4.75c1.75,1.14,3.91,1.92,6.46,2.32
			c2.55,0.4,5.35,1.04,8.38,1.92c3.03,0.81,5.82,1.82,8.38,3.03c2.56,1.21,4.68,3.33,6.36,6.36c1.75,2.96,2.63,6.67,2.63,11.11
			s-0.88,8.15-2.63,11.51c-1.75,3.3-4.04,5.86-6.87,7.68c-2.76,1.82-5.62,3.17-8.58,4.04s-5.92,1.31-8.89,1.31
			c-3.16,0-6.16-0.37-8.99-1.11c-2.83-0.81-5.15-1.75-6.97-2.83c-1.75-1.14-3.3-2.29-4.65-3.43c-1.28-1.14-2.19-2.12-2.73-2.93
			l-0.91-1.11H48.57z"/>
		<path class="st10" d="M163.63,215.39c1.75,0,3.2,0.17,4.34,0.51c1.14,0.34,2.02,0.74,2.63,1.21s1.04,1.18,1.31,2.12
			c0.34,0.94,0.51,1.75,0.51,2.42c0.07,0.61,0.1,1.55,0.1,2.83v30.5c0,4.31-0.74,8.55-2.22,12.72c-1.41,4.18-3.47,8.01-6.16,11.51
			c-2.63,3.43-6.06,6.23-10.3,8.38c-4.24,2.09-8.96,3.13-14.14,3.13c-5.18,0-9.8-1.08-14.04-3.23c-4.17-2.15-7.57-4.95-10.2-8.38
			c-2.63-3.5-4.65-7.34-6.06-11.51c-1.41-4.24-2.12-8.52-2.12-12.83v-30.4c0-1.62,0.03-2.79,0.1-3.54c0.14-0.81,0.47-1.72,1.01-2.73
			c0.54-1.01,1.45-1.72,2.73-2.12c1.28-0.4,3-0.61,5.15-0.61c2.15,0,3.87,0.2,5.15,0.61c1.28,0.4,2.15,1.11,2.63,2.12
			c0.54,1.01,0.88,1.92,1.01,2.73c0.14,0.81,0.2,2.02,0.2,3.64v30.3c0,2.02,0.24,4.01,0.71,5.96c0.47,1.89,1.21,3.8,2.22,5.76
			c1.08,1.89,2.63,3.4,4.65,4.54c2.02,1.14,4.41,1.72,7.17,1.72c4.91,0,8.58-1.82,11.01-5.45c2.42-3.64,3.64-7.84,3.64-12.62v-30.9
			c0-1.48,0.07-2.59,0.2-3.33c0.13-0.81,0.47-1.65,1.01-2.53c0.54-0.88,1.45-1.51,2.73-1.92c1.28-0.4,2.96-0.61,5.05-0.61H163.63z"
			/>
		<path class="st10" d="M163.63,215.39c1.75,0,3.2,0.17,4.34,0.51c1.14,0.34,2.02,0.74,2.63,1.21s1.04,1.18,1.31,2.12
			c0.34,0.94,0.51,1.75,0.51,2.42c0.07,0.61,0.1,1.55,0.1,2.83v30.5c0,4.31-0.74,8.55-2.22,12.72c-1.41,4.18-3.47,8.01-6.16,11.51
			c-2.63,3.43-6.06,6.23-10.3,8.38c-4.24,2.09-8.96,3.13-14.14,3.13c-5.18,0-9.8-1.08-14.04-3.23c-4.17-2.15-7.57-4.95-10.2-8.38
			c-2.63-3.5-4.65-7.34-6.06-11.51c-1.41-4.24-2.12-8.52-2.12-12.83v-30.4c0-1.62,0.03-2.79,0.1-3.54c0.14-0.81,0.47-1.72,1.01-2.73
			c0.54-1.01,1.45-1.72,2.73-2.12c1.28-0.4,3-0.61,5.15-0.61c2.15,0,3.87,0.2,5.15,0.61c1.28,0.4,2.15,1.11,2.63,2.12
			c0.54,1.01,0.88,1.92,1.01,2.73c0.14,0.81,0.2,2.02,0.2,3.64v30.3c0,2.02,0.24,4.01,0.71,5.96c0.47,1.89,1.21,3.8,2.22,5.76
			c1.08,1.89,2.63,3.4,4.65,4.54c2.02,1.14,4.41,1.72,7.17,1.72c4.91,0,8.58-1.82,11.01-5.45c2.42-3.64,3.64-7.84,3.64-12.62v-30.9
			c0-1.48,0.07-2.59,0.2-3.33c0.13-0.81,0.47-1.65,1.01-2.53c0.54-0.88,1.45-1.51,2.73-1.92c1.28-0.4,2.96-0.61,5.05-0.61H163.63z"
			/>
		<path class="st10" d="M246.03,252.05c0,10.23-3.64,19.02-10.91,26.36c-7.2,7.34-15.96,11.01-26.26,11.01h-18.48
			c-2.02,0-3.67-0.2-4.95-0.61c-1.28-0.4-2.19-1.04-2.73-1.92c-0.54-0.94-0.88-1.85-1.01-2.73c-0.13-0.94-0.2-2.19-0.2-3.74v-56.15
			c0-1.62,0.03-2.79,0.1-3.54c0.13-0.74,0.47-1.62,1.01-2.63c0.54-1.01,1.45-1.72,2.73-2.12c1.28-0.4,3-0.61,5.15-0.61
			c2.02,0,5.12,0.03,9.29,0.1h9.39c9.76,0,18.35,3.54,25.75,10.6c7.41,7,11.11,15.65,11.11,25.96L246.03,252.05z M228.15,252.45
			c0-5.39-1.92-9.9-5.76-13.53c-3.77-3.7-8.21-5.55-13.33-5.55h-9.7v38.18h9.8c4.85,0,9.22-1.78,13.13-5.35
			C226.19,262.56,228.15,257.99,228.15,252.45L228.15,252.45z"/>
		<path class="st10" d="M246.03,252.05c0,10.23-3.64,19.02-10.91,26.36c-7.2,7.34-15.96,11.01-26.26,11.01h-18.48
			c-2.02,0-3.67-0.2-4.95-0.61c-1.28-0.4-2.19-1.04-2.73-1.92c-0.54-0.94-0.88-1.85-1.01-2.73c-0.13-0.94-0.2-2.19-0.2-3.74v-56.15
			c0-1.62,0.03-2.79,0.1-3.54c0.13-0.74,0.47-1.62,1.01-2.63c0.54-1.01,1.45-1.72,2.73-2.12c1.28-0.4,3-0.61,5.15-0.61
			c2.02,0,5.12,0.03,9.29,0.1h9.39c9.76,0,18.35,3.54,25.75,10.6c7.41,7,11.11,15.65,11.11,25.96L246.03,252.05z M228.15,252.45
			c0-5.39-1.92-9.9-5.76-13.53c-3.77-3.7-8.21-5.55-13.33-5.55h-9.7v38.18h9.8c4.85,0,9.22-1.78,13.13-5.35
			C226.19,262.56,228.15,257.99,228.15,252.45L228.15,252.45z"/>
		<path class="st10" d="M288.28,214.58c9.96,0,18.62,3.6,25.96,10.81c7.34,7.21,11.01,16.33,11.01,27.37
			c0,10.3-3.5,19.22-10.5,26.76c-7,7.47-15.52,11.21-25.55,11.21c-10.03,0-19.26-3.7-26.46-11.11
			c-7.14-7.41-10.71-16.23-10.71-26.46c0-5.59,1.01-10.81,3.03-15.65c2.02-4.92,4.71-9.02,8.08-12.32s7.24-5.89,11.61-7.78
			C279.13,215.52,283.64,214.58,288.28,214.58z M288.58,272.85c4.85,0,9.19-1.82,13.03-5.45c3.84-3.64,5.76-8.55,5.76-14.75
			s-1.95-10.94-5.86-14.64c-3.84-3.7-8.11-5.55-12.83-5.55s-9.19,1.89-13.03,5.66c-3.84,3.7-5.76,8.59-5.76,14.64
			c0,6.05,1.92,10.77,5.76,14.54C279.55,271,283.86,272.85,288.58,272.85z"/>
		<path class="st10" d="M288.28,214.58c9.96,0,18.62,3.6,25.96,10.81c7.34,7.21,11.01,16.33,11.01,27.37
			c0,10.3-3.5,19.22-10.5,26.76c-7,7.47-15.52,11.21-25.55,11.21c-10.03,0-19.26-3.7-26.46-11.11
			c-7.14-7.41-10.71-16.23-10.71-26.46c0-5.59,1.01-10.81,3.03-15.65c2.02-4.92,4.71-9.02,8.08-12.32s7.24-5.89,11.61-7.78
			C279.13,215.52,283.64,214.58,288.28,214.58z M288.58,272.85c4.85,0,9.19-1.82,13.03-5.45c3.84-3.64,5.76-8.55,5.76-14.75
			s-1.95-10.94-5.86-14.64c-3.84-3.7-8.11-5.55-12.83-5.55s-9.19,1.89-13.03,5.66c-3.84,3.7-5.76,8.59-5.76,14.64
			c0,6.05,1.92,10.77,5.76,14.54C279.55,271,283.86,272.85,288.58,272.85z"/>
		<path class="st10" d="M364.5,252.35c10.3,9.9,17.61,17.34,21.91,22.32c2.22,2.49,3.33,4.48,3.33,5.96c0,1.95-1.41,4.17-4.24,6.67
			c-2.56,2.15-4.71,3.23-6.46,3.23s-3.74-1.41-6.16-4.24l-22.22-25.35v19.69c0,1.62-0.07,2.79-0.2,3.53
			c-0.07,0.74-0.37,1.62-0.91,2.63c-0.54,1.01-1.45,1.72-2.73,2.12s-3,0.61-5.15,0.61c-1.75,0-3.2-0.17-4.34-0.51
			c-1.14-0.34-2.02-0.74-2.63-1.21c-0.61-0.47-1.08-1.14-1.41-2.02c-0.27-0.94-0.44-1.72-0.51-2.32v-59.08
			c0-1.55,0.03-2.69,0.1-3.43c0.13-0.81,0.47-1.72,1.01-2.73c0.54-1.01,1.45-1.72,2.73-2.12c1.28-0.4,3-0.61,5.15-0.61
			c1.75,0,3.2,0.17,4.34,0.51c1.14,0.34,2.02,0.74,2.62,1.21c0.61,0.47,1.04,1.18,1.31,2.12c0.34,0.88,0.51,1.65,0.51,2.32
			c0.07,0.61,0.1,1.55,0.1,2.83v19.29c9.16-10.3,16.56-18.75,22.22-25.35c2.36-2.76,4.41-4.14,6.16-4.14s3.9,1.08,6.46,3.23
			c2.83,2.49,4.24,4.71,4.24,6.67c0,1.48-1.11,3.47-3.33,5.96c-1.88,2.22-4.68,5.18-8.38,8.89c-3.64,3.7-6.8,6.87-9.49,9.49
			l-4.04,3.84L364.5,252.35z"/>
		<path class="st10" d="M364.5,252.35c10.3,9.9,17.61,17.34,21.91,22.32c2.22,2.49,3.33,4.48,3.33,5.96c0,1.95-1.41,4.17-4.24,6.67
			c-2.56,2.15-4.71,3.23-6.46,3.23s-3.74-1.41-6.16-4.24l-22.22-25.35v19.69c0,1.62-0.07,2.79-0.2,3.53
			c-0.07,0.74-0.37,1.62-0.91,2.63c-0.54,1.01-1.45,1.72-2.73,2.12s-3,0.61-5.15,0.61c-1.75,0-3.2-0.17-4.34-0.51
			c-1.14-0.34-2.02-0.74-2.63-1.21c-0.61-0.47-1.08-1.14-1.41-2.02c-0.27-0.94-0.44-1.72-0.51-2.32v-59.08
			c0-1.55,0.03-2.69,0.1-3.43c0.13-0.81,0.47-1.72,1.01-2.73c0.54-1.01,1.45-1.72,2.73-2.12c1.28-0.4,3-0.61,5.15-0.61
			c1.75,0,3.2,0.17,4.34,0.51c1.14,0.34,2.02,0.74,2.62,1.21c0.61,0.47,1.04,1.18,1.31,2.12c0.34,0.88,0.51,1.65,0.51,2.32
			c0.07,0.61,0.1,1.55,0.1,2.83v19.29c9.16-10.3,16.56-18.75,22.22-25.35c2.36-2.76,4.41-4.14,6.16-4.14s3.9,1.08,6.46,3.23
			c2.83,2.49,4.24,4.71,4.24,6.67c0,1.48-1.11,3.47-3.33,5.96c-1.88,2.22-4.68,5.18-8.38,8.89c-3.64,3.7-6.8,6.87-9.49,9.49
			l-4.04,3.84L364.5,252.35z"/>
		<path class="st10" d="M453.59,215.39c1.75,0,3.2,0.17,4.34,0.51c1.14,0.34,2.02,0.74,2.63,1.21c0.61,0.47,1.04,1.18,1.31,2.12
			c0.34,0.94,0.51,1.75,0.51,2.42c0.07,0.61,0.1,1.55,0.1,2.83v30.5c0,4.31-0.74,8.55-2.22,12.72c-1.41,4.18-3.47,8.01-6.16,11.51
			c-2.63,3.43-6.06,6.23-10.3,8.38c-4.24,2.09-8.96,3.13-14.14,3.13s-9.8-1.08-14.04-3.23c-4.17-2.15-7.57-4.95-10.2-8.38
			c-2.63-3.5-4.65-7.34-6.06-11.51c-1.41-4.24-2.12-8.52-2.12-12.83v-30.4c0-1.62,0.03-2.79,0.1-3.54c0.14-0.81,0.47-1.72,1.01-2.73
			c0.54-1.01,1.45-1.72,2.73-2.12c1.28-0.4,3-0.61,5.15-0.61s3.87,0.2,5.15,0.61c1.28,0.4,2.15,1.11,2.62,2.12
			c0.54,1.01,0.88,1.92,1.01,2.73s0.2,2.02,0.2,3.64v30.3c0,2.02,0.24,4.01,0.71,5.96c0.47,1.89,1.21,3.8,2.22,5.76
			c1.08,1.89,2.63,3.4,4.65,4.54c2.02,1.14,4.41,1.72,7.17,1.72c4.92,0,8.58-1.82,11.01-5.45c2.42-3.64,3.64-7.84,3.64-12.62v-30.9
			c0-1.48,0.07-2.59,0.2-3.33c0.13-0.81,0.47-1.65,1.01-2.53c0.54-0.88,1.45-1.51,2.73-1.92c1.28-0.4,2.96-0.61,5.05-0.61H453.59z"
			/>
		<path class="st10" d="M453.59,215.39c1.75,0,3.2,0.17,4.34,0.51c1.14,0.34,2.02,0.74,2.63,1.21c0.61,0.47,1.04,1.18,1.31,2.12
			c0.34,0.94,0.51,1.75,0.51,2.42c0.07,0.61,0.1,1.55,0.1,2.83v30.5c0,4.31-0.74,8.55-2.22,12.72c-1.41,4.18-3.47,8.01-6.16,11.51
			c-2.63,3.43-6.06,6.23-10.3,8.38c-4.24,2.09-8.96,3.13-14.14,3.13s-9.8-1.08-14.04-3.23c-4.17-2.15-7.57-4.95-10.2-8.38
			c-2.63-3.5-4.65-7.34-6.06-11.51c-1.41-4.24-2.12-8.52-2.12-12.83v-30.4c0-1.62,0.03-2.79,0.1-3.54c0.14-0.81,0.47-1.72,1.01-2.73
			c0.54-1.01,1.45-1.72,2.73-2.12c1.28-0.4,3-0.61,5.15-0.61s3.87,0.2,5.15,0.61c1.28,0.4,2.15,1.11,2.62,2.12
			c0.54,1.01,0.88,1.92,1.01,2.73s0.2,2.02,0.2,3.64v30.3c0,2.02,0.24,4.01,0.71,5.96c0.47,1.89,1.21,3.8,2.22,5.76
			c1.08,1.89,2.63,3.4,4.65,4.54c2.02,1.14,4.41,1.72,7.17,1.72c4.92,0,8.58-1.82,11.01-5.45c2.42-3.64,3.64-7.84,3.64-12.62v-30.9
			c0-1.48,0.07-2.59,0.2-3.33c0.13-0.81,0.47-1.65,1.01-2.53c0.54-0.88,1.45-1.51,2.73-1.92c1.28-0.4,2.96-0.61,5.05-0.61H453.59z"
			/>
	</g>
	<g>
		<path class="st10" d="M136.48,158.96c0-3.66-0.55-5.84-1.86-7.64c-1.97-2.67-5.08-4.04-9.29-4.04c-4.91,0-7.81,1.53-11.14,5.78
			c0.11-1.37,0.11-1.53,0.11-2.35v-2.9h-7.43c0.32,2.24,0.44,4.1,0.44,7.11v17.15c0,3.05-0.11,4.76-0.44,7.11h7.87
			c-0.34-2.35-0.44-4.42-0.44-7.11v-11.03c2.41-5.4,5.63-8.13,9.57-8.13c2.07,0,3.71,0.82,4.59,2.24c0.66,1.04,0.93,2.52,0.93,4.81
			v12.13c0,2.79-0.11,4.64-0.38,7.11h7.92c-0.34-2.01-0.44-4.09-0.44-7.11V158.96z"/>
		<path class="st10" d="M136.48,158.96c0-3.66-0.55-5.84-1.86-7.64c-1.97-2.67-5.08-4.04-9.29-4.04c-4.91,0-7.81,1.53-11.14,5.78
			c0.11-1.37,0.11-1.53,0.11-2.35v-2.9h-7.43c0.32,2.24,0.44,4.1,0.44,7.11v17.15c0,3.05-0.11,4.76-0.44,7.11h7.87
			c-0.34-2.35-0.44-4.42-0.44-7.11v-11.03c2.41-5.4,5.63-8.13,9.57-8.13c2.07,0,3.71,0.82,4.59,2.24c0.66,1.04,0.93,2.52,0.93,4.81
			v12.13c0,2.79-0.11,4.64-0.38,7.11h7.92c-0.34-2.01-0.44-4.09-0.44-7.11V158.96z"/>
		<path class="st10" d="M172.91,163.77c-0.17-3.72-0.55-5.67-1.59-8.3c-2.18-5.46-7.22-8.63-13.61-8.63
			c-9.34,0-15.41,6.61-15.41,16.72c0,10.22,6.12,16.66,15.79,16.66c4.59,0,8.41-1.42,11.24-4.21c1.36-1.37,2.07-2.39,3.33-5.02
			l-6.45-2.07c-0.55,1.48-0.93,2.07-1.59,2.84c-1.59,1.75-3.88,2.73-6.54,2.73c-2.79,0-5.25-1.08-6.84-3.05
			c-1.25-1.59-1.75-3.11-2.03-6.12h23.77C172.91,164.04,172.91,163.87,172.91,163.77z M149.43,159.89c0.82-4.59,3.94-7.43,8.19-7.43
			c2.56,0,4.42,0.72,5.9,2.18c1.37,1.37,2.03,2.84,2.41,5.25H149.43z"/>
		<path class="st10" d="M172.91,163.77c-0.17-3.72-0.55-5.67-1.59-8.3c-2.18-5.46-7.22-8.63-13.61-8.63
			c-9.34,0-15.41,6.61-15.41,16.72c0,10.22,6.12,16.66,15.79,16.66c4.59,0,8.41-1.42,11.24-4.21c1.36-1.37,2.07-2.39,3.33-5.02
			l-6.45-2.07c-0.55,1.48-0.93,2.07-1.59,2.84c-1.59,1.75-3.88,2.73-6.54,2.73c-2.79,0-5.25-1.08-6.84-3.05
			c-1.25-1.59-1.75-3.11-2.03-6.12h23.77C172.91,164.04,172.91,163.87,172.91,163.77z M149.43,159.89c0.82-4.59,3.94-7.43,8.19-7.43
			c2.56,0,4.42,0.72,5.9,2.18c1.37,1.37,2.03,2.84,2.41,5.25H149.43z"/>
		<path class="st10" d="M193.13,174.2c-2.62,0-3.6-0.98-3.6-3.66v-16.93h2.46c2.52,0,3.55,0.06,5.35,0.34v-6.45
			c-1.75,0.27-2.94,0.32-5.52,0.32h-2.29v-0.03h-7.05v0.03h-2.01c-2.29,0-3.33-0.06-4.91-0.32v6.45c1.8-0.27,2.84-0.34,4.87-0.34
			h2.07v18.35c0,5.74,2.52,7.98,8.79,7.98c2.84,0,4.49-0.27,6.84-1.14l-0.98-5.78C195.42,173.93,194.55,174.2,193.13,174.2z"/>
		<path class="st10" d="M193.13,174.2c-2.62,0-3.6-0.98-3.6-3.66v-16.93h2.46c2.52,0,3.55,0.06,5.35,0.34v-6.45
			c-1.75,0.27-2.94,0.32-5.52,0.32h-2.29v-0.03h-7.05v0.03h-2.01c-2.29,0-3.33-0.06-4.91-0.32v6.45c1.8-0.27,2.84-0.34,4.87-0.34
			h2.07v18.35c0,5.74,2.52,7.98,8.79,7.98c2.84,0,4.49-0.27,6.84-1.14l-0.98-5.78C195.42,173.93,194.55,174.2,193.13,174.2z"/>
		<path class="st10" d="M190.34,143.29h-7.03v-5.43l7.03-1.59V143.29z"/>
		<path class="st10" d="M233.36,149.5c0,0-0.21-6.19-0.14-8.41h-7.03l0.03,8.41H233.36z"/>
		<path class="st10" d="M234.15,131.71c0,0-6.61-2.81-6.71-2.67c-0.75,1.01-1.48,8.96-1.24,8.96c0.24,0,7.16,0,7.16,0
			S233.59,134.28,234.15,131.71z"/>
		<path class="st10" d="M235.07,127.94l-6.64-2.84c0,0,1.19-3.57,3.51-7.4c0,0,5.31,5.16,5.22,5.23
			C236.56,123.57,235.07,127.94,235.07,127.94z"/>
		<path class="st10" d="M243.61,115.6c0,0-3.94,3.33-4.42,4.27c-0.05,0.08-5.1-5.1-5.1-5.1s2.87-3.37,6.67-5.93L243.61,115.6z"/>
		<path class="st10" d="M254.15,111.53c-0.89,0-5.23,1.42-6.01,2.2l-2.59-6.64c0,0,4.18-2.2,8.6-2.94V111.53z"/>
		<path class="st10" d="M265.67,110.02c-3.98,0-7.96,0.7-7.96,0.7v-7.22c1.33-0.5,7.96-0.64,7.96-0.64S266.11,110.02,265.67,110.02z
			"/>
		<path class="st10" d="M248.29,152.95v-5.14h-7.43c0.34,2.24,0.38,3.77,0.38,7.11v17.15c0,2.84-0.11,4.42-0.38,7.11h7.81
			c-0.27-2.56-0.38-4.15-0.38-7.11v-10.1c0.32-2.62,0.87-3.88,2.24-5.46c1.54-1.8,3.6-2.67,6.33-2.67c1.42,0,2.56,0.21,4.87,0.87
			l1.91-6.88c-2.46-0.44-3.77-0.6-5.08-0.6C253.63,147.21,250.25,149.07,248.29,152.95z"/>
		<path class="st10" d="M248.29,152.95v-5.14h-7.43c0.34,2.24,0.38,3.77,0.38,7.11v17.15c0,2.84-0.11,4.42-0.38,7.11h7.81
			c-0.27-2.56-0.38-4.15-0.38-7.11v-10.1c0.32-2.62,0.87-3.88,2.24-5.46c1.54-1.8,3.6-2.67,6.33-2.67c1.42,0,2.56,0.21,4.87,0.87
			l1.91-6.88c-2.46-0.44-3.77-0.6-5.08-0.6C253.63,147.21,250.25,149.07,248.29,152.95z"/>
		<path class="st10" d="M296.9,163.77c-0.17-3.72-0.55-5.67-1.59-8.3c-2.18-5.46-7.2-8.63-13.59-8.63
			c-9.34,0-15.41,6.61-15.41,16.72c0,10.22,6.12,16.66,15.79,16.66c4.59,0,8.41-1.42,11.26-4.21c1.37-1.37,2.07-2.39,3.33-5.02
			l-6.45-2.07c-0.55,1.48-0.93,2.07-1.59,2.84c-1.59,1.75-3.87,2.73-6.56,2.73c-2.79,0-5.25-1.08-6.83-3.05
			c-1.25-1.59-1.75-3.11-2.03-6.12h23.77C296.9,164.04,296.9,163.87,296.9,163.77z M273.4,159.89c0.82-4.59,3.94-7.43,8.19-7.43
			c2.56,0,4.42,0.72,5.9,2.18c1.37,1.37,2.03,2.84,2.41,5.25H273.4z"/>
		<path class="st10" d="M296.9,163.77c-0.17-3.72-0.55-5.67-1.59-8.3c-2.18-5.46-7.2-8.63-13.59-8.63
			c-9.34,0-15.41,6.61-15.41,16.72c0,10.22,6.12,16.66,15.79,16.66c4.59,0,8.41-1.42,11.26-4.21c1.37-1.37,2.07-2.39,3.33-5.02
			l-6.45-2.07c-0.55,1.48-0.93,2.07-1.59,2.84c-1.59,1.75-3.87,2.73-6.56,2.73c-2.79,0-5.25-1.08-6.83-3.05
			c-1.25-1.59-1.75-3.11-2.03-6.12h23.77C296.9,164.04,296.9,163.87,296.9,163.77z M273.4,159.89c0.82-4.59,3.94-7.43,8.19-7.43
			c2.56,0,4.42,0.72,5.9,2.18c1.37,1.37,2.03,2.84,2.41,5.25H273.4z"/>
		<path class="st10" d="M330.11,157.65c0-3.71-0.72-5.78-2.56-7.54c-2.35-2.3-5.52-3.22-10.76-3.22c-4.7,0-7.75,0.82-10.44,2.79
			c-2.07,1.48-3.05,2.9-4.32,6.06l6.99,1.25c0.66-1.97,1.14-2.73,2.18-3.49c1.25-0.98,3.49-1.59,5.68-1.59
			c4.15,0,6.29,1.63,6.29,4.81v2.79c-7.81,0.17-11.85,0.7-15.41,2.18c-3.77,1.59-6.16,5.02-6.16,8.85c0,5.74,4.04,9.18,10.71,9.18
			c1.75,0,3.49-0.21,5.08-0.66c2.24-0.61,3.6-1.37,5.8-3.45v3.55h7.37c-0.34-2.46-0.44-3.94-0.44-6.83V157.65z M323.17,166.98
			c0,1.91-0.66,3.49-1.97,4.81c-1.86,1.8-4.7,2.9-7.6,2.9c-3.05,0-4.97-1.59-4.97-4.15c0-4.26,4.1-6.06,14.52-6.29v2.73H323.17z"/>
		<path class="st10" d="M330.11,157.65c0-3.71-0.72-5.78-2.56-7.54c-2.35-2.3-5.52-3.22-10.76-3.22c-4.7,0-7.75,0.82-10.44,2.79
			c-2.07,1.48-3.05,2.9-4.32,6.06l6.99,1.25c0.66-1.97,1.14-2.73,2.18-3.49c1.25-0.98,3.49-1.59,5.68-1.59
			c4.15,0,6.29,1.63,6.29,4.81v2.79c-7.81,0.17-11.85,0.7-15.41,2.18c-3.77,1.59-6.16,5.02-6.16,8.85c0,5.74,4.04,9.18,10.71,9.18
			c1.75,0,3.49-0.21,5.08-0.66c2.24-0.61,3.6-1.37,5.8-3.45v3.55h7.37c-0.34-2.46-0.44-3.94-0.44-6.83V157.65z M323.17,166.98
			c0,1.91-0.66,3.49-1.97,4.81c-1.86,1.8-4.7,2.9-7.6,2.9c-3.05,0-4.97-1.59-4.97-4.15c0-4.26,4.1-6.06,14.52-6.29v2.73H323.17z"/>
		<path class="st10" d="M385.05,158.58c0-3.87-0.76-6.33-2.56-8.3c-1.86-2.03-4.7-3.11-8.19-3.11c-2.46,0-4.32,0.44-6.12,1.42
			c-1.69,0.87-2.73,1.86-4.59,4.32c-0.66-1.69-1.1-2.41-2.07-3.28c-1.69-1.63-4.1-2.46-7.05-2.46c-4.53,0-8.57,2.14-10.16,5.46
			c0.06-0.87,0.06-1.69,0.06-2.03v-2.79h-7.32c0.27,2.07,0.38,3.66,0.38,7.11v17.15c0,2.94-0.11,4.76-0.38,7.11h7.7
			c-0.27-2.52-0.38-4.15-0.38-7.11v-10.82c0.6-2.62,1.14-3.88,2.35-5.46c1.48-1.91,3.33-2.84,5.63-2.84c3.55,0,5.29,2.29,5.29,6.88
			v12.24c0,3.11-0.11,4.81-0.44,7.11h7.87c-0.28-2.24-0.38-4.09-0.38-7.11v-10.82c0.66-3.39,1.53-5.14,3.45-6.77
			c1.31-1.14,2.67-1.63,4.49-1.63c3.66,0,5.35,2.18,5.35,6.99v12.24c0,3.22-0.11,4.87-0.44,7.11h7.98
			c-0.34-2.24-0.44-4.04-0.44-7.11v-13.49H385.05z"/>
		<path class="st10" d="M385.05,158.58c0-3.87-0.76-6.33-2.56-8.3c-1.86-2.03-4.7-3.11-8.19-3.11c-2.46,0-4.32,0.44-6.12,1.42
			c-1.69,0.87-2.73,1.86-4.59,4.32c-0.66-1.69-1.1-2.41-2.07-3.28c-1.69-1.63-4.1-2.46-7.05-2.46c-4.53,0-8.57,2.14-10.16,5.46
			c0.06-0.87,0.06-1.69,0.06-2.03v-2.79h-7.32c0.27,2.07,0.38,3.66,0.38,7.11v17.15c0,2.94-0.11,4.76-0.38,7.11h7.7
			c-0.27-2.52-0.38-4.15-0.38-7.11v-10.82c0.6-2.62,1.14-3.88,2.35-5.46c1.48-1.91,3.33-2.84,5.63-2.84c3.55,0,5.29,2.29,5.29,6.88
			v12.24c0,3.11-0.11,4.81-0.44,7.11h7.87c-0.28-2.24-0.38-4.09-0.38-7.11v-10.82c0.66-3.39,1.53-5.14,3.45-6.77
			c1.31-1.14,2.67-1.63,4.49-1.63c3.66,0,5.35,2.18,5.35,6.99v12.24c0,3.22-0.11,4.87-0.44,7.11h7.98
			c-0.34-2.24-0.44-4.04-0.44-7.11v-13.49H385.05z"/>
		<path class="st10" d="M415.96,163.49c-1.8-1.37-4.04-2.14-9.61-3.33c-3.11-0.72-4.26-1.04-5.46-1.63
			c-1.1-0.59-1.69-1.53-1.69-2.56c0-2.29,2.29-3.83,5.68-3.83c3.55,0,5.4,1.31,6.01,4.32l7.22-0.93c-0.76-2.67-1.53-4.04-2.94-5.4
			c-2.24-2.07-5.8-3.17-10.27-3.17c-4.97,0-8.68,1.42-10.92,4.26c-1.08,1.36-1.69,3.17-1.69,5.08c0,3.17,1.69,5.8,4.81,7.26
			c1.86,0.87,3.55,1.42,7.87,2.35c4.36,0.98,4.7,1.04,5.74,1.75c0.87,0.6,1.42,1.63,1.42,2.73c0,2.56-2.52,4.15-6.56,4.15
			c-4.26,0-6.29-1.48-7.2-5.19l-7.49,0.93c0.66,2.46,1.14,3.55,2.14,4.87c2.35,3.17,6.56,4.87,12.17,4.87c4.97,0,8.8-1.21,11.3-3.55
			c1.63-1.53,2.67-3.94,2.67-6.18C419.13,167.26,418.09,165.02,415.96,163.49z"/>
		<path class="st10" d="M415.96,163.49c-1.8-1.37-4.04-2.14-9.61-3.33c-3.11-0.72-4.26-1.04-5.46-1.63
			c-1.1-0.59-1.69-1.53-1.69-2.56c0-2.29,2.29-3.83,5.68-3.83c3.55,0,5.4,1.31,6.01,4.32l7.22-0.93c-0.76-2.67-1.53-4.04-2.94-5.4
			c-2.24-2.07-5.8-3.17-10.27-3.17c-4.97,0-8.68,1.42-10.92,4.26c-1.08,1.36-1.69,3.17-1.69,5.08c0,3.17,1.69,5.8,4.81,7.26
			c1.86,0.87,3.55,1.42,7.87,2.35c4.36,0.98,4.7,1.04,5.74,1.75c0.87,0.6,1.42,1.63,1.42,2.73c0,2.56-2.52,4.15-6.56,4.15
			c-4.26,0-6.29-1.48-7.2-5.19l-7.49,0.93c0.66,2.46,1.14,3.55,2.14,4.87c2.35,3.17,6.56,4.87,12.17,4.87c4.97,0,8.8-1.21,11.3-3.55
			c1.63-1.53,2.67-3.94,2.67-6.18C419.13,167.26,418.09,165.02,415.96,163.49z"/>
		<path class="st10" d="M226.72,152.58v0.05c-1.21-1.59-1.8-2.24-2.78-3.01c-2.14-1.69-4.91-2.52-8.3-2.52
			c-9.02,0-14.75,6.33-14.75,16.34c0,5.9,2.01,10.86,5.68,13.72c2.41,1.91,5.29,2.79,9.12,2.79c5.29,0,8.19-1.42,11.03-5.4
			c-0.06,0.7-0.06,1.31-0.06,1.97v2.67h7.26c-0.27-2.41-0.38-4.15-0.38-7.37v-19.24H226.72z M224.27,170.48
			c-1.63,2.24-4.42,3.6-7.32,3.6c-5.46,0-8.96-4.09-8.96-10.6c0-6.5,3.39-10.65,8.68-10.65c2.62,0,5.4,1.21,7.09,3.05
			c1.59,1.75,2.62,4.59,2.62,7.26C226.39,166.01,225.62,168.68,224.27,170.48z"/>
		<path class="st10" d="M226.72,152.58v0.05c-1.21-1.59-1.8-2.24-2.78-3.01c-2.14-1.69-4.91-2.52-8.3-2.52
			c-9.02,0-14.75,6.33-14.75,16.34c0,5.9,2.01,10.86,5.68,13.72c2.41,1.91,5.29,2.79,9.12,2.79c5.29,0,8.19-1.42,11.03-5.4
			c-0.06,0.7-0.06,1.31-0.06,1.97v2.67h7.26c-0.27-2.41-0.38-4.15-0.38-7.37v-19.24H226.72z M224.27,170.48
			c-1.63,2.24-4.42,3.6-7.32,3.6c-5.46,0-8.96-4.09-8.96-10.6c0-6.5,3.39-10.65,8.68-10.65c2.62,0,5.4,1.21,7.09,3.05
			c1.59,1.75,2.62,4.59,2.62,7.26C226.39,166.01,225.62,168.68,224.27,170.48z"/>
	</g>
	<g>
		<path class="st10" d="M358.97,358.55L358.97,358.55c0.19-2.66,0.33-5.69,0.45-9.18c0.11-3.63,0.16-8.62,0.16-14.88v-11.74
			c0-2.05-1.66-3.7-3.7-3.7h-61.44c-4.59,0-8.75,2-11.61,5.19c-2.86-3.19-7.01-5.19-11.6-5.19h-49.05
			c-8.62,0-15.62,6.99-15.62,15.61v13.07c-2.53-1.24-4.8-3.4-6.93-6.52c-2.06-3.03-2.6-4.65-2.73-5.09v-1.46
			c0-8.62-6.99-15.61-15.61-15.61h-12.21c-8.62,0-15.61,6.99-15.61,15.61v0.56c-0.51,2.77-1.9,5.23-4.34,7.71
			c-2.36,2.34-4.85,4-7.64,5.06c-4.11,1.56-7.39,4.8-9,8.9c-1.61,4.1-1.4,8.7,0.56,12.63l4.35,8.79c0.15,0.32,0.32,0.61,0.49,0.9
			c-3.87,2.86-6.37,7.43-6.37,12.57v10.16c0,8.62,7,15.61,15.62,15.61h55.92c3.06,0,5.92-0.88,8.34-2.41
			c2.41,1.53,5.27,2.41,8.33,2.41h52.92c8.62,0,15.62-6.99,15.62-15.61v-7.53c0.93,0.17,1.89,0.27,2.86,0.27h6.24v8.84
			c0,8.62,7,15.62,15.62,15.62h13.23c8.62,0,15.61-7,15.61-15.62v-8.84h5.14c8.62,0,15.61-6.99,15.61-15.61v-10.56
			C362.57,364.72,361.22,361.25,358.97,358.55z M357.62,379.06c0,5.88-4.78,10.65-10.65,10.65h-10.11v13.81
			c0,5.88-4.78,10.65-10.64,10.65h-13.23c-5.88,0-10.65-4.78-10.65-10.65v-13.81h-19.13c0.06,0.45,0.1,0.9,0.1,1.37v10.86
			c0,5.88-4.78,10.65-10.65,10.65h-52.92c-3.37,0-6.38-1.58-8.33-4.04c-1.95,2.46-4.97,4.04-8.34,4.04h-55.92
			c-5.89,0-10.65-4.78-10.65-10.65v-10.16c0-3.41,1.58-6.53,4.34-8.56l3.57-2.64l-2.22-3.84c-0.11-0.2-0.23-0.41-0.33-0.62
			l-4.36-8.79c-1.33-2.68-1.46-5.82-0.37-8.61c1.09-2.79,3.33-5,6.14-6.08c3.44-1.3,6.51-3.33,9.37-6.19
			c3.18-3.22,5.03-6.58,5.72-10.33l0.08-0.44v-1c0-5.88,4.78-10.65,10.65-10.65h12.21c5.88,0,10.64,4.78,10.64,10.65v2.15l0.19,0.66
			c0.33,1.18,1.19,3.27,3.39,6.52c3.03,4.46,6.43,7.36,10.39,8.86c2.43,0.94,4.42,2.71,5.62,4.99v-23.18
			c0-5.88,4.78-10.65,10.65-10.65h49.05c5.89,0,10.65,4.78,10.65,10.65v10.95c0,1.49-0.31,2.96-0.91,4.31h3.86v-0.29l-0.33-0.86
			c-0.46-1.21-0.7-2.48-0.7-3.79v-10.32c0-5.88,4.78-10.65,10.65-10.65h56.47c2.05,0,3.7,1.66,3.7,3.71v6.77
			c0,6.21-0.05,11.17-0.15,14.74c-0.11,3.44-0.26,6.38-0.44,8.99l-0.12,1.98l1.27,1.52c1.58,1.9,2.45,4.31,2.45,6.78V379.06z"/>
		<path class="st10" d="M150.74,370.22c0.15,0.3,0.48,0.46,0.81,0.39c5.12-1.16,10.17-3.67,15.14-7.53
			c3.25-2.49,5.72-4.89,7.41-7.17c0.29-0.39,0.86-0.38,1.15,0.01c2.37,3.13,5.58,6.14,9.63,9.02c4.2,2.99,8.21,5.01,12.04,6.05
			c0.32,0.09,0.65-0.06,0.82-0.35l5-8.95c0.22-0.39,0.04-0.86-0.38-1.02c-5.87-2.24-10.89-6.43-15.07-12.57
			c-3.52-5.21-5.28-9.57-5.28-13.1v-1.8c0-0.4-0.32-0.72-0.72-0.72h-12.21c-0.4,0-0.72,0.32-0.72,0.72v1.59c0,0.02,0,0.04,0,0.05
			c0,0.02,0,0.03,0,0.05c-0.79,6.35-3.69,12.03-8.67,17.07c-3.85,3.85-8.14,6.68-12.9,8.48c-0.09,0.04-0.17,0.09-0.24,0.15
			c-0.02,0.02-0.04,0.04-0.05,0.07c-0.04,0.05-0.08,0.1-0.1,0.15c-0.01,0.03-0.02,0.06-0.03,0.09c-0.02,0.06-0.03,0.11-0.03,0.17
			c0,0.03,0,0.07,0,0.1c0,0.02,0,0.04,0,0.06c0.01,0.06,0.03,0.12,0.05,0.18c0,0,0,0,0,0c0,0.01,0.01,0.01,0.01,0.02l-0.01-0.02
			L150.74,370.22z"/>
		<path class="st10" d="M203.06,389.6h-55.91c-0.4,0-0.72,0.32-0.72,0.72v10.16c0,0.4,0.32,0.72,0.72,0.72h55.92
			c0.4,0,0.72-0.32,0.72-0.72v-10.16h-0.01C203.78,389.92,203.46,389.6,203.06,389.6z"/>
		<path class="st10" d="M272.64,388.88h-16.79c-0.4,0-0.72-0.32-0.72-0.72v-9.76c0-0.06-0.02-0.11-0.03-0.17v-5.44h16.43
			c0.4,0,0.72-0.32,0.72-0.72v-10.71c0-0.4-0.32-0.72-0.72-0.72h-34.22l-0.01-0.01c-0.4,0-0.72-0.32-0.72-0.72v-14.34
			c0-0.4,0.32-0.72,0.72-0.72h33.9c0.4,0,0.72-0.32,0.72-0.72V333.2c0-0.4-0.32-0.72-0.72-0.72h-49.05c-0.4,0-0.72,0.32-0.72,0.72
			v29.97c0,3.94,0.45,6.47,1.34,7.57c1.1,1.37,3.71,2.05,7.81,2.05h9.23v15.69c-0.12,0.24-0.36,0.4-0.64,0.4h-19.47
			c-0.4,0-0.72,0.32-0.72,0.72v10.87c0,0.4,0.32,0.72,0.72,0.72h52.92c0.4,0,0.72-0.32,0.72-0.72V389.6
			C273.36,389.21,273.04,388.88,272.64,388.88z"/>
		<path class="st10" d="M346.97,366.33h-2.64l0.27-21.1l-0.01,0.02c0-0.17,0.01-0.34,0.01-0.52c0-0.13,0-0.27,0.01-0.41
			c0.01-0.35,0.01-0.71,0.02-1.07c0-0.21,0.01-0.43,0.01-0.65c0-0.28,0.01-0.57,0.01-0.87c0-0.31,0.01-0.62,0.01-0.93
			c0-0.2,0-0.4,0.01-0.59c0-0.42,0.01-0.85,0.01-1.28c0-0.02,0-0.04,0-0.06c0.01-1.79,0.02-3.73,0.02-5.83v-0.55h-50.25
			c-0.4,0-0.72,0.32-0.72,0.72v10.32c0,0.4,0.32,0.72,0.72,0.72h34.93c0.4,0,0.72,0.32,0.72,0.72v2.59c0,0.4-0.32,0.72-0.72,0.72
			h-33.9c-0.4,0-0.72,0.32-0.72,0.72v10h-0.01c0,0.03,0,0.06,0.01,0.09c0,0.04,0.02,0.07,0.03,0.11c0.01,0.04,0.02,0.07,0.03,0.11
			c0.02,0.05,0.06,0.09,0.09,0.13c0.02,0.03,0.04,0.06,0.06,0.08c0.04,0.04,0.09,0.07,0.14,0.1c0.03,0.02,0.05,0.04,0.08,0.05
			c0.08,0.03,0.17,0.05,0.27,0.05h33.33c0.08,0,0.15,0.02,0.21,0.04v6.59h-37.88c-0.4,0-0.72,0.32-0.72,0.72v10.56
			c0,0.4,0.32,0.72,0.72,0.72h20.42c0.4,0,0.72,0.32,0.72,0.72v23.02c0,0.4,0.32,0.72,0.72,0.72h13.24c0.4,0,0.72-0.32,0.72-0.72
			v-23.02c0-0.4,0.32-0.72,0.72-0.72h19.31c0.4,0,0.72-0.32,0.72-0.72v-10.56C347.68,366.65,347.36,366.33,346.97,366.33z"/>
	</g>
</g>
</svg>
