<svg width="512" height="512" viewBox="0 0 512 512" fill="none" xmlns="http://www.w3.org/2000/svg">
<g clip-path="url(#clip0_111_369)">
<rect width="512" height="512" fill="white"/>
<rect x="-0.96875" width="513.992" height="511.004" fill="url(#paint0_linear_111_369)"/>
<mask id="mask0_111_369" style="mask-type:alpha" maskUnits="userSpaceOnUse" x="-1" y="0" width="515" height="512">
<path d="M513.023 511.004H-0.96875V430.517V77.5986V0H513.023V77.5986V430.517V511.004Z" fill="#008C62"/>
</mask>
<g mask="url(#mask0_111_369)">
<g opacity="0.5">
<path opacity="0.5" d="M536.795 10.7318L435.01 -34.8846C419.616 -41.7902 412.698 -59.928 419.603 -75.3222L465.22 -177.108C472.125 -192.502 490.263 -199.42 505.665 -192.525L607.45 -146.909C622.845 -140.003 629.762 -121.865 622.857 -106.471L577.24 -4.68582C570.335 10.7083 552.197 17.6261 536.795 10.7318ZM503.593 -187.892C490.753 -193.65 475.629 -187.88 469.872 -175.039L424.255 -73.2539C418.498 -60.4136 424.26 -45.2785 437.101 -39.5212L538.886 6.09525C551.726 11.8525 566.85 6.08269 572.607 -6.7577L618.224 -108.543C623.981 -121.384 618.219 -136.519 605.379 -142.276L503.593 -187.892Z" fill="#C8C8C8"/>
<path opacity="0.5" d="M162.235 26.5655L60.4491 -19.0509C45.055 -25.9565 38.1373 -44.0943 45.0428 -59.4884L90.6592 -161.274C97.5648 -176.668 115.703 -183.586 131.104 -176.692L232.89 -131.075C248.284 -124.17 255.202 -106.032 248.296 -90.6376L202.68 11.1478C195.767 26.5532 177.629 33.4711 162.235 26.5655ZM129.025 -172.047C116.184 -177.805 101.061 -172.035 95.3035 -159.194L49.687 -57.4089C43.9298 -44.5685 49.6919 -29.4335 62.5323 -23.6762L164.318 21.9402C177.158 27.6975 192.282 21.9277 198.039 9.08731L243.656 -92.6981C249.413 -105.539 243.651 -120.674 230.81 -126.431L129.025 -172.047Z" fill="#C8C8C8"/>
<path opacity="0.5" d="M315.231 95.1414L213.445 49.5249C198.051 42.6194 191.133 24.4816 198.039 9.08744L243.655 -92.698C250.561 -108.092 268.699 -115.01 284.101 -108.116L385.886 -62.4992C401.28 -55.5937 408.198 -37.4559 401.292 -22.0617L355.676 79.7237C348.763 95.1291 330.625 102.047 315.231 95.1414ZM282.021 -103.471C269.181 -109.229 254.057 -103.459 248.3 -90.6185L202.683 11.1669C196.926 24.0073 202.688 39.1424 215.528 44.8996L317.314 90.5161C330.154 96.2734 345.278 90.5036 351.035 77.6632L396.652 -24.1223C402.409 -36.9627 396.647 -52.0977 383.806 -57.855L282.021 -103.471Z" fill="#C8C8C8"/>
<path opacity="0.5" d="M468.216 163.709L366.431 118.093C351.037 111.187 344.119 93.0496 351.024 77.6555L396.641 -24.13C403.546 -39.5241 421.684 -46.4419 437.086 -39.5477L538.871 6.0688C554.265 12.9743 561.183 31.1122 554.278 46.5063L508.661 148.292C501.759 163.705 483.621 170.623 468.216 163.709ZM435.018 -34.8957C422.177 -40.6529 407.053 -34.8832 401.296 -22.0428L355.68 79.7427C349.923 92.5831 355.685 107.718 368.525 113.475L470.31 159.092C483.151 164.849 498.275 159.079 504.032 146.239L549.648 44.4535C555.406 31.6131 549.643 16.478 536.803 10.7208L435.018 -34.8957Z" fill="#C8C8C8"/>
<path opacity="0.5" d="M621.204 232.296L519.419 186.68C504.025 179.774 497.107 161.637 504.013 146.242L549.629 44.457C556.534 29.0629 574.672 22.1451 590.074 29.0394L691.86 74.6558C707.254 81.5613 714.172 99.6992 707.266 115.093L661.65 216.879C654.755 232.281 636.606 239.191 621.204 232.296ZM588.002 33.6723C575.162 27.915 560.038 33.6849 554.281 46.5252L508.665 148.311C502.907 161.151 508.669 176.286 521.51 182.043L623.295 227.66C636.135 233.417 651.259 227.647 657.017 214.807L702.633 113.021C708.39 100.181 702.628 85.0461 689.788 79.2888L588.002 33.6723Z" fill="#C8C8C8"/>
<path opacity="0.5" fill-rule="evenodd" clip-rule="evenodd" d="M-161.123 65.3701L-59.337 110.987C-43.9429 117.892 -25.7938 110.982 -18.8918 95.5689L26.7246 -6.2166C33.6301 -21.6107 26.7123 -39.7486 11.3182 -46.6541L-90.4672 -92.2706C-101.909 -97.3924 -114.861 -94.8912 -123.596 -86.9548C-123.477 -98.7593 -130.236 -110.097 -141.678 -115.23L-243.464 -160.846C-258.866 -167.741 -277.004 -160.823 -283.909 -145.429L-329.526 -43.6433C-336.431 -28.2492 -329.513 -10.1113 -314.119 -3.20578L-212.334 42.4107C-200.898 47.5407 -187.941 45.0461 -179.205 37.1051C-179.32 48.9059 -172.561 60.2389 -161.123 65.3701ZM-126.268 -74.7734C-120.511 -87.6138 -105.387 -93.3836 -92.5468 -87.6263L9.23869 -42.0099C22.0791 -36.2526 27.8412 -21.1175 22.084 -8.27715L-23.5325 93.5083C-29.2898 106.349 -44.4135 112.118 -57.254 106.361L-159.039 60.7447C-171.88 54.9874 -177.642 39.8524 -171.885 27.0121L-126.268 -74.7734ZM-279.265 -143.349C-273.508 -156.19 -258.384 -161.959 -245.543 -156.202L-143.758 -110.586C-130.918 -104.828 -125.155 -89.6934 -130.913 -76.853L-176.529 24.9324C-182.286 37.7728 -197.41 43.5426 -210.251 37.7853L-312.036 -7.83113C-324.876 -13.5884 -330.639 -28.7234 -324.881 -41.5638L-279.265 -143.349Z" fill="#C8C8C8"/>
<path opacity="0.5" d="M93.6584 179.562L-8.12703 133.946C-23.5212 127.04 -30.4389 108.902 -23.5334 93.508L22.0831 -8.27744C28.9886 -23.6716 47.1264 -30.5894 62.5283 -23.6951L164.314 21.9213C179.708 28.8269 186.626 46.9647 179.72 62.3589L134.104 164.144C127.19 179.55 109.053 186.468 93.6584 179.562ZM60.4487 -19.0509C47.6083 -24.8081 32.4846 -19.0383 26.7273 -6.1979L-18.8891 95.5875C-24.6464 108.428 -18.8844 123.563 -6.04398 129.32L95.7415 174.937C108.582 180.694 123.706 174.924 129.463 162.084L175.079 60.2983C180.837 47.4579 175.075 32.3229 162.234 26.5656L60.4487 -19.0509Z" fill="#C8C8C8"/>
<path opacity="0.5" d="M246.655 248.138L144.869 202.522C129.475 195.616 122.557 177.478 129.463 162.084L175.079 60.2986C181.985 44.9045 200.123 37.9867 215.524 44.881L317.31 90.4974C332.704 97.4029 339.622 115.541 332.716 130.935L287.1 232.72C280.187 248.126 262.049 255.044 246.655 248.138ZM213.445 49.5252C200.604 43.7679 185.481 49.5377 179.723 62.3781L134.107 164.164C128.35 177.004 134.112 192.139 146.952 197.896L248.738 243.513C261.578 249.27 276.702 243.5 282.459 230.66L328.076 128.874C333.833 116.034 328.071 100.899 315.23 95.1416L213.445 49.5252Z" fill="#C8C8C8"/>
<path opacity="0.5" d="M399.64 316.706L297.854 271.09C282.46 264.184 275.543 246.046 282.448 230.652L328.064 128.867C334.97 113.472 353.108 106.555 368.51 113.449L470.295 159.065C485.689 165.971 492.607 184.109 485.702 199.503L440.085 301.288C433.183 316.701 415.034 323.612 399.64 316.706ZM366.441 118.101C353.601 112.344 338.477 118.113 332.72 130.954L287.104 232.739C281.346 245.58 287.108 260.715 299.949 266.472L401.734 312.088C414.575 317.846 429.698 312.076 435.456 299.235L481.072 197.45C486.829 184.61 481.067 169.475 468.227 163.717L366.441 118.101Z" fill="#C8C8C8"/>
<path opacity="0.5" d="M552.629 385.293L450.844 339.677C435.45 332.771 428.532 314.633 435.437 299.239L481.054 197.454C487.959 182.059 506.097 175.142 521.499 182.036L623.285 227.652C638.679 234.558 645.596 252.696 638.691 268.09L593.074 369.875C586.18 385.277 568.031 392.187 552.629 385.293ZM519.427 186.669C506.587 180.912 491.463 186.681 485.706 199.522L440.089 301.307C434.332 314.148 440.094 329.283 452.934 335.04L554.72 380.656C567.56 386.414 582.684 380.644 588.441 367.803L634.058 266.018C639.815 253.178 634.053 238.043 621.213 232.285L519.427 186.669Z" fill="#C8C8C8"/>
<path opacity="0.5" d="M25.0833 332.559L-76.7021 286.942C-92.0963 280.037 -99.0141 261.899 -92.1086 246.505L-46.4921 144.719C-39.5866 129.325 -21.4487 122.407 -6.04687 129.302L95.7385 174.918C111.133 181.824 118.051 199.961 111.145 215.355L65.5285 317.141C58.6153 332.546 40.4775 339.464 25.0833 332.559ZM-8.1264 133.946C-20.9668 128.189 -36.0906 133.958 -41.8478 146.799L-87.4643 248.584C-93.2215 261.425 -87.4595 276.56 -74.6191 282.317L27.1664 327.933C40.0068 333.691 55.1305 327.921 60.8878 315.08L106.504 213.295C112.262 200.455 106.499 185.32 93.6591 179.562L-8.1264 133.946Z" fill="#C8C8C8"/>
<path opacity="0.5" d="M178.069 401.127L76.2832 355.51C60.889 348.605 53.9712 330.467 60.8768 315.073L106.493 213.287C113.399 197.893 131.537 190.975 146.938 197.87L248.724 243.486C264.118 250.392 271.036 268.529 264.13 283.923L218.514 385.709C211.612 401.122 193.474 408.04 178.069 401.127ZM144.87 202.521C132.03 196.764 116.906 202.534 111.149 215.374L65.5323 317.16C59.775 330 65.5371 345.135 78.3775 350.893L180.163 396.509C193.003 402.266 208.127 396.496 213.884 383.656L259.501 281.871C265.258 269.03 259.496 253.895 246.656 248.138L144.87 202.521Z" fill="#C8C8C8"/>
<path opacity="0.5" d="M331.064 469.702L229.278 424.086C213.884 417.18 206.966 399.042 213.872 383.648L259.488 281.863C266.394 266.469 284.532 259.551 299.934 266.445L401.719 312.062C417.113 318.967 424.031 337.105 417.125 352.499L371.509 454.285C364.607 469.698 346.458 476.608 331.064 469.702ZM297.854 271.089C285.014 265.332 269.89 271.102 264.133 283.942L218.516 385.728C212.759 398.568 218.521 413.703 231.361 419.461L333.147 465.077C345.987 470.834 361.111 465.064 366.868 452.224L412.485 350.439C418.242 337.598 412.48 322.463 399.639 316.706L297.854 271.089Z" fill="#C8C8C8"/>
<path opacity="0.5" d="M484.053 538.289L382.268 492.673C366.873 485.767 359.956 467.629 366.861 452.235L412.478 350.45C419.383 335.056 437.521 328.138 452.923 335.032L554.708 380.649C570.102 387.554 577.02 405.692 570.115 421.086L524.498 522.872C517.604 538.273 499.455 545.184 484.053 538.289ZM450.851 339.665C438.011 333.908 422.887 339.678 417.13 352.518L371.513 454.304C365.756 467.144 371.518 482.279 384.358 488.036L486.144 533.653C498.984 539.41 514.108 533.64 519.865 520.8L565.482 419.014C571.239 406.174 565.477 391.039 552.637 385.282L450.851 339.665Z" fill="#C8C8C8"/>
<path opacity="0.5" d="M637.049 606.865L535.264 561.248C519.869 554.343 512.952 536.205 519.857 520.811L565.474 419.025C572.379 403.631 590.517 396.713 605.919 403.608L707.704 449.224C723.099 456.13 730.016 474.268 723.111 489.662L677.494 591.447C670.589 606.841 652.451 613.759 637.049 606.865ZM603.847 408.241C591.007 402.483 575.883 408.253 570.126 421.094L524.509 522.879C518.752 535.719 524.514 550.855 537.354 556.612L639.14 602.228C651.98 607.986 667.104 602.216 672.861 589.375L718.478 487.59C724.235 474.75 718.473 459.614 705.632 453.857L603.847 408.241Z" fill="#C8C8C8"/>
<path opacity="0.5" d="M-3.05544 470.149L42.5723 368.371C44.3414 364.423 45.2004 360.284 45.226 356.204C45.3181 348.469 42.4554 340.947 37.2416 335.224C34.5038 332.215 31.1133 329.702 27.1546 327.926L-74.6119 282.306C-78.5706 280.529 -82.7096 279.67 -86.7932 279.625C-94.5253 279.552 -102.047 282.415 -107.763 287.617C-110.779 290.366 -113.292 293.757 -115.061 297.704L-160.688 399.482C-162.465 403.441 -163.324 407.58 -163.361 411.652C-163.445 419.376 -160.583 426.898 -155.369 432.622C-152.628 435.649 -149.237 438.162 -145.278 439.938L-43.5119 485.559C-39.5532 487.335 -35.4142 488.194 -31.3342 488.22L-31.3229 488.228C-23.5908 488.301 -16.0802 485.43 -10.3647 480.228C-7.337 477.486 -4.82453 474.096 -3.05544 470.149ZM-41.4212 480.922L-143.199 435.294C-156.039 429.537 -161.809 414.413 -156.044 401.562L-110.424 299.795C-104.659 286.943 -89.543 281.185 -76.7026 286.942L25.0828 332.559C37.9232 338.316 43.6853 353.451 37.928 366.291L-7.69972 468.069C-13.4493 480.898 -28.5808 486.679 -41.4212 480.922Z" fill="#C8C8C8"/>
<path opacity="0.5" d="M149.949 538.713L195.569 436.946C197.346 432.988 198.205 428.849 198.242 424.776C198.334 417.041 195.452 409.522 190.238 403.799C187.508 400.779 184.118 398.267 180.159 396.49L78.3926 350.87C74.4339 349.093 70.2949 348.234 66.2149 348.209C58.4792 348.117 50.9573 350.979 45.2341 356.193C42.2177 358.942 39.7052 362.333 37.9361 366.28L-7.69158 468.058C-9.46069 472.005 -10.3197 476.144 -10.3566 480.216C-10.4486 487.952 -7.57834 495.463 -2.37574 501.178L-2.36446 501.186C-2.05763 501.511 -1.74723 501.855 -1.42144 502.177C-0.826215 502.781 -0.204319 503.371 0.437059 503.908C2.58966 505.741 5.014 507.296 7.71479 508.495L109.481 554.115C113.44 555.892 117.579 556.751 121.651 556.788C129.376 556.872 136.905 553.998 142.621 548.796C145.66 546.062 148.161 542.664 149.949 538.713ZM111.583 549.486L9.8056 503.859C-3.03479 498.101 -8.80456 482.978 -3.04729 470.137L42.5804 368.359C48.3377 355.519 63.4614 349.749 76.3018 355.507L178.08 401.134C190.92 406.891 196.69 422.015 190.925 434.867L145.305 536.633C139.54 549.485 124.412 555.236 111.583 549.486Z" fill="#C8C8C8"/>
<path opacity="0.5" d="M229.279 424.086C225.332 422.317 221.941 419.804 219.2 416.776C211.476 416.692 203.954 419.555 198.238 424.757C198.238 424.757 198.227 424.75 198.231 424.769C198.194 428.841 197.335 432.98 195.558 436.939C201.323 424.087 216.45 418.336 229.279 424.086ZM302.927 607.292L348.547 505.526C350.323 501.567 351.182 497.428 351.208 493.348C351.3 485.612 348.437 478.09 343.224 472.367C340.475 469.351 337.095 466.846 333.137 465.069L231.37 419.449C227.411 417.672 223.272 416.813 219.2 416.776C211.476 416.692 203.954 419.555 198.238 424.757C198.238 424.757 198.227 424.75 198.231 424.769C195.192 427.502 192.679 430.893 190.914 434.859L145.294 536.626C143.517 540.584 142.658 544.723 142.621 548.796C142.537 556.52 145.399 564.042 150.613 569.765C152.008 571.328 153.597 572.727 155.336 573.98C155.34 573.999 155.359 573.996 155.381 574.011C155.813 574.322 156.272 574.619 156.742 574.923C157.328 575.323 157.967 575.693 158.622 576.041C158.904 576.184 159.167 576.331 159.45 576.474C159.871 576.679 160.282 576.877 160.711 577.071L262.478 622.691C266.436 624.468 270.575 625.327 274.655 625.352L274.667 625.36C282.391 625.444 289.909 622.563 295.617 617.371C298.637 614.641 301.15 611.251 302.927 607.292ZM264.572 618.073L162.794 572.446C149.954 566.688 144.184 551.565 149.949 538.713L195.569 436.946C201.334 424.095 216.45 418.336 229.291 424.093L331.068 469.721C343.909 475.478 349.679 490.602 343.921 503.443L298.293 605.22C292.544 618.049 277.401 623.823 264.572 618.073Z" fill="#C8C8C8"/>
<path opacity="0.5" d="M382.276 492.662C378.328 490.893 374.938 488.381 372.189 485.364C364.453 485.272 356.931 488.135 351.208 493.349C351.182 497.429 350.323 501.567 348.546 505.526C354.311 492.675 369.435 486.905 382.276 492.662ZM455.923 675.868L501.55 574.091C503.327 570.132 504.186 565.993 504.223 561.921C504.308 554.196 501.445 546.674 496.231 540.951C493.49 537.923 490.099 535.411 486.14 533.634L384.363 488.007C380.415 486.237 376.276 485.378 372.196 485.353C364.461 485.261 356.939 488.123 351.216 493.337C348.199 496.086 345.687 499.477 343.918 503.424L298.29 605.202C296.513 609.161 295.654 613.3 295.617 617.372C295.533 625.096 298.395 632.618 303.609 638.341C305.004 639.905 306.594 641.304 308.332 642.557C308.336 642.576 308.355 642.572 308.377 642.587C308.809 642.899 309.268 643.195 309.738 643.499C310.324 643.899 310.963 644.27 311.618 644.618C311.9 644.761 312.164 644.907 312.446 645.051C312.868 645.256 313.278 645.453 313.707 645.647L415.482 691.256C419.44 693.033 423.579 693.892 427.652 693.929C435.387 694.021 442.906 691.139 448.621 685.937C451.641 683.206 454.154 679.816 455.923 675.868ZM417.565 686.631L315.779 641.014C302.939 635.257 297.169 620.133 302.934 607.281L348.554 505.515C354.319 492.663 369.454 486.901 382.283 492.651L484.061 538.278C496.901 544.036 502.671 559.159 496.906 572.011L451.286 673.778C445.533 686.637 430.405 692.388 417.565 686.631Z" fill="#C8C8C8"/>
<path opacity="0.5" d="M-71.6344 623.126L-26.0144 521.36C-24.2376 517.401 -23.3786 513.262 -23.334 509.178C-23.261 501.446 -26.1123 493.932 -31.3149 488.216L-31.3262 488.209C-34.0752 485.192 -37.4657 482.68 -41.4131 480.911L-143.191 435.283C-147.15 433.506 -151.289 432.647 -155.361 432.61C-163.085 432.526 -170.607 435.389 -176.33 440.602C-179.358 443.344 -181.871 446.734 -183.647 450.693L-229.267 552.46C-229.489 552.953 -229.698 553.454 -229.889 553.952C-230.053 554.336 -230.178 554.713 -230.311 555.101C-230.322 555.143 -230.327 555.173 -230.35 555.207C-230.428 555.418 -230.494 555.637 -230.553 555.844C-230.569 555.867 -230.573 555.897 -230.577 555.927C-230.64 556.116 -230.687 556.282 -230.742 556.459C-230.754 556.501 -230.765 556.542 -230.777 556.584C-230.852 556.863 -230.946 557.146 -231.002 557.422C-231.01 557.482 -231.041 557.527 -231.049 557.588C-231.061 557.629 -231.062 557.678 -231.085 557.712C-231.176 558.063 -231.267 558.414 -231.327 558.769C-231.499 559.627 -231.645 560.469 -231.749 561.323C-231.801 561.618 -231.812 561.925 -231.834 562.223C-231.884 562.586 -231.906 562.934 -231.918 563.29C-231.918 563.339 -231.938 563.392 -231.927 563.449C-231.961 563.789 -231.965 564.133 -231.98 564.47C-231.969 564.527 -231.981 564.569 -231.982 564.618C-232.055 572.35 -229.192 579.872 -223.99 585.587L-223.978 585.595C-221.237 588.623 -217.846 591.135 -213.899 592.904L-112.121 638.532C-111.831 638.664 -111.533 638.784 -111.247 638.897C-111.047 638.968 -110.855 639.049 -110.655 639.119C-110.633 639.135 -110.599 639.158 -110.569 639.162C-110.418 639.232 -110.282 639.275 -110.127 639.314C-109.875 639.404 -109.619 639.513 -109.358 639.592C-109.328 639.596 -109.306 639.611 -109.275 639.615C-109.136 639.677 -108.992 639.709 -108.849 639.741C-108.544 639.85 -108.242 639.941 -107.921 640.027C-107.744 640.082 -107.578 640.13 -107.393 640.173C-106.959 640.288 -106.525 640.402 -106.086 640.487C-105.592 640.609 -105.074 640.698 -104.568 640.779C-104.062 640.861 -103.529 640.927 -103.018 640.978C-102.92 640.979 -102.837 641.003 -102.738 641.004C-102.395 641.057 -102.066 641.083 -101.71 641.095C-101.631 641.099 -101.57 641.107 -101.491 641.112C-101.472 641.109 -101.464 641.097 -101.453 641.105C-100.946 641.137 -100.435 641.139 -99.9316 641.152L-99.9204 641.16C-92.196 641.244 -84.6777 638.362 -78.9699 633.171C-75.9124 630.483 -73.4 627.092 -71.6344 623.126ZM-109.989 633.907L-211.767 588.279C-224.607 582.522 -230.377 567.398 -224.612 554.547L-178.992 452.78C-173.227 439.929 -158.111 434.17 -145.259 439.935L-43.4926 485.555C-30.641 491.32 -24.8825 506.436 -30.6397 519.276L-76.2675 621.054C-82.0135 633.902 -97.1597 639.657 -109.989 633.907Z" fill="#C8C8C8"/>
<path opacity="0.5" d="M-109.989 633.907L-211.767 588.279C-224.608 582.522 -230.377 567.398 -224.612 554.546L-178.992 452.78C-173.227 439.928 -158.111 434.17 -145.26 439.935L-43.4932 485.555C-30.6416 491.32 -24.8831 506.436 -30.6403 519.276L-76.2681 621.054C-82.0141 633.902 -97.1603 639.656 -109.989 633.907Z" fill="white"/>
<path opacity="0.5" d="M7.72531 508.503C5.01325 507.296 2.58121 505.752 0.447571 503.916C-0.205081 503.371 -0.815697 502.789 -1.41092 502.184C-1.73671 501.863 -2.05481 501.53 -2.35394 501.194L-2.36522 501.186C-10.0937 501.132 -17.6079 503.983 -23.3234 509.186C-23.3603 513.258 -24.227 517.409 -26.0038 521.367C-20.2578 508.519 -5.12635 502.738 7.72531 508.503ZM81.3536 691.713L126.981 589.935C128.758 585.977 129.617 581.838 129.654 577.765C129.746 570.03 126.864 562.511 121.662 556.796C118.92 553.768 115.53 551.256 111.583 549.486L9.80483 503.859C5.84613 502.082 1.7071 501.223 -2.36522 501.186L-2.37651 501.178C-10.105 501.124 -17.6192 503.976 -23.3347 509.178C-26.3624 511.92 -28.8749 515.31 -30.6517 519.269L-76.2794 621.047C-78.0562 625.005 -78.9152 629.144 -78.9521 633.217C-79.0252 640.949 -76.1625 648.471 -70.9599 654.186C-68.2186 657.214 -64.8281 659.726 -60.8694 661.503L40.9161 707.12C44.8635 708.889 49.0025 709.748 53.0748 709.784L53.0861 709.792C60.8295 709.873 68.3401 707.003 74.0479 701.811C74.0556 701.8 74.0556 701.8 74.0556 701.8C77.072 699.051 79.5845 695.66 81.3536 691.713ZM42.9956 702.475L-58.7899 656.859C-71.6303 651.101 -77.4 635.978 -71.6351 623.126L-26.015 521.36C-20.2501 508.508 -5.11508 502.746 7.72531 508.503L109.492 554.123C122.343 559.888 128.102 575.004 122.337 587.856L76.7169 689.622C70.952 702.474 55.836 708.232 42.9956 702.475ZM7.72531 508.503C5.01325 507.296 2.58121 505.752 0.447571 503.916C-0.197388 503.36 -0.815697 502.789 -1.41092 502.184C-1.72901 501.852 -2.04712 501.519 -2.35394 501.194L-2.36522 501.186C-10.0937 501.132 -17.6079 503.983 -23.3234 509.186C-23.3603 513.258 -24.227 517.409 -26.0038 521.367C-20.2578 508.519 -5.12635 502.738 7.72531 508.503Z" fill="#C8C8C8"/>
<path opacity="0.5" d="M42.9955 702.475L-58.79 656.858C-71.6303 651.101 -77.4001 635.977 -71.6351 623.126L-26.0151 521.359C-20.2501 508.508 -5.11513 502.746 7.72525 508.503L109.492 554.123C122.343 559.888 128.102 575.004 122.337 587.855L76.7169 689.622C70.952 702.474 55.8359 708.232 42.9955 702.475Z" fill="white"/>
</g>
<g filter="url(#filter0_f_111_369)">
<path d="M418.712 379.361C424.206 366.967 438.708 361.374 451.102 366.868L548.76 410.162C561.154 415.656 566.747 430.158 561.253 442.552L517.959 540.21C512.464 552.604 497.963 558.197 485.569 552.703L387.911 509.409C375.517 503.914 369.924 489.413 375.418 477.019L418.712 379.361Z" fill="#C1C1C1" fill-opacity="0.59"/>
</g>
<path d="M406.096 346.508C411.591 334.114 426.092 328.521 438.486 334.015L540.274 379.14C552.668 384.634 558.261 399.136 552.767 411.53L507.25 514.203C501.755 526.597 487.254 532.19 474.86 526.696L373.072 481.571C360.678 476.077 355.085 461.575 360.579 449.181L406.096 346.508Z" fill="#C9C5C5"/>
<path fill-rule="evenodd" clip-rule="evenodd" d="M439.657 331.375L541.445 376.5C555.297 382.641 561.548 398.848 555.407 412.7L509.89 515.374C503.749 529.226 487.542 535.477 473.69 529.336L371.901 484.211C358.049 478.07 351.798 461.863 357.939 448.011L403.456 345.338C409.597 331.486 425.804 325.234 439.657 331.375ZM438.486 334.015C426.092 328.521 411.591 334.114 406.096 346.508L360.579 449.181C355.085 461.575 360.678 476.077 373.072 481.571L474.86 526.696C487.254 532.19 501.755 526.597 507.25 514.203L552.767 411.53C558.261 399.136 552.668 384.635 540.274 379.14L438.486 334.015Z" fill="#C9C5C5"/>
<path d="M404.363 341.817C409.858 329.424 424.359 323.83 436.753 329.325L541.13 375.597C553.524 381.091 559.117 395.593 553.622 407.987L507.35 512.363C501.856 524.757 487.354 530.351 474.96 524.856L370.584 478.584C358.19 473.089 352.597 458.588 358.091 446.194L404.363 341.817Z" fill="white"/>
<path fill-rule="evenodd" clip-rule="evenodd" d="M539.374 379.557L434.997 333.285C424.79 328.76 412.848 333.366 408.323 343.573L362.051 447.95C357.526 458.156 362.132 470.099 372.339 474.624L476.716 520.896C486.922 525.421 498.865 520.815 503.39 510.608L549.662 406.231C554.187 396.024 549.58 384.082 539.374 379.557ZM436.753 329.325C424.359 323.83 409.857 329.424 404.363 341.817L358.091 446.194C352.596 458.588 358.189 473.089 370.583 478.584L474.96 524.856C487.354 530.351 501.855 524.757 507.35 512.363L553.622 407.987C559.116 395.593 553.523 381.091 541.129 375.597L436.753 329.325Z" fill="url(#paint1_linear_111_369)"/>
<g filter="url(#filter1_i_111_369)">
<path d="M466.688 397.137C473.519 400.272 477.686 405.06 479.188 411.5C480.744 417.964 479.502 425.6 475.46 434.406C472.57 440.703 469.23 445.728 465.44 449.481C461.65 453.233 457.576 455.563 453.219 456.471C448.861 457.378 444.441 456.803 439.958 454.746C436.915 453.35 434.143 451.367 431.64 448.796C429.19 446.251 427.363 443.474 426.159 440.466C425.644 439.196 425.606 438.08 426.047 437.12C426.415 436.319 426.934 435.75 427.606 435.412C428.278 435.074 428.908 435.04 429.495 435.31C430.242 435.653 430.881 436.301 431.412 437.256C434.316 443.176 437.956 447.14 442.333 449.149C447.082 451.329 451.784 450.87 456.436 447.771C461.089 444.673 465.203 439.228 468.779 431.436L469.257 430.395C466.657 432.821 463.578 434.25 460.019 434.685C456.514 435.143 453.026 434.576 449.557 432.984C446.142 431.417 443.443 429.273 441.46 426.554C439.477 423.835 438.363 420.772 438.118 417.364C437.873 413.957 438.559 410.492 440.175 406.969C441.767 403.5 443.974 400.733 446.796 398.669C449.617 396.604 452.77 395.434 456.256 395.16C459.742 394.886 463.219 395.545 466.688 397.137ZM453.053 427.902C456.736 429.592 460.251 429.816 463.599 428.574C467.025 427.304 469.583 424.827 471.273 421.145C472.988 417.409 473.197 413.855 471.902 410.482C470.685 407.081 468.209 404.523 464.473 402.808C460.844 401.142 457.409 400.955 454.167 402.246C450.926 403.536 448.436 406.076 446.697 409.865C444.957 413.655 444.655 417.199 445.79 420.498C447.003 423.768 449.424 426.236 453.053 427.902Z" fill="#E4E4E4"/>
</g>
<g filter="url(#filter2_f_111_369)">
<path d="M-19.8887 157.9C-14.3942 145.506 0.107208 139.913 12.5011 145.407L110.159 188.701C122.553 194.196 128.146 208.697 122.652 221.091L79.3583 318.749C73.8638 331.143 59.3624 336.736 46.9684 331.242L-50.6898 287.948C-63.0838 282.454 -68.6769 267.952 -63.1824 255.558L-19.8887 157.9Z" fill="#C1C1C1" fill-opacity="0.6"/>
</g>
<path d="M-34.2816 120.568C-28.7871 108.174 -14.2857 102.581 -1.8918 108.075L100.293 153.375C112.687 158.87 118.28 173.371 112.785 185.765L67.507 287.9C62.0126 300.294 47.5112 305.887 35.1172 300.393L-67.0674 255.092C-79.4613 249.598 -85.0544 235.097 -79.56 222.703L-34.2816 120.568Z" fill="#A00045"/>
<path fill-rule="evenodd" clip-rule="evenodd" d="M-0.721383 105.435L101.463 150.735C115.315 156.876 121.566 173.084 115.426 186.936L70.1472 289.071C64.0063 302.923 47.7988 309.174 33.9468 303.033L-68.2378 257.733C-82.0899 251.592 -88.341 235.384 -82.2001 221.532L-36.9218 119.397C-30.7809 105.545 -14.5734 99.2941 -0.721383 105.435ZM-1.89181 108.075C-14.2857 102.581 -28.7872 108.174 -34.2816 120.568L-79.56 222.703C-85.0544 235.097 -79.4613 249.598 -67.0674 255.092L35.1172 300.393C47.5111 305.887 62.0126 300.294 67.507 287.9L112.785 185.765C118.28 173.371 112.687 158.87 100.293 153.375L-1.89181 108.075Z" fill="#A00045"/>
<path d="M-35.6828 116.025C-30.1883 103.631 -15.6869 98.0376 -3.29293 103.532L101.084 149.804C113.478 155.299 119.071 169.8 113.576 182.194L67.3042 286.571C61.8097 298.965 47.3083 304.558 34.9143 299.063L-69.4623 252.791C-81.8562 247.297 -87.4494 232.795 -81.9549 220.401L-35.6828 116.025Z" fill="#FF006E"/>
<path d="M-35.6828 116.025C-30.1883 103.631 -15.6869 98.0376 -3.29293 103.532L101.084 149.804C113.478 155.299 119.071 169.8 113.576 182.194L67.3042 286.571C61.8097 298.965 47.3083 304.558 34.9143 299.063L-69.4623 252.791C-81.8562 247.297 -87.4494 232.795 -81.9549 220.401L-35.6828 116.025Z" fill="url(#paint2_linear_111_369)"/>
<path fill-rule="evenodd" clip-rule="evenodd" d="M99.3281 153.764L-5.04857 107.492C-15.2553 102.967 -27.1977 107.574 -31.7225 117.78L-77.9947 222.157C-82.5195 232.364 -77.9134 244.306 -67.7066 248.831L36.67 295.103C46.8768 299.628 58.8191 295.022 63.344 284.815L109.616 180.438C114.141 170.232 109.535 158.289 99.3281 153.764ZM-3.29293 103.532C-15.6869 98.0376 -30.1883 103.631 -35.6828 116.025L-81.9549 220.401C-87.4494 232.795 -81.8562 247.297 -69.4623 252.791L34.9143 299.063C47.3083 304.558 61.8097 298.965 67.3042 286.571L113.576 182.194C119.071 169.8 113.478 155.299 101.084 149.804L-3.29293 103.532Z" fill="url(#paint3_linear_111_369)"/>
<g filter="url(#filter3_i_111_369)">
<path d="M25.1603 196.098C28.5759 197.665 31.275 199.809 33.2577 202.528C35.2403 205.247 36.3542 208.31 36.5994 211.718C36.8445 215.125 36.1588 218.59 34.5422 222.113C32.9501 225.582 30.7434 228.349 27.922 230.413C25.1006 232.478 21.9471 233.648 18.4616 233.922C14.9761 234.196 11.4988 233.537 8.02982 231.945C1.19855 228.81 -2.99503 224.01 -4.55093 217.545C-6.05346 211.105 -4.78398 203.482 -0.742499 194.676C2.14777 188.379 5.48781 183.354 9.2776 179.601C13.0674 175.849 17.1412 173.519 21.4989 172.611C25.8567 171.704 30.277 172.279 34.7601 174.336C37.8021 175.732 40.5481 177.703 42.9979 180.249C45.5011 182.819 47.3546 185.608 48.5587 188.616C49.074 189.886 49.1113 191.002 48.6704 191.962C48.303 192.763 47.7833 193.332 47.1114 193.67C46.4395 194.008 45.8101 194.042 45.223 193.772C44.4758 193.429 43.8367 192.781 43.3056 191.826C40.4015 185.906 36.7613 181.942 32.3851 179.933C27.6352 177.753 22.934 178.212 18.2816 181.311C13.6291 184.409 9.51482 189.854 5.93872 197.646L5.46109 198.687C8.06024 196.261 11.1126 194.819 14.6183 194.361C18.1773 193.927 21.6913 194.506 25.1603 196.098ZM10.2447 226.274C13.8738 227.94 17.3091 228.127 20.5504 226.836C23.7918 225.546 26.282 223.006 28.0211 219.217C29.7602 215.427 30.0233 211.898 28.8105 208.627C27.6756 205.328 25.2936 202.846 21.6645 201.18C17.982 199.49 14.4278 199.281 11.0018 200.551C7.65372 201.793 5.13462 204.255 3.44455 207.937C1.72998 211.673 1.48127 215.242 2.69842 218.643C3.99343 222.016 6.50886 224.559 10.2447 226.274Z" fill="#CA1362"/>
</g>
<g filter="url(#filter4_f_111_369)">
<path d="M58.458 398.164C63.9525 385.77 78.4539 380.177 90.8478 385.672L188.506 428.966C200.9 434.46 206.493 448.961 200.999 461.355L157.705 559.014C152.21 571.408 137.709 577.001 125.315 571.506L27.6569 528.213C15.2629 522.718 9.66978 508.217 15.1642 495.823L58.458 398.164Z" fill="#C1C1C1" fill-opacity="0.37"/>
</g>
<path d="M44.0651 360.832C49.5595 348.438 64.0609 342.845 76.4549 348.34L178.639 393.64C191.033 399.134 196.627 413.636 191.132 426.03L145.854 528.165C140.359 540.559 125.858 546.152 113.464 540.657L11.2793 495.357C-1.11464 489.863 -6.70775 475.361 -1.21328 462.967L44.0651 360.832Z" fill="#ECA817"/>
<path fill-rule="evenodd" clip-rule="evenodd" d="M77.6253 345.7L179.81 391C193.662 397.141 199.913 413.348 193.772 427.2L148.494 529.335C142.353 543.187 126.146 549.438 112.293 543.298L10.1089 497.997C-3.74318 491.856 -9.99431 475.649 -3.85344 461.797L41.4249 359.662C47.5658 345.81 63.7733 339.559 77.6253 345.7ZM76.4549 348.34C64.0609 342.845 49.5595 348.438 44.0651 360.832L-1.21329 462.967C-6.70776 475.361 -1.11465 489.863 11.2793 495.357L113.464 540.657C125.858 546.152 140.359 540.559 145.854 528.165L191.132 426.03C196.627 413.636 191.033 399.135 178.639 393.64L76.4549 348.34Z" fill="#ECA817"/>
<path d="M42.6639 356.289C48.1584 343.895 62.6598 338.302 75.0537 343.797L179.43 390.069C191.824 395.563 197.417 410.065 191.923 422.459L145.651 526.835C140.156 539.229 125.655 544.822 113.261 539.328L8.8844 493.056C-3.50954 487.561 -9.10268 473.06 -3.60822 460.666L42.6639 356.289Z" fill="url(#paint4_linear_111_369)"/>
<path fill-rule="evenodd" clip-rule="evenodd" d="M177.675 394.029L73.2989 347.757C63.0921 343.232 51.1497 347.838 46.6249 358.045L0.352736 462.422C-4.17212 472.628 0.434002 484.571 10.6408 489.096L115.017 535.368C125.224 539.893 137.167 535.287 141.691 525.08L187.964 420.703C192.488 410.496 187.882 398.554 177.675 394.029ZM75.0545 343.797C62.6606 338.302 48.1591 343.895 42.6647 356.289L-3.60748 460.666C-9.10194 473.06 -3.5088 487.561 8.88514 493.056L113.262 539.328C125.656 544.823 140.157 539.229 145.652 526.835L191.924 422.459C197.418 410.065 191.825 395.563 179.431 390.069L75.0545 343.797Z" fill="url(#paint5_linear_111_369)"/>
<g filter="url(#filter5_i_111_369)">
<path d="M104.057 472.861C105.017 473.302 105.654 473.885 105.968 474.61C106.281 475.336 106.241 476.125 105.85 476.979C104.992 478.847 103.55 479.316 101.522 478.385L70.1405 463.982C69.2332 463.566 68.6085 462.956 68.2664 462.153C67.9487 461.297 67.9736 460.468 68.341 459.668C68.8064 458.654 69.5841 457.944 70.6742 457.54L99.7035 445.18C103.744 443.416 106.89 441.63 109.141 439.82C111.471 437.982 113.187 435.862 114.289 433.46C115.71 430.365 115.893 427.574 114.837 425.087C113.836 422.624 111.707 420.645 108.451 419.151C105.89 417.976 103.214 417.329 100.425 417.212C97.6604 417.042 94.6631 417.378 91.4331 418.222C90.3386 418.495 89.4445 418.472 88.7507 418.154C88.1636 417.884 87.7791 417.385 87.5971 416.655C87.4395 415.872 87.5445 415.08 87.9119 414.28C88.4263 413.159 89.2696 412.448 90.4419 412.146C93.5609 411.122 96.9641 410.746 100.652 411.017C104.339 411.288 107.838 412.182 111.147 413.701C116.217 416.028 119.634 419.211 121.398 423.252C123.215 427.316 123.083 431.617 121.001 436.153C119.507 439.409 117.327 442.188 114.461 444.491C111.648 446.818 107.715 449.051 102.663 451.191L78.6796 461.214L104.057 472.861Z" fill="#FFB93A"/>
</g>
<g filter="url(#filter6_f_111_369)">
<path d="M411.793 11.7232C417.287 -0.670719 431.789 -6.26386 444.183 -0.769393L541.841 42.5244C554.235 48.0188 559.828 62.5202 554.334 74.9142L511.04 172.572C505.545 184.966 491.044 190.56 478.65 185.065L380.992 141.771C368.598 136.277 363.005 121.775 368.499 109.381L411.793 11.7232Z" fill="#C1C1C1" fill-opacity="0.6"/>
</g>
<path d="M397.4 -25.6089C402.894 -38.0029 417.396 -43.596 429.79 -38.1015L531.974 7.19884C544.368 12.6933 549.961 27.1947 544.467 39.5886L499.189 141.724C493.694 154.118 479.193 159.711 466.799 154.216L364.614 108.916C352.22 103.421 346.627 88.9199 352.122 76.526L397.4 -25.6089Z" fill="#4C129D"/>
<path fill-rule="evenodd" clip-rule="evenodd" d="M430.96 -40.7416L533.145 4.55872C546.997 10.6996 553.248 26.907 547.107 40.7591L501.829 142.894C495.688 156.746 479.48 162.997 465.628 156.856L363.444 111.556C349.592 105.415 343.341 89.2076 349.482 75.3556L394.76 -26.7793C400.901 -40.6314 417.108 -46.8825 430.96 -40.7416ZM429.79 -38.1015C417.396 -43.596 402.894 -38.0029 397.4 -25.6089L352.122 76.526C346.627 88.9199 352.22 103.421 364.614 108.916L466.799 154.216C479.193 159.711 493.694 154.118 499.189 141.724L544.467 39.5887C549.961 27.1947 544.368 12.6933 531.974 7.19886L429.79 -38.1015Z" fill="#4C129D"/>
<path d="M396 -30.152C401.494 -42.546 415.996 -48.1391 428.39 -42.6446L532.766 3.6275C545.16 9.12197 550.753 23.6234 545.259 36.0173L498.987 140.394C493.492 152.788 478.991 158.381 466.597 152.887L362.22 106.614C349.826 101.12 344.233 86.6185 349.728 74.2246L396 -30.152Z" fill="url(#paint6_linear_111_369)"/>
<path fill-rule="evenodd" clip-rule="evenodd" d="M531.01 7.58782L426.634 -38.6843C416.427 -43.2092 404.485 -38.603 399.96 -28.3963L353.688 75.9804C349.163 86.1871 353.769 98.1295 363.976 102.654L468.352 148.926C478.559 153.451 490.501 148.845 495.026 138.638L541.298 34.2618C545.823 24.055 541.217 12.1127 531.01 7.58782ZM428.389 -42.6445C415.996 -48.139 401.494 -42.5458 396 -30.1519L349.727 74.2247C344.233 86.6187 349.826 101.12 362.22 106.615L466.597 152.887C478.991 158.381 493.492 152.788 498.987 140.394L545.259 36.0174C550.753 23.6235 545.16 9.12208 532.766 3.62761L428.389 -42.6445Z" fill="url(#paint7_linear_111_369)"/>
</g>
<g filter="url(#filter7_i_111_369)">
<path d="M454.199 84.2441C455.173 84.6912 455.819 85.2824 456.136 86.0178C456.454 86.7532 456.414 87.5539 456.017 88.4197C455.595 89.3397 455.001 89.919 454.236 90.1577C453.526 90.4212 452.657 90.3171 451.628 89.8452L424.759 77.5137C423.731 77.0418 423.058 76.4381 422.741 75.7027C422.477 74.9921 422.557 74.1769 422.979 73.2569C423.376 72.391 423.957 71.8387 424.722 71.6001C425.487 71.3614 426.356 71.4656 427.33 71.9126L437.396 76.5323L457.364 33.0226L445.871 34.7252C445.314 34.7971 444.819 34.7337 444.386 34.535C443.629 34.1873 443.114 33.5251 442.841 32.5483C442.623 31.5965 442.7 30.7147 443.073 29.9029C443.594 28.7665 444.4 28.1534 445.489 28.0637L461.516 25.6902C462.709 25.5172 463.793 25.6542 464.767 26.1012C465.687 26.5235 466.308 27.1688 466.63 28.0373C466.952 28.9058 466.865 29.8812 466.368 30.9635L444.052 79.5872L454.199 84.2441Z" fill="#641BCC"/>
</g>
<g filter="url(#filter8_d_111_369)">
<path d="M126.055 384.909L126.004 384.846C118.447 375.544 105.854 357.997 105.854 335.47C105.854 308.675 122.559 288.478 134.187 276.811C131.247 272.863 128.557 268.744 126.103 264.497L125.792 263.958L125.495 263.412C114.866 243.854 110.595 222.302 110.595 200.545C110.595 165.899 123.961 135.352 148.255 111.057C175.063 84.2493 209.956 73.0329 247.224 73.0329C265.822 73.0329 283.963 75.4857 301.189 81.0352C313.668 84.8057 329.245 90.4877 341.482 100.271L348.613 105.619L352.457 108.694L353.803 109.953C359.184 114.987 365.002 121.201 369.757 128.563C374.275 135.559 380.206 147.247 380.206 162.256C380.206 182.691 369.849 199.775 363.151 209.553C361.688 211.701 360.054 213.961 358.243 216.266C367.026 224.217 374.119 233.591 379.744 243.6C391.245 263.342 395.522 285.461 395.522 307.391C395.522 329.556 390.971 351.129 380.666 370.946L380.575 371.122L380.482 371.297C370.808 389.529 357.302 405.165 339.593 416.609C326.038 425.51 311.523 432.404 296.098 436.962C281.206 441.361 265.966 443.655 250.506 443.655C235.339 443.655 220.44 441.877 205.978 438.089L205.467 437.955L204.96 437.81C192.233 434.174 179.742 429.38 168.596 422.776L167.692 422.24L166.812 421.665C159.116 416.633 151.879 411.323 145.254 405.691L144.792 405.299L144.341 404.895C139.232 400.324 133.269 394.491 128.304 387.657L126.055 384.909Z" fill="url(#paint8_linear_111_369)"/>
<path fill-rule="evenodd" clip-rule="evenodd" d="M126.055 384.908L126.004 384.845C118.446 375.544 105.854 357.997 105.854 335.47C105.854 308.675 122.559 288.478 134.187 276.811C131.247 272.863 128.557 268.743 126.103 264.496L125.792 263.958L125.495 263.412C114.866 243.854 110.595 222.301 110.595 200.545C110.595 165.899 123.96 135.351 148.255 111.057C175.063 84.2492 209.956 73.0327 247.224 73.0327C265.822 73.0327 283.963 75.4855 301.189 81.035C313.668 84.8055 329.245 90.4875 341.482 100.271L348.613 105.619L352.457 108.694L353.803 109.953C359.184 114.987 365.002 121.2 369.757 128.563C374.275 135.559 380.206 147.247 380.206 162.255C380.206 182.691 369.849 199.775 363.151 209.552C361.688 211.701 360.054 213.961 358.243 216.266C367.025 224.216 374.118 233.591 379.744 243.6C391.245 263.342 395.521 285.461 395.521 307.391C395.521 329.555 390.971 351.129 380.666 370.946L380.575 371.122L380.482 371.297C370.808 389.529 357.302 405.165 339.593 416.609C326.037 425.509 311.523 432.404 296.098 436.961C281.205 441.361 265.965 443.655 250.506 443.655C235.339 443.655 220.44 441.876 205.978 438.089L205.467 437.955L204.96 437.81C192.232 434.174 179.741 429.38 168.596 422.776L167.692 422.24L166.812 421.664C159.116 416.633 151.879 411.323 145.253 405.691L144.792 405.299L144.341 404.895C139.232 400.324 133.269 394.491 128.304 387.657L126.055 384.908ZM121.445 392.956L119.34 390.383L119.28 390.309C119.28 390.308 119.28 390.309 119.28 390.309C111.486 380.717 97.1904 361.155 97.1904 335.47C97.1904 309.054 111.438 288.725 123.019 275.974C121.47 273.632 119.998 271.248 118.602 268.831C118.602 268.831 118.602 268.831 118.602 268.831L118.234 268.195L117.883 267.549C106.425 246.466 101.931 223.426 101.931 200.545C101.931 163.487 116.292 130.767 142.128 104.931C170.899 76.1599 208.185 64.3689 247.224 64.3689C266.553 64.3689 285.581 66.9146 303.77 72.7642C316.418 76.5894 333.238 82.6269 346.784 93.4175L353.919 98.7688L358.131 102.138L359.722 103.626C365.398 108.936 371.759 115.693 377.035 123.863C382.029 131.595 388.87 144.934 388.87 162.255C388.87 185.463 377.178 204.406 370.304 214.441C370.103 214.737 369.898 215.035 369.69 215.335C376.675 222.664 382.486 230.805 387.264 239.297C399.704 260.681 404.185 284.387 404.185 307.391C404.185 330.755 399.383 353.731 388.353 374.943L388.245 375.151L388.135 375.357C377.853 394.736 363.395 411.536 344.323 423.868C330.114 433.194 314.838 440.458 298.552 445.27C282.898 449.895 266.832 452.319 250.506 452.319C234.659 452.319 219.018 450.46 203.783 446.47L203.179 446.312L202.58 446.141C189.394 442.373 176.157 437.327 164.179 430.229L163.11 429.596L162.071 428.916C154.125 423.72 146.589 418.196 139.642 412.292L139.097 411.829L138.564 411.352C138.564 411.352 138.564 411.352 138.564 411.352C133.309 406.65 126.9 400.417 121.445 392.956Z" fill="url(#paint9_linear_111_369)"/>
<path d="M126.055 384.909L126.004 384.846C118.447 375.544 105.854 357.997 105.854 335.47C105.854 308.675 122.559 288.478 134.187 276.811C131.247 272.863 128.557 268.744 126.103 264.497L125.792 263.958L125.495 263.412C114.866 243.854 110.595 222.302 110.595 200.545C110.595 165.899 123.961 135.352 148.255 111.057C175.063 84.2493 209.956 73.0329 247.224 73.0329C265.822 73.0329 283.963 75.4857 301.189 81.0352C313.668 84.8057 329.245 90.4877 341.482 100.271L348.613 105.619L352.457 108.694L353.803 109.953C359.184 114.987 365.002 121.201 369.757 128.563C374.275 135.559 380.206 147.247 380.206 162.256C380.206 182.691 369.849 199.775 363.151 209.553C361.688 211.701 360.054 213.961 358.243 216.266C367.026 224.217 374.119 233.591 379.744 243.6C391.245 263.342 395.522 285.461 395.522 307.391C395.522 329.556 390.971 351.129 380.666 370.946L380.575 371.122L380.482 371.297C370.808 389.529 357.302 405.165 339.593 416.609C326.038 425.51 311.523 432.404 296.098 436.962C281.206 441.361 265.966 443.655 250.506 443.655C235.339 443.655 220.44 441.877 205.978 438.089L205.467 437.955L204.96 437.81C192.233 434.174 179.742 429.38 168.596 422.776L167.692 422.24L166.812 421.665C159.116 416.633 151.879 411.323 145.254 405.691L144.792 405.299L144.341 404.895C139.232 400.324 133.269 394.491 128.304 387.657L126.055 384.909Z" fill="url(#paint10_linear_111_369)"/>
<path fill-rule="evenodd" clip-rule="evenodd" d="M129.367 382.114L129.408 382.166L129.418 382.177L131.736 385.01L131.809 385.111C136.512 391.586 142.218 397.182 147.23 401.667L144.341 404.895C139.232 400.324 133.269 394.491 128.304 387.657L126.055 384.909L126.004 384.846C118.447 375.544 105.854 357.997 105.854 335.47C105.854 308.675 122.559 288.478 134.187 276.811C131.247 272.863 128.557 268.744 126.103 264.497L125.792 263.958L125.495 263.412L129.301 261.343L129.571 261.84L129.854 262.329C132.229 266.44 134.828 270.419 137.662 274.224L139.894 277.222L137.255 279.869C125.792 291.371 110.186 310.492 110.186 335.47C110.186 356.418 121.927 372.958 129.367 382.114ZM301.189 81.0352C283.963 75.4857 265.822 73.0329 247.224 73.0329C209.956 73.0329 175.063 84.2493 148.255 111.057C123.961 135.352 110.595 165.899 110.595 200.545C110.595 222.302 114.866 243.854 125.495 263.412L129.301 261.343C119.086 242.547 114.927 221.739 114.927 200.545C114.927 167.105 127.795 137.644 151.318 114.12C177.144 88.294 210.841 77.3648 247.224 77.3648C265.443 77.3648 283.127 79.7676 299.861 85.1584L299.899 85.1705L299.936 85.1819C312.31 88.9206 327.217 94.4127 338.777 103.654L338.83 103.696L345.96 109.044L349.62 111.972L350.844 113.117C356.078 118.013 361.624 123.954 366.118 130.913C370.399 137.541 375.874 148.403 375.874 162.256C375.874 181.303 366.188 197.455 359.578 207.104L359.571 207.114C358.157 209.19 356.58 211.37 354.837 213.59L352.342 216.766L355.336 219.477C363.723 227.07 370.536 236.058 375.968 245.723L375.984 245.752L376.001 245.781C387.019 264.694 391.19 286.008 391.19 307.391C391.19 328.956 386.766 349.827 376.823 368.948L376.748 369.092L376.732 369.123L376.655 369.267C367.288 386.92 354.262 401.971 337.242 412.971L337.229 412.98L337.216 412.988C323.991 421.672 309.861 428.378 294.87 432.807C280.36 437.094 265.533 439.323 250.506 439.323C235.679 439.323 221.151 437.585 207.075 433.898L206.612 433.777L206.15 433.645C193.652 430.074 181.534 425.407 170.805 419.049L169.983 418.562L169.183 418.039C161.612 413.089 154.525 407.886 148.059 402.39L147.64 402.034L147.23 401.667L144.341 404.895L144.792 405.299L145.254 405.691C151.879 411.323 159.116 416.633 166.812 421.665L167.692 422.24L168.596 422.776C179.742 429.38 192.233 434.174 204.96 437.81L205.467 437.955L205.978 438.089C220.44 441.877 235.339 443.655 250.506 443.655C265.966 443.655 281.206 441.361 296.098 436.962C311.523 432.404 326.038 425.51 339.593 416.609C357.302 405.165 370.808 389.529 380.482 371.297L380.575 371.122L380.666 370.946C390.971 351.129 395.522 329.556 395.522 307.391C395.522 285.461 391.245 263.342 379.744 243.6C374.119 233.591 367.026 224.217 358.243 216.266C360.054 213.961 361.688 211.701 363.152 209.553C369.849 199.775 380.206 182.691 380.206 162.256C380.206 147.247 374.275 135.559 369.757 128.563C365.002 121.201 359.184 114.987 353.803 109.953L352.457 108.694L348.613 105.619L341.482 100.271C329.245 90.4877 313.668 84.8057 301.189 81.0352Z" fill="url(#paint11_linear_111_369)"/>
<g filter="url(#filter9_d_111_369)">
<path d="M162.991 358.23C156.67 350.451 153.51 344.009 153.51 338.903C153.51 331.61 158.737 322.858 169.19 312.648C175.268 306.813 181.346 303.896 187.423 303.896C194.96 303.896 204.198 309.366 215.138 320.306L216.961 322.129C217.933 323.344 219.392 324.925 221.337 326.87C223.282 328.814 227.05 331.489 232.641 334.892C238.233 338.052 243.703 339.633 249.051 339.633C271.66 339.633 282.965 330.395 282.965 311.918C282.965 306.327 279.804 301.708 273.484 298.061C267.406 294.171 259.748 291.376 250.51 289.674C241.272 287.972 231.304 285.298 220.608 281.651C209.911 277.762 199.943 273.264 190.705 268.159C181.467 263.054 173.688 255.031 167.367 244.091C161.289 232.908 158.25 219.537 158.25 203.978C158.25 182.585 166.151 163.987 181.953 148.185C197.999 132.14 219.757 124.117 247.228 124.117C261.814 124.117 275.064 126.062 286.976 129.952C299.131 133.599 307.519 137.367 312.138 141.257L319.431 146.726L321.254 148.185C328.791 155.235 332.559 161.07 332.559 165.689C332.559 170.794 329.642 177.601 323.807 186.11C315.541 198.265 307.032 204.343 298.281 204.343C293.175 204.343 286.854 201.912 279.318 197.05C278.589 196.564 277.13 195.348 274.942 193.403C272.997 191.458 271.174 190 269.472 189.027C267.771 187.812 264.853 186.718 260.72 185.745C256.831 184.53 252.212 183.922 246.863 183.922C241.029 183.922 235.437 185.867 230.089 189.757C224.984 193.403 222.431 198.265 222.431 204.343C222.431 211.636 225.47 217.349 231.547 221.482C237.868 225.615 245.648 228.411 254.886 229.869C264.124 231.328 274.213 233.638 285.153 236.798C296.093 239.715 306.182 243.362 315.42 247.738C324.658 252.114 332.316 259.772 338.393 270.712C344.714 281.408 347.875 294.779 347.875 310.824C347.875 326.383 344.714 340.24 338.393 352.396C332.073 364.308 323.807 373.546 313.596 380.11C303.629 386.674 293.297 391.536 282.6 394.697C271.903 397.857 261.207 399.437 250.51 399.437C239.084 399.437 228.265 398.1 218.055 395.426C207.844 392.509 199.457 389.105 192.893 385.215C186.572 381.083 180.981 376.95 176.119 372.817C171.5 368.684 168.218 365.159 166.273 362.242L162.991 358.23Z" fill="url(#paint12_linear_111_369)"/>
</g>
<path d="M162.987 344.296C156.666 336.517 153.506 330.075 153.506 324.969C153.506 317.676 158.733 308.924 169.186 298.714C175.264 292.879 181.342 289.962 187.419 289.962C194.956 289.962 204.194 295.432 215.134 306.372L216.957 308.195C217.929 309.41 219.388 310.991 221.333 312.935C223.278 314.88 227.046 317.554 232.638 320.958C238.229 324.118 243.699 325.699 249.047 325.699C271.656 325.699 282.961 316.46 282.961 297.984C282.961 292.393 279.8 287.774 273.48 284.127C267.402 280.237 259.744 277.442 250.506 275.74C241.268 274.038 231.3 271.364 220.604 267.717C209.907 263.828 199.939 259.33 190.701 254.225C181.463 249.12 173.684 241.097 167.363 230.157C161.285 218.974 158.246 205.603 158.246 190.044C158.246 168.651 166.147 150.053 181.949 134.251C197.995 118.206 219.753 110.183 247.224 110.183C261.81 110.183 275.06 112.128 286.972 116.018C299.128 119.665 307.515 123.433 312.134 127.322L319.427 132.792L321.25 134.251C328.787 141.301 332.555 147.136 332.555 151.755C332.555 156.86 329.638 163.667 323.803 172.176C315.537 184.331 307.029 190.409 298.277 190.409C293.171 190.409 286.851 187.978 279.314 183.116C278.585 182.63 277.126 181.414 274.938 179.469C272.993 177.524 271.17 176.066 269.468 175.093C267.767 173.878 264.849 172.784 260.716 171.811C256.827 170.596 252.208 169.988 246.859 169.988C241.025 169.988 235.433 171.933 230.085 175.823C224.98 179.469 222.427 184.331 222.427 190.409C222.427 197.702 225.466 203.415 231.544 207.548C237.864 211.681 245.644 214.477 254.882 215.935C264.12 217.394 274.209 219.704 285.149 222.864C296.089 225.781 306.178 229.428 315.416 233.804C324.654 238.18 332.312 245.838 338.389 256.777C344.71 267.474 347.871 280.845 347.871 296.89C347.871 312.449 344.71 326.306 338.389 338.462C332.069 350.374 323.803 359.612 313.592 366.176C303.625 372.74 293.293 377.602 282.596 380.763C271.899 383.923 261.203 385.503 250.506 385.503C239.08 385.503 228.262 384.166 218.051 381.492C207.84 378.575 199.453 375.171 192.889 371.281C186.569 367.148 180.977 363.016 176.115 358.883C171.496 354.75 168.214 351.225 166.269 348.308L162.987 344.296Z" fill="url(#paint13_radial_111_369)"/>
<g filter="url(#filter10_i_111_369)">
<path d="M162.987 344.296C156.666 336.517 153.506 330.075 153.506 324.969C153.506 317.676 158.733 308.924 169.186 298.714C175.264 292.879 181.342 289.962 187.419 289.962C194.956 289.962 204.194 295.432 215.134 306.372L216.957 308.195C217.929 309.41 219.388 310.991 221.333 312.935C223.278 314.88 227.046 317.554 232.638 320.958C238.229 324.118 243.699 325.699 249.047 325.699C271.656 325.699 282.961 316.46 282.961 297.984C282.961 292.393 279.8 287.774 273.48 284.127C267.402 280.237 259.744 277.442 250.506 275.74C241.268 274.038 231.3 271.364 220.604 267.717C209.907 263.828 199.939 259.33 190.701 254.225C181.463 249.12 173.684 241.097 167.363 230.157C161.285 218.974 158.246 205.603 158.246 190.044C158.246 168.651 166.147 150.053 181.949 134.251C197.995 118.206 219.753 110.183 247.224 110.183C261.81 110.183 275.06 112.128 286.972 116.018C299.128 119.665 307.515 123.433 312.134 127.322L319.427 132.792L321.25 134.251C328.787 141.301 332.555 147.136 332.555 151.755C332.555 156.86 329.638 163.667 323.803 172.176C315.537 184.331 307.029 190.409 298.277 190.409C293.171 190.409 286.851 187.978 279.314 183.116C278.585 182.63 277.126 181.414 274.938 179.469C272.993 177.524 271.17 176.066 269.468 175.093C267.767 173.878 264.849 172.784 260.716 171.811C256.827 170.596 252.208 169.988 246.859 169.988C241.025 169.988 235.433 171.933 230.085 175.823C224.98 179.469 222.427 184.331 222.427 190.409C222.427 197.702 225.466 203.415 231.544 207.548C237.864 211.681 245.644 214.477 254.882 215.935C264.12 217.394 274.209 219.704 285.149 222.864C296.089 225.781 306.178 229.428 315.416 233.804C324.654 238.18 332.312 245.838 338.389 256.777C344.71 267.474 347.871 280.845 347.871 296.89C347.871 312.449 344.71 326.306 338.389 338.462C332.069 350.374 323.803 359.612 313.592 366.176C303.625 372.74 293.293 377.602 282.596 380.763C271.899 383.923 261.203 385.503 250.506 385.503C239.08 385.503 228.262 384.166 218.051 381.492C207.84 378.575 199.453 375.171 192.889 371.281C186.569 367.148 180.977 363.016 176.115 358.883C171.496 354.75 168.214 351.225 166.269 348.308L162.987 344.296Z" fill="white" fill-opacity="0.06"/>
<path d="M162.987 344.296C156.666 336.517 153.506 330.075 153.506 324.969C153.506 317.676 158.733 308.924 169.186 298.714C175.264 292.879 181.342 289.962 187.419 289.962C194.956 289.962 204.194 295.432 215.134 306.372L216.957 308.195C217.929 309.41 219.388 310.991 221.333 312.935C223.278 314.88 227.046 317.554 232.638 320.958C238.229 324.118 243.699 325.699 249.047 325.699C271.656 325.699 282.961 316.46 282.961 297.984C282.961 292.393 279.8 287.774 273.48 284.127C267.402 280.237 259.744 277.442 250.506 275.74C241.268 274.038 231.3 271.364 220.604 267.717C209.907 263.828 199.939 259.33 190.701 254.225C181.463 249.12 173.684 241.097 167.363 230.157C161.285 218.974 158.246 205.603 158.246 190.044C158.246 168.651 166.147 150.053 181.949 134.251C197.995 118.206 219.753 110.183 247.224 110.183C261.81 110.183 275.06 112.128 286.972 116.018C299.128 119.665 307.515 123.433 312.134 127.322L319.427 132.792L321.25 134.251C328.787 141.301 332.555 147.136 332.555 151.755C332.555 156.86 329.638 163.667 323.803 172.176C315.537 184.331 307.029 190.409 298.277 190.409C293.171 190.409 286.851 187.978 279.314 183.116C278.585 182.63 277.126 181.414 274.938 179.469C272.993 177.524 271.17 176.066 269.468 175.093C267.767 173.878 264.849 172.784 260.716 171.811C256.827 170.596 252.208 169.988 246.859 169.988C241.025 169.988 235.433 171.933 230.085 175.823C224.98 179.469 222.427 184.331 222.427 190.409C222.427 197.702 225.466 203.415 231.544 207.548C237.864 211.681 245.644 214.477 254.882 215.935C264.12 217.394 274.209 219.704 285.149 222.864C296.089 225.781 306.178 229.428 315.416 233.804C324.654 238.18 332.312 245.838 338.389 256.777C344.71 267.474 347.871 280.845 347.871 296.89C347.871 312.449 344.71 326.306 338.389 338.462C332.069 350.374 323.803 359.612 313.592 366.176C303.625 372.74 293.293 377.602 282.596 380.763C271.899 383.923 261.203 385.503 250.506 385.503C239.08 385.503 228.262 384.166 218.051 381.492C207.84 378.575 199.453 375.171 192.889 371.281C186.569 367.148 180.977 363.016 176.115 358.883C171.496 354.75 168.214 351.225 166.269 348.308L162.987 344.296Z" fill="url(#paint14_linear_111_369)"/>
</g>
<path fill-rule="evenodd" clip-rule="evenodd" d="M232.638 320.958C227.046 317.554 223.278 314.88 221.333 312.935C219.388 310.991 217.929 309.41 216.957 308.195L215.134 306.372C204.194 295.432 194.956 289.962 187.419 289.962C181.342 289.962 175.264 292.879 169.186 298.714C158.733 308.924 153.506 317.676 153.506 324.969C153.506 330.075 156.666 336.517 162.987 344.296L166.269 348.308C168.214 351.225 171.496 354.75 176.115 358.883C180.977 363.016 186.569 367.148 192.889 371.281C199.453 375.171 207.84 378.575 218.051 381.492C228.262 384.166 239.08 385.503 250.506 385.503C261.203 385.503 271.899 383.923 282.596 380.763C293.293 377.602 303.625 372.74 313.592 366.176C323.803 359.612 332.069 350.374 338.389 338.462C344.71 326.306 347.871 312.449 347.871 296.89C347.871 280.845 344.71 267.474 338.389 256.777C332.312 245.838 324.654 238.18 315.416 233.804C306.178 229.428 296.089 225.781 285.149 222.864C274.209 219.704 264.12 217.394 254.882 215.935C245.644 214.477 237.864 211.681 231.544 207.548C225.466 203.415 222.427 197.702 222.427 190.409C222.427 184.331 224.98 179.469 230.085 175.823C235.433 171.933 241.025 169.988 246.859 169.988C252.208 169.988 256.827 170.596 260.716 171.811C264.849 172.784 267.767 173.878 269.468 175.093C271.17 176.066 272.993 177.524 274.938 179.469C277.126 181.414 278.585 182.63 279.314 183.116C286.851 187.978 293.171 190.409 298.277 190.409C307.029 190.409 315.537 184.331 323.803 172.176C329.638 163.667 332.555 156.86 332.555 151.755C332.555 147.136 328.787 141.301 321.25 134.251L319.427 132.792L312.134 127.322C307.515 123.433 299.128 119.665 286.972 116.018C275.06 112.128 261.81 110.183 247.224 110.183C219.753 110.183 197.995 118.206 181.949 134.251C166.147 150.053 158.246 168.651 158.246 190.044C158.246 205.603 161.285 218.974 167.363 230.157C173.684 241.097 181.463 249.12 190.701 254.225C199.939 259.33 209.907 263.828 220.604 267.717C231.3 271.364 241.268 274.038 250.506 275.74C259.744 277.442 267.402 280.237 273.48 284.127C279.8 287.774 282.961 292.393 282.961 297.984C282.961 316.46 271.656 325.699 249.047 325.699C243.699 325.699 238.229 324.118 232.638 320.958ZM277.233 277.958C284.927 282.442 290.181 289.077 290.181 297.984C290.181 308.763 286.812 318.018 279.051 324.361C271.569 330.475 261.151 332.918 249.047 332.918C242.226 332.918 235.543 330.893 229.085 327.243L228.983 327.186L228.884 327.125C223.288 323.719 218.846 320.659 216.228 318.041C214.357 316.17 212.779 314.486 211.587 313.035L210.029 311.477C204.816 306.264 200.248 302.601 196.322 300.277C192.369 297.936 189.457 297.182 187.419 297.182C183.83 297.182 179.457 298.869 174.208 303.901C163.949 313.927 160.726 320.837 160.726 324.969C160.726 327.434 162.456 332.191 168.583 339.734C168.586 339.737 168.588 339.74 168.591 339.744L172.08 344.009L172.276 344.303C173.712 346.457 176.446 349.485 180.861 353.441C185.406 357.299 190.68 361.204 196.704 365.15C202.543 368.588 210.239 371.746 219.957 374.528C229.501 377.02 239.676 378.283 250.506 378.283C260.481 378.283 270.489 376.811 280.55 373.839C290.519 370.893 300.207 366.346 309.622 360.146L309.655 360.124L309.688 360.103C318.738 354.285 326.194 346.033 331.998 335.103C337.706 324.115 340.651 311.436 340.651 296.89C340.651 281.769 337.672 269.755 332.174 260.45L332.125 260.368L332.078 260.284C326.566 250.361 319.92 243.926 312.325 240.329C303.522 236.159 293.85 232.656 283.289 229.84L283.217 229.821L283.145 229.8C272.434 226.706 262.642 224.47 253.756 223.067C243.744 221.486 234.946 218.399 227.592 213.591L227.538 213.555L227.484 213.518C219.448 208.054 215.207 200.115 215.207 190.409C215.207 181.923 218.949 174.915 225.862 169.966C232.267 165.315 239.309 162.768 246.859 162.768C252.62 162.768 257.913 163.407 262.615 164.841C266.671 165.81 270.517 167.082 273.345 168.996C275.614 170.336 277.793 172.132 279.886 174.207C280.879 175.088 281.678 175.779 282.295 176.293C282.619 176.562 282.872 176.767 283.063 176.915C283.199 177.021 283.277 177.078 283.308 177.1C290.407 181.668 295.269 183.189 298.277 183.189C303.372 183.189 309.994 179.644 317.833 168.116L317.841 168.104L317.849 168.093C323.553 159.774 325.335 154.53 325.335 151.755C325.335 151.369 325.149 150.131 323.664 147.832C322.242 145.63 319.932 142.925 316.518 139.711L315.005 138.501L307.639 132.976L307.483 132.845C304.072 129.973 296.921 126.54 284.898 122.933L284.814 122.908L284.731 122.881C273.65 119.263 261.171 117.403 247.224 117.403C221.237 117.403 201.469 124.942 187.055 139.356C172.539 153.872 165.466 170.659 165.466 190.044C165.466 204.624 168.303 216.729 173.662 226.627C179.447 236.612 186.334 243.562 194.194 247.906C203.059 252.805 212.658 257.142 223.003 260.907C233.404 264.45 243.003 267.016 251.814 268.639C261.643 270.45 270.196 273.486 277.233 277.958Z" fill="url(#paint15_linear_111_369)"/>
</g>
</g>
<defs>
<filter id="filter0_f_111_369" x="359.306" y="350.756" width="218.06" height="218.059" filterUnits="userSpaceOnUse" color-interpolation-filters="sRGB">
<feFlood flood-opacity="0" result="BackgroundImageFix"/>
<feBlend mode="normal" in="SourceGraphic" in2="BackgroundImageFix" result="shape"/>
<feGaussianBlur stdDeviation="7" result="effect1_foregroundBlur_111_369"/>
</filter>
<filter id="filter1_i_111_369" x="425.742" y="395.1" width="54.0947" height="62.7877" filterUnits="userSpaceOnUse" color-interpolation-filters="sRGB">
<feFlood flood-opacity="0" result="BackgroundImageFix"/>
<feBlend mode="normal" in="SourceGraphic" in2="BackgroundImageFix" result="shape"/>
<feColorMatrix in="SourceAlpha" type="matrix" values="0 0 0 0 0 0 0 0 0 0 0 0 0 0 0 0 0 0 127 0" result="hardAlpha"/>
<feOffset dy="1"/>
<feGaussianBlur stdDeviation="2"/>
<feComposite in2="hardAlpha" operator="arithmetic" k2="-1" k3="1"/>
<feColorMatrix type="matrix" values="0 0 0 0 0 0 0 0 0 0 0 0 0 0 0 0 0 0 0.08 0"/>
<feBlend mode="normal" in2="shape" result="effect1_innerShadow_111_369"/>
</filter>
<filter id="filter2_f_111_369" x="-79.2949" y="129.295" width="218.06" height="218.059" filterUnits="userSpaceOnUse" color-interpolation-filters="sRGB">
<feFlood flood-opacity="0" result="BackgroundImageFix"/>
<feBlend mode="normal" in="SourceGraphic" in2="BackgroundImageFix" result="shape"/>
<feGaussianBlur stdDeviation="7" result="effect1_foregroundBlur_111_369"/>
</filter>
<filter id="filter3_i_111_369" x="-5.16211" y="172.194" width="54.1377" height="62.7878" filterUnits="userSpaceOnUse" color-interpolation-filters="sRGB">
<feFlood flood-opacity="0" result="BackgroundImageFix"/>
<feBlend mode="normal" in="SourceGraphic" in2="BackgroundImageFix" result="shape"/>
<feColorMatrix in="SourceAlpha" type="matrix" values="0 0 0 0 0 0 0 0 0 0 0 0 0 0 0 0 0 0 127 0" result="hardAlpha"/>
<feOffset dy="1"/>
<feGaussianBlur stdDeviation="2"/>
<feComposite in2="hardAlpha" operator="arithmetic" k2="-1" k3="1"/>
<feColorMatrix type="matrix" values="0 0 0 0 0 0 0 0 0 0 0 0 0 0 0 0 0 0 0.08 0"/>
<feBlend mode="normal" in2="shape" result="effect1_innerShadow_111_369"/>
</filter>
<filter id="filter4_f_111_369" x="-0.948242" y="369.559" width="218.06" height="218.059" filterUnits="userSpaceOnUse" color-interpolation-filters="sRGB">
<feFlood flood-opacity="0" result="BackgroundImageFix"/>
<feBlend mode="normal" in="SourceGraphic" in2="BackgroundImageFix" result="shape"/>
<feGaussianBlur stdDeviation="7" result="effect1_foregroundBlur_111_369"/>
</filter>
<filter id="filter5_i_111_369" x="68.0459" y="410.931" width="54.6221" height="68.9176" filterUnits="userSpaceOnUse" color-interpolation-filters="sRGB">
<feFlood flood-opacity="0" result="BackgroundImageFix"/>
<feBlend mode="normal" in="SourceGraphic" in2="BackgroundImageFix" result="shape"/>
<feColorMatrix in="SourceAlpha" type="matrix" values="0 0 0 0 0 0 0 0 0 0 0 0 0 0 0 0 0 0 127 0" result="hardAlpha"/>
<feOffset dy="1"/>
<feGaussianBlur stdDeviation="2"/>
<feComposite in2="hardAlpha" operator="arithmetic" k2="-1" k3="1"/>
<feColorMatrix type="matrix" values="0 0 0 0 0 0 0 0 0 0 0 0 0 0 0 0 0 0 0.08 0"/>
<feBlend mode="normal" in2="shape" result="effect1_innerShadow_111_369"/>
</filter>
<filter id="filter6_f_111_369" x="352.387" y="-16.8819" width="218.06" height="218.059" filterUnits="userSpaceOnUse" color-interpolation-filters="sRGB">
<feFlood flood-opacity="0" result="BackgroundImageFix"/>
<feBlend mode="normal" in="SourceGraphic" in2="BackgroundImageFix" result="shape"/>
<feGaussianBlur stdDeviation="7" result="effect1_foregroundBlur_111_369"/>
</filter>
<filter id="filter7_i_111_369" x="422.589" y="25.6178" width="44.2314" height="65.6816" filterUnits="userSpaceOnUse" color-interpolation-filters="sRGB">
<feFlood flood-opacity="0" result="BackgroundImageFix"/>
<feBlend mode="normal" in="SourceGraphic" in2="BackgroundImageFix" result="shape"/>
<feColorMatrix in="SourceAlpha" type="matrix" values="0 0 0 0 0 0 0 0 0 0 0 0 0 0 0 0 0 0 127 0" result="hardAlpha"/>
<feOffset dy="1"/>
<feGaussianBlur stdDeviation="2"/>
<feComposite in2="hardAlpha" operator="arithmetic" k2="-1" k3="1"/>
<feColorMatrix type="matrix" values="0 0 0 0 0 0 0 0 0 0 0 0 0 0 0 0 0 0 0.08 0"/>
<feBlend mode="normal" in2="shape" result="effect1_innerShadow_111_369"/>
</filter>
<filter id="filter8_d_111_369" x="48.1904" y="11.3689" width="404.995" height="485.95" filterUnits="userSpaceOnUse" color-interpolation-filters="sRGB">
<feFlood flood-opacity="0" result="BackgroundImageFix"/>
<feColorMatrix in="SourceAlpha" type="matrix" values="0 0 0 0 0 0 0 0 0 0 0 0 0 0 0 0 0 0 127 0" result="hardAlpha"/>
<feOffset dy="-4"/>
<feGaussianBlur stdDeviation="24.5"/>
<feColorMatrix type="matrix" values="0 0 0 0 1 0 0 0 0 1 0 0 0 0 1 0 0 0 1 0"/>
<feBlend mode="normal" in2="BackgroundImageFix" result="effect1_dropShadow_111_369"/>
<feBlend mode="normal" in="SourceGraphic" in2="effect1_dropShadow_111_369" result="shape"/>
</filter>
<filter id="filter9_d_111_369" x="147.51" y="120.117" width="206.365" height="287.32" filterUnits="userSpaceOnUse" color-interpolation-filters="sRGB">
<feFlood flood-opacity="0" result="BackgroundImageFix"/>
<feColorMatrix in="SourceAlpha" type="matrix" values="0 0 0 0 0 0 0 0 0 0 0 0 0 0 0 0 0 0 127 0" result="hardAlpha"/>
<feOffset dy="2"/>
<feGaussianBlur stdDeviation="3"/>
<feColorMatrix type="matrix" values="0 0 0 0 0.131354 0 0 0 0 0.1391 0 0 0 0 0.325 0 0 0 0.2 0"/>
<feBlend mode="normal" in2="BackgroundImageFix" result="effect1_dropShadow_111_369"/>
<feBlend mode="normal" in="SourceGraphic" in2="effect1_dropShadow_111_369" result="shape"/>
</filter>
<filter id="filter10_i_111_369" x="153.506" y="110.183" width="194.365" height="276.32" filterUnits="userSpaceOnUse" color-interpolation-filters="sRGB">
<feFlood flood-opacity="0" result="BackgroundImageFix"/>
<feBlend mode="normal" in="SourceGraphic" in2="BackgroundImageFix" result="shape"/>
<feColorMatrix in="SourceAlpha" type="matrix" values="0 0 0 0 0 0 0 0 0 0 0 0 0 0 0 0 0 0 127 0" result="hardAlpha"/>
<feOffset dy="1"/>
<feGaussianBlur stdDeviation="5"/>
<feComposite in2="hardAlpha" operator="arithmetic" k2="-1" k3="1"/>
<feColorMatrix type="matrix" values="0 0 0 0 0.325 0 0 0 0 0.325 0 0 0 0 0.325 0 0 0 0.69 0"/>
<feBlend mode="screen" in2="shape" result="effect1_innerShadow_111_369"/>
</filter>
<linearGradient id="paint0_linear_111_369" x1="474.041" y1="23.1616" x2="178.37" y2="510.314" gradientUnits="userSpaceOnUse">
<stop stop-color="#FAFDFF"/>
<stop offset="0.479167" stop-color="white"/>
<stop offset="1" stop-color="#FCFEFF"/>
</linearGradient>
<linearGradient id="paint1_linear_111_369" x1="475.934" y1="327.318" x2="475.934" y2="468.106" gradientUnits="userSpaceOnUse">
<stop stop-color="#CECECE"/>
<stop offset="1" stop-color="#D1D1D1" stop-opacity="0"/>
</linearGradient>
<linearGradient id="paint2_linear_111_369" x1="38.4229" y1="154.199" x2="-7.48747" y2="275.961" gradientUnits="userSpaceOnUse">
<stop stop-color="#FF77B8"/>
<stop offset="0.812394" stop-color="#FF006D"/>
</linearGradient>
<linearGradient id="paint3_linear_111_369" x1="-1.6551" y1="71.2019" x2="23.6144" y2="240.869" gradientUnits="userSpaceOnUse">
<stop stop-color="white"/>
<stop offset="1" stop-color="white" stop-opacity="0"/>
</linearGradient>
<linearGradient id="paint4_linear_111_369" x1="110.169" y1="399.727" x2="64.2591" y2="503.525" gradientUnits="userSpaceOnUse">
<stop stop-color="#FFE380"/>
<stop offset="1" stop-color="#FFC319"/>
</linearGradient>
<linearGradient id="paint5_linear_111_369" x1="76.6923" y1="311.467" x2="101.962" y2="481.134" gradientUnits="userSpaceOnUse">
<stop stop-color="white"/>
<stop offset="1" stop-color="white" stop-opacity="0"/>
</linearGradient>
<linearGradient id="paint6_linear_111_369" x1="464.592" y1="37.4267" x2="447.493" y2="154.999" gradientUnits="userSpaceOnUse">
<stop stop-color="#A670FF"/>
<stop offset="1" stop-color="#7B1DFF"/>
</linearGradient>
<linearGradient id="paint7_linear_111_369" x1="430.027" y1="-74.9747" x2="455.297" y2="94.6922" gradientUnits="userSpaceOnUse">
<stop stop-color="white"/>
<stop offset="1" stop-color="white" stop-opacity="0"/>
</linearGradient>
<linearGradient id="paint8_linear_111_369" x1="243.032" y1="73.0329" x2="250.252" y2="444.134" gradientUnits="userSpaceOnUse">
<stop offset="0.0260417" stop-color="#418AFF"/>
<stop offset="0.473958" stop-color="#2D7AF5"/>
<stop offset="1" stop-color="#114DAC"/>
</linearGradient>
<linearGradient id="paint9_linear_111_369" x1="250.688" y1="73.0327" x2="250.688" y2="443.655" gradientUnits="userSpaceOnUse">
<stop stop-color="#E7E1E1"/>
<stop offset="1" stop-color="#A0A0A0"/>
</linearGradient>
<linearGradient id="paint10_linear_111_369" x1="326.783" y1="145.232" x2="250.252" y2="462.906" gradientUnits="userSpaceOnUse">
<stop stop-color="#2C7DFF"/>
<stop offset="0.223958" stop-color="#26BEFF"/>
<stop offset="0.609893" stop-color="#267AFF"/>
<stop offset="1" stop-color="#0C4BAF"/>
</linearGradient>
<linearGradient id="paint11_linear_111_369" x1="316.879" y1="111.283" x2="228.592" y2="405.147" gradientUnits="userSpaceOnUse">
<stop stop-color="#09ACFF"/>
<stop offset="1" stop-color="#175FD2"/>
</linearGradient>
<linearGradient id="paint12_linear_111_369" x1="905.495" y1="124.117" x2="905.495" y2="400.167" gradientUnits="userSpaceOnUse">
<stop offset="0.046875" stop-color="#202B45"/>
<stop offset="0.338542" stop-color="#D4D6DB"/>
<stop offset="1" stop-color="#33436D"/>
</linearGradient>
<radialGradient id="paint13_radial_111_369" cx="0" cy="0" r="1" gradientUnits="userSpaceOnUse" gradientTransform="translate(905.492 143.948) rotate(89.795) scale(254.576 1386.98)">
<stop stop-color="white"/>
<stop offset="1" stop-color="#D5D5D5"/>
</radialGradient>
<linearGradient id="paint14_linear_111_369" x1="250.252" y1="140.507" x2="224.261" y2="414.862" gradientUnits="userSpaceOnUse">
<stop stop-color="#EFEFEF"/>
<stop offset="0.859708" stop-color="#E4E4E4"/>
<stop offset="1" stop-color="#878282"/>
</linearGradient>
<linearGradient id="paint15_linear_111_369" x1="905.491" y1="110.183" x2="905.491" y2="386.233" gradientUnits="userSpaceOnUse">
<stop stop-color="#FCFCFC"/>
<stop offset="0.557292" stop-color="white" stop-opacity="0.04"/>
<stop offset="1" stop-color="white" stop-opacity="0.52"/>
</linearGradient>
<clipPath id="clip0_111_369">
<rect width="512" height="512" fill="white"/>
</clipPath>
</defs>
</svg>
