<svg width="180" height="180" viewBox="0 0 180 180" fill="none" xmlns="http://www.w3.org/2000/svg">
<g clip-path="url(#clip0_111_1103)">
<rect width="180" height="180" fill="white"/>
<rect x="0.00976562" width="180.7" height="179.65" fill="url(#paint0_linear_111_1103)"/>
<mask id="mask0_111_1103" style="mask-type:alpha" maskUnits="userSpaceOnUse" x="0" y="0" width="181" height="180">
<path d="M180.71 179.65H0.00976562V151.354V27.2808V0H180.71V27.2808V151.354V179.65Z" fill="#008C62"/>
</mask>
<g mask="url(#mask0_111_1103)">
<g opacity="0.5">
<path opacity="0.5" d="M189.069 3.77342L153.285 -12.2636C147.873 -14.6913 145.441 -21.0679 147.869 -26.4799L163.906 -62.2639C166.333 -67.6759 172.71 -70.1079 178.125 -67.6841L213.909 -51.6471C219.321 -49.2194 221.753 -42.8428 219.325 -37.4308L203.288 -1.64683C200.86 3.76517 194.484 6.19719 189.069 3.77342ZM177.396 -66.0554C172.882 -68.0794 167.565 -66.051 165.541 -61.5368L149.504 -25.7528C147.48 -21.2386 149.506 -15.9177 154.02 -13.8936L189.804 2.14339C194.318 4.16743 199.635 2.13898 201.659 -2.37522L217.696 -38.1592C219.72 -42.6734 217.694 -47.9943 213.18 -50.0183L177.396 -66.0554Z" fill="#C8C8C8"/>
<path opacity="0.5" d="M57.3863 9.33984L21.6023 -6.6972C16.1903 -9.12492 13.7583 -15.5015 16.186 -20.9135L32.223 -56.6975C34.6508 -62.1094 41.0274 -64.5415 46.4421 -62.1177L82.226 -46.0807C87.638 -43.653 90.07 -37.2764 87.6423 -31.8644L71.6053 3.91956C69.1748 9.33552 62.7983 11.7676 57.3863 9.33984ZM45.711 -60.485C41.1968 -62.509 35.8798 -60.4806 33.8558 -55.9664L17.8188 -20.1824C15.7947 -15.6682 17.8205 -10.3473 22.3347 -8.32327L58.1186 7.71375C62.6328 9.73779 67.9498 7.70936 69.9738 3.19516L86.0108 -32.5888C88.0349 -37.103 86.0091 -42.4239 81.4949 -44.4479L45.711 -60.485Z" fill="#C8C8C8"/>
<path opacity="0.5" d="M111.175 33.4487L75.3914 17.4117C69.9794 14.9839 67.5473 8.60736 69.9751 3.19536L86.0121 -32.5886C88.4398 -38.0006 94.8164 -40.4326 100.231 -38.0089L136.015 -21.9718C141.427 -19.5441 143.859 -13.1675 141.431 -7.75552L125.394 28.0284C122.964 33.4444 116.587 35.8764 111.175 33.4487ZM99.5001 -36.3761C94.9859 -38.4001 89.6689 -36.3717 87.6449 -31.8575L71.6078 3.92644C69.5838 8.44064 71.6095 13.7615 76.1237 15.7856L111.908 31.8226C116.422 33.8467 121.739 31.8182 123.763 27.304L139.8 -8.47992C141.824 -12.9941 139.798 -18.315 135.284 -20.3391L99.5001 -36.3761Z" fill="#C8C8C8"/>
<path opacity="0.5" d="M164.959 57.554L129.176 41.5169C123.764 39.0892 121.332 32.7126 123.759 27.3006L139.796 -8.48333C142.224 -13.8953 148.601 -16.3274 154.015 -13.9036L189.799 2.13342C195.211 4.56115 197.643 10.9377 195.216 16.3497L179.179 52.1337C176.752 57.5524 170.375 59.9844 164.959 57.554ZM153.288 -12.2681C148.774 -14.2922 143.457 -12.2637 141.433 -7.74955L125.396 28.0344C123.372 32.5486 125.398 37.8695 129.912 39.8936L165.696 55.9306C170.21 57.9546 175.527 55.9262 177.551 51.412L193.588 15.628C195.612 11.1138 193.586 5.79292 189.072 3.76888L153.288 -12.2681Z" fill="#C8C8C8"/>
<path opacity="0.5" d="M218.744 81.6665L182.96 65.6295C177.548 63.2017 175.116 56.8251 177.543 51.4131L193.58 15.6292C196.008 10.2172 202.385 7.78517 207.8 10.2089L243.583 26.246C248.995 28.6737 251.427 35.0503 249 40.4623L232.963 76.2462C230.539 81.6609 224.158 84.0903 218.744 81.6665ZM207.071 11.8377C202.557 9.81366 197.24 11.8421 195.216 16.3563L179.179 52.1403C177.155 56.6545 179.181 61.9754 183.695 63.9994L219.479 80.0364C223.993 82.0605 229.31 80.0321 231.334 75.5179L247.371 39.7339C249.395 35.2197 247.369 29.8988 242.855 27.8748L207.071 11.8377Z" fill="#C8C8C8"/>
<path opacity="0.5" fill-rule="evenodd" clip-rule="evenodd" d="M-56.2924 22.9817L-20.5085 39.0188C-15.0965 41.4465 -8.71594 39.0172 -6.28947 33.5985L9.74756 -2.18544C12.1753 -7.59743 9.74323 -13.974 4.33123 -16.4018L-31.4527 -32.4388C-35.4758 -34.2397 -40.03 -33.3599 -43.1009 -30.5689C-43.0585 -34.7193 -45.4348 -38.706 -49.4578 -40.5107L-85.2418 -56.5477C-90.6565 -58.9714 -97.0331 -56.5394 -99.4608 -51.1274L-115.498 -15.3435C-117.926 -9.93146 -115.494 -3.55485 -110.082 -1.12712L-74.2976 14.9099C-70.2766 16.7137 -65.7208 15.8362 -62.6495 13.0436C-62.6905 17.1927 -60.3143 21.1776 -56.2924 22.9817ZM-44.039 -26.2874C-42.0149 -30.8016 -36.698 -32.8301 -32.1838 -30.806L3.60017 -14.769C8.11437 -12.745 10.1401 -7.42405 8.11609 -2.90985L-7.92095 32.8741C-9.94499 37.3883 -15.2619 39.4167 -19.7762 37.3927L-55.5601 21.3556C-60.0743 19.3316 -62.1 14.0107 -60.076 9.49651L-44.039 -26.2874ZM-97.8281 -50.3963C-95.804 -54.9105 -90.4871 -56.9389 -85.9729 -54.9149L-50.1889 -38.8779C-45.6747 -36.8538 -43.649 -31.5329 -45.673 -27.0187L-61.7101 8.76522C-63.7341 13.2794 -69.051 15.3079 -73.5652 13.2838L-109.349 -2.75322C-113.863 -4.77726 -115.889 -10.0982 -113.865 -14.6124L-97.8281 -50.3963Z" fill="#C8C8C8"/>
<path opacity="0.5" d="M33.2779 63.1277L-2.50609 47.0906C-7.91809 44.6629 -10.3501 38.2863 -7.92239 32.8743L8.11464 -2.90962C10.5424 -8.32162 16.919 -10.7537 22.3337 -8.3299L58.1176 7.70713C63.5296 10.1349 65.9616 16.5115 63.5339 21.9234L47.4969 57.7074C45.0664 63.1234 38.6899 65.5554 33.2779 63.1277ZM21.6026 -6.69715C17.0884 -8.72119 11.7714 -6.69274 9.74738 -2.17854L-6.28964 33.6054C-8.31368 38.1196 -6.28797 43.4405 -1.77377 45.4646L34.0102 61.5016C38.5244 63.5256 43.8414 61.4972 45.8654 56.983L61.9024 21.199C63.9265 16.6848 61.9007 11.3639 57.3865 9.33988L21.6026 -6.69715Z" fill="#C8C8C8"/>
<path opacity="0.5" d="M87.0669 87.2366L51.283 71.1995C45.871 68.7718 43.4389 62.3952 45.8667 56.9832L61.9037 21.1993C64.3314 15.7873 70.708 13.3552 76.1227 15.779L111.907 31.816C117.319 34.2438 119.751 40.6203 117.323 46.0323L101.286 81.8163C98.8555 87.2323 92.4789 89.6643 87.0669 87.2366ZM75.3916 17.4117C70.8774 15.3877 65.5605 17.4162 63.5364 21.9304L47.4994 57.7143C45.4754 62.2285 47.5011 67.5494 52.0153 69.5735L87.7993 85.6105C92.3135 87.6345 97.6304 85.6061 99.6545 81.0919L115.691 45.3079C117.716 40.7937 115.69 35.4728 111.176 33.4488L75.3916 17.4117Z" fill="#C8C8C8"/>
<path opacity="0.5" d="M140.851 111.342L105.067 95.3047C99.6552 92.877 97.2231 86.5004 99.6509 81.0884L115.688 45.3045C118.116 39.8925 124.492 37.4605 129.907 39.8842L165.691 55.9212C171.103 58.349 173.535 64.7256 171.107 70.1376L155.07 105.922C152.644 111.34 146.263 113.77 140.851 111.342ZM129.18 41.5197C124.666 39.4956 119.349 41.5241 117.325 46.0383L101.288 81.8222C99.2635 86.3364 101.289 91.6573 105.803 93.6814L141.587 109.718C146.102 111.742 151.419 109.714 153.443 105.2L169.48 69.4159C171.504 64.9017 169.478 59.5807 164.964 57.5567L129.18 41.5197Z" fill="#C8C8C8"/>
<path opacity="0.5" d="M194.635 135.454L158.851 119.417C153.439 116.99 151.007 110.613 153.435 105.201L169.472 69.417C171.9 64.0051 178.276 61.573 183.691 63.9968L219.475 80.0338C224.887 82.4615 227.319 88.8381 224.891 94.2501L208.854 130.034C206.431 135.449 200.05 137.878 194.635 135.454ZM182.963 65.6256C178.449 63.6015 173.132 65.63 171.108 70.1442L155.07 105.928C153.046 110.442 155.072 115.763 159.586 117.787L195.37 133.824C199.885 135.848 205.201 133.82 207.226 129.306L223.263 93.5218C225.287 89.0076 223.261 83.6866 218.747 81.6626L182.963 65.6256Z" fill="#C8C8C8"/>
<path opacity="0.5" d="M9.16853 116.916L-26.6154 100.878C-32.0274 98.4507 -34.4595 92.0741 -32.0318 86.6622L-15.9947 50.8782C-13.567 45.4662 -7.19039 43.0342 -1.77569 45.458L34.0082 61.495C39.4202 63.9227 41.8523 70.2993 39.4246 75.7113L23.3875 111.495C20.9571 116.911 14.5805 119.343 9.16853 116.916ZM-2.50678 47.0907C-7.02098 45.0666 -12.3379 47.0951 -14.362 51.6093L-30.399 87.3933C-32.423 91.9075 -30.3973 97.2284 -25.8831 99.2524L9.90085 115.289C14.415 117.313 19.732 115.285 21.756 110.771L37.7931 74.9869C39.8171 70.4727 37.7914 65.1518 33.2772 63.1277L-2.50678 47.0907Z" fill="#C8C8C8"/>
<path opacity="0.5" d="M62.9527 141.021L27.1687 124.984C21.7567 122.556 19.3247 116.179 21.7524 110.767L37.7895 74.9834C40.2172 69.5714 46.5938 67.1394 52.0085 69.5632L87.7924 85.6002C93.2044 88.0279 95.6365 94.4045 93.2087 99.8165L77.1717 135.6C74.7452 141.019 68.3686 143.451 62.9527 141.021ZM51.2813 71.1986C46.7671 69.1746 41.4502 71.203 39.4262 75.7172L23.3891 111.501C21.3651 116.015 23.3908 121.336 27.905 123.36L63.689 139.397C68.2032 141.421 73.5201 139.393 75.5442 134.879L91.5812 99.0948C93.6052 94.5806 91.5795 89.2597 87.0653 87.2356L51.2813 71.1986Z" fill="#C8C8C8"/>
<path opacity="0.5" d="M116.742 165.13L80.9578 149.093C75.5458 146.665 73.1138 140.288 75.5415 134.876L91.5785 99.0924C94.0062 93.6804 100.383 91.2483 105.798 93.6721L141.581 109.709C146.993 112.137 149.426 118.513 146.998 123.925L130.961 159.709C128.534 165.128 122.154 167.557 116.742 165.13ZM105.066 95.3048C100.552 93.2808 95.2353 95.3092 93.2113 99.8234L77.1742 135.607C75.1502 140.122 77.1759 145.442 81.6901 147.467L117.474 163.504C121.988 165.528 127.305 163.499 129.329 158.985L145.366 123.201C147.39 118.687 145.365 113.366 140.85 111.342L105.066 95.3048Z" fill="#C8C8C8"/>
<path opacity="0.5" d="M170.526 189.242L134.742 173.205C129.33 170.777 126.898 164.401 129.326 158.989L145.363 123.205C147.79 117.793 154.167 115.361 159.582 117.785L195.366 133.822C200.778 136.249 203.21 142.626 200.782 148.038L184.745 183.822C182.321 189.237 175.941 191.666 170.526 189.242ZM158.853 119.413C154.339 117.389 149.022 119.418 146.998 123.932L130.961 159.716C128.937 164.23 130.963 169.551 135.477 171.575L171.261 187.612C175.775 189.636 181.092 187.608 183.116 183.094L199.153 147.31C201.177 142.795 199.152 137.474 194.637 135.45L158.853 119.413Z" fill="#C8C8C8"/>
<path opacity="0.5" d="M224.315 213.351L188.531 197.314C183.119 194.886 180.687 188.51 183.115 183.098L199.152 147.314C201.579 141.902 207.956 139.47 213.371 141.893L249.155 157.931C254.567 160.358 256.999 166.735 254.571 172.147L238.534 207.931C236.106 213.343 229.73 215.775 224.315 213.351ZM212.642 143.522C208.128 141.498 202.811 143.527 200.787 148.041L184.75 183.825C182.726 188.339 184.752 193.66 189.266 195.684L225.05 211.721C229.564 213.745 234.881 211.717 236.905 207.202L252.942 171.418C254.966 166.904 252.941 161.583 248.426 159.559L212.642 143.522Z" fill="#C8C8C8"/>
<path opacity="0.5" d="M-0.72379 165.287L15.3172 129.506C15.9392 128.118 16.2411 126.663 16.2502 125.228C16.2825 122.509 15.2761 119.864 13.4431 117.852C12.4806 116.795 11.2887 115.911 9.89693 115.287L-25.8804 99.2483C-27.2721 98.6236 -28.7272 98.3216 -30.1628 98.306C-32.8811 98.2803 -35.5256 99.2866 -37.5349 101.116C-38.5954 102.082 -39.4787 103.274 -40.1006 104.662L-56.1416 140.443C-56.7663 141.835 -57.0683 143.29 -57.0812 144.722C-57.1109 147.437 -56.1045 150.082 -54.2715 152.094C-53.3077 153.158 -52.1158 154.041 -50.724 154.666L-14.9468 170.704C-13.555 171.329 -12.0999 171.631 -10.6655 171.64L-10.6616 171.643C-7.94327 171.668 -5.30281 170.659 -3.29346 168.83C-2.22903 167.867 -1.34574 166.675 -0.72379 165.287ZM-14.2117 169.074L-49.993 153.033C-54.5072 151.009 -56.5356 145.692 -54.5089 141.174L-38.4706 105.397C-36.4439 100.879 -31.1296 98.8543 -26.6154 100.878L9.16857 116.915C13.6828 118.939 15.7085 124.26 13.6845 128.775L-2.35655 164.556C-4.37789 169.066 -9.69754 171.098 -14.2117 169.074Z" fill="#C8C8C8"/>
<path opacity="0.5" d="M53.0684 189.391L69.1067 153.613C69.7314 152.222 70.0333 150.766 70.0463 149.335C70.0787 146.615 69.0656 143.972 67.2326 141.96C66.2728 140.898 65.0809 140.015 63.6891 139.39L27.9118 123.352C26.5201 122.727 25.065 122.425 23.6306 122.416C20.911 122.384 18.2666 123.39 16.2546 125.223C15.1941 126.19 14.3108 127.382 13.6889 128.77L-2.35213 164.551C-2.97408 165.939 -3.27606 167.394 -3.28904 168.825C-3.3214 171.545 -2.31231 174.185 -0.483275 176.195L-0.479309 176.197C-0.371441 176.312 -0.262312 176.433 -0.147777 176.546C0.0614807 176.758 0.280113 176.966 0.505598 177.154C1.26237 177.799 2.11468 178.346 3.06418 178.767L38.8415 194.805C40.2332 195.43 41.6883 195.732 43.12 195.745C45.8356 195.775 48.4827 194.764 50.4921 192.935C51.5605 191.974 52.4398 190.78 53.0684 189.391ZM39.5805 193.178L3.79923 177.137C-0.714974 175.113 -2.74341 169.796 -0.719367 165.282L15.3216 129.501C17.3457 124.986 22.6626 122.958 27.1768 124.982L62.9581 141.023C67.4723 143.047 69.5007 148.364 67.4739 152.882L51.4357 188.659C49.4089 193.178 44.0907 195.199 39.5805 193.178Z" fill="#C8C8C8"/>
<path opacity="0.5" d="M80.9585 149.093C79.5707 148.471 78.3788 147.588 77.415 146.523C74.6994 146.494 72.055 147.5 70.0456 149.329C70.0456 149.329 70.0416 149.326 70.0429 149.333C70.0299 150.765 69.728 152.22 69.1033 153.612C71.13 149.093 76.4482 147.072 80.9585 149.093ZM106.85 213.502L122.888 177.724C123.513 176.332 123.815 174.877 123.824 173.443C123.856 170.723 122.85 168.079 121.017 166.067C120.051 165.006 118.863 164.126 117.471 163.501L81.6935 147.463C80.3018 146.838 78.8467 146.536 77.415 146.523C74.6994 146.494 72.055 147.5 70.0456 149.329C70.0456 149.329 70.0416 149.326 70.0429 149.333C68.9745 150.294 68.0912 151.486 67.4705 152.881L51.4323 188.658C50.8076 190.05 50.5056 191.505 50.4926 192.936C50.463 195.652 51.4694 198.296 53.3024 200.308C53.7927 200.858 54.3516 201.35 54.9629 201.79C54.9641 201.797 54.9708 201.796 54.9787 201.801C55.1305 201.911 55.2917 202.015 55.4569 202.122C55.663 202.262 55.8877 202.393 56.1179 202.515C56.2172 202.565 56.3098 202.617 56.409 202.667C56.5573 202.739 56.7016 202.809 56.8525 202.877L92.6298 218.915C94.0215 219.54 95.4767 219.842 96.9111 219.851L96.915 219.853C99.6306 219.883 102.274 218.87 104.28 217.045C105.342 216.085 106.225 214.893 106.85 213.502ZM93.3661 217.292L57.5849 201.251C53.0707 199.227 51.0422 193.91 53.069 189.392L69.1073 153.614C71.134 149.096 76.4482 147.072 80.9624 149.096L116.744 165.137C121.258 167.161 123.286 172.478 121.262 176.992L105.221 212.773C103.2 217.283 97.8764 219.313 93.3661 217.292Z" fill="#C8C8C8"/>
<path opacity="0.5" d="M134.744 173.201C133.357 172.579 132.165 171.696 131.198 170.636C128.479 170.603 125.834 171.61 123.822 173.443C123.813 174.877 123.511 176.332 122.886 177.724C124.913 173.206 130.23 171.177 134.744 173.201ZM160.636 237.61L176.677 201.829C177.302 200.437 177.604 198.982 177.617 197.55C177.646 194.834 176.64 192.19 174.807 190.178C173.843 189.114 172.651 188.23 171.259 187.606L135.478 171.565C134.09 170.943 132.635 170.641 131.201 170.632C128.481 170.599 125.837 171.606 123.825 173.439C122.764 174.405 121.881 175.597 121.259 176.985L105.218 212.766C104.593 214.158 104.292 215.613 104.279 217.045C104.249 219.76 105.255 222.405 107.088 224.417C107.579 224.966 108.137 225.458 108.749 225.899C108.75 225.905 108.757 225.904 108.765 225.909C108.916 226.019 109.078 226.123 109.243 226.23C109.449 226.371 109.674 226.501 109.904 226.623C110.003 226.673 110.096 226.725 110.195 226.775C110.343 226.848 110.487 226.917 110.638 226.985L146.418 243.019C147.81 243.644 149.265 243.946 150.697 243.959C153.417 243.991 156.06 242.978 158.069 241.149C159.131 240.19 160.014 238.998 160.636 237.61ZM147.151 241.393L111.367 225.356C106.853 223.332 104.824 218.015 106.851 213.497L122.889 177.72C124.916 173.202 130.237 171.176 134.747 173.197L170.528 189.238C175.043 191.262 177.071 196.579 175.044 201.097L159.006 236.875C156.983 241.396 151.665 243.417 147.151 241.393Z" fill="#C8C8C8"/>
<path opacity="0.5" d="M-24.8325 219.068L-8.7942 183.291C-8.16954 181.899 -7.86757 180.444 -7.85189 179.009C-7.82619 176.29 -8.82861 173.649 -10.6577 171.639L-10.6616 171.637C-11.6281 170.576 -12.82 169.693 -14.2078 169.071L-49.9891 153.03C-51.3808 152.405 -52.8359 152.103 -54.2676 152.09C-56.9832 152.061 -59.6276 153.067 -61.6397 154.9C-62.7041 155.864 -63.5874 157.056 -64.2121 158.447L-80.2504 194.225C-80.3281 194.398 -80.4019 194.574 -80.469 194.749C-80.5264 194.884 -80.5704 195.017 -80.6171 195.153C-80.6213 195.168 -80.6227 195.179 -80.6308 195.191C-80.6582 195.265 -80.6817 195.342 -80.7025 195.415C-80.7079 195.423 -80.7093 195.433 -80.7108 195.444C-80.7328 195.51 -80.7494 195.569 -80.7687 195.631C-80.7729 195.645 -80.777 195.66 -80.7811 195.675C-80.8075 195.773 -80.8405 195.872 -80.8602 195.969C-80.8631 195.99 -80.8739 196.006 -80.8768 196.028C-80.881 196.042 -80.8812 196.059 -80.8893 196.071C-80.9212 196.195 -80.9532 196.318 -80.9745 196.443C-81.035 196.744 -81.0861 197.041 -81.1227 197.341C-81.1411 197.445 -81.145 197.552 -81.1528 197.657C-81.1701 197.785 -81.1781 197.907 -81.1822 198.032C-81.1824 198.05 -81.1892 198.068 -81.1854 198.088C-81.1974 198.208 -81.1987 198.329 -81.204 198.447C-81.2002 198.467 -81.2044 198.482 -81.2046 198.499C-81.2303 201.217 -80.2239 203.862 -78.3948 205.871L-78.3909 205.874C-77.4271 206.938 -76.2351 207.822 -74.8474 208.444L-39.0661 224.485C-38.9642 224.531 -38.8595 224.573 -38.7588 224.613C-38.6886 224.638 -38.621 224.666 -38.5507 224.691C-38.5428 224.696 -38.5309 224.705 -38.5203 224.706C-38.4673 224.731 -38.4196 224.746 -38.3652 224.76C-38.2764 224.791 -38.1863 224.829 -38.0948 224.857C-38.0842 224.859 -38.0763 224.864 -38.0656 224.865C-38.0166 224.887 -37.9662 224.898 -37.9157 224.91C-37.8084 224.948 -37.7023 224.98 -37.5895 225.01C-37.5272 225.03 -37.4688 225.046 -37.4038 225.062C-37.2512 225.102 -37.0986 225.142 -36.9445 225.172C-36.7707 225.215 -36.5887 225.246 -36.4107 225.275C-36.2327 225.303 -36.0453 225.327 -35.8659 225.344C-35.8313 225.345 -35.8021 225.353 -35.7675 225.354C-35.6466 225.372 -35.531 225.381 -35.4059 225.385C-35.378 225.387 -35.3567 225.39 -35.3288 225.392C-35.3222 225.39 -35.3194 225.386 -35.3155 225.389C-35.1373 225.4 -34.9577 225.401 -34.7807 225.406L-34.7768 225.408C-32.0612 225.438 -29.418 224.425 -27.4114 222.6C-26.3365 221.655 -25.4532 220.463 -24.8325 219.068ZM-38.3165 222.859L-74.0977 206.818C-78.6119 204.794 -80.6404 199.477 -78.6136 194.958L-62.5753 159.181C-60.5486 154.663 -55.2343 152.639 -50.7162 154.665L-14.9389 170.704C-10.4207 172.73 -8.39626 178.045 -10.4203 182.559L-26.4613 218.34C-28.4814 222.857 -33.8062 224.88 -38.3165 222.859Z" fill="#C8C8C8"/>
<path opacity="0.5" d="M-38.3155 222.858L-74.0967 206.817C-78.6109 204.793 -80.6394 199.476 -78.6126 194.958L-62.5743 159.181C-60.5476 154.663 -55.2333 152.638 -50.7152 154.665L-14.9379 170.703C-10.4197 172.73 -8.39525 178.044 -10.4193 182.558L-26.4603 218.34C-28.4804 222.857 -33.8052 224.88 -38.3155 222.858Z" fill="white"/>
<path opacity="0.5" d="M3.0662 178.771C2.11274 178.347 1.25773 177.804 0.507623 177.158C0.278174 176.967 0.0635048 176.762 -0.145753 176.55C-0.260288 176.437 -0.372121 176.32 -0.477285 176.202L-0.481251 176.199C-3.1983 176.18 -5.84002 177.182 -7.84937 179.011C-7.86234 180.443 -8.16705 181.902 -8.7917 183.294C-6.77162 178.777 -1.45196 176.744 3.0662 178.771ZM28.9511 243.181L44.9921 207.4C45.6168 206.008 45.9188 204.553 45.9317 203.121C45.9641 200.402 44.9511 197.758 43.122 195.749C42.1582 194.685 40.9663 193.801 39.5785 193.179L3.79728 177.138C2.40555 176.514 0.950425 176.212 -0.481251 176.199L-0.485217 176.196C-3.20227 176.177 -5.84398 177.179 -7.85334 179.009C-8.91776 179.972 -9.80106 181.164 -10.4257 182.556L-26.4667 218.337C-27.0914 219.729 -27.3933 221.184 -27.4063 222.616C-27.432 225.334 -26.4256 227.978 -24.5966 229.988C-23.6328 231.052 -22.4409 231.936 -21.0491 232.56L14.7348 248.597C16.1226 249.219 17.5777 249.521 19.0094 249.534L19.0134 249.537C21.7356 249.565 24.3761 248.556 26.3827 246.731C26.3854 246.727 26.3854 246.727 26.3854 246.727C27.4459 245.761 28.3292 244.569 28.9511 243.181ZM15.4659 246.964L-20.318 230.927C-24.8322 228.903 -26.8607 223.586 -24.8339 219.068L-8.79564 183.291C-6.7689 178.773 -1.448 176.747 3.0662 178.771L38.8435 194.809C43.3616 196.836 45.3861 202.15 43.3594 206.669L27.3211 242.446C25.2943 246.964 19.9801 248.989 15.4659 246.964ZM3.0662 178.771C2.11274 178.347 1.25773 177.804 0.507623 177.158C0.280879 176.963 0.0635048 176.762 -0.145753 176.55C-0.257583 176.433 -0.369417 176.316 -0.477285 176.202L-0.481251 176.199C-3.1983 176.18 -5.84002 177.182 -7.84937 179.011C-7.86234 180.443 -8.16705 181.902 -8.7917 183.294C-6.77162 178.777 -1.45196 176.744 3.0662 178.771Z" fill="#C8C8C8"/>
<path opacity="0.5" d="M15.4676 246.965L-20.3163 230.927C-24.8305 228.903 -26.859 223.587 -24.8322 219.068L-8.79394 183.291C-6.76719 178.773 -1.44629 176.747 3.06791 178.771L38.8452 194.81C43.3634 196.836 45.3878 202.15 43.3611 206.669L27.3228 242.446C25.296 246.964 19.9818 248.989 15.4676 246.965Z" fill="white"/>
</g>
<g filter="url(#filter0_f_111_1103)">
<path d="M147.555 133.369C149.487 129.012 154.585 127.046 158.942 128.978L193.275 144.198C197.632 146.13 199.599 151.228 197.667 155.585L182.446 189.918C180.515 194.275 175.417 196.242 171.059 194.31L136.726 179.089C132.369 177.158 130.403 172.06 132.334 167.702L147.555 133.369Z" fill="#C1C1C1" fill-opacity="0.59"/>
</g>
<path d="M143.122 121.82C145.053 117.463 150.151 115.497 154.509 117.428L190.294 133.292C194.651 135.224 196.617 140.322 194.685 144.679L178.683 180.776C176.752 185.133 171.654 187.099 167.296 185.167L131.511 169.303C127.154 167.372 125.188 162.274 127.119 157.916L143.122 121.82Z" fill="#C9C5C5"/>
<path fill-rule="evenodd" clip-rule="evenodd" d="M154.919 116.499L190.704 132.364C195.574 134.522 197.772 140.22 195.613 145.09L179.611 181.186C177.452 186.056 171.754 188.254 166.884 186.095L131.099 170.231C126.229 168.072 124.032 162.374 126.19 157.504L142.193 121.408C144.351 116.538 150.049 114.34 154.919 116.499ZM154.508 117.428C150.151 115.496 145.052 117.462 143.121 121.819L127.119 157.916C125.187 162.273 127.153 167.371 131.511 169.303L167.295 185.167C171.653 187.098 176.751 185.132 178.683 180.775L194.685 144.679C196.616 140.321 194.65 135.223 190.293 133.292L154.508 117.428Z" fill="#C9C5C5"/>
<path d="M142.511 120.171C144.443 115.814 149.541 113.848 153.898 115.779L190.593 132.047C194.95 133.978 196.917 139.077 194.985 143.434L178.718 180.129C176.786 184.486 171.688 186.452 167.33 184.521L130.636 168.253C126.278 166.322 124.312 161.223 126.244 156.866L142.511 120.171Z" fill="white"/>
<path fill-rule="evenodd" clip-rule="evenodd" d="M189.976 133.438L153.281 117.17C149.693 115.579 145.494 117.199 143.903 120.787L127.636 157.482C126.045 161.07 127.665 165.269 131.253 166.859L167.948 183.127C171.536 184.718 175.735 183.098 177.325 179.51L193.593 142.815C195.184 139.227 193.564 135.028 189.976 133.438ZM153.898 115.778C149.541 113.846 144.443 115.813 142.511 120.17L126.244 156.865C124.312 161.222 126.278 166.32 130.636 168.252L167.331 184.519C171.688 186.451 176.786 184.485 178.718 180.127L194.985 143.432C196.917 139.075 194.95 133.977 190.593 132.045L153.898 115.778Z" fill="url(#paint1_linear_111_1103)"/>
<g filter="url(#filter1_i_111_1103)">
<path d="M164.422 139.619C166.824 140.721 168.289 142.404 168.817 144.668C169.364 146.941 168.927 149.625 167.506 152.721C166.49 154.935 165.316 156.702 163.984 158.021C162.651 159.34 161.219 160.159 159.687 160.478C158.155 160.797 156.601 160.595 155.025 159.872C153.956 159.381 152.981 158.684 152.101 157.78C151.239 156.885 150.597 155.909 150.174 154.852C149.993 154.405 149.98 154.013 150.135 153.675C150.264 153.394 150.446 153.194 150.683 153.075C150.919 152.956 151.14 152.944 151.347 153.039C151.609 153.159 151.834 153.387 152.021 153.723C153.042 155.804 154.321 157.198 155.86 157.904C157.53 158.67 159.183 158.509 160.818 157.42C162.454 156.331 163.9 154.416 165.157 151.677L165.325 151.311C164.412 152.164 163.329 152.666 162.078 152.819C160.845 152.98 159.619 152.781 158.4 152.221C157.199 151.67 156.25 150.917 155.553 149.961C154.856 149.005 154.465 147.928 154.378 146.73C154.292 145.532 154.533 144.314 155.102 143.075C155.661 141.856 156.437 140.883 157.429 140.157C158.421 139.431 159.53 139.02 160.755 138.924C161.98 138.827 163.203 139.059 164.422 139.619ZM159.629 150.434C160.924 151.029 162.159 151.107 163.336 150.671C164.541 150.224 165.44 149.354 166.034 148.059C166.637 146.746 166.711 145.496 166.256 144.31C165.828 143.114 164.957 142.215 163.644 141.612C162.368 141.027 161.16 140.961 160.021 141.415C158.881 141.868 158.006 142.761 157.394 144.093C156.783 145.426 156.677 146.672 157.076 147.831C157.502 148.981 158.353 149.849 159.629 150.434Z" fill="#E4E4E4"/>
</g>
<g filter="url(#filter2_f_111_1103)">
<path d="M-6.64234 55.5118C-4.71069 51.1546 0.387468 49.1882 4.74471 51.1199L39.0777 66.3403C43.4349 68.272 45.4013 73.3701 43.4696 77.7274L28.2492 112.06C26.3175 116.418 21.2194 118.384 16.8621 116.452L-17.4709 101.232C-21.8281 99.3002 -23.7944 94.202 -21.8628 89.8448L-6.64234 55.5118Z" fill="#C1C1C1" fill-opacity="0.6"/>
</g>
<path d="M-11.7007 42.3866C-9.76903 38.0293 -4.67088 36.063 -0.313638 37.9946L35.6106 53.9205C39.9679 55.8522 41.9342 60.9503 40.0026 65.3076L24.0844 101.214C22.1527 105.572 17.0546 107.538 12.6973 105.606L-23.2269 89.6804C-27.5842 87.7488 -29.5505 82.6506 -27.6189 78.2934L-11.7007 42.3866Z" fill="#A00045"/>
<path fill-rule="evenodd" clip-rule="evenodd" d="M0.0969591 37.067L36.0212 52.9929C40.8911 55.1518 43.0888 60.8497 40.9298 65.7196L25.0117 101.626C22.8528 106.496 17.1548 108.694 12.285 106.535L-23.6393 90.6091C-28.5091 88.4502 -30.7068 82.7523 -28.5479 77.8824L-12.6297 41.9756C-10.4708 37.1058 -4.7729 34.9081 0.0969591 37.067ZM-0.314518 37.9952C-4.67176 36.0635 -9.76991 38.0299 -11.7016 42.3871L-27.6197 78.2939C-29.5514 82.6512 -27.5851 87.7493 -23.2278 89.681L12.6965 105.607C17.0537 107.539 22.1519 105.572 24.0835 101.215L40.0017 65.3081C41.9333 60.9509 39.967 55.8527 35.6098 53.9211L-0.314518 37.9952Z" fill="#A00045"/>
<path d="M-12.1939 40.7901C-10.2622 36.4329 -5.16408 34.4665 -0.806833 36.3982L35.8881 52.6657C40.2453 54.5974 42.2117 59.6955 40.28 64.0528L24.0125 100.748C22.0808 105.105 16.9827 107.071 12.6254 105.14L-24.0695 88.8721C-28.4267 86.9404 -30.3931 81.8423 -28.4614 77.485L-12.1939 40.7901Z" fill="#FF006E"/>
<path d="M-12.1939 40.7901C-10.2622 36.4329 -5.16408 34.4665 -0.806833 36.3982L35.8881 52.6657C40.2453 54.5974 42.2117 59.6955 40.28 64.0528L24.0125 100.748C22.0808 105.105 16.9827 107.071 12.6254 105.14L-24.0695 88.8721C-28.4267 86.9404 -30.3931 81.8423 -28.4614 77.485L-12.1939 40.7901Z" fill="url(#paint2_linear_111_1103)"/>
<path fill-rule="evenodd" clip-rule="evenodd" d="M35.2709 54.058L-1.42405 37.7905C-5.01237 36.1997 -9.21085 37.819 -10.8016 41.4073L-27.0692 78.1022C-28.6599 81.6906 -27.0406 85.8891 -23.4523 87.4798L13.2426 103.747C16.8309 105.338 21.0294 103.719 22.6202 100.13L38.8877 63.4356C40.4785 59.8473 38.8592 55.6488 35.2709 54.058ZM-0.806833 36.3982C-5.16408 34.4665 -10.2622 36.4329 -12.1939 40.7901L-28.4614 77.485C-30.3931 81.8423 -28.4267 86.9404 -24.0695 88.8721L12.6254 105.14C16.9827 107.071 22.0808 105.105 24.0125 100.748L40.28 64.0528C42.2117 59.6955 40.2453 54.5974 35.8881 52.6657L-0.806833 36.3982Z" fill="url(#paint3_linear_111_1103)"/>
<g filter="url(#filter3_i_111_1103)">
<path d="M9.1966 68.9408C10.3974 69.4919 11.3463 70.2454 12.0433 71.2013C12.7404 72.1572 13.132 73.2342 13.2182 74.4322C13.3043 75.6302 13.0633 76.8484 12.4949 78.0867C11.9352 79.3063 11.1594 80.279 10.1675 81.0049C9.17561 81.7309 8.06698 82.142 6.8416 82.2384C5.61622 82.3347 4.39374 82.103 3.17417 81.5433C0.772554 80.4411 -0.701753 78.7536 -1.24875 76.481C-1.77698 74.2169 -1.33068 71.537 0.0901532 68.4412C1.10626 66.2272 2.2805 64.4605 3.61284 63.1413C4.94519 61.822 6.37738 61.0028 7.9094 60.6838C9.44142 60.3648 10.9955 60.5669 12.5715 61.2902C13.641 61.7811 14.6064 62.474 15.4676 63.369C16.3477 64.2726 16.9993 65.2531 17.4226 66.3105C17.6038 66.7571 17.6169 67.1493 17.4619 67.487C17.3327 67.7685 17.15 67.9685 16.9138 68.0873C16.6776 68.206 16.4563 68.218 16.2499 68.1233C15.9872 68.0028 15.7625 67.7747 15.5758 67.4391C14.5548 65.3578 13.2751 63.9641 11.7366 63.258C10.0667 62.4916 8.41393 62.653 6.7783 63.7422C5.14267 64.8315 3.69624 66.7457 2.43902 69.4851L2.2711 69.851C3.18487 68.9983 4.25797 68.4914 5.49042 68.3301C6.74163 68.1775 7.97703 68.3811 9.1966 68.9408ZM3.95285 79.5497C5.2287 80.1352 6.43641 80.2011 7.57595 79.7474C8.7155 79.2937 9.59097 78.4007 10.2024 77.0686C10.8137 75.7364 10.9063 74.4955 10.4799 73.3458C10.0809 72.186 9.24348 71.3133 7.96762 70.7277C6.673 70.1335 5.42346 70.0598 4.21902 70.5065C3.04195 70.943 2.15633 71.8085 1.56216 73.1032C0.959384 74.4165 0.871947 75.6712 1.29985 76.867C1.75513 78.0527 2.63946 78.9469 3.95285 79.5497Z" fill="#CA1362"/>
</g>
<g filter="url(#filter4_f_111_1103)">
<path d="M20.9016 139.981C22.8333 135.624 27.9314 133.657 32.2887 135.589L66.6216 150.809C70.9789 152.741 72.9452 157.839 71.0136 162.196L55.7931 196.529C53.8615 200.887 48.7633 202.853 44.4061 200.921L10.0731 185.701C5.71584 183.769 3.7495 178.671 5.68115 174.314L20.9016 139.981Z" fill="#C1C1C1" fill-opacity="0.37"/>
</g>
<path d="M15.8433 126.854C17.7749 122.497 22.8731 120.531 27.2303 122.462L63.1546 138.388C67.5118 140.32 69.4781 145.418 67.5465 149.775L51.6283 185.682C49.6967 190.039 44.5985 192.006 40.2413 190.074L4.31702 174.148C-0.0402263 172.217 -2.00655 167.118 -0.0749063 162.761L15.8433 126.854Z" fill="#ECA817"/>
<path fill-rule="evenodd" clip-rule="evenodd" d="M27.6409 121.536L63.5652 137.462C68.435 139.621 70.6327 145.319 68.4738 150.189L52.5556 186.095C50.3967 190.965 44.6988 193.163 39.8289 191.004L3.90466 175.078C-0.965201 172.919 -3.16286 167.221 -1.00396 162.351L14.9142 126.445C17.0731 121.575 22.771 119.377 27.6409 121.536ZM27.2294 122.464C22.8722 120.533 17.774 122.499 15.8424 126.856L-0.0757871 162.763C-2.00744 167.12 -0.0411067 172.218 4.31614 174.15L40.2404 190.076C44.5976 192.008 49.6958 190.041 51.6275 185.684L67.5456 149.777C69.4773 145.42 67.5109 140.322 63.1537 138.39L27.2294 122.464Z" fill="#ECA817"/>
<path d="M15.3501 125.259C17.2817 120.902 22.3799 118.936 26.7371 120.867L63.432 137.135C67.7893 139.066 69.7556 144.165 67.824 148.522L51.5564 185.217C49.6248 189.574 44.5266 191.54 40.1694 189.609L3.47445 173.341C-0.882792 171.409 -2.84913 166.311 -0.917485 161.954L15.3501 125.259Z" fill="url(#paint4_linear_111_1103)"/>
<path fill-rule="evenodd" clip-rule="evenodd" d="M62.8148 138.526L26.1199 122.258C22.5316 120.667 18.3331 122.287 16.7424 125.875L0.474809 162.57C-1.11596 166.158 0.503379 170.357 4.0917 171.947L40.7866 188.215C44.3749 189.806 48.5734 188.186 50.1642 184.598L66.4317 147.903C68.0225 144.315 66.4032 140.116 62.8148 138.526ZM26.7371 120.866C22.3799 118.934 17.2817 120.9 15.3501 125.258L-0.917454 161.953C-2.8491 166.31 -0.882761 171.408 3.47448 173.34L40.1694 189.607C44.5266 191.539 49.6248 189.572 51.5564 185.215L67.824 148.52C69.7556 144.163 67.7893 139.065 63.4321 137.133L26.7371 120.866Z" fill="url(#paint5_linear_111_1103)"/>
<g filter="url(#filter5_i_111_1103)">
<path d="M36.9334 166.24C37.2712 166.395 37.4951 166.6 37.6052 166.855C37.7153 167.11 37.7015 167.388 37.5637 167.688C37.2624 168.345 36.7552 168.509 36.0422 168.182L25.0098 163.119C24.6908 162.972 24.4712 162.758 24.3509 162.476C24.2392 162.174 24.248 161.883 24.3771 161.602C24.5408 161.245 24.8142 160.996 25.1974 160.854L35.403 156.509C36.8234 155.888 37.9294 155.26 38.7211 154.624C39.5401 153.978 40.1434 153.233 40.5309 152.388C41.0303 151.3 41.0945 150.319 40.7236 149.444C40.3713 148.579 39.623 147.883 38.4784 147.358C37.5778 146.944 36.6373 146.717 35.6567 146.676C34.6847 146.616 33.631 146.734 32.4954 147.031C32.1107 147.127 31.7963 147.119 31.5524 147.007C31.346 146.912 31.2108 146.737 31.1468 146.48C31.0915 146.205 31.1284 145.927 31.2575 145.645C31.4384 145.251 31.7348 145.001 32.147 144.895C33.2435 144.535 34.44 144.403 35.7364 144.498C37.0328 144.593 38.2627 144.908 39.426 145.442C41.2084 146.26 42.4097 147.379 43.0299 148.799C43.6688 150.228 43.6223 151.74 42.8903 153.335C42.3651 154.479 41.5986 155.457 40.5911 156.266C39.6022 157.084 38.2197 157.869 36.4435 158.622L28.0118 162.146L36.9334 166.24Z" fill="#FFB93A"/>
</g>
<g filter="url(#filter6_f_111_1103)">
<path d="M145.123 4.12142C147.055 -0.235822 152.153 -2.20216 156.51 -0.270512L190.843 14.9499C195.201 16.8816 197.167 21.9798 195.235 26.337L180.015 60.67C178.083 65.0272 172.985 66.9936 168.628 65.0619L134.295 49.8415C129.938 47.9098 127.971 42.8116 129.903 38.4544L145.123 4.12142Z" fill="#C1C1C1" fill-opacity="0.6"/>
</g>
<path d="M140.062 -9.00261C141.994 -13.3598 147.092 -15.3262 151.449 -13.3945L187.373 2.53138C191.731 4.46303 193.697 9.56118 191.765 13.9184L175.847 49.8252C173.915 54.1825 168.817 56.1488 164.46 54.2172L128.536 38.2912C124.179 36.3596 122.212 31.2614 124.144 26.9042L140.062 -9.00261Z" fill="#4C129D"/>
<path fill-rule="evenodd" clip-rule="evenodd" d="M151.86 -14.3234L187.784 1.60252C192.654 3.76143 194.851 9.45936 192.693 14.3292L176.774 50.236C174.615 55.1059 168.918 57.3036 164.048 55.1447L128.123 39.2187C123.254 37.0598 121.056 31.3619 123.215 26.492L139.133 -9.41476C141.292 -14.2846 146.99 -16.4823 151.86 -14.3234ZM151.448 -13.3952C147.091 -15.3269 141.993 -13.3605 140.061 -9.00329L124.143 26.9035C122.211 31.2608 124.178 36.3589 128.535 38.2906L164.459 54.2165C168.816 56.1481 173.915 54.1818 175.846 49.8246L191.764 13.9177C193.696 9.5605 191.73 4.46235 187.372 2.5307L151.448 -13.3952Z" fill="#4C129D"/>
<path d="M139.571 -10.6003C141.502 -14.9575 146.601 -16.9238 150.958 -14.9922L187.653 1.27536C192.01 3.207 193.976 8.30516 192.045 12.6624L175.777 49.3573C173.845 53.7146 168.747 55.6809 164.39 53.7493L127.695 37.4817C123.338 35.5501 121.372 30.4519 123.303 26.0947L139.571 -10.6003Z" fill="url(#paint6_linear_111_1103)"/>
<path fill-rule="evenodd" clip-rule="evenodd" d="M187.034 2.66738L150.339 -13.6002C146.75 -15.1909 142.552 -13.5716 140.961 -9.98328L124.694 26.7116C123.103 30.2999 124.722 34.4984 128.31 36.0892L165.005 52.3567C168.594 53.9475 172.792 52.3282 174.383 48.7399L190.65 12.0449C192.241 8.45663 190.622 4.25815 187.034 2.66738ZM150.956 -14.9924C146.599 -16.9241 141.5 -14.9577 139.569 -10.6005L123.301 26.0944C121.37 30.4517 123.336 35.5498 127.693 37.4815L164.388 53.749C168.745 55.6807 173.844 53.7143 175.775 49.3571L192.043 12.6622C193.974 8.30492 192.008 3.20676 187.651 1.27512L150.956 -14.9924Z" fill="url(#paint7_linear_111_1103)"/>
</g>
<g filter="url(#filter7_d_111_1103)">
<path d="M44.6683 135.32L44.6503 135.298C41.9933 132.028 37.5664 125.859 37.5664 117.939C37.5664 108.519 43.4391 101.419 47.5271 97.3171C46.4935 95.9292 45.5478 94.4808 44.6851 92.9877L44.5758 92.7985L44.4714 92.6064C40.7345 85.7305 39.233 78.1536 39.233 70.5047C39.233 58.3246 43.9318 47.5852 52.4728 39.0442C61.8974 29.6195 74.1646 25.6763 87.2666 25.6763C93.805 25.6763 100.183 26.5386 106.239 28.4896C110.626 29.8151 116.102 31.8127 120.404 35.2521L122.911 37.1323L124.263 38.2134L124.736 38.6562C126.628 40.4259 128.673 42.6102 130.345 45.1987C131.933 47.6581 134.018 51.7671 134.018 57.0436C134.018 64.2281 130.377 70.2341 128.022 73.6714C127.508 74.4267 126.933 75.2212 126.297 76.0315C129.384 78.8268 131.878 82.1224 133.856 85.6414C137.899 92.5818 139.403 100.358 139.403 108.068C139.403 115.86 137.803 123.444 134.18 130.411L134.148 130.473L134.115 130.535C130.714 136.944 125.966 142.441 119.74 146.465C114.975 149.594 109.872 152.018 104.449 153.62C99.2133 155.167 93.8555 155.973 88.4204 155.973C83.0883 155.973 77.8503 155.348 72.7661 154.016L72.5866 153.969L72.4082 153.918C67.9337 152.64 63.5423 150.955 59.6241 148.633L59.3062 148.444L58.9968 148.242C56.2913 146.473 53.747 144.606 51.4176 142.626L51.2555 142.488L51.0969 142.347C49.3007 140.74 47.2043 138.689 45.4589 136.286L44.6683 135.32Z" fill="url(#paint8_linear_111_1103)"/>
<path fill-rule="evenodd" clip-rule="evenodd" d="M44.6673 135.319L44.6493 135.297C41.9923 132.027 37.5654 125.858 37.5654 117.938C37.5654 108.518 43.4381 101.418 47.5261 97.3161C46.4925 95.9282 45.5468 94.4798 44.6842 92.9867L44.5748 92.7975L44.4704 92.6054C40.7335 85.7295 39.232 78.1526 39.232 70.5038C39.232 58.3236 43.9308 47.5842 52.4718 39.0432C61.8965 29.6186 74.1636 25.6753 87.2656 25.6753C93.804 25.6753 100.182 26.5376 106.238 28.4886C110.625 29.8141 116.101 31.8117 120.403 35.2511L122.91 37.1313L124.262 38.2124L124.735 38.6552C126.627 40.4249 128.672 42.6093 130.344 45.1977C131.932 47.6571 134.017 51.7661 134.017 57.0426C134.017 64.2271 130.376 70.2331 128.021 73.6704C127.507 74.4257 126.932 75.2202 126.296 76.0306C129.383 78.8258 131.877 82.1214 133.855 85.6404C137.898 92.5808 139.402 100.357 139.402 108.067C139.402 115.859 137.802 123.443 134.179 130.411L134.147 130.472L134.114 130.534C130.713 136.943 125.965 142.44 119.739 146.464C114.974 149.593 109.871 152.017 104.448 153.619C99.2123 155.166 93.8545 155.972 88.4194 155.972C83.0873 155.972 77.8493 155.347 72.7651 154.015L72.5856 153.968L72.4072 153.917C67.9327 152.639 63.5413 150.954 59.6231 148.632L59.3052 148.443L58.9958 148.241C56.2903 146.472 53.746 144.605 51.4166 142.625L51.2545 142.487L51.0959 142.346C49.2997 140.739 47.2033 138.688 45.4579 136.285L44.6673 135.319ZM43.0466 138.148L42.3065 137.244L42.2853 137.218C42.2852 137.217 42.2854 137.218 42.2853 137.218C39.5455 133.845 34.5195 126.968 34.5195 117.938C34.5195 108.651 39.5286 101.504 43.5998 97.0219C43.0552 96.1985 42.5379 95.3605 42.0469 94.5106C42.0469 94.5106 42.0469 94.5107 42.0469 94.5106L41.9176 94.2869L41.7942 94.0598C37.7661 86.648 36.1861 78.548 36.1861 70.5038C36.1861 57.4756 41.2349 45.9726 50.318 36.8895C60.4328 26.7747 73.5411 22.6294 87.2656 22.6294C94.0612 22.6294 100.751 23.5244 107.145 25.5809C111.592 26.9257 117.505 29.0482 122.267 32.8418L124.776 34.7231L126.256 35.9076L126.816 36.4308C128.811 38.2975 131.048 40.6731 132.902 43.5452C134.658 46.2636 137.063 50.9529 137.063 57.0426C137.063 65.2015 132.953 71.8611 130.536 75.389C130.465 75.4931 130.393 75.5979 130.32 75.7034C132.776 78.28 134.819 81.1421 136.499 84.1276C140.872 91.6452 142.447 99.9795 142.447 108.067C142.447 116.281 140.759 124.358 136.881 131.816L136.843 131.889L136.805 131.961C133.19 138.774 128.107 144.68 121.402 149.016C116.407 152.295 111.036 154.848 105.311 156.54C99.8072 158.166 94.159 159.018 88.4194 159.018C82.8482 159.018 77.3494 158.365 71.9933 156.962L71.7813 156.906L71.5705 156.846C66.9349 155.522 62.2812 153.747 58.0703 151.252L57.6946 151.029L57.329 150.79C54.5355 148.964 51.8861 147.022 49.444 144.946L49.2524 144.783L49.0649 144.616C49.0649 144.615 49.0649 144.616 49.0649 144.616C47.2176 142.963 44.9643 140.771 43.0466 138.148Z" fill="url(#paint9_linear_111_1103)"/>
<path d="M44.6683 135.32L44.6503 135.298C41.9933 132.028 37.5664 125.859 37.5664 117.939C37.5664 108.519 43.4391 101.419 47.5271 97.3171C46.4935 95.9292 45.5478 94.4808 44.6851 92.9877L44.5758 92.7985L44.4714 92.6064C40.7345 85.7305 39.233 78.1536 39.233 70.5047C39.233 58.3246 43.9318 47.5852 52.4728 39.0442C61.8974 29.6195 74.1646 25.6763 87.2666 25.6763C93.805 25.6763 100.183 26.5386 106.239 28.4896C110.626 29.8151 116.102 31.8127 120.404 35.2521L122.911 37.1323L124.263 38.2134L124.736 38.6562C126.628 40.4259 128.673 42.6102 130.345 45.1987C131.933 47.6581 134.018 51.7671 134.018 57.0436C134.018 64.2281 130.377 70.2341 128.022 73.6714C127.508 74.4267 126.933 75.2212 126.297 76.0315C129.384 78.8268 131.878 82.1224 133.856 85.6414C137.899 92.5818 139.403 100.358 139.403 108.068C139.403 115.86 137.803 123.444 134.18 130.411L134.148 130.473L134.115 130.535C130.714 136.944 125.966 142.441 119.74 146.465C114.975 149.594 109.872 152.018 104.449 153.62C99.2133 155.167 93.8555 155.973 88.4204 155.973C83.0883 155.973 77.8503 155.348 72.7661 154.016L72.5866 153.969L72.4082 153.918C67.9337 152.64 63.5423 150.955 59.6241 148.633L59.3062 148.444L58.9968 148.242C56.2913 146.473 53.747 144.606 51.4176 142.626L51.2555 142.488L51.0969 142.347C49.3007 140.74 47.2043 138.689 45.4589 136.286L44.6683 135.32Z" fill="url(#paint10_linear_111_1103)"/>
<path fill-rule="evenodd" clip-rule="evenodd" d="M45.8324 134.338L45.847 134.356L45.8504 134.36L46.6653 135.356L46.691 135.391C48.3446 137.667 50.3503 139.635 52.1124 141.212L51.0969 142.347C49.3007 140.739 47.2043 138.689 45.4589 136.286L44.6683 135.32L44.6503 135.298C41.9933 132.028 37.5664 125.859 37.5664 117.939C37.5664 108.519 43.4391 101.419 47.5271 97.3171C46.4935 95.9292 45.5478 94.4808 44.6851 92.9877L44.5758 92.7985L44.4714 92.6064L45.8095 91.8792L45.9043 92.0537L46.0038 92.2258C46.8387 93.6709 47.7523 95.0697 48.7486 96.4075L49.5335 97.4615L48.6058 98.3922C44.5755 102.436 39.0893 109.158 39.0893 117.939C39.0893 125.304 43.2168 131.119 45.8324 134.338ZM106.239 28.4896C100.183 26.5386 93.805 25.6763 87.2666 25.6763C74.1646 25.6763 61.8974 29.6195 52.4728 39.0442C43.9318 47.5852 39.233 58.3246 39.233 70.5047C39.233 78.1536 40.7345 85.7305 44.4714 92.6064L45.8095 91.8792C42.2182 85.2712 40.756 77.9559 40.756 70.5047C40.756 58.7486 45.2798 48.391 53.5497 40.1211C62.6293 31.0415 74.4759 27.1992 87.2666 27.1992C93.6717 27.1992 99.8888 28.0439 105.772 29.9391L105.785 29.9434L105.798 29.9474C110.148 31.2618 115.389 33.1926 119.453 36.4417L119.472 36.4564L121.978 38.3363L123.265 39.3658L123.696 39.7683C125.535 41.4895 127.485 43.5783 129.065 46.0249C130.57 48.3548 132.495 52.1736 132.495 57.0436C132.495 63.7398 129.09 69.4184 126.766 72.8107L126.764 72.8141C126.266 73.5441 125.712 74.3105 125.099 75.0908L124.222 76.2075L125.275 77.1605C128.223 79.8298 130.619 82.9899 132.528 86.3876L132.534 86.3979L132.54 86.408C136.413 93.0571 137.88 100.55 137.88 108.068C137.88 115.649 136.324 122.987 132.829 129.709L132.802 129.76L132.797 129.77L132.77 129.821C129.477 136.027 124.897 141.319 118.914 145.186L118.909 145.189L118.904 145.192C114.255 148.245 109.287 150.602 104.017 152.159C98.9158 153.667 93.7033 154.45 88.4204 154.45C83.2078 154.45 78.1002 153.839 73.1519 152.543L72.9888 152.5L72.8265 152.454C68.4326 151.199 64.1724 149.558 60.4005 147.323L60.1115 147.151L59.8302 146.967C57.1687 145.227 54.677 143.398 52.404 141.466L52.2565 141.341L52.1124 141.212L51.0969 142.347L51.2555 142.488L51.4176 142.626C53.747 144.606 56.2913 146.473 58.9968 148.242L59.3062 148.444L59.6241 148.633C63.5423 150.955 67.9337 152.64 72.4082 153.918L72.5866 153.969L72.7661 154.016C77.8503 155.348 83.0883 155.973 88.4204 155.973C93.8555 155.973 99.2133 155.167 104.449 153.62C109.872 152.018 114.975 149.594 119.74 146.465C125.966 142.441 130.714 136.944 134.115 130.535L134.148 130.473L134.18 130.411C137.803 123.444 139.403 115.86 139.403 108.068C139.403 100.358 137.899 92.5818 133.856 85.6414C131.878 82.1224 129.384 78.8268 126.297 76.0315C126.933 75.2212 127.508 74.4267 128.022 73.6714C130.377 70.2341 134.018 64.2281 134.018 57.0436C134.018 51.7671 131.933 47.6581 130.345 45.1987C128.673 42.6102 126.628 40.4259 124.736 38.6562L124.263 38.2134L122.911 37.1323L120.404 35.2521C116.102 31.8127 110.626 29.8151 106.239 28.4896Z" fill="url(#paint11_linear_111_1103)"/>
<g filter="url(#filter8_d_111_1103)">
<path d="M57.6526 125.941C55.4304 123.206 54.3193 120.941 54.3193 119.146C54.3193 116.582 56.1569 113.505 59.832 109.915C61.9687 107.864 64.1054 106.839 66.2421 106.839C68.8916 106.839 72.1393 108.762 75.9854 112.608L76.6264 113.249C76.9683 113.676 77.4811 114.232 78.1648 114.915C78.8486 115.599 80.1733 116.539 82.1391 117.736C84.1048 118.847 86.0278 119.402 87.9081 119.402C95.8566 119.402 99.8309 116.155 99.8309 109.659C99.8309 107.693 98.7198 106.069 96.4976 104.787C94.3609 103.42 91.6687 102.437 88.4209 101.839C85.1732 101.24 81.669 100.3 77.9084 99.0183C74.1478 97.6508 70.6437 96.0697 67.3959 94.2748C64.1481 92.48 61.4132 89.6596 59.191 85.8136C57.0543 81.882 55.986 77.1813 55.986 71.7114C55.986 64.1902 58.7637 57.652 64.3191 52.0966C69.9599 46.4557 77.6093 43.6353 87.2671 43.6353C92.3952 43.6353 97.0532 44.319 101.241 45.6865C105.514 46.9685 108.463 48.2932 110.087 49.6607L112.651 51.5838L113.292 52.0966C115.942 54.5751 117.266 56.6263 117.266 58.2502C117.266 60.0451 116.241 62.4381 114.189 65.4295C111.284 69.7029 108.292 71.8396 105.215 71.8396C103.421 71.8396 101.198 70.9849 98.5488 69.2756C98.2924 69.1046 97.7796 68.6773 97.0104 67.9935C96.3267 67.3098 95.6857 66.797 95.0874 66.4551C94.4891 66.0278 93.4635 65.6432 92.0106 65.3013C90.6431 64.874 89.0192 64.6603 87.1389 64.6603C85.0877 64.6603 83.1219 65.344 81.2416 66.7115C79.4468 67.9935 78.5494 69.7029 78.5494 71.8396C78.5494 74.4036 79.6178 76.4121 81.7545 77.8651C83.9766 79.318 86.7116 80.3009 89.9593 80.8137C93.2071 81.3265 96.754 82.1384 100.6 83.2495C104.446 84.2751 107.993 85.5571 111.241 87.0956C114.489 88.634 117.181 91.3262 119.317 95.1723C121.54 98.9328 122.651 103.634 122.651 109.274C122.651 114.744 121.54 119.616 119.317 123.889C117.095 128.077 114.189 131.325 110.6 133.633C107.096 135.94 103.463 137.65 99.7027 138.761C95.9421 139.872 92.1815 140.427 88.4209 140.427C84.404 140.427 80.6006 139.957 77.011 139.017C73.4214 137.992 70.4727 136.795 68.1651 135.428C65.9429 133.975 63.9772 132.522 62.2678 131.069C60.6439 129.616 59.4901 128.376 58.8064 127.351L57.6526 125.941Z" fill="url(#paint12_linear_111_1103)"/>
</g>
<path d="M57.6526 121.042C55.4304 118.307 54.3193 116.042 54.3193 114.247C54.3193 111.683 56.1569 108.606 59.832 105.017C61.9687 102.966 64.1054 101.94 66.2421 101.94C68.8916 101.94 72.1393 103.863 75.9854 107.709L76.6264 108.35C76.9683 108.777 77.4811 109.333 78.1648 110.017C78.8486 110.7 80.1733 111.64 82.1391 112.837C84.1048 113.948 86.0278 114.504 87.9081 114.504C95.8566 114.504 99.8309 111.256 99.8309 104.76C99.8309 102.795 98.7198 101.171 96.4976 99.8887C94.3609 98.5212 91.6687 97.5383 88.4209 96.9401C85.1732 96.3418 81.669 95.4016 77.9084 94.1196C74.1478 92.7521 70.6437 91.171 67.3959 89.3762C64.1481 87.5813 61.4132 84.7609 59.191 80.9149C57.0543 76.9834 55.986 72.2826 55.986 66.8127C55.986 59.2916 58.7637 52.7533 64.3191 47.1979C69.9599 41.557 77.6093 38.7366 87.2671 38.7366C92.3952 38.7366 97.0532 39.4203 101.241 40.7878C105.514 42.0698 108.463 43.3946 110.087 44.762L112.651 46.6851L113.292 47.1979C115.942 49.6764 117.266 51.7277 117.266 53.3515C117.266 55.1464 116.241 57.5395 114.189 60.5308C111.284 64.8042 108.292 66.9409 105.215 66.9409C103.421 66.9409 101.198 66.0862 98.5488 64.3769C98.2924 64.2059 97.7796 63.7786 97.0104 63.0949C96.3267 62.4111 95.6857 61.8983 95.0874 61.5564C94.4891 61.1291 93.4635 60.7445 92.0106 60.4026C90.6431 59.9753 89.0192 59.7616 87.1389 59.7616C85.0877 59.7616 83.1219 60.4454 81.2416 61.8128C79.4468 63.0949 78.5494 64.8042 78.5494 66.9409C78.5494 69.5049 79.6178 71.5134 81.7545 72.9664C83.9766 74.4193 86.7116 75.4022 89.9593 75.915C93.2071 76.4278 96.754 77.2398 100.6 78.3508C104.446 79.3765 107.993 80.6585 111.241 82.1969C114.489 83.7353 117.181 86.4275 119.317 90.2736C121.54 94.0342 122.651 98.7349 122.651 104.376C122.651 109.846 121.54 114.717 119.317 118.991C117.095 123.179 114.189 126.426 110.6 128.734C107.096 131.042 103.463 132.751 99.7027 133.862C95.9421 134.973 92.1815 135.529 88.4209 135.529C84.404 135.529 80.6006 135.059 77.011 134.118C73.4214 133.093 70.4727 131.896 68.1651 130.529C65.9429 129.076 63.9772 127.623 62.2678 126.17C60.6439 124.717 59.4901 123.478 58.8064 122.452L57.6526 121.042Z" fill="url(#paint13_radial_111_1103)"/>
<g filter="url(#filter9_i_111_1103)">
<path d="M57.6526 121.042C55.4304 118.307 54.3193 116.042 54.3193 114.247C54.3193 111.683 56.1569 108.606 59.832 105.017C61.9687 102.966 64.1054 101.94 66.2421 101.94C68.8916 101.94 72.1393 103.863 75.9854 107.709L76.6264 108.35C76.9683 108.777 77.4811 109.333 78.1648 110.017C78.8486 110.7 80.1733 111.64 82.1391 112.837C84.1048 113.948 86.0278 114.504 87.9081 114.504C95.8566 114.504 99.8309 111.256 99.8309 104.76C99.8309 102.795 98.7198 101.171 96.4976 99.8887C94.3609 98.5212 91.6687 97.5383 88.4209 96.9401C85.1732 96.3418 81.669 95.4016 77.9084 94.1196C74.1478 92.7521 70.6437 91.171 67.3959 89.3762C64.1481 87.5813 61.4132 84.7609 59.191 80.9149C57.0543 76.9834 55.986 72.2826 55.986 66.8127C55.986 59.2916 58.7637 52.7533 64.3191 47.1979C69.9599 41.557 77.6093 38.7366 87.2671 38.7366C92.3952 38.7366 97.0532 39.4203 101.241 40.7878C105.514 42.0698 108.463 43.3946 110.087 44.762L112.651 46.6851L113.292 47.1979C115.942 49.6764 117.266 51.7277 117.266 53.3515C117.266 55.1464 116.241 57.5395 114.189 60.5308C111.284 64.8042 108.292 66.9409 105.215 66.9409C103.421 66.9409 101.198 66.0862 98.5488 64.3769C98.2924 64.2059 97.7796 63.7786 97.0104 63.0949C96.3267 62.4111 95.6857 61.8983 95.0874 61.5564C94.4891 61.1291 93.4635 60.7445 92.0106 60.4026C90.6431 59.9753 89.0192 59.7616 87.1389 59.7616C85.0877 59.7616 83.1219 60.4454 81.2416 61.8128C79.4468 63.0949 78.5494 64.8042 78.5494 66.9409C78.5494 69.5049 79.6178 71.5134 81.7545 72.9664C83.9766 74.4193 86.7116 75.4022 89.9593 75.915C93.2071 76.4278 96.754 77.2398 100.6 78.3508C104.446 79.3765 107.993 80.6585 111.241 82.1969C114.489 83.7353 117.181 86.4275 119.317 90.2736C121.54 94.0342 122.651 98.7349 122.651 104.376C122.651 109.846 121.54 114.717 119.317 118.991C117.095 123.179 114.189 126.426 110.6 128.734C107.096 131.042 103.463 132.751 99.7027 133.862C95.9421 134.973 92.1815 135.529 88.4209 135.529C84.404 135.529 80.6006 135.059 77.011 134.118C73.4214 133.093 70.4727 131.896 68.1651 130.529C65.9429 129.076 63.9772 127.623 62.2678 126.17C60.6439 124.717 59.4901 123.478 58.8064 122.452L57.6526 121.042Z" fill="white" fill-opacity="0.06"/>
<path d="M57.6526 121.042C55.4304 118.307 54.3193 116.042 54.3193 114.247C54.3193 111.683 56.1569 108.606 59.832 105.017C61.9687 102.966 64.1054 101.94 66.2421 101.94C68.8916 101.94 72.1393 103.863 75.9854 107.709L76.6264 108.35C76.9683 108.777 77.4811 109.333 78.1648 110.017C78.8486 110.7 80.1733 111.64 82.1391 112.837C84.1048 113.948 86.0278 114.504 87.9081 114.504C95.8566 114.504 99.8309 111.256 99.8309 104.76C99.8309 102.795 98.7198 101.171 96.4976 99.8887C94.3609 98.5212 91.6687 97.5383 88.4209 96.9401C85.1732 96.3418 81.669 95.4016 77.9084 94.1196C74.1478 92.7521 70.6437 91.171 67.3959 89.3762C64.1481 87.5813 61.4132 84.7609 59.191 80.9149C57.0543 76.9834 55.986 72.2826 55.986 66.8127C55.986 59.2916 58.7637 52.7533 64.3191 47.1979C69.9599 41.557 77.6093 38.7366 87.2671 38.7366C92.3952 38.7366 97.0532 39.4203 101.241 40.7878C105.514 42.0698 108.463 43.3946 110.087 44.762L112.651 46.6851L113.292 47.1979C115.942 49.6764 117.266 51.7277 117.266 53.3515C117.266 55.1464 116.241 57.5395 114.189 60.5308C111.284 64.8042 108.292 66.9409 105.215 66.9409C103.421 66.9409 101.198 66.0862 98.5488 64.3769C98.2924 64.2059 97.7796 63.7786 97.0104 63.0949C96.3267 62.4111 95.6857 61.8983 95.0874 61.5564C94.4891 61.1291 93.4635 60.7445 92.0106 60.4026C90.6431 59.9753 89.0192 59.7616 87.1389 59.7616C85.0877 59.7616 83.1219 60.4454 81.2416 61.8128C79.4468 63.0949 78.5494 64.8042 78.5494 66.9409C78.5494 69.5049 79.6178 71.5134 81.7545 72.9664C83.9766 74.4193 86.7116 75.4022 89.9593 75.915C93.2071 76.4278 96.754 77.2398 100.6 78.3508C104.446 79.3765 107.993 80.6585 111.241 82.1969C114.489 83.7353 117.181 86.4275 119.317 90.2736C121.54 94.0342 122.651 98.7349 122.651 104.376C122.651 109.846 121.54 114.717 119.317 118.991C117.095 123.179 114.189 126.426 110.6 128.734C107.096 131.042 103.463 132.751 99.7027 133.862C95.9421 134.973 92.1815 135.529 88.4209 135.529C84.404 135.529 80.6006 135.059 77.011 134.118C73.4214 133.093 70.4727 131.896 68.1651 130.529C65.9429 129.076 63.9772 127.623 62.2678 126.17C60.6439 124.717 59.4901 123.478 58.8064 122.452L57.6526 121.042Z" fill="url(#paint14_linear_111_1103)"/>
</g>
<path fill-rule="evenodd" clip-rule="evenodd" d="M82.1391 112.837C80.1733 111.64 78.8486 110.7 78.1648 110.017C77.4811 109.333 76.9683 108.777 76.6264 108.35L75.9854 107.709C72.1393 103.863 68.8916 101.94 66.2421 101.94C64.1054 101.94 61.9687 102.966 59.832 105.017C56.1569 108.606 54.3193 111.683 54.3193 114.247C54.3193 116.042 55.4304 118.307 57.6526 121.042L58.8064 122.452C59.4901 123.478 60.6439 124.717 62.2678 126.17C63.9772 127.623 65.9429 129.076 68.1651 130.529C70.4727 131.896 73.4214 133.093 77.011 134.118C80.6006 135.059 84.404 135.529 88.4209 135.529C92.1815 135.529 95.9421 134.973 99.7027 133.862C103.463 132.751 107.096 131.042 110.6 128.734C114.189 126.426 117.095 123.179 119.317 118.991C121.54 114.717 122.651 109.846 122.651 104.376C122.651 98.7349 121.54 94.0342 119.317 90.2736C117.181 86.4275 114.489 83.7353 111.241 82.1969C107.993 80.6585 104.446 79.3765 100.6 78.3508C96.754 77.2398 93.2071 76.4278 89.9593 75.915C86.7116 75.4022 83.9766 74.4193 81.7545 72.9664C79.6178 71.5134 78.5494 69.5049 78.5494 66.9409C78.5494 64.8042 79.4468 63.0949 81.2416 61.8128C83.1219 60.4454 85.0877 59.7616 87.1389 59.7616C89.0192 59.7616 90.6431 59.9753 92.0106 60.4026C93.4635 60.7445 94.4891 61.1291 95.0874 61.5564C95.6857 61.8983 96.3267 62.4111 97.0104 63.0949C97.7796 63.7786 98.2924 64.2059 98.5488 64.3769C101.198 66.0862 103.421 66.9409 105.215 66.9409C108.292 66.9409 111.284 64.8042 114.189 60.5308C116.241 57.5395 117.266 55.1464 117.266 53.3515C117.266 51.7277 115.942 49.6764 113.292 47.1979L112.651 46.6851L110.087 44.762C108.463 43.3946 105.514 42.0698 101.241 40.7878C97.0532 39.4203 92.3952 38.7366 87.2671 38.7366C77.6093 38.7366 69.9599 41.557 64.3191 47.1979C58.7637 52.7533 55.986 59.2916 55.986 66.8127C55.986 72.2826 57.0543 76.9834 59.191 80.9149C61.4132 84.7609 64.1481 87.5813 67.3959 89.3762C70.6437 91.171 74.1478 92.7521 77.9084 94.1196C81.669 95.4016 85.1732 96.3418 88.4209 96.9401C91.6687 97.5383 94.3609 98.5212 96.4976 99.8887C98.7198 101.171 99.8309 102.795 99.8309 104.76C99.8309 111.256 95.8566 114.504 87.9081 114.504C86.0278 114.504 84.1048 113.948 82.1391 112.837ZM97.8173 97.7198C100.522 99.2961 102.369 101.629 102.369 104.76C102.369 108.55 101.185 111.803 98.4563 114.033C95.8258 116.183 92.1632 117.042 87.9081 117.042C85.51 117.042 83.1604 116.33 80.8901 115.047L80.8544 115.027L80.8193 115.005C78.8523 113.808 77.2905 112.732 76.37 111.811C75.7125 111.154 75.1574 110.562 74.7385 110.052L74.1906 109.504C72.3579 107.671 70.7521 106.384 69.3718 105.566C67.9822 104.743 66.9584 104.478 66.2421 104.478C64.9803 104.478 63.4429 105.071 61.5975 106.84C57.9909 110.365 56.8576 112.794 56.8576 114.247C56.8576 115.114 57.4658 116.786 59.6199 119.438C59.6208 119.439 59.6217 119.44 59.6225 119.441L60.8495 120.941L60.9183 121.044C61.4232 121.801 62.3842 122.866 63.9364 124.257C65.5342 125.613 67.3883 126.986 69.5063 128.373C71.5588 129.582 74.2646 130.692 77.681 131.67C81.0364 132.546 84.6134 132.99 88.4209 132.99C91.9278 132.99 95.4464 132.473 98.9835 131.428C102.488 130.392 105.894 128.794 109.204 126.614L109.215 126.606L109.227 126.599C112.409 124.554 115.03 121.653 117.071 117.81C119.077 113.947 120.112 109.49 120.112 104.376C120.112 99.0595 119.065 94.8361 117.132 91.5649L117.115 91.5358L117.099 91.5063C115.161 88.0179 112.824 85.7556 110.154 84.4908C107.059 83.0248 103.659 81.7935 99.9461 80.8034L99.9208 80.7966L99.8956 80.7894C96.13 79.7015 92.6876 78.9155 89.5635 78.4222C86.0435 77.8664 82.9505 76.781 80.3654 75.0908L80.3462 75.0782L80.3272 75.0653C77.502 73.1442 76.0112 70.3532 76.0112 66.9409C76.0112 63.9574 77.3267 61.4938 79.7572 59.754C82.0087 58.1187 84.4845 57.2234 87.1389 57.2234C89.164 57.2234 91.0251 57.4482 92.6782 57.9523C94.1038 58.2927 95.456 58.7399 96.4502 59.4128C97.248 59.8841 98.014 60.5155 98.7499 61.2449C99.0991 61.5547 99.38 61.7975 99.5969 61.9782C99.7106 62.073 99.7996 62.1448 99.8668 62.197C99.9145 62.2341 99.942 62.2542 99.9528 62.262C102.449 63.868 104.158 64.4027 105.215 64.4027C107.007 64.4027 109.335 63.1564 112.09 59.1036L112.093 59.0995L112.096 59.0954C114.101 56.1709 114.728 54.3271 114.728 53.3515C114.728 53.2161 114.663 52.7806 114.14 51.9723C113.641 51.1984 112.828 50.2473 111.628 49.1173L111.096 48.6918L108.507 46.7497L108.452 46.7036C107.253 45.6938 104.739 44.4871 100.512 43.219L100.482 43.2102L100.453 43.2007C96.5575 41.9286 92.1705 41.2748 87.2671 41.2748C78.1311 41.2748 71.1814 43.9251 66.1139 48.9927C61.0108 54.0957 58.5242 59.9975 58.5242 66.8127C58.5242 71.9383 59.5214 76.1939 61.4055 79.6739C63.4391 83.1841 65.8604 85.6276 68.6236 87.1546C71.7402 88.877 75.115 90.4017 78.7518 91.7254C82.4084 92.9709 85.7832 93.8732 88.8808 94.4438C92.3362 95.0803 95.3433 96.1476 97.8173 97.7198Z" fill="url(#paint15_linear_111_1103)"/>
</g>
<g filter="url(#filter10_i_111_1103)">
<path d="M160.031 29.6175C160.373 29.7747 160.6 29.9826 160.712 30.2411C160.823 30.4997 160.809 30.7811 160.67 31.0855C160.521 31.409 160.313 31.6126 160.044 31.6966C159.794 31.7892 159.488 31.7526 159.127 31.5867L149.681 27.2514C149.319 27.0855 149.083 26.8733 148.971 26.6147C148.878 26.3649 148.906 26.0783 149.055 25.7548C149.194 25.4504 149.399 25.2563 149.668 25.1724C149.936 25.0885 150.242 25.1251 150.584 25.2823L154.123 26.9064L161.143 11.61L157.103 12.2086C156.907 12.2338 156.733 12.2115 156.581 12.1417C156.314 12.0194 156.133 11.7866 156.038 11.4433C155.961 11.1086 155.988 10.7986 156.119 10.5132C156.302 10.1137 156.585 9.89816 156.968 9.86664L162.603 9.0322C163.022 8.97136 163.403 9.01952 163.746 9.17669C164.069 9.32513 164.288 9.55201 164.401 9.85734C164.514 10.1627 164.483 10.5056 164.309 10.8861L156.463 27.9804L160.031 29.6175Z" fill="#641BCC"/>
</g>
</g>
<defs>
<filter id="filter0_f_111_1103" x="117.592" y="114.235" width="94.8174" height="94.8178" filterUnits="userSpaceOnUse" color-interpolation-filters="sRGB">
<feFlood flood-opacity="0" result="BackgroundImageFix"/>
<feBlend mode="normal" in="SourceGraphic" in2="BackgroundImageFix" result="shape"/>
<feGaussianBlur stdDeviation="7" result="effect1_foregroundBlur_111_1103"/>
</filter>
<filter id="filter1_i_111_1103" x="150.027" y="138.902" width="19.0176" height="22.7223" filterUnits="userSpaceOnUse" color-interpolation-filters="sRGB">
<feFlood flood-opacity="0" result="BackgroundImageFix"/>
<feBlend mode="normal" in="SourceGraphic" in2="BackgroundImageFix" result="shape"/>
<feColorMatrix in="SourceAlpha" type="matrix" values="0 0 0 0 0 0 0 0 0 0 0 0 0 0 0 0 0 0 127 0" result="hardAlpha"/>
<feOffset dy="1"/>
<feGaussianBlur stdDeviation="2"/>
<feComposite in2="hardAlpha" operator="arithmetic" k2="-1" k3="1"/>
<feColorMatrix type="matrix" values="0 0 0 0 0 0 0 0 0 0 0 0 0 0 0 0 0 0 0.08 0"/>
<feBlend mode="normal" in2="shape" result="effect1_innerShadow_111_1103"/>
</filter>
<filter id="filter2_f_111_1103" x="-36.6055" y="36.3772" width="94.8174" height="94.8178" filterUnits="userSpaceOnUse" color-interpolation-filters="sRGB">
<feFlood flood-opacity="0" result="BackgroundImageFix"/>
<feBlend mode="normal" in="SourceGraphic" in2="BackgroundImageFix" result="shape"/>
<feGaussianBlur stdDeviation="7" result="effect1_foregroundBlur_111_1103"/>
</filter>
<filter id="filter3_i_111_1103" x="-1.46387" y="60.5373" width="19.0332" height="22.7223" filterUnits="userSpaceOnUse" color-interpolation-filters="sRGB">
<feFlood flood-opacity="0" result="BackgroundImageFix"/>
<feBlend mode="normal" in="SourceGraphic" in2="BackgroundImageFix" result="shape"/>
<feColorMatrix in="SourceAlpha" type="matrix" values="0 0 0 0 0 0 0 0 0 0 0 0 0 0 0 0 0 0 127 0" result="hardAlpha"/>
<feOffset dy="1"/>
<feGaussianBlur stdDeviation="2"/>
<feComposite in2="hardAlpha" operator="arithmetic" k2="-1" k3="1"/>
<feColorMatrix type="matrix" values="0 0 0 0 0 0 0 0 0 0 0 0 0 0 0 0 0 0 0.08 0"/>
<feBlend mode="normal" in2="shape" result="effect1_innerShadow_111_1103"/>
</filter>
<filter id="filter4_f_111_1103" x="-9.06152" y="120.846" width="94.8174" height="94.8178" filterUnits="userSpaceOnUse" color-interpolation-filters="sRGB">
<feFlood flood-opacity="0" result="BackgroundImageFix"/>
<feBlend mode="normal" in="SourceGraphic" in2="BackgroundImageFix" result="shape"/>
<feGaussianBlur stdDeviation="7" result="effect1_foregroundBlur_111_1103"/>
</filter>
<filter id="filter5_i_111_1103" x="24.2734" y="144.468" width="19.2031" height="24.8773" filterUnits="userSpaceOnUse" color-interpolation-filters="sRGB">
<feFlood flood-opacity="0" result="BackgroundImageFix"/>
<feBlend mode="normal" in="SourceGraphic" in2="BackgroundImageFix" result="shape"/>
<feColorMatrix in="SourceAlpha" type="matrix" values="0 0 0 0 0 0 0 0 0 0 0 0 0 0 0 0 0 0 127 0" result="hardAlpha"/>
<feOffset dy="1"/>
<feGaussianBlur stdDeviation="2"/>
<feComposite in2="hardAlpha" operator="arithmetic" k2="-1" k3="1"/>
<feColorMatrix type="matrix" values="0 0 0 0 0 0 0 0 0 0 0 0 0 0 0 0 0 0 0.08 0"/>
<feBlend mode="normal" in2="shape" result="effect1_innerShadow_111_1103"/>
</filter>
<filter id="filter6_f_111_1103" x="115.16" y="-15.0132" width="94.8174" height="94.8178" filterUnits="userSpaceOnUse" color-interpolation-filters="sRGB">
<feFlood flood-opacity="0" result="BackgroundImageFix"/>
<feBlend mode="normal" in="SourceGraphic" in2="BackgroundImageFix" result="shape"/>
<feGaussianBlur stdDeviation="7" result="effect1_foregroundBlur_111_1103"/>
</filter>
<filter id="filter7_d_111_1103" x="-14.4805" y="-30.3706" width="205.928" height="234.389" filterUnits="userSpaceOnUse" color-interpolation-filters="sRGB">
<feFlood flood-opacity="0" result="BackgroundImageFix"/>
<feColorMatrix in="SourceAlpha" type="matrix" values="0 0 0 0 0 0 0 0 0 0 0 0 0 0 0 0 0 0 127 0" result="hardAlpha"/>
<feOffset dy="-4"/>
<feGaussianBlur stdDeviation="24.5"/>
<feColorMatrix type="matrix" values="0 0 0 0 1 0 0 0 0 1 0 0 0 0 1 0 0 0 1 0"/>
<feBlend mode="normal" in2="BackgroundImageFix" result="effect1_dropShadow_111_1103"/>
<feBlend mode="normal" in="SourceGraphic" in2="effect1_dropShadow_111_1103" result="shape"/>
</filter>
<filter id="filter8_d_111_1103" x="48.3193" y="39.6353" width="80.3311" height="108.792" filterUnits="userSpaceOnUse" color-interpolation-filters="sRGB">
<feFlood flood-opacity="0" result="BackgroundImageFix"/>
<feColorMatrix in="SourceAlpha" type="matrix" values="0 0 0 0 0 0 0 0 0 0 0 0 0 0 0 0 0 0 127 0" result="hardAlpha"/>
<feOffset dy="2"/>
<feGaussianBlur stdDeviation="3"/>
<feColorMatrix type="matrix" values="0 0 0 0 0.131354 0 0 0 0 0.1391 0 0 0 0 0.325 0 0 0 0.2 0"/>
<feBlend mode="normal" in2="BackgroundImageFix" result="effect1_dropShadow_111_1103"/>
<feBlend mode="normal" in="SourceGraphic" in2="effect1_dropShadow_111_1103" result="shape"/>
</filter>
<filter id="filter9_i_111_1103" x="54.3193" y="38.7366" width="68.3311" height="97.7921" filterUnits="userSpaceOnUse" color-interpolation-filters="sRGB">
<feFlood flood-opacity="0" result="BackgroundImageFix"/>
<feBlend mode="normal" in="SourceGraphic" in2="BackgroundImageFix" result="shape"/>
<feColorMatrix in="SourceAlpha" type="matrix" values="0 0 0 0 0 0 0 0 0 0 0 0 0 0 0 0 0 0 127 0" result="hardAlpha"/>
<feOffset dy="1"/>
<feGaussianBlur stdDeviation="5"/>
<feComposite in2="hardAlpha" operator="arithmetic" k2="-1" k3="1"/>
<feColorMatrix type="matrix" values="0 0 0 0 0.325 0 0 0 0 0.325 0 0 0 0 0.325 0 0 0 0.69 0"/>
<feBlend mode="screen" in2="shape" result="effect1_innerShadow_111_1103"/>
</filter>
<filter id="filter10_i_111_1103" x="148.918" y="9.00673" width="15.5498" height="23.7396" filterUnits="userSpaceOnUse" color-interpolation-filters="sRGB">
<feFlood flood-opacity="0" result="BackgroundImageFix"/>
<feBlend mode="normal" in="SourceGraphic" in2="BackgroundImageFix" result="shape"/>
<feColorMatrix in="SourceAlpha" type="matrix" values="0 0 0 0 0 0 0 0 0 0 0 0 0 0 0 0 0 0 127 0" result="hardAlpha"/>
<feOffset dy="1"/>
<feGaussianBlur stdDeviation="2"/>
<feComposite in2="hardAlpha" operator="arithmetic" k2="-1" k3="1"/>
<feColorMatrix type="matrix" values="0 0 0 0 0 0 0 0 0 0 0 0 0 0 0 0 0 0 0.08 0"/>
<feBlend mode="normal" in2="shape" result="effect1_innerShadow_111_1103"/>
</filter>
<linearGradient id="paint0_linear_111_1103" x1="167.005" y1="8.14277" x2="63.0586" y2="179.407" gradientUnits="userSpaceOnUse">
<stop stop-color="#FAFDFF"/>
<stop offset="0.479167" stop-color="white"/>
<stop offset="1" stop-color="#FCFEFF"/>
</linearGradient>
<linearGradient id="paint1_linear_111_1103" x1="167.673" y1="115.072" x2="167.673" y2="164.568" gradientUnits="userSpaceOnUse">
<stop stop-color="#CECECE"/>
<stop offset="1" stop-color="#D1D1D1" stop-opacity="0"/>
</linearGradient>
<linearGradient id="paint2_linear_111_1103" x1="13.8589" y1="54.2108" x2="-2.28148" y2="97.0178" gradientUnits="userSpaceOnUse">
<stop stop-color="#FF77B8"/>
<stop offset="0.812394" stop-color="#FF006D"/>
</linearGradient>
<linearGradient id="paint3_linear_111_1103" x1="-0.231032" y1="25.0321" x2="8.65279" y2="84.6806" gradientUnits="userSpaceOnUse">
<stop stop-color="white"/>
<stop offset="1" stop-color="white" stop-opacity="0"/>
</linearGradient>
<linearGradient id="paint4_linear_111_1103" x1="39.0825" y1="140.53" x2="22.9421" y2="177.022" gradientUnits="userSpaceOnUse">
<stop stop-color="#FFE380"/>
<stop offset="1" stop-color="#FFC319"/>
</linearGradient>
<linearGradient id="paint5_linear_111_1103" x1="27.3129" y1="109.5" x2="36.1968" y2="169.148" gradientUnits="userSpaceOnUse">
<stop stop-color="white"/>
<stop offset="1" stop-color="white" stop-opacity="0"/>
</linearGradient>
<linearGradient id="paint6_linear_111_1103" x1="163.685" y1="13.1579" x2="157.674" y2="54.4919" gradientUnits="userSpaceOnUse">
<stop stop-color="#A670FF"/>
<stop offset="1" stop-color="#7B1DFF"/>
</linearGradient>
<linearGradient id="paint7_linear_111_1103" x1="151.532" y1="-26.3585" x2="160.416" y2="33.29" gradientUnits="userSpaceOnUse">
<stop stop-color="white"/>
<stop offset="1" stop-color="white" stop-opacity="0"/>
</linearGradient>
<linearGradient id="paint8_linear_111_1103" x1="85.7929" y1="25.6763" x2="88.3311" y2="156.142" gradientUnits="userSpaceOnUse">
<stop offset="0.0260417" stop-color="#418AFF"/>
<stop offset="0.473958" stop-color="#2D7AF5"/>
<stop offset="1" stop-color="#114DAC"/>
</linearGradient>
<linearGradient id="paint9_linear_111_1103" x1="88.4835" y1="25.6753" x2="88.4835" y2="155.972" gradientUnits="userSpaceOnUse">
<stop stop-color="#E7E1E1"/>
<stop offset="1" stop-color="#A0A0A0"/>
</linearGradient>
<linearGradient id="paint10_linear_111_1103" x1="115.236" y1="51.0586" x2="88.3311" y2="162.741" gradientUnits="userSpaceOnUse">
<stop stop-color="#2C7DFF"/>
<stop offset="0.223958" stop-color="#26BEFF"/>
<stop offset="0.609893" stop-color="#267AFF"/>
<stop offset="1" stop-color="#0C4BAF"/>
</linearGradient>
<linearGradient id="paint11_linear_111_1103" x1="111.755" y1="39.1234" x2="80.7164" y2="142.435" gradientUnits="userSpaceOnUse">
<stop stop-color="#09ACFF"/>
<stop offset="1" stop-color="#175FD2"/>
</linearGradient>
<linearGradient id="paint12_linear_111_1103" x1="318.689" y1="43.6353" x2="318.689" y2="140.684" gradientUnits="userSpaceOnUse">
<stop offset="0.046875" stop-color="#202B45"/>
<stop offset="0.338542" stop-color="#D4D6DB"/>
<stop offset="1" stop-color="#33436D"/>
</linearGradient>
<radialGradient id="paint13_radial_111_1103" cx="0" cy="0" r="1" gradientUnits="userSpaceOnUse" gradientTransform="translate(318.689 50.6071) rotate(89.795) scale(89.4994 487.611)">
<stop stop-color="white"/>
<stop offset="1" stop-color="#D5D5D5"/>
</radialGradient>
<linearGradient id="paint14_linear_111_1103" x1="88.3317" y1="49.3972" x2="79.194" y2="145.85" gradientUnits="userSpaceOnUse">
<stop stop-color="#EFEFEF"/>
<stop offset="0.859708" stop-color="#E4E4E4"/>
<stop offset="1" stop-color="#878282"/>
</linearGradient>
<linearGradient id="paint15_linear_111_1103" x1="318.689" y1="38.7366" x2="318.689" y2="135.785" gradientUnits="userSpaceOnUse">
<stop stop-color="#FCFCFC"/>
<stop offset="0.557292" stop-color="white" stop-opacity="0.04"/>
<stop offset="1" stop-color="white" stop-opacity="0.52"/>
</linearGradient>
<clipPath id="clip0_111_1103">
<rect width="180" height="180" fill="white"/>
</clipPath>
</defs>
</svg>
