<svg width="30" height="25" viewBox="0 0 30 25" fill="none" xmlns="http://www.w3.org/2000/svg">
<g clip-path="url(#clip0_2511_3)">
<rect x="-1" width="32" height="26.1905" fill="#EC1C24"/>
<path d="M30 18.75C30 22.2017 28.4189 25 25.3125 25H4.6875C1.58109 25 0 22.2017 0 18.75V6.25C0 2.7983 1.58109 0 4.6875 0H25.3125C28.4189 0 30 2.7983 30 6.25V18.75Z" fill="#EC1C24"/>
<path d="M6.08016 3.54549L7.08282 5.85941L9.33047 6.22961L7.70532 8.02738L8.08828 10.5735L6.08016 9.37237L4.07157 10.5735L4.455 8.02738L2.83125 6.22961L5.07516 5.85941L6.08016 3.54549ZM9.61266 1.59485L9.89063 2.23672L10.5159 2.33952L10.0645 2.8397L10.17 3.54549L9.61266 3.21204L9.05578 3.54549L9.16125 2.8397L8.71032 2.33952L9.33422 2.23672L9.61266 1.59485ZM11.4178 3.90344L11.6963 4.54478L12.3188 4.64812L11.8692 5.14936L11.9752 5.85408L11.4178 5.52116L10.8609 5.85408L10.9664 5.14936L10.5159 4.64812L11.1389 4.54478L11.4178 3.90344ZM11.4178 7.6087L11.6963 8.25163L12.3188 8.35444L11.8692 8.85461L11.9752 9.5604L11.4178 9.22802L10.8609 9.5604L10.9664 8.85461L10.5159 8.35444L11.1389 8.25163L11.4178 7.6087ZM9.61266 10.2113L9.89063 10.8532L10.5159 10.9555L10.0645 11.4551L10.17 12.162L9.61266 11.8306L9.05578 12.162L9.16125 11.4551L8.71032 10.9555L9.33422 10.8532L9.61266 10.2113Z" fill="#F9CB38"/>
</g>
<defs>
<clipPath id="clip0_2511_3">
<rect width="30" height="25" rx="12.5" fill="white"/>
</clipPath>
</defs>
</svg>
