<svg width="35" height="35" viewBox="0 0 35 35" fill="none" xmlns="http://www.w3.org/2000/svg">
<path d="M17.5 0C14.0388 0 10.6554 1.02636 7.77753 2.94928C4.89967 4.87221 2.65665 7.60533 1.33212 10.803C0.00758247 14.0007 -0.338976 17.5194 0.336265 20.9141C1.01151 24.3087 2.67822 27.4269 5.12564 29.8744C7.57306 32.3218 10.6913 33.9885 14.0859 34.6637C17.4806 35.339 20.9993 34.9924 24.197 33.6679C27.3947 32.3434 30.1278 30.1003 32.0507 27.2225C33.9736 24.3446 35 20.9612 35 17.5C35 15.2019 34.5474 12.9262 33.6679 10.803C32.7884 8.67984 31.4994 6.75066 29.8744 5.12563C28.2493 3.50061 26.3202 2.21157 24.197 1.33211C22.0738 0.452651 19.7981 0 17.5 0V0ZM22.2425 19.7575C22.4065 19.9202 22.5367 20.1137 22.6256 20.327C22.7144 20.5402 22.7602 20.769 22.7602 21C22.7602 21.231 22.7144 21.4598 22.6256 21.673C22.5367 21.8863 22.4065 22.0798 22.2425 22.2425C22.0798 22.4065 21.8863 22.5367 21.673 22.6256C21.4598 22.7144 21.231 22.7601 21 22.7601C20.769 22.7601 20.5402 22.7144 20.327 22.6256C20.1137 22.5367 19.9202 22.4065 19.7575 22.2425L17.5 19.9675L15.2425 22.2425C15.0798 22.4065 14.8863 22.5367 14.673 22.6256C14.4598 22.7144 14.231 22.7601 14 22.7601C13.769 22.7601 13.5402 22.7144 13.327 22.6256C13.1137 22.5367 12.9202 22.4065 12.7575 22.2425C12.5935 22.0798 12.4633 21.8863 12.3744 21.673C12.2856 21.4598 12.2399 21.231 12.2399 21C12.2399 20.769 12.2856 20.5402 12.3744 20.327C12.4633 20.1137 12.5935 19.9202 12.7575 19.7575L15.0325 17.5L12.7575 15.2425C12.428 14.913 12.2428 14.466 12.2428 14C12.2428 13.534 12.428 13.087 12.7575 12.7575C13.087 12.428 13.534 12.2428 14 12.2428C14.466 12.2428 14.913 12.428 15.2425 12.7575L17.5 15.0325L19.7575 12.7575C20.087 12.428 20.534 12.2428 21 12.2428C21.466 12.2428 21.913 12.428 22.2425 12.7575C22.572 13.087 22.7572 13.534 22.7572 14C22.7572 14.466 22.572 14.913 22.2425 15.2425L19.9675 17.5L22.2425 19.7575Z" fill="white"/>
</svg>
