<svg width="45" height="45" viewBox="0 0 45 45" fill="none" xmlns="http://www.w3.org/2000/svg">
<circle cx="22.5" cy="22.5" r="21.5" fill="url(#paint0_linear_98_51)" stroke="white" stroke-width="2"/>
<rect x="4.85547" y="6.32568" width="35.2887" height="30.8777" rx="10.5" fill="white"/>
<path d="M20.4426 18.6914L18.59 16.8902C18.1782 16.5128 17.689 16.3324 17.1222 16.3488C16.5568 16.3667 16.0854 16.5643 15.708 16.9417C15.3306 17.3191 15.1419 17.7994 15.1419 18.3826C15.1419 18.9659 15.3306 19.4462 15.708 19.8236L21.0602 25.1757C21.4376 25.5531 21.9179 25.7418 22.5011 25.7418C23.0844 25.7418 23.5647 25.5531 23.9421 25.1757L29.3457 19.7721C29.7231 19.3947 29.9035 18.9227 29.8871 18.3559C29.8692 17.7905 29.6716 17.3191 29.2942 16.9417C28.9168 16.5643 28.4365 16.3667 27.8532 16.3488C27.27 16.3324 26.7897 16.53 26.4123 16.9417L24.5596 18.6914V12.1556C24.5596 11.5724 24.3627 11.0921 23.9688 10.7147C23.5736 10.3373 23.0844 10.1486 22.5011 10.1486C21.9179 10.1486 21.4293 10.3455 21.0355 10.7394C20.6402 11.1346 20.4426 11.6239 20.4426 12.2071V18.6914ZM14.2671 32.7922H30.7866C31.3699 32.7922 31.8502 32.5946 32.2276 32.1994C32.605 31.8055 32.7937 31.3169 32.7937 30.7337C32.7937 30.1505 32.5961 29.6612 32.2008 29.266C31.807 28.8721 31.3184 28.6752 30.7352 28.6752H14.2156C13.6324 28.6752 13.1521 28.8721 12.7747 29.266C12.3973 29.6612 12.2086 30.1505 12.2086 30.7337C12.2086 31.3169 12.4055 31.8055 12.7994 32.1994C13.1946 32.5946 13.6838 32.7922 14.2671 32.7922ZM22.5011 43.0848C19.6535 43.0848 16.9775 42.5441 14.4729 41.4627C11.9684 40.3826 9.78982 38.9163 7.93716 37.0636C6.0845 35.211 4.61815 33.0324 3.53812 30.5278C2.45672 28.0233 1.91602 25.3473 1.91602 22.4997C1.91602 19.652 2.45672 16.976 3.53812 14.4715C4.61815 11.9669 6.0845 9.78835 7.93716 7.93569C9.78982 6.08304 11.9684 4.616 14.4729 3.5346C16.9775 2.45457 19.6535 1.91455 22.5011 1.91455C25.3487 1.91455 28.0248 2.45457 30.5293 3.5346C33.0338 4.616 35.2124 6.08304 37.0651 7.93569C38.9177 9.78835 40.3841 11.9669 41.4641 14.4715C42.5455 16.976 43.0862 19.652 43.0862 22.4997C43.0862 25.3473 42.5455 28.0233 41.4641 30.5278C40.3841 33.0324 38.9177 35.211 37.0651 37.0636C35.2124 38.9163 33.0338 40.3826 30.5293 41.4627C28.0248 42.5441 25.3487 43.0848 22.5011 43.0848Z" fill="url(#paint1_linear_98_51)"/>
<defs>
<linearGradient id="paint0_linear_98_51" x1="22.5254" y1="-7.56296" x2="22.5254" y2="51.9323" gradientUnits="userSpaceOnUse">
<stop offset="0.0260417" stop-color="#418AFF"/>
<stop offset="0.473958" stop-color="#2D7AF5"/>
<stop offset="1" stop-color="#114DAC"/>
</linearGradient>
<linearGradient id="paint1_linear_98_51" x1="22.5244" y1="-5.00476" x2="22.5244" y2="49.4271" gradientUnits="userSpaceOnUse">
<stop offset="0.0260417" stop-color="#418AFF"/>
<stop offset="0.473958" stop-color="#2D7AF5"/>
<stop offset="1" stop-color="#114DAC"/>
</linearGradient>
</defs>
</svg>
