<svg width="30" height="25" viewBox="0 0 30 25" fill="none" xmlns="http://www.w3.org/2000/svg">
<g clip-path="url(#clip0_2511_2003)">
<path d="M30 20.9707C30 22.0394 29.6488 23.0642 29.0237 23.8199C28.3986 24.5755 27.5507 25 26.6667 25H20V-1.19043H26.6667C27.5507 -1.19043 28.3986 -0.765915 29.0237 -0.0102741C29.6488 0.745367 30 1.77024 30 2.83887V20.9707Z" fill="#ED2939"/>
<path d="M3.33333 -1.19043C2.44928 -1.19043 1.60143 -0.765915 0.976311 -0.0102741C0.35119 0.745367 0 1.77024 0 2.83887L0 20.9707C0 22.0394 0.35119 23.0642 0.976311 23.8199C1.60143 24.5755 2.44928 25 3.33333 25H10V-1.19043H3.33333Z" fill="#002495"/>
<path d="M10 -1.19043H20V25H10V-1.19043Z" fill="#EEEEEE"/>
<rect x="-3" y="-1.19043" width="9" height="26.1905" fill="#002495"/>
<rect x="21" y="-1.19043" width="9" height="26.1905" fill="#ED2939"/>
</g>
<defs>
<clipPath id="clip0_2511_2003">
<rect width="30" height="25" rx="12.5" fill="white"/>
</clipPath>
</defs>
</svg>
