<svg width="30" height="25" viewBox="0 0 30 25" fill="none" xmlns="http://www.w3.org/2000/svg">
<g clip-path="url(#clip0_2511_2009)">
<path d="M0 21.4285C0 22.6915 0.35119 23.9027 0.976311 24.7957C1.60143 25.6887 2.44928 26.1904 3.33333 26.1904H26.6667C27.5507 26.1904 28.3986 25.6887 29.0237 24.7957C29.6488 23.9027 30 22.6915 30 21.4285V16.6666H0V21.4285Z" fill="#FFCD05"/>
<path d="M0 8.33337H30V16.6667H0V8.33337Z" fill="#ED1F24"/>
<path d="M26.6667 0.198364H3.33333C2.44928 0.198364 1.60143 0.616447 0.976311 1.36064C0.35119 2.10483 0 3.11417 0 4.16662L0 9.12694H30V4.16662C30 3.11417 29.6488 2.10483 29.0237 1.36064C28.3986 0.616447 27.5507 0.198364 26.6667 0.198364Z" fill="#141414"/>
<rect width="30" height="9.52381" fill="#141414"/>
<rect x="-1" y="16.6666" width="32" height="9.52381" fill="#FFCD05"/>
</g>
<defs>
<clipPath id="clip0_2511_2009">
<rect width="30" height="25" rx="12.5" fill="white"/>
</clipPath>
</defs>
</svg>
