<svg width="30" height="25" viewBox="0 0 30 25" fill="none" xmlns="http://www.w3.org/2000/svg">
<g clip-path="url(#clip0_2511_2015)">
<rect width="30" height="25" rx="12.5" fill="white"/>
<path d="M30 21.1538C30 22.1739 29.6488 23.1522 29.0237 23.8735C28.3986 24.5948 27.5507 25 26.6667 25H3.33333C2.44928 25 1.60143 24.5948 0.976311 23.8735C0.35119 23.1522 0 22.1739 0 21.1538V3.84615C0 2.82609 0.35119 1.84781 0.976311 1.12651C1.60143 0.405218 2.44928 0 3.33333 0H26.6667C27.5507 0 28.3986 0.405218 29.0237 1.12651C29.6488 1.84781 30 2.82609 30 3.84615V21.1538Z" fill="white"/>
<path d="M19.7494 18.4656L21.1954 16.6553L21.77 17.1618L20.3239 18.9722L19.7494 18.4656ZM21.677 16.0526L23.123 14.243L23.6975 14.7496L22.2515 16.5592L21.677 16.0526ZM20.8984 19.4803L22.3445 17.6707L22.919 18.1773L21.4729 19.9869L20.8984 19.4803ZM22.8275 17.0649L24.275 15.2553L24.8495 15.7627L23.402 17.5715L22.8275 17.0649ZM22.0467 20.4934L23.4942 18.6839L24.068 19.1904L22.6212 21L22.0467 20.4934ZM23.975 18.0788L25.4202 16.2669L25.9955 16.7734L24.5502 18.5854L23.975 18.0788ZM23.978 6.92196L24.5525 6.4154L26 8.22656L25.4247 8.73312L23.978 6.92196ZM22.049 4.50656L22.6235 4L24.0695 5.81116L23.4942 6.31693L22.049 4.50656ZM20.8992 5.52125L21.4737 5.01469L24.8487 9.23889L24.2742 9.74545L20.8992 5.52125ZM19.7502 6.53279L20.3254 6.02623L21.7707 7.8366L21.1962 8.34237L19.7502 6.53279ZM21.6777 8.9474L22.2522 8.44085L23.6997 10.2504L23.126 10.757L21.6777 8.9474ZM6.29878 14.7488L6.87328 14.2422L10.2476 18.4672L9.67231 18.9738L6.29878 14.7488ZM5.15126 15.7619L5.72502 15.2561L7.17179 17.0665L6.59653 17.5731L5.15126 15.7619ZM7.07653 18.1773L7.65104 17.6707L9.09856 19.4803L8.52405 19.9869L7.07653 18.1773ZM4.00075 16.7742L4.57526 16.2677L7.9503 20.4919L7.37504 20.9984L4.00075 16.7742ZM4 8.22499L7.37354 4.00079L7.9488 4.50656L4.57376 8.73154L4 8.22499ZM5.14901 9.23889L8.52405 5.0139L9.09856 5.52046L5.72352 9.74466L5.14901 9.23889ZM6.29878 10.2512L9.67381 6.02623L10.2483 6.53279L6.87328 10.7578L6.29878 10.2512Z" fill="#292F33"/>
<path d="M17.9085 8.87615C16.8222 8.13908 15.4783 7.85044 14.1724 8.0737C12.8666 8.29697 11.7057 9.01387 10.9452 10.0667C10.586 10.5936 10.4533 11.2356 10.5751 11.856C10.697 12.4763 11.0638 13.0261 11.5976 13.3883C12.1313 13.7505 12.7898 13.8965 13.433 13.7952C14.0761 13.6939 14.653 13.3533 15.041 12.846C15.2293 12.5853 15.4688 12.3631 15.7457 12.1922C16.0226 12.0212 16.3316 11.9048 16.6549 11.8496C16.9783 11.7943 17.3097 11.8013 17.6302 11.8702C17.9507 11.9391 18.2541 12.0686 18.5231 12.2511C18.792 12.4336 19.0212 12.6657 19.1976 12.9341C19.374 13.2025 19.4941 13.502 19.5511 13.8154C19.6081 14.1288 19.6009 14.45 19.5298 14.7606C19.4587 15.0713 19.3252 15.3654 19.1368 15.626C19.5135 15.1047 19.7805 14.5165 19.9227 13.8951C20.0648 13.2737 20.0792 12.6313 19.9652 12.0045C19.8511 11.3777 19.6108 10.7788 19.2579 10.242C18.905 9.70528 18.4465 9.24115 17.9085 8.87615Z" fill="#C60C30"/>
<path d="M18.5227 12.2515C17.9796 11.8829 17.3077 11.7385 16.6548 11.8499C16.0019 11.9614 15.4214 12.3197 15.041 12.846C14.654 13.356 14.0764 13.699 13.4319 13.8017C12.7873 13.9043 12.1269 13.7585 11.5918 13.3953C11.0568 13.0321 10.6896 12.4805 10.5687 11.8583C10.4479 11.2361 10.583 10.5928 10.9452 10.0659C10.5575 10.5867 10.2805 11.177 10.1303 11.8024C9.98001 12.4279 9.95951 13.076 10.07 13.7092C10.1804 14.3424 10.4196 14.948 10.7736 15.4908C11.1277 16.0336 11.5895 16.5028 12.1322 16.8712C12.675 17.2395 13.2878 17.4996 13.9352 17.6363C14.5826 17.7731 15.2515 17.7838 15.9032 17.6678C16.5548 17.5518 17.1762 17.3114 17.7312 16.9606C18.2862 16.6099 18.7637 16.1557 19.136 15.6245C19.3244 15.364 19.4579 15.0701 19.5291 14.7596C19.6002 14.4491 19.6075 14.128 19.5505 13.8148C19.4936 13.5016 19.3735 13.2023 19.1971 12.934C19.0207 12.6658 18.7916 12.4339 18.5227 12.2515Z" fill="#003478"/>
</g>
<defs>
<clipPath id="clip0_2511_2015">
<rect width="30" height="25" rx="12.5" fill="white"/>
</clipPath>
</defs>
</svg>
