<svg width="50" height="50" viewBox="0 0 50 50" fill="none" xmlns="http://www.w3.org/2000/svg">
<circle cx="25" cy="25" r="24" fill="url(#paint0_linear_96_24)" stroke="url(#paint1_linear_96_24)" stroke-width="2"/>
<path d="M34.1752 41.69H15.8241C15.013 41.69 14.235 41.3677 13.6614 40.7942C13.0879 40.2206 12.7656 39.4426 12.7656 38.6315V14.1634C12.7656 13.3522 13.0879 12.5743 13.6614 12.0007C14.235 11.4271 15.013 11.1049 15.8241 11.1049H26.5289C26.5426 11.1031 26.5565 11.1031 26.5702 11.1049H26.5794C26.5938 11.1094 26.6087 11.1124 26.6237 11.114C26.7583 11.1232 26.8914 11.1492 27.0198 11.192H27.084C27.1123 11.2118 27.1389 11.2338 27.1636 11.2578C27.3302 11.3319 27.482 11.4355 27.6116 11.5636L36.7872 20.7392C36.9153 20.8688 37.019 21.0206 37.093 21.1872C37.1063 21.2203 37.1181 21.254 37.1282 21.2882L37.1435 21.331C37.1863 21.4579 37.2108 21.591 37.2184 21.7255C37.2197 21.7408 37.2234 21.7557 37.2291 21.7699V21.7791C37.2316 21.7891 37.2331 21.7993 37.2337 21.8096V38.6315C37.2337 39.4426 36.9115 40.2206 36.3379 40.7942C35.7643 41.3677 34.9864 41.69 34.1752 41.69ZM28.7066 29.4559V37.1022H30.1441V33.9825H32.3768V32.701H30.1441V30.742H32.6459V29.4559H28.7066ZM23.0483 29.4559V37.1022H24.8926C25.2746 37.1211 25.656 37.0539 26.0085 36.9057C26.3611 36.7575 26.6758 36.532 26.9296 36.2458C27.457 35.5728 27.7212 34.7307 27.6728 33.877V32.6383C27.7084 31.7936 27.4367 30.9646 26.9082 30.3047C26.4112 29.7388 25.6848 29.4269 24.9309 29.4559H23.0483ZM17.3534 29.4559V37.1022H18.7909V34.4122H19.7482C20.3874 34.4474 21.0114 34.2104 21.4671 33.7608C21.9012 33.2749 22.1265 32.6376 22.0941 31.9868C22.1225 31.3204 21.8973 30.668 21.464 30.1609C21.2523 29.9262 20.9913 29.7412 20.6997 29.6193C20.408 29.4974 20.093 29.4416 19.7773 29.4559H17.3534ZM26.5289 14.1634V21.8096H34.1752L26.5289 14.1634ZM24.9171 35.8207H24.4858V30.742H25.0088C25.1916 30.7313 25.3742 30.7665 25.5398 30.8445C25.7054 30.9225 25.8489 31.0408 25.957 31.1886C26.1818 31.6519 26.2781 32.1673 26.2353 32.6811V34.01C26.2689 34.4994 26.1634 34.9888 25.9295 35.4185C25.806 35.5626 25.6493 35.6745 25.4729 35.7446C25.2966 35.8147 25.1058 35.8408 24.9171 35.8207ZM19.7773 33.1261H18.7894V30.742H19.791C19.914 30.7434 20.0347 30.7759 20.1417 30.8366C20.2487 30.8973 20.3385 30.9842 20.4027 31.0892C20.5679 31.3629 20.6474 31.6779 20.6321 31.9975C20.6513 32.295 20.5723 32.5905 20.4073 32.8386C20.3323 32.9328 20.2362 33.0079 20.1267 33.0578C20.0172 33.1078 19.8975 33.1312 19.7773 33.1261Z" fill="url(#paint2_linear_96_24)"/>
<path d="M15.8241 10.0756H26.5248C26.5402 10.0782 26.5557 10.0803 26.5713 10.082L26.5805 10.083L26.5897 10.0836C26.6826 10.0899 26.7739 10.1078 26.8617 10.1371L26.8691 10.1395L26.879 10.1491L26.9604 10.1854C27.0714 10.2347 27.1727 10.3037 27.2592 10.3891C27.2596 10.3894 27.2599 10.3897 27.2602 10.39L36.4316 19.5614C36.4319 19.5617 36.4323 19.5621 36.4326 19.5624C36.5157 19.6467 36.5833 19.7449 36.6323 19.8526C36.6384 19.8684 36.6439 19.8845 36.6488 19.9008L36.6527 19.914L36.6573 19.927L36.671 19.9653C36.6977 20.0457 36.714 20.1329 36.7192 20.2246L36.7197 20.2322L36.7203 20.2397C36.7222 20.2613 36.7251 20.2826 36.7291 20.3038V20.3099L36.7337 20.3287V37.1022C36.7337 37.7807 36.4642 38.4315 35.9843 38.9113C35.5045 39.3911 34.8538 39.6607 34.1752 39.6607H15.8241C15.1456 39.6607 14.4948 39.3911 14.015 38.9113C13.5352 38.4315 13.2656 37.7807 13.2656 37.1022V12.6341C13.2656 11.9555 13.5352 11.3047 14.015 10.8249C14.4948 10.3451 15.1456 10.0756 15.8241 10.0756ZM28.7066 27.4266H28.2066V27.9266V35.5729V36.0729H28.7066H30.1441H30.6441V35.5729V32.9532H32.3768H32.8768V32.4532V31.1717V30.6717H32.3768H30.6441V29.7127H32.6459H33.1459V29.2127V27.9266V27.4266H32.6459H28.7066ZM23.0483 27.4266H22.5483V27.9266V29.7977C22.4514 29.2509 22.2102 28.7352 21.8442 28.3068L21.8443 28.3067L21.8353 28.2968C21.5742 28.0072 21.2522 27.7791 20.8925 27.6287C20.5364 27.4799 20.1521 27.4109 19.7665 27.4266H17.3534H16.8534V27.9266V35.5729V36.0729H17.3534H18.7909H19.2909V35.5729V33.3829H19.7351C20.5106 33.4216 21.2659 33.1323 21.8182 32.5874L21.8294 32.5764L21.8399 32.5646C22.2074 32.1533 22.4504 31.6517 22.5483 31.1177V35.5729V36.0729H23.0483H24.8808C25.3333 36.0934 25.7847 36.0129 26.2023 35.8373C26.6239 35.6601 27.0003 35.3904 27.3037 35.0482L27.3138 35.0369L27.3231 35.0249C27.9225 34.2601 28.2243 33.3041 28.1728 32.334V31.1192C28.2107 30.1574 27.9003 29.2142 27.2984 28.4628L27.2913 28.4539L27.2838 28.4454C26.6895 27.7688 25.8222 27.3949 24.9216 27.4266H23.0483ZM26.8825 12.2805L26.0289 11.427V12.6341V20.2804V20.7804H26.5289H34.1752H35.3823L34.5288 19.9268L26.8825 12.2805ZM24.9858 33.7957V29.7127H25.0088H25.0236L25.0383 29.7119C25.1376 29.706 25.2368 29.7252 25.3268 29.7675C25.4045 29.8042 25.4733 29.8571 25.5284 29.9227C25.6989 30.2936 25.771 30.7026 25.737 31.1103L25.7353 31.131V31.1518V32.4808V32.4979L25.7365 32.515C25.7623 32.8913 25.6863 33.2666 25.517 33.5995C25.4521 33.6649 25.3743 33.7165 25.2883 33.7506C25.1923 33.7888 25.0887 33.8042 24.9858 33.7957ZM19.7982 31.0973L19.7877 31.0968H19.7773H19.2894V29.7127H19.7875C19.8252 29.7135 19.8621 29.7236 19.8949 29.7422C19.9279 29.7609 19.9556 29.7876 19.9756 29.8198C20.0888 30.0081 20.1432 30.2243 20.1327 30.4444L20.1313 30.4724L20.1332 30.5004C20.1448 30.6803 20.0996 30.8591 20.0043 31.0117C19.9804 31.0378 19.9515 31.0589 19.9191 31.0736C19.8812 31.0909 19.8398 31.099 19.7982 31.0973Z" fill="url(#paint3_linear_96_24)" stroke="url(#paint4_linear_96_24)"/>
<g clip-path="url(#clip0_96_24)">
<rect x="15.8242" y="15.3374" width="12" height="19" fill="url(#paint5_linear_96_24)"/>
</g>
<g clip-path="url(#clip1_96_24)">
<path d="M26.59 10.6047C26.5631 10.6031 26.5361 10.6031 26.5091 10.6047H15.8241C14.8964 10.6047 13.9974 10.9359 13.327 11.5393C12.6548 12.1443 12.2656 12.9767 12.2656 13.8574V35.8787C12.2656 36.7593 12.6548 37.5918 13.327 38.1967C13.9974 38.8001 14.8964 39.1313 15.8241 39.1313H34.1752C35.103 39.1313 36.002 38.8001 36.6724 38.1967C37.3445 37.5918 37.7337 36.7593 37.7337 35.8787V20.739V20.7228L37.7327 20.7066C37.7318 20.6941 37.7307 20.6816 37.7291 20.6692V20.5954L37.7109 20.5552C37.6959 20.4133 37.6635 20.2711 37.6117 20.1328L37.6118 20.1327L37.6082 20.1238L37.5979 20.0977C37.5836 20.056 37.5674 20.0149 37.5494 19.9746L37.5455 19.966L37.5413 19.9575C37.4386 19.7495 37.2964 19.563 37.1238 19.4059L37.1217 19.404L27.9461 11.146L27.9461 11.146L27.9439 11.144C27.7889 11.0061 27.6122 10.8933 27.4214 10.8086C27.3984 10.7915 27.3748 10.7754 27.3506 10.7601L27.2284 10.6832H27.0884C26.9576 10.6489 26.8241 10.6267 26.6898 10.6164L26.6484 10.6047H26.59ZM30.1441 31.1946H29.6441V31.6946V34.0023H29.2066V28.1207H32.1459V28.2782H30.1441H29.6441V28.7782V30.5413V31.0413H30.1441H31.8768V31.1946H30.1441ZM18.2909 32.0814V34.0023H17.8534V28.1207H19.7773H19.7874L19.7976 28.1203C20.0474 28.1101 20.2956 28.15 20.5236 28.2357C20.7494 28.3207 20.9476 28.4476 21.1061 28.6044C21.4475 28.9665 21.6161 29.4205 21.5946 29.8749L21.5934 29.9005L21.5948 29.9261C21.6187 30.3578 21.456 30.7907 21.1234 31.1315C20.7714 31.4383 20.2826 31.6072 19.7729 31.582L19.7606 31.5814H19.7482H18.7909H18.2909V32.0814ZM24.9148 34.0028L24.9037 34.0023H24.8926H23.5483V28.1207H24.9309H24.9395L24.9482 28.1204C25.5667 28.0989 26.1502 28.3287 26.5424 28.7257C26.9833 29.2253 27.2024 29.8416 27.1734 30.4615L27.1728 30.4731V30.4848V31.5997V31.6154L27.1738 31.6311C27.2133 32.2571 27.001 32.8823 26.5628 33.3914C26.3636 33.5904 26.1146 33.7508 25.8316 33.8579C25.5435 33.9669 25.23 34.0169 24.9148 34.0028ZM24.4858 33.849H24.8951C25.1477 33.8695 25.403 33.8365 25.6413 33.7513C25.8877 33.6632 26.1118 33.5207 26.2916 33.3317L26.3291 33.2923L26.3573 33.2458C26.6408 32.7771 26.7723 32.2406 26.7353 31.7013V30.5453C26.7819 29.9906 26.6637 29.4373 26.3971 28.9428L26.3747 28.9013L26.345 28.8647C26.1828 28.6652 25.9719 28.5105 25.7349 28.41C25.5025 28.3115 25.2492 28.2669 24.9967 28.2782H24.4858H23.9858V28.7782V33.349V33.849H24.4858ZM18.2894 30.9239V31.4239H18.7894H19.769C19.9559 31.4295 20.1432 31.3961 20.3166 31.3249C20.4935 31.2523 20.6537 31.1411 20.7817 30.9965L20.7964 30.98L20.8095 30.9622C21.0364 30.6551 21.1525 30.284 21.1328 29.9039C21.1468 29.5156 21.0358 29.1371 20.818 28.8122L20.8162 28.8094C20.7022 28.6419 20.5469 28.5088 20.3691 28.418C20.1915 28.3273 19.9944 28.2801 19.7959 28.2782V28.2782H19.791H18.7894H18.2894V28.7782V30.9239ZM32.8722 20.239H27.0289V14.9801L32.8722 20.239Z" stroke="url(#paint6_linear_96_24)"/>
</g>
<defs>
<linearGradient id="paint0_linear_96_24" x1="25.0282" y1="-8.40329" x2="25.0282" y2="57.7026" gradientUnits="userSpaceOnUse">
<stop offset="0.0260417" stop-color="#418AFF"/>
<stop offset="0.473958" stop-color="#2D7AF5"/>
<stop offset="1" stop-color="#114DAC"/>
</linearGradient>
<linearGradient id="paint1_linear_96_24" x1="31.0811" y1="2.02703" x2="21.6216" y2="43.9189" gradientUnits="userSpaceOnUse">
<stop stop-color="#C7C7C7"/>
<stop offset="0.380208" stop-color="#CAC2C2"/>
<stop offset="1" stop-color="#D5D5D5"/>
</linearGradient>
<linearGradient id="paint2_linear_96_24" x1="24.9997" y1="11.1035" x2="24.9997" y2="41.69" gradientUnits="userSpaceOnUse">
<stop stop-color="#A6A6A6"/>
<stop offset="1" stop-color="#414141"/>
</linearGradient>
<linearGradient id="paint3_linear_96_24" x1="24.9997" y1="9.57422" x2="24.9997" y2="40.1607" gradientUnits="userSpaceOnUse">
<stop stop-color="#EBEBEB"/>
<stop offset="1" stop-color="#D9D9D9"/>
</linearGradient>
<linearGradient id="paint4_linear_96_24" x1="31.2659" y1="13.3043" x2="19.0908" y2="29.537" gradientUnits="userSpaceOnUse">
<stop stop-color="white"/>
<stop offset="1" stop-color="white" stop-opacity="0"/>
</linearGradient>
<linearGradient id="paint5_linear_96_24" x1="21.8242" y1="15.3374" x2="21.8242" y2="34.3374" gradientUnits="userSpaceOnUse">
<stop stop-color="#EBEBEB"/>
<stop offset="1" stop-color="#D9D9D9"/>
</linearGradient>
<linearGradient id="paint6_linear_96_24" x1="24.9997" y1="11.1035" x2="24.9997" y2="38.6313" gradientUnits="userSpaceOnUse">
<stop stop-color="#A6A6A6"/>
<stop offset="1" stop-color="#414141"/>
</linearGradient>
<clipPath id="clip0_96_24">
<rect width="18.3511" height="16.8218" fill="white" transform="translate(15.8242 23.3374)"/>
</clipPath>
<clipPath id="clip1_96_24">
<rect width="18.3511" height="9.17553" fill="white" transform="translate(15.8242 26.396)"/>
</clipPath>
</defs>
</svg>
