<svg width="30" height="25" viewBox="0 0 30 25" fill="none" xmlns="http://www.w3.org/2000/svg">
<g clip-path="url(#clip0_2460_77)">
<path d="M3.33333 -3.57141C2.44928 -3.57141 1.60143 -3.06971 0.976311 -2.17668C0.351189 -1.28365 0 -0.0724421 0 1.19049L0 22.6191C0 23.882 0.351189 25.0932 0.976311 25.9862C1.60143 26.8793 2.44928 27.381 3.33333 27.381H10V-3.57141H3.33333Z" fill="#D91023"/>
<path d="M10 -3.57141H20V27.381H10V-3.57141Z" fill="#EEEEEE"/>
<path d="M26.6667 -3.57141H20V27.381H26.6667C27.5507 27.381 28.3986 26.8793 29.0237 25.9862C29.6488 25.0932 30 23.882 30 22.6191V1.19049C30 -0.0724421 29.6488 -1.28365 29.0237 -2.17668C28.3986 -3.06971 27.5507 -3.57141 26.6667 -3.57141V-3.57141Z" fill="#D91023"/>
</g>
<defs>
<clipPath id="clip0_2460_77">
<rect width="30" height="25" rx="12.5" fill="white"/>
</clipPath>
</defs>
</svg>
