<svg width="83" height="19" viewBox="0 0 83 19" fill="none" xmlns="http://www.w3.org/2000/svg">
<path d="M10.3557 3.66061L11.7937 6.48045C12.053 6.98885 12.5439 7.33889 13.109 7.41836L16.2554 7.86081C16.8782 7.94839 17.1231 8.71751 16.6656 9.14907L14.4419 11.2467C14.0131 11.6513 13.8167 12.2446 13.9196 12.8251L14.4517 15.8272C14.5597 16.4366 13.9247 16.9072 13.3731 16.6266L10.4811 15.1552C9.98245 14.9015 9.39259 14.9015 8.89397 15.1552L6.00193 16.6266C5.45031 16.9072 4.81534 16.4366 4.92335 15.8272L5.45542 12.8251C5.5583 12.2446 5.36197 11.6513 4.9331 11.2467L2.7094 9.14907C2.25191 8.71751 2.49681 7.94839 3.1196 7.86081L6.26604 7.41836C6.83117 7.33889 7.32205 6.98885 7.58132 6.48045L9.01939 3.66061C9.29768 3.11492 10.0774 3.11492 10.3557 3.66061ZM31.2976 3.74245L32.6411 6.46465C32.896 6.98115 33.3887 7.33914 33.9587 7.42197L36.9628 7.85849C37.578 7.94788 37.8236 8.70386 37.3785 9.13776L35.2047 11.2567C34.7922 11.6587 34.604 12.238 34.7014 12.8057L35.2145 15.7977C35.3196 16.4103 34.6766 16.8776 34.1263 16.5883L31.4394 15.1757C30.9295 14.9076 30.3205 14.9076 29.8107 15.1757L27.1237 16.5883C26.5735 16.8776 25.9304 16.4103 26.0355 15.7977L26.5487 12.8057C26.646 12.238 26.4578 11.6587 26.0454 11.2567L23.8716 9.13776C23.4264 8.70386 23.6721 7.94788 24.2872 7.85849L27.2913 7.42197C27.8613 7.33914 28.3541 6.98115 28.609 6.46465L29.9525 3.74245C30.2276 3.18501 31.0225 3.18501 31.2976 3.74245ZM52.2306 3.66061L53.6687 6.48045C53.928 6.98885 54.4189 7.33889 54.984 7.41836L58.1304 7.86081C58.7532 7.94839 58.9981 8.71752 58.5406 9.14907L56.3169 11.2467C55.8881 11.6513 55.6917 12.2446 55.7946 12.8251L56.3267 15.8272C56.4347 16.4366 55.7997 16.9072 55.2481 16.6266L52.3561 15.1552C51.8574 14.9015 51.2676 14.9015 50.769 15.1552L47.8769 16.6266C47.3253 16.9072 46.6903 16.4366 46.7983 15.8272L47.3304 12.8251C47.4333 12.2446 47.237 11.6513 46.8081 11.2467L44.5844 9.14907C44.1269 8.71751 44.3718 7.94839 44.9946 7.86081L48.141 7.41836C48.7062 7.33889 49.197 6.98885 49.4563 6.48045L50.8944 3.66061C51.1727 3.11492 51.9524 3.11492 52.2306 3.66061L52.6705 3.43628L52.2306 3.66061ZM73.4806 3.66061L74.9187 6.48045C75.178 6.98885 75.6689 7.33889 76.234 7.41836L79.3804 7.86081C80.0032 7.94839 80.2481 8.71752 79.7906 9.14907L77.5669 11.2467C77.1381 11.6513 76.9417 12.2446 77.0446 12.8251L77.5767 15.8272C77.6847 16.4366 77.0497 16.9072 76.4981 16.6266L73.6061 15.1552C73.1074 14.9015 72.5176 14.9015 72.019 15.1552L69.1269 16.6266C68.5753 16.9072 67.9403 16.4366 68.0483 15.8272L68.5804 12.8251C68.6833 12.2446 68.487 11.6513 68.0581 11.2467L65.8344 9.14907C65.3769 8.71751 65.6218 7.94839 66.2446 7.86081L69.391 7.41836C69.9562 7.33889 70.447 6.98885 70.7063 6.48045L72.1444 3.66061C72.4227 3.11492 73.2024 3.11492 73.4806 3.66061Z" fill="url(#paint0_linear_1284_972)" stroke="url(#paint1_linear_1284_972)"/>
<path d="M11.0238 3.72079L11.6164 4.8829C11.9868 5.60918 12.6881 6.10923 13.4954 6.22276L14.7099 6.39355C15.9555 6.56871 16.4453 8.10696 15.5303 8.97007L14.7364 9.71898C14.1238 10.2969 13.8433 11.1445 13.9903 11.9738L14.1891 13.0956C14.4051 14.3144 13.1352 15.2556 12.0319 14.6943L10.8211 14.0783C10.1088 13.7159 9.26617 13.7159 8.55386 14.0783L7.3431 14.6943C6.23985 15.2556 4.96992 14.3144 5.18593 13.0956L5.38474 11.9738C5.53172 11.1445 5.25124 10.2969 4.63858 9.71898L3.84466 8.97007C2.92968 8.10696 3.41949 6.56871 4.66507 6.39355L5.8796 6.22276C6.68693 6.10923 7.38819 5.60918 7.75858 4.8829L8.35124 3.72079C8.90782 2.62941 10.4672 2.62941 11.0238 3.72079Z" fill="#FFDA62" stroke="url(#paint2_linear_1284_972)"/>
<path d="M31.9701 3.85525L32.4665 4.86113C32.8307 5.59899 33.5346 6.11041 34.3489 6.22873L35.4589 6.39003C36.6893 6.56881 37.1805 8.08077 36.2902 8.94857L35.487 9.73154C34.8978 10.3059 34.6289 11.1334 34.768 11.9444L34.9576 13.0499C35.1678 14.2753 33.8817 15.2097 32.7812 14.6312L31.7884 14.1092C31.06 13.7263 30.19 13.7263 29.4616 14.1092L28.4688 14.6312C27.3683 15.2097 26.0822 14.2753 26.2924 13.0499L26.482 11.9444C26.6211 11.1334 26.3522 10.3059 25.763 9.73154L24.9597 8.94857C24.0695 8.08077 24.5607 6.56881 25.7911 6.39003L26.9011 6.22873C27.7154 6.11041 28.4193 5.59899 28.7835 4.86113L29.2799 3.85525C29.8301 2.74038 31.4199 2.74038 31.9701 3.85525Z" fill="#FFDA62" stroke="url(#paint3_linear_1284_972)"/>
<path d="M52.8988 3.72079L53.4914 4.8829C53.8618 5.60918 54.5631 6.10923 55.3704 6.22276L56.5849 6.39355C57.8305 6.56871 58.3203 8.10696 57.4053 8.97007L56.6114 9.71898C55.9988 10.2969 55.7183 11.1445 55.8653 11.9738L56.0641 13.0956C56.2801 14.3144 55.0102 15.2556 53.9069 14.6943L52.6961 14.0783C51.9838 13.7159 51.1412 13.7159 50.4289 14.0783L49.2181 14.6943C48.1149 15.2556 46.8449 14.3144 47.0609 13.0956L47.2597 11.9738C47.4067 11.1445 47.1262 10.2969 46.5136 9.71898L45.7197 8.97007C44.8047 8.10696 45.2945 6.56871 46.5401 6.39355L47.7546 6.22276C48.5619 6.10923 49.2632 5.60918 49.6336 4.8829L50.2262 3.72079C50.7828 2.62941 52.3422 2.62941 52.8988 3.72079Z" fill="url(#paint4_linear_1284_972)" stroke="url(#paint5_linear_1284_972)"/>
<path d="M74.1488 3.72079L74.7414 4.8829C75.1118 5.60918 75.8131 6.10923 76.6204 6.22276L77.8349 6.39355C79.0805 6.56871 79.5703 8.10696 78.6553 8.97007L77.8614 9.71898C77.2488 10.2969 76.9683 11.1445 77.1153 11.9738L77.3141 13.0956C77.5301 14.3144 76.2602 15.2556 75.1569 14.6943L73.9461 14.0783C73.2338 13.7159 72.3912 13.7159 71.6789 14.0783L70.4681 14.6943C69.3649 15.2556 68.0949 14.3144 68.3109 13.0956L68.5097 11.9738C68.6567 11.1445 68.3762 10.2969 67.7636 9.71898L66.9697 8.97007C66.0547 8.10696 66.5445 6.56871 67.7901 6.39355L69.0046 6.22276C69.8119 6.10923 70.5132 5.60918 70.8836 4.8829L71.4762 3.72079C72.0328 2.62941 73.5922 2.62941 74.1488 3.72079Z" fill="url(#paint6_linear_1284_972)" stroke="url(#paint7_linear_1284_972)"/>
<defs>
<linearGradient id="paint0_linear_1284_972" x1="41.25" y1="2.75134" x2="41.25" y2="17.2108" gradientUnits="userSpaceOnUse">
<stop stop-color="#C7C7C7"/>
<stop offset="1" stop-color="#484848"/>
</linearGradient>
<linearGradient id="paint1_linear_1284_972" x1="41.25" y1="2.75134" x2="41.25" y2="17.2108" gradientUnits="userSpaceOnUse">
<stop stop-color="#C7C7C7"/>
<stop offset="1" stop-color="#484848"/>
</linearGradient>
<linearGradient id="paint2_linear_1284_972" x1="9.6875" y1="0" x2="9.6875" y2="18.75" gradientUnits="userSpaceOnUse">
<stop stop-color="#FFEFBC"/>
<stop offset="1" stop-color="#FFE8C6"/>
</linearGradient>
<linearGradient id="paint3_linear_1284_972" x1="30.625" y1="0" x2="30.625" y2="18.75" gradientUnits="userSpaceOnUse">
<stop stop-color="#FFEFBC"/>
<stop offset="1" stop-color="#FFE8C6"/>
</linearGradient>
<linearGradient id="paint4_linear_1284_972" x1="51.5625" y1="0" x2="51.5625" y2="18.75" gradientUnits="userSpaceOnUse">
<stop stop-color="#EBEBEB"/>
<stop offset="1" stop-color="#D9D9D9"/>
</linearGradient>
<linearGradient id="paint5_linear_1284_972" x1="51.5625" y1="0" x2="51.5625" y2="18.75" gradientUnits="userSpaceOnUse">
<stop stop-color="#F0F0F0"/>
<stop offset="1" stop-color="#8C8C8C" stop-opacity="0"/>
</linearGradient>
<linearGradient id="paint6_linear_1284_972" x1="72.8125" y1="0" x2="72.8125" y2="18.75" gradientUnits="userSpaceOnUse">
<stop stop-color="#EBEBEB"/>
<stop offset="1" stop-color="#D9D9D9"/>
</linearGradient>
<linearGradient id="paint7_linear_1284_972" x1="72.8125" y1="0" x2="72.8125" y2="18.75" gradientUnits="userSpaceOnUse">
<stop stop-color="#F0F0F0"/>
<stop offset="1" stop-color="#8C8C8C" stop-opacity="0"/>
</linearGradient>
</defs>
</svg>
