<svg width="83" height="19" viewBox="0 0 83 19" fill="none" xmlns="http://www.w3.org/2000/svg">
<path d="M8.57397 3.43345C9.03778 2.52397 10.3373 2.52397 10.8011 3.43345L12.2391 6.2533C12.4243 6.61644 12.775 6.86646 13.1786 6.92323L16.3251 7.36568C17.363 7.51165 17.7712 8.79352 17.0087 9.51278L14.785 11.6104C14.4787 11.8994 14.3385 12.3232 14.412 12.7379L14.944 15.74C15.124 16.7557 14.0658 17.54 13.1464 17.0722L10.2543 15.6008C9.89818 15.4196 9.47686 15.4196 9.1207 15.6008L6.22866 17.0722C5.30929 17.54 4.25101 16.7557 4.43102 15.74L4.96309 12.7379C5.03658 12.3232 4.89634 11.8994 4.59001 11.6104L2.3663 9.51278C1.60382 8.79352 2.01199 7.51165 3.04998 7.36568L6.19641 6.92323C6.60008 6.86646 6.95071 6.61644 7.1359 6.2533L8.57397 3.43345Z" fill="url(#paint0_linear_1284_958)"/>
<path d="M29.5041 3.52116C29.9626 2.59211 31.2874 2.59211 31.7459 3.52116L33.0894 6.24336C33.2715 6.61229 33.6235 6.868 34.0306 6.92716L37.0347 7.36369C38.06 7.51267 38.4694 8.77264 37.7275 9.49581L35.5537 11.6147C35.2591 11.9019 35.1246 12.3157 35.1942 12.7212L35.7074 15.7131C35.8825 16.7343 34.8107 17.513 33.8937 17.0309L31.2067 15.6182C30.8425 15.4268 30.4075 15.4268 30.0433 15.6182L27.3564 17.0309C26.4393 17.513 25.3675 16.7343 25.5427 15.7131L26.0559 12.7212C26.1254 12.3157 25.991 11.9019 25.6964 11.6147L23.5226 9.49581C22.7807 8.77264 23.19 7.51267 24.2153 7.36369L27.2194 6.92716C27.6266 6.868 27.9785 6.61229 28.1606 6.24336L29.5041 3.52116Z" fill="url(#paint1_linear_1284_958)"/>
<path d="M50.449 3.43345C50.9128 2.52397 52.2123 2.52397 52.6761 3.43345L54.1141 6.2533C54.2993 6.61644 54.65 6.86646 55.0536 6.92323L58.2001 7.36568C59.238 7.51165 59.6462 8.79352 58.8837 9.51278L56.66 11.6104C56.3537 11.8994 56.2135 12.3232 56.2869 12.7379L56.819 15.74C56.999 16.7557 55.9407 17.54 55.0214 17.0722L52.1293 15.6008C51.7732 15.4196 51.3519 15.4196 50.9957 15.6008L48.1037 17.0722C47.1843 17.54 46.126 16.7557 46.306 15.74L46.8381 12.7379C46.9116 12.3232 46.7713 11.8994 46.465 11.6104L44.2413 9.51278C43.4788 8.79352 43.887 7.51165 44.925 7.36568L48.0714 6.92323C48.4751 6.86646 48.8257 6.61644 49.0109 6.2533L50.449 3.43345Z" fill="url(#paint2_linear_1284_958)"/>
<path d="M71.699 3.43345C72.1628 2.52397 73.4622 2.52397 73.9261 3.43345L75.3641 6.2533C75.5493 6.61644 75.9 6.86646 76.3036 6.92323L79.4501 7.36568C80.488 7.51165 80.8962 8.79352 80.1337 9.51278L77.91 11.6104C77.6037 11.8994 77.4635 12.3232 77.5369 12.7379L78.069 15.74C78.249 16.7557 77.1907 17.54 76.2714 17.0722L73.3793 15.6008C73.0232 15.4196 72.6018 15.4196 72.2457 15.6008L69.3537 17.0722C68.4343 17.54 67.376 16.7557 67.556 15.74L68.0881 12.7379C68.1616 12.3232 68.0213 11.8994 67.715 11.6104L65.4913 9.51278C64.7288 8.79352 65.137 7.51165 66.175 7.36568L69.3214 6.92323C69.7251 6.86646 70.0757 6.61644 70.2609 6.2533L71.699 3.43345Z" fill="url(#paint3_linear_1284_958)"/>
<path fill-rule="evenodd" clip-rule="evenodd" d="M11.6824 6.53724L10.2443 3.7174C10.0124 3.26266 9.36265 3.26266 9.13074 3.7174L7.69268 6.53724C7.41489 7.08195 6.88894 7.45699 6.28344 7.54214L3.13701 7.98459C2.61801 8.05758 2.41393 8.69851 2.79517 9.05815L5.01887 11.1558C5.47837 11.5892 5.68873 12.2249 5.5785 12.8469L5.04643 15.849C4.95643 16.3569 5.48556 16.749 5.94525 16.5152L8.83729 15.0438C9.37152 14.772 10.0035 14.772 10.5378 15.0438L13.4298 16.5152C13.8895 16.749 14.4186 16.3569 14.3286 15.849L13.7965 12.8469C13.6863 12.2249 13.8967 11.5892 14.3562 11.1558L16.5799 9.05814C16.9611 8.69851 16.757 8.05758 16.238 7.98459L13.0916 7.54214C12.4861 7.45699 11.9602 7.08195 11.6824 6.53724ZM32.529 6.51997L31.1855 3.79777C30.9562 3.33324 30.2938 3.33324 30.0646 3.79777L28.7211 6.51997C28.448 7.07336 27.92 7.45693 27.3093 7.54567L24.3052 7.98219C23.7926 8.05668 23.5879 8.68667 23.9588 9.04825L26.1326 11.1672C26.5745 11.5979 26.7762 12.2186 26.6719 12.8268L26.1587 15.8188C26.0711 16.3294 26.607 16.7187 27.0655 16.4777L29.7525 15.065C30.2987 14.7779 30.9513 14.7779 31.4975 15.065L34.1845 16.4777C34.643 16.7187 35.1789 16.3294 35.0913 15.8188L34.5782 12.8268C34.4739 12.2186 34.6755 11.5979 35.1174 11.1672L37.2912 9.04825C37.6622 8.68667 37.4575 8.05668 36.9448 7.98219L33.9407 7.54567C33.33 7.45693 32.8021 7.07336 32.529 6.51997ZM53.5574 6.53724L52.1193 3.7174L52.6761 3.43345L54.1141 6.2533C54.2993 6.61644 54.65 6.86646 55.0536 6.92323L58.2001 7.36568C59.238 7.51165 59.6462 8.79352 58.8837 9.51278L56.66 11.6104C56.3537 11.8994 56.2135 12.3232 56.2869 12.7379L56.819 15.74C56.999 16.7557 55.9407 17.54 55.0214 17.0722L52.1293 15.6008C51.7732 15.4196 51.3519 15.4196 50.9957 15.6008L48.1037 17.0722C47.1843 17.54 46.126 16.7557 46.306 15.74L46.8381 12.7379C46.9116 12.3232 46.7713 11.8994 46.465 11.6104L44.2413 9.51278C43.4788 8.79352 43.887 7.51165 44.925 7.36568L48.0714 6.92323C48.4751 6.86646 48.8257 6.61644 49.0109 6.2533L50.449 3.43345C50.9128 2.52397 52.2123 2.52397 52.6761 3.43345L52.1193 3.7174C51.8874 3.26266 51.2376 3.26266 51.0057 3.7174L49.5677 6.53724C49.2899 7.08195 48.7639 7.45699 48.1584 7.54214L45.012 7.98459C44.493 8.05758 44.2889 8.69851 44.6702 9.05815L46.8939 11.1558C47.3534 11.5893 47.5637 12.2249 47.4535 12.8469L46.9214 15.849C46.8314 16.3569 47.3606 16.749 47.8202 16.5152L50.7123 15.0438C51.2465 14.772 51.8785 14.772 52.4127 15.0438L55.3048 16.5152C55.7645 16.749 56.2936 16.3569 56.2036 15.849L55.6715 12.8469C55.5613 12.2249 55.7717 11.5892 56.2312 11.1558L58.4549 9.05814C58.8361 8.69851 58.632 8.05758 58.113 7.98459L54.9666 7.54214C54.3611 7.45699 53.8352 7.08195 53.5574 6.53724ZM74.8074 6.53724L73.3693 3.7174L73.9261 3.43345L75.3641 6.2533C75.5493 6.61644 75.9 6.86646 76.3036 6.92323L79.4501 7.36568C80.488 7.51165 80.8962 8.79352 80.1337 9.51278L77.91 11.6104C77.6037 11.8994 77.4635 12.3232 77.5369 12.7379L78.069 15.74C78.249 16.7557 77.1907 17.54 76.2714 17.0722L73.3793 15.6008C73.0232 15.4196 72.6018 15.4196 72.2457 15.6008L69.3537 17.0722C68.4343 17.54 67.376 16.7557 67.556 15.74L68.0881 12.7379C68.1616 12.3232 68.0213 11.8994 67.715 11.6104L65.4913 9.51278C64.7288 8.79352 65.137 7.51165 66.175 7.36568L69.3214 6.92323C69.7251 6.86646 70.0757 6.61644 70.2609 6.2533L71.699 3.43345C72.1628 2.52397 73.4622 2.52397 73.9261 3.43345L73.3693 3.7174C73.1374 3.26266 72.4876 3.26266 72.2557 3.7174L70.8177 6.53724C70.5399 7.08195 70.0139 7.45699 69.4084 7.54214L66.262 7.98459C65.743 8.05758 65.5389 8.69851 65.9202 9.05815L68.1439 11.1558C68.6034 11.5893 68.8137 12.2249 68.7035 12.8469L68.1714 15.849C68.0814 16.3569 68.6106 16.749 69.0702 16.5152L71.9623 15.0438C72.4965 14.772 73.1285 14.772 73.6627 15.0438L76.5548 16.5152C77.0145 16.749 77.5436 16.3569 77.4536 15.849L76.9215 12.8469C76.8113 12.2249 77.0217 11.5892 77.4812 11.1558L79.7049 9.05814C80.0861 8.69851 79.882 8.05758 79.363 7.98459L76.2166 7.54214C75.6111 7.45699 75.0852 7.08195 74.8074 6.53724ZM10.8011 3.43345C10.3373 2.52397 9.03778 2.52397 8.57397 3.43345L7.1359 6.2533C6.95071 6.61644 6.60008 6.86646 6.19641 6.92323L3.04998 7.36568C2.01199 7.51165 1.60382 8.79352 2.3663 9.51278L4.59001 11.6104C4.89634 11.8994 5.03658 12.3232 4.96309 12.7379L4.43102 15.74C4.25101 16.7557 5.30929 17.54 6.22866 17.0722L9.1207 15.6008C9.47686 15.4196 9.89818 15.4196 10.2543 15.6008L13.1464 17.0722C14.0658 17.54 15.124 16.7557 14.944 15.74L14.412 12.7379C14.3385 12.3232 14.4787 11.8994 14.785 11.6104L17.0087 9.51278C17.7712 8.79352 17.363 7.51165 16.3251 7.36568L13.1786 6.92323C12.775 6.86646 12.4243 6.61644 12.2391 6.2533L10.8011 3.43345ZM31.7459 3.52116C31.2874 2.59211 29.9626 2.59211 29.5041 3.52116L28.1606 6.24336C27.9785 6.61229 27.6266 6.868 27.2194 6.92716L24.2153 7.36369C23.19 7.51267 22.7807 8.77264 23.5226 9.49581L25.6964 11.6147C25.991 11.9019 26.1254 12.3157 26.0559 12.7212L25.5427 15.7131C25.3675 16.7343 26.4393 17.513 27.3564 17.0309L30.0433 15.6182C30.4075 15.4268 30.8425 15.4268 31.2067 15.6182L33.8937 17.0309C34.8107 17.513 35.8825 16.7343 35.7074 15.7131L35.1942 12.7212C35.1246 12.3157 35.2591 11.9019 35.5537 11.6147L37.7275 9.49581C38.4694 8.77264 38.06 7.51267 37.0347 7.36369L34.0306 6.92716C33.6235 6.868 33.2715 6.61229 33.0894 6.24336L31.7459 3.52116Z" fill="url(#paint4_linear_1284_958)"/>
<path d="M11.0238 3.72079L11.6164 4.8829C11.9868 5.60918 12.6881 6.10923 13.4954 6.22276L14.7099 6.39355C15.9555 6.56871 16.4453 8.10696 15.5303 8.97007L14.7364 9.71898C14.1238 10.2969 13.8433 11.1445 13.9903 11.9738L14.1891 13.0956C14.4051 14.3144 13.1352 15.2556 12.0319 14.6943L10.8211 14.0783C10.1088 13.7159 9.26617 13.7159 8.55386 14.0783L7.3431 14.6943C6.23985 15.2556 4.96992 14.3144 5.18593 13.0956L5.38474 11.9738C5.53172 11.1445 5.25124 10.2969 4.63858 9.71898L3.84466 8.97007C2.92968 8.10696 3.41949 6.56871 4.66507 6.39355L5.8796 6.22276C6.68693 6.10923 7.38819 5.60918 7.75858 4.8829L8.35124 3.72079C8.90782 2.62941 10.4672 2.62941 11.0238 3.72079Z" fill="#FFDA62" stroke="url(#paint5_linear_1284_958)"/>
<path d="M31.9701 3.85525L32.4665 4.86113C32.8307 5.59899 33.5346 6.11041 34.3489 6.22873L35.4589 6.39003C36.6893 6.56881 37.1805 8.08077 36.2902 8.94857L35.487 9.73154C34.8978 10.3059 34.6289 11.1334 34.768 11.9444L34.9576 13.0499C35.1678 14.2753 33.8817 15.2097 32.7812 14.6312L31.7884 14.1092C31.06 13.7263 30.19 13.7263 29.4616 14.1092L28.4688 14.6312C27.3683 15.2097 26.0822 14.2753 26.2924 13.0499L26.482 11.9444C26.6211 11.1334 26.3522 10.3059 25.763 9.73154L24.9597 8.94857C24.0695 8.08077 24.5607 6.56881 25.7911 6.39003L26.9011 6.22873C27.7154 6.11041 28.4193 5.59899 28.7835 4.86113L29.2799 3.85525C29.8301 2.74038 31.4199 2.74038 31.9701 3.85525Z" fill="url(#paint6_linear_1284_958)" stroke="url(#paint7_linear_1284_958)"/>
<path d="M52.8988 3.72079L53.4914 4.8829C53.8618 5.60918 54.5631 6.10923 55.3704 6.22276L56.5849 6.39355C57.8305 6.56871 58.3203 8.10696 57.4053 8.97007L56.6114 9.71898C55.9988 10.2969 55.7183 11.1445 55.8653 11.9738L56.0641 13.0956C56.2801 14.3144 55.0102 15.2556 53.9069 14.6943L52.6961 14.0783C51.9838 13.7159 51.1412 13.7159 50.4289 14.0783L49.2181 14.6943C48.1149 15.2556 46.8449 14.3144 47.0609 13.0956L47.2597 11.9738C47.4067 11.1445 47.1262 10.2969 46.5136 9.71898L45.7197 8.97007C44.8047 8.10696 45.2945 6.56871 46.5401 6.39355L47.7546 6.22276C48.5619 6.10923 49.2632 5.60918 49.6336 4.8829L50.2262 3.72079C50.7828 2.62941 52.3422 2.62941 52.8988 3.72079Z" fill="url(#paint8_linear_1284_958)" stroke="url(#paint9_linear_1284_958)"/>
<path d="M74.1488 3.72079L74.7414 4.8829C75.1118 5.60918 75.8131 6.10923 76.6204 6.22276L77.8349 6.39355C79.0805 6.56871 79.5703 8.10696 78.6553 8.97007L77.8614 9.71898C77.2488 10.2969 76.9683 11.1445 77.1153 11.9738L77.3141 13.0956C77.5301 14.3144 76.2602 15.2556 75.1569 14.6943L73.9461 14.0783C73.2338 13.7159 72.3912 13.7159 71.6789 14.0783L70.4681 14.6943C69.3649 15.2556 68.0949 14.3144 68.3109 13.0956L68.5097 11.9738C68.6567 11.1445 68.3762 10.2969 67.7636 9.71898L66.9697 8.97007C66.0547 8.10696 66.5445 6.56871 67.7901 6.39355L69.0046 6.22276C69.8119 6.10923 70.5132 5.60918 70.8836 4.8829L71.4762 3.72079C72.0328 2.62941 73.5922 2.62941 74.1488 3.72079Z" fill="url(#paint10_linear_1284_958)" stroke="url(#paint11_linear_1284_958)"/>
<defs>
<linearGradient id="paint0_linear_1284_958" x1="41.25" y1="2.75134" x2="41.25" y2="17.2108" gradientUnits="userSpaceOnUse">
<stop stop-color="#C7C7C7"/>
<stop offset="1" stop-color="#484848"/>
</linearGradient>
<linearGradient id="paint1_linear_1284_958" x1="41.25" y1="2.75134" x2="41.25" y2="17.2108" gradientUnits="userSpaceOnUse">
<stop stop-color="#C7C7C7"/>
<stop offset="1" stop-color="#484848"/>
</linearGradient>
<linearGradient id="paint2_linear_1284_958" x1="41.25" y1="2.75134" x2="41.25" y2="17.2108" gradientUnits="userSpaceOnUse">
<stop stop-color="#C7C7C7"/>
<stop offset="1" stop-color="#484848"/>
</linearGradient>
<linearGradient id="paint3_linear_1284_958" x1="41.25" y1="2.75134" x2="41.25" y2="17.2108" gradientUnits="userSpaceOnUse">
<stop stop-color="#C7C7C7"/>
<stop offset="1" stop-color="#484848"/>
</linearGradient>
<linearGradient id="paint4_linear_1284_958" x1="41.25" y1="2.75134" x2="41.25" y2="17.2108" gradientUnits="userSpaceOnUse">
<stop stop-color="#C7C7C7"/>
<stop offset="1" stop-color="#484848"/>
</linearGradient>
<linearGradient id="paint5_linear_1284_958" x1="9.6875" y1="0" x2="9.6875" y2="18.75" gradientUnits="userSpaceOnUse">
<stop stop-color="#FFEFBC"/>
<stop offset="1" stop-color="#FFE8C6"/>
</linearGradient>
<linearGradient id="paint6_linear_1284_958" x1="30.625" y1="0" x2="30.625" y2="18.75" gradientUnits="userSpaceOnUse">
<stop stop-color="#EBEBEB"/>
<stop offset="1" stop-color="#D9D9D9"/>
</linearGradient>
<linearGradient id="paint7_linear_1284_958" x1="30.625" y1="0" x2="30.625" y2="18.75" gradientUnits="userSpaceOnUse">
<stop stop-color="#F0F0F0"/>
<stop offset="1" stop-color="#8C8C8C" stop-opacity="0"/>
</linearGradient>
<linearGradient id="paint8_linear_1284_958" x1="51.5625" y1="0" x2="51.5625" y2="18.75" gradientUnits="userSpaceOnUse">
<stop stop-color="#EBEBEB"/>
<stop offset="1" stop-color="#D9D9D9"/>
</linearGradient>
<linearGradient id="paint9_linear_1284_958" x1="51.5625" y1="0" x2="51.5625" y2="18.75" gradientUnits="userSpaceOnUse">
<stop stop-color="#F0F0F0"/>
<stop offset="1" stop-color="#8C8C8C" stop-opacity="0"/>
</linearGradient>
<linearGradient id="paint10_linear_1284_958" x1="72.8125" y1="0" x2="72.8125" y2="18.75" gradientUnits="userSpaceOnUse">
<stop stop-color="#EBEBEB"/>
<stop offset="1" stop-color="#D9D9D9"/>
</linearGradient>
<linearGradient id="paint11_linear_1284_958" x1="72.8125" y1="0" x2="72.8125" y2="18.75" gradientUnits="userSpaceOnUse">
<stop stop-color="#F0F0F0"/>
<stop offset="1" stop-color="#8C8C8C" stop-opacity="0"/>
</linearGradient>
</defs>
</svg>
