<svg width="83" height="20" viewBox="0 0 83 20" fill="none" xmlns="http://www.w3.org/2000/svg">
<path d="M10.3557 4.41061L11.7937 7.23045C12.053 7.73885 12.5439 8.08889 13.109 8.16836L16.2554 8.61081C16.8782 8.69839 17.1231 9.46751 16.6656 9.89907L14.4419 11.9967C14.0131 12.4013 13.8167 12.9946 13.9196 13.5751L14.4517 16.5772C14.5597 17.1866 13.9247 17.6572 13.3731 17.3766L10.4811 15.9052C9.98245 15.6515 9.39259 15.6515 8.89397 15.9052L6.00193 17.3766C5.45031 17.6572 4.81534 17.1866 4.92335 16.5772L5.45542 13.5751C5.5583 12.9946 5.36197 12.4013 4.9331 11.9967L2.7094 9.89907C2.25191 9.46751 2.49681 8.69839 3.1196 8.61081L6.26604 8.16836C6.83117 8.08889 7.32205 7.73885 7.58132 7.23045L9.01939 4.41061C9.29768 3.86492 10.0774 3.86492 10.3557 4.41061ZM31.2976 4.49245L32.6411 7.21465C32.896 7.73115 33.3887 8.08914 33.9587 8.17197L36.9628 8.60849C37.578 8.69788 37.8236 9.45386 37.3785 9.88776L35.2047 12.0067C34.7922 12.4087 34.604 12.988 34.7014 13.5557L35.2145 16.5477C35.3196 17.1603 34.6766 17.6276 34.1263 17.3383L31.4394 15.9257C30.9295 15.6576 30.3205 15.6576 29.8107 15.9257L27.1237 17.3383C26.5735 17.6276 25.9304 17.1603 26.0355 16.5477L26.5487 13.5557C26.646 12.988 26.4578 12.4087 26.0454 12.0067L23.8716 9.88776C23.4264 9.45386 23.6721 8.69788 24.2872 8.60849L27.2913 8.17197C27.8613 8.08914 28.3541 7.73115 28.609 7.21465L29.9525 4.49245C30.2276 3.93501 31.0225 3.93501 31.2976 4.49245ZM52.2306 4.41061L53.6687 7.23045C53.928 7.73885 54.4189 8.08889 54.984 8.16836L58.1304 8.61081C58.7532 8.69839 58.9981 9.46752 58.5406 9.89907L56.3169 11.9967C55.8881 12.4013 55.6917 12.9946 55.7946 13.5751L56.3267 16.5772C56.4347 17.1866 55.7997 17.6572 55.2481 17.3766L52.3561 15.9052C51.8574 15.6515 51.2676 15.6515 50.769 15.9052L47.8769 17.3766C47.3253 17.6572 46.6903 17.1866 46.7983 16.5772L47.3304 13.5751C47.4333 12.9946 47.237 12.4013 46.8081 11.9967L44.5844 9.89907C44.1269 9.46751 44.3718 8.69839 44.9946 8.61081L48.141 8.16836C48.7062 8.08889 49.197 7.73885 49.4563 7.23045L50.8944 4.41061C51.1727 3.86492 51.9524 3.86492 52.2306 4.41061L52.6705 4.18628L52.2306 4.41061ZM73.4806 4.41061L74.9187 7.23045C75.178 7.73885 75.6689 8.08889 76.234 8.16836L79.3804 8.61081C80.0032 8.69839 80.2481 9.46752 79.7906 9.89907L77.5669 11.9967C77.1381 12.4013 76.9417 12.9946 77.0446 13.5751L77.5767 16.5772C77.6847 17.1866 77.0497 17.6572 76.4981 17.3766L73.6061 15.9052C73.1074 15.6515 72.5176 15.6515 72.019 15.9052L69.1269 17.3766C68.5753 17.6572 67.9403 17.1866 68.0483 16.5772L68.5804 13.5751C68.6833 12.9946 68.487 12.4013 68.0581 11.9967L65.8344 9.89907C65.3769 9.46751 65.6218 8.69839 66.2446 8.61081L69.391 8.16836C69.9562 8.08889 70.447 7.73885 70.7063 7.23045L72.1444 4.41061C72.4227 3.86492 73.2024 3.86492 73.4806 4.41061Z" fill="url(#paint0_linear_1284_965)" stroke="url(#paint1_linear_1284_965)"/>
<path d="M11.0238 4.47079L11.6164 5.6329C11.9868 6.35918 12.6881 6.85923 13.4954 6.97276L14.7099 7.14355C15.9555 7.31871 16.4453 8.85696 15.5303 9.72007L14.7364 10.469C14.1238 11.0469 13.8433 11.8945 13.9903 12.7238L14.1891 13.8456C14.4051 15.0644 13.1352 16.0056 12.0319 15.4443L10.8211 14.8283C10.1088 14.4659 9.26617 14.4659 8.55386 14.8283L7.3431 15.4443C6.23985 16.0056 4.96992 15.0644 5.18593 13.8456L5.38474 12.7238C5.53172 11.8945 5.25124 11.0469 4.63858 10.469L3.84466 9.72007C2.92968 8.85696 3.41949 7.31871 4.66507 7.14355L5.8796 6.97276C6.68693 6.85923 7.38819 6.35918 7.75858 5.6329L8.35124 4.47079C8.90782 3.37941 10.4672 3.37941 11.0238 4.47079Z" fill="#FFDA62" stroke="url(#paint2_linear_1284_965)"/>
<path d="M31.9701 4.60525L32.4665 5.61113C32.8307 6.34899 33.5346 6.86041 34.3489 6.97873L35.4589 7.14003C36.6893 7.31881 37.1805 8.83077 36.2902 9.69857L35.487 10.4815C34.8978 11.0559 34.6289 11.8834 34.768 12.6944L34.9576 13.7999C35.1678 15.0253 33.8817 15.9597 32.7812 15.3812L31.7884 14.8592C31.06 14.4763 30.19 14.4763 29.4616 14.8592L28.4688 15.3812C27.3683 15.9597 26.0822 15.0253 26.2924 13.7999L26.482 12.6944C26.6211 11.8834 26.3522 11.0559 25.763 10.4815L24.9597 9.69857C24.0695 8.83077 24.5607 7.31881 25.7911 7.14003L26.9011 6.97873C27.7154 6.86041 28.4193 6.34899 28.7835 5.61113L29.2799 4.60525C29.8301 3.49038 31.4199 3.49038 31.9701 4.60525Z" fill="#FFDA62" stroke="url(#paint3_linear_1284_965)"/>
<path d="M52.8988 4.47079L53.4914 5.6329C53.8618 6.35918 54.5631 6.85923 55.3704 6.97276L56.5849 7.14355C57.8305 7.31871 58.3203 8.85696 57.4053 9.72007L56.6114 10.469C55.9988 11.0469 55.7183 11.8945 55.8653 12.7238L56.0641 13.8456C56.2801 15.0644 55.0102 16.0056 53.9069 15.4443L52.6961 14.8283C51.9838 14.4659 51.1412 14.4659 50.4289 14.8283L49.2181 15.4443C48.1149 16.0056 46.8449 15.0644 47.0609 13.8456L47.2597 12.7238C47.4067 11.8945 47.1262 11.0469 46.5136 10.469L45.7197 9.72007C44.8047 8.85696 45.2945 7.31871 46.5401 7.14355L47.7546 6.97276C48.5619 6.85923 49.2632 6.35918 49.6336 5.6329L50.2262 4.47079C50.7828 3.37941 52.3422 3.37941 52.8988 4.47079Z" fill="#FFDA62" stroke="url(#paint4_linear_1284_965)"/>
<path d="M74.1488 4.47079L74.7414 5.6329C75.1118 6.35918 75.8131 6.85923 76.6204 6.97276L77.8349 7.14355C79.0805 7.31871 79.5703 8.85696 78.6553 9.72007L77.8614 10.469C77.2488 11.0469 76.9683 11.8945 77.1153 12.7238L77.3141 13.8456C77.5301 15.0644 76.2602 16.0056 75.1569 15.4443L73.9461 14.8283C73.2338 14.4659 72.3912 14.4659 71.6789 14.8283L70.4681 15.4443C69.3649 16.0056 68.0949 15.0644 68.3109 13.8456L68.5097 12.7238C68.6567 11.8945 68.3762 11.0469 67.7636 10.469L66.9697 9.72007C66.0547 8.85696 66.5445 7.31871 67.7901 7.14355L69.0046 6.97276C69.8119 6.85923 70.5132 6.35918 70.8836 5.6329L71.4762 4.47079C72.0328 3.37941 73.5922 3.37941 74.1488 4.47079Z" fill="url(#paint5_linear_1284_965)" stroke="url(#paint6_linear_1284_965)"/>
<defs>
<linearGradient id="paint0_linear_1284_965" x1="41.25" y1="3.50134" x2="41.25" y2="17.9608" gradientUnits="userSpaceOnUse">
<stop stop-color="#C7C7C7"/>
<stop offset="1" stop-color="#484848"/>
</linearGradient>
<linearGradient id="paint1_linear_1284_965" x1="41.25" y1="3.50134" x2="41.25" y2="17.9608" gradientUnits="userSpaceOnUse">
<stop stop-color="#C7C7C7"/>
<stop offset="1" stop-color="#484848"/>
</linearGradient>
<linearGradient id="paint2_linear_1284_965" x1="9.6875" y1="0.75" x2="9.6875" y2="19.5" gradientUnits="userSpaceOnUse">
<stop stop-color="#FFEFBC"/>
<stop offset="1" stop-color="#FFE8C6"/>
</linearGradient>
<linearGradient id="paint3_linear_1284_965" x1="30.625" y1="0.75" x2="30.625" y2="19.5" gradientUnits="userSpaceOnUse">
<stop stop-color="#FFEFBC"/>
<stop offset="1" stop-color="#FFE8C6"/>
</linearGradient>
<linearGradient id="paint4_linear_1284_965" x1="51.5625" y1="0.75" x2="51.5625" y2="19.5" gradientUnits="userSpaceOnUse">
<stop stop-color="#FFEFBC"/>
<stop offset="1" stop-color="#FFE8C6"/>
</linearGradient>
<linearGradient id="paint5_linear_1284_965" x1="72.8125" y1="0.75" x2="72.8125" y2="19.5" gradientUnits="userSpaceOnUse">
<stop stop-color="#EBEBEB"/>
<stop offset="1" stop-color="#D9D9D9"/>
</linearGradient>
<linearGradient id="paint6_linear_1284_965" x1="72.8125" y1="0.75" x2="72.8125" y2="19.5" gradientUnits="userSpaceOnUse">
<stop stop-color="#F0F0F0"/>
<stop offset="1" stop-color="#8C8C8C" stop-opacity="0"/>
</linearGradient>
</defs>
</svg>
