<svg width="83" height="20" viewBox="0 0 83 20" fill="none" xmlns="http://www.w3.org/2000/svg">
<path d="M10.3555 4.41061L11.7936 7.23045C12.0529 7.73885 12.5437 8.08889 13.1089 8.16836L16.2553 8.61081C16.8781 8.69839 17.123 9.46751 16.6655 9.89907L14.4418 11.9967C14.013 12.4013 13.8166 12.9946 13.9195 13.5751L14.4516 16.5772C14.5596 17.1866 13.9246 17.6572 13.373 17.3766L10.4809 15.9052C9.98233 15.6515 9.39247 15.6515 8.89385 15.9052L6.00181 17.3766C5.45019 17.6572 4.81522 17.1866 4.92323 16.5772L5.45529 13.5751C5.55818 12.9946 5.36184 12.4013 4.93298 11.9967L2.70928 9.89907C2.25179 9.46751 2.49669 8.69839 3.11948 8.61081L6.26592 8.16836C6.83105 8.08889 7.32193 7.73885 7.5812 7.23045L9.01927 4.41061C9.29756 3.86492 10.0772 3.86492 10.3555 4.41061ZM31.2974 4.49245L32.6409 7.21465C32.8958 7.73115 33.3886 8.08914 33.9586 8.17197L36.9627 8.60849C37.5779 8.69788 37.8235 9.45386 37.3784 9.88776L35.2046 12.0067C34.7921 12.4087 34.6039 12.988 34.7013 13.5557L35.2144 16.5477C35.3195 17.1603 34.6764 17.6276 34.1262 17.3383L31.4392 15.9257C30.9294 15.6576 30.3204 15.6576 29.8105 15.9257L27.1236 17.3383C26.5734 17.6276 25.9303 17.1603 26.0354 16.5477L26.5485 13.5557C26.6459 12.988 26.4577 12.4087 26.0452 12.0067L23.8714 9.88776C23.4263 9.45386 23.6719 8.69788 24.2871 8.60849L27.2912 8.17197C27.8612 8.08914 28.354 7.73115 28.6089 7.21465L29.9523 4.49245C30.2275 3.93501 31.0223 3.93501 31.2974 4.49245ZM52.2305 4.41061L53.6686 7.23045C53.9279 7.73885 54.4187 8.08889 54.9839 8.16836L58.1303 8.61081C58.7531 8.69839 58.998 9.46752 58.5405 9.89907L56.3168 11.9967C55.888 12.4013 55.6916 12.9946 55.7945 13.5751L56.3266 16.5772C56.4346 17.1866 55.7996 17.6572 55.248 17.3766L52.3559 15.9052C51.8573 15.6515 51.2675 15.6515 50.7688 15.9052L47.8768 17.3766C47.3252 17.6572 46.6902 17.1866 46.7982 16.5772L47.3303 13.5751C47.4332 12.9946 47.2368 12.4013 46.808 11.9967L44.5843 9.89907C44.1268 9.46751 44.3717 8.69839 44.9945 8.61081L48.1409 8.16836C48.706 8.08889 49.1969 7.73885 49.4562 7.23045L50.8943 4.41061C51.1726 3.86492 51.9522 3.86492 52.2305 4.41061L52.6704 4.18628L52.2305 4.41061ZM73.4805 4.41061L74.9186 7.23045C75.1779 7.73885 75.6687 8.08889 76.2339 8.16836L79.3803 8.61081C80.0031 8.69839 80.248 9.46752 79.7905 9.89907L77.5668 11.9967C77.1379 12.4013 76.9416 12.9946 77.0445 13.5751L77.5766 16.5772C77.6846 17.1866 77.0496 17.6572 76.498 17.3766L73.6059 15.9052C73.1073 15.6515 72.5175 15.6515 72.0188 15.9052L69.1268 17.3766C68.5752 17.6572 67.9402 17.1866 68.0482 16.5772L68.5803 13.5751C68.6832 12.9946 68.4868 12.4013 68.058 11.9967L65.8343 9.89907C65.3768 9.46751 65.6217 8.69839 66.2445 8.61081L69.3909 8.16836C69.956 8.08889 70.4469 7.73885 70.7062 7.23045L72.1443 4.41061C72.4225 3.86492 73.2022 3.86492 73.4805 4.41061Z" fill="url(#paint0_linear_1284_979)" stroke="url(#paint1_linear_1284_979)"/>
<path d="M11.0236 4.47079L11.6163 5.6329C11.9867 6.35918 12.6879 6.85923 13.4953 6.97276L14.7098 7.14355C15.9554 7.31871 16.4452 8.85696 15.5302 9.72007L14.7363 10.469C14.1236 11.0469 13.8432 11.8945 13.9901 12.7238L14.1889 13.8456C14.405 15.0644 13.135 16.0056 12.0318 15.4443L10.821 14.8283C10.1087 14.4659 9.26605 14.4659 8.55373 14.8283L7.34298 15.4443C6.23973 16.0056 4.96979 15.0644 5.18581 13.8456L5.38462 12.7238C5.5316 11.8945 5.25112 11.0469 4.63846 10.469L3.84454 9.72007C2.92956 8.85696 3.41936 7.31871 4.66495 7.14355L5.87948 6.97276C6.68681 6.85923 7.38807 6.35918 7.75846 5.6329L8.35111 4.47079C8.90769 3.37941 10.4671 3.37941 11.0236 4.47079Z" fill="#FFDA62" stroke="url(#paint2_linear_1284_979)"/>
<path d="M31.97 4.60525L32.4664 5.61113C32.8306 6.34899 33.5345 6.86041 34.3488 6.97873L35.4588 7.14003C36.6891 7.31881 37.1804 8.83077 36.2901 9.69857L35.4869 10.4815C34.8977 11.0559 34.6288 11.8834 34.7679 12.6944L34.9575 13.7999C35.1677 15.0253 33.8815 15.9597 32.7811 15.3812L31.7882 14.8592C31.0599 14.4763 30.1898 14.4763 29.4615 14.8592L28.4687 15.3812C27.3682 15.9597 26.0821 15.0253 26.2922 13.7999L26.4819 12.6944C26.621 11.8834 26.3521 11.0559 25.7629 10.4815L24.9596 9.69857C24.0694 8.83077 24.5606 7.31881 25.7909 7.14003L26.901 6.97873C27.7153 6.86041 28.4192 6.34899 28.7833 5.61113L29.2798 4.60525C29.83 3.49038 31.4198 3.49038 31.97 4.60525Z" fill="#FFDA62" stroke="url(#paint3_linear_1284_979)"/>
<path d="M52.8986 4.47079L53.4913 5.6329C53.8617 6.35918 54.5629 6.85923 55.3703 6.97276L56.5848 7.14355C57.8304 7.31871 58.3202 8.85696 57.4052 9.72007L56.6113 10.469C55.9986 11.0469 55.7182 11.8945 55.8651 12.7238L56.0639 13.8456C56.28 15.0644 55.01 16.0056 53.9068 15.4443L52.696 14.8283C51.9837 14.4659 51.1411 14.4659 50.4287 14.8283L49.218 15.4443C48.1147 16.0056 46.8448 15.0644 47.0608 13.8456L47.2596 12.7238C47.4066 11.8945 47.1261 11.0469 46.5135 10.469L45.7195 9.72007C44.8046 8.85696 45.2944 7.31871 46.5399 7.14355L47.7545 6.97276C48.5618 6.85923 49.2631 6.35918 49.6335 5.6329L50.2261 4.47079C50.7827 3.37941 52.3421 3.37941 52.8986 4.47079Z" fill="#FFDA62" stroke="url(#paint4_linear_1284_979)"/>
<path d="M74.1486 4.47079L74.7413 5.6329C75.1117 6.35918 75.8129 6.85923 76.6203 6.97276L77.8348 7.14355C79.0804 7.31871 79.5702 8.85696 78.6552 9.72007L77.8613 10.469C77.2486 11.0469 76.9682 11.8945 77.1151 12.7238L77.3139 13.8456C77.53 15.0644 76.26 16.0056 75.1568 15.4443L73.946 14.8283C73.2337 14.4659 72.3911 14.4659 71.6787 14.8283L70.468 15.4443C69.3647 16.0056 68.0948 15.0644 68.3108 13.8456L68.5096 12.7238C68.6566 11.8945 68.3761 11.0469 67.7635 10.469L66.9695 9.72007C66.0546 8.85696 66.5444 7.31871 67.7899 7.14355L69.0045 6.97276C69.8118 6.85923 70.5131 6.35918 70.8835 5.6329L71.4761 4.47079C72.0327 3.37941 73.5921 3.37941 74.1486 4.47079Z" fill="#FFDA62" stroke="url(#paint5_linear_1284_979)"/>
<defs>
<linearGradient id="paint0_linear_1284_979" x1="41.2499" y1="3.50134" x2="41.2499" y2="17.9608" gradientUnits="userSpaceOnUse">
<stop stop-color="#C7C7C7"/>
<stop offset="1" stop-color="#484848"/>
</linearGradient>
<linearGradient id="paint1_linear_1284_979" x1="41.2499" y1="3.50134" x2="41.2499" y2="17.9608" gradientUnits="userSpaceOnUse">
<stop stop-color="#C7C7C7"/>
<stop offset="1" stop-color="#484848"/>
</linearGradient>
<linearGradient id="paint2_linear_1284_979" x1="9.68738" y1="0.75" x2="9.68738" y2="19.5" gradientUnits="userSpaceOnUse">
<stop stop-color="#FFEFBC"/>
<stop offset="1" stop-color="#FFE8C6"/>
</linearGradient>
<linearGradient id="paint3_linear_1284_979" x1="30.6249" y1="0.75" x2="30.6249" y2="19.5" gradientUnits="userSpaceOnUse">
<stop stop-color="#FFEFBC"/>
<stop offset="1" stop-color="#FFE8C6"/>
</linearGradient>
<linearGradient id="paint4_linear_1284_979" x1="51.5624" y1="0.75" x2="51.5624" y2="19.5" gradientUnits="userSpaceOnUse">
<stop stop-color="#FFEFBC"/>
<stop offset="1" stop-color="#FFE8C6"/>
</linearGradient>
<linearGradient id="paint5_linear_1284_979" x1="72.8124" y1="0.75" x2="72.8124" y2="19.5" gradientUnits="userSpaceOnUse">
<stop stop-color="#FFEFBC"/>
<stop offset="1" stop-color="#FFE8C6"/>
</linearGradient>
</defs>
</svg>
