<svg width="50" height="50" viewBox="0 0 50 50" fill="none" xmlns="http://www.w3.org/2000/svg">
<path d="M21.1211 7.03794C26.4076 7.03794 31.6953 7.08091 36.9831 7.0145C38.7656 6.99236 39.888 8.05617 39.8633 9.91945C39.793 15.0588 39.8438 20.2059 39.8294 25.3413C39.8294 25.7319 39.9323 25.8465 40.3281 25.8921C44.0078 26.3192 47.1081 29.495 47.5651 33.2684C48.0938 37.6473 45.4115 41.5939 41.1589 42.6903C40.0662 42.9683 38.9293 43.0275 37.8137 42.8644C36.6981 42.7013 35.6257 42.3191 34.6584 41.7399C33.6911 41.1607 32.8479 40.3959 32.1773 39.4895C31.5068 38.5831 31.0221 37.553 30.7513 36.4585C30.6471 36.0327 30.4909 35.9194 30.0534 35.9207C21.7201 35.9381 13.3906 35.942 5.06511 35.9325C3.26433 35.9325 2.35417 35.0314 2.35417 33.2476V9.72413C2.35417 7.93898 3.26563 7.03794 5.06381 7.03794H21.1211Z" fill="#554AA0"/>
<path d="M3.91537 33.1079V9.71729C3.91537 8.82276 4.14063 8.6001 5.04037 8.6001H37.1536C38.0508 8.6001 38.2773 8.82536 38.2773 9.71859C38.2773 14.9269 38.28 20.1327 38.2852 25.3358C38.2852 25.7264 38.1992 25.8501 37.7917 25.8944C36.756 26.0121 35.7584 26.3543 34.8685 26.897C34.5547 27.0858 34.4154 27.0272 34.194 26.7772C32.332 24.7112 30.4618 22.6526 28.5833 20.6014C27.7643 19.703 26.875 19.6808 26.0195 20.535C24.7643 21.7876 23.5039 23.035 22.263 24.3019C21.9831 24.5871 21.8516 24.6717 21.5599 24.2772C20.3333 22.617 19.0638 20.9894 17.8086 19.3501C16.9193 18.1899 15.8685 18.1782 14.9596 19.3149L4.29688 32.647C4.19792 32.772 4.09375 32.8931 3.91537 33.1079Z" fill="#FEFEFE"/>
<path d="M16.3906 20.0679L27.3021 34.3387H4.94791L16.3906 20.0679Z" fill="#FEFEFE"/>
<path d="M29.9479 34.315C29.4128 34.4765 29.1862 34.2538 28.9492 33.9413C27.0083 31.3779 25.0551 28.8233 23.0898 26.2773C22.8789 26.0038 22.8789 25.8684 23.1341 25.6262C24.4466 24.3645 25.7383 23.0832 27.026 21.7942C27.2513 21.5676 27.362 21.5689 27.5807 21.8124C29.3733 23.8089 31.1775 25.7924 32.9935 27.7629C33.2122 28.0012 33.194 28.1132 32.9753 28.3345C31.4396 29.842 30.5454 31.8842 30.4792 34.0351C30.4583 34.6353 30.043 34.2525 29.9479 34.315Z" fill="#FEFEFE"/>
<path d="M38.2813 32.0939L35.6914 34.1629C35.3971 34.3973 35.0781 34.4624 34.7435 34.2618C34.6147 34.1893 34.5108 34.0798 34.4451 33.9474C34.3794 33.8151 34.3549 33.6661 34.375 33.5197C34.3866 33.4061 34.4224 33.2964 34.4799 33.1978C34.5373 33.0992 34.6153 33.0141 34.7083 32.948C35.9783 31.9324 37.2478 30.9172 38.5169 29.9025C38.8906 29.603 39.2591 29.6199 39.625 29.9142C40.8685 30.9103 42.1159 31.9025 43.3555 32.909C43.7982 33.2671 43.8763 33.7267 43.5599 34.0952C43.2435 34.4637 42.8203 34.4741 42.388 34.1355C41.5599 33.4845 40.7422 32.8191 39.9141 32.1551C39.7839 32.2853 39.8438 32.4428 39.8438 32.577C39.8438 34.448 39.8438 36.3178 39.8438 38.1889C39.8438 38.7228 39.5234 39.0626 39.0625 39.06C38.6016 39.0574 38.3008 38.7202 38.2813 38.185C38.2813 38.0704 38.2813 37.9572 38.2813 37.8426V32.1004V32.0939Z" fill="#FEFEFE"/>
<path d="M35.1563 14.0729C35.1542 14.8451 34.9234 15.5993 34.4929 16.2403C34.0624 16.8813 33.4516 17.3803 32.7377 17.6744C32.0237 17.9684 31.2386 18.0443 30.4816 17.8924C29.7245 17.7405 29.0295 17.3677 28.4842 16.821C27.9389 16.2742 27.5679 15.5782 27.4181 14.8207C27.2682 14.0633 27.3461 13.2784 27.6421 12.5652C27.9381 11.8521 28.4387 11.2426 29.0809 10.8139C29.723 10.3851 30.4779 10.1563 31.25 10.1563C31.7639 10.1562 32.2727 10.2576 32.7473 10.4546C33.2219 10.6515 33.653 10.9402 34.0158 11.304C34.3787 11.6679 34.6662 12.0997 34.8619 12.5749C35.0576 13.05 35.1576 13.5591 35.1563 14.0729Z" fill="#554AA0"/>
<path d="M31.25 11.7251C31.7149 11.7251 32.1693 11.8635 32.5554 12.1225C32.9415 12.3815 33.2419 12.7495 33.4183 13.1796C33.5947 13.6098 33.6392 14.0827 33.5461 14.5382C33.453 14.9937 33.2265 15.4112 32.8954 15.7377C32.5644 16.0641 32.1437 16.2847 31.687 16.3715C31.2302 16.4582 30.758 16.4071 30.3303 16.2247C29.9026 16.0423 29.5389 15.7369 29.2853 15.3472C29.0317 14.9575 28.8998 14.5012 28.9063 14.0363C28.9168 13.421 29.1682 12.8344 29.6063 12.4023C30.0445 11.9702 30.6346 11.7271 31.25 11.7251Z" fill="#FEFEFE"/>
</svg>
