<svg width="45" height="45" viewBox="0 0 45 45" fill="none" xmlns="http://www.w3.org/2000/svg">
<circle cx="22.5" cy="22.5" r="21.5" fill="url(#paint0_linear_98_48)" stroke="white" stroke-width="2"/>
<path d="M22.5002 13.4043C16.1897 13.4043 10.8006 17.3745 8.61719 22.9788C10.8006 28.583 16.1897 32.5532 22.5002 32.5532C28.8106 32.5532 34.1997 28.583 36.3831 22.9788C34.1997 17.3745 28.8106 13.4043 22.5002 13.4043ZM22.5002 29.3617C19.0168 29.3617 16.1897 26.5022 16.1897 22.9788C16.1897 19.4554 19.0168 16.5958 22.5002 16.5958C25.9835 16.5958 28.8106 19.4554 28.8106 22.9788C28.8106 26.5022 25.9835 29.3617 22.5002 29.3617ZM22.5002 19.149C20.4051 19.149 18.7139 20.8596 18.7139 22.9788C18.7139 25.0979 20.4051 26.8086 22.5002 26.8086C24.5952 26.8086 26.2864 25.0979 26.2864 22.9788C26.2864 20.8596 24.5952 19.149 22.5002 19.149Z" fill="white"/>
<defs>
<linearGradient id="paint0_linear_98_48" x1="22.5254" y1="-7.56296" x2="22.5254" y2="51.9323" gradientUnits="userSpaceOnUse">
<stop offset="0.0260417" stop-color="#418AFF"/>
<stop offset="0.473958" stop-color="#2D7AF5"/>
<stop offset="1" stop-color="#114DAC"/>
</linearGradient>
</defs>
</svg>
