<svg width="30" height="31" viewBox="0 0 30 31" fill="none" xmlns="http://www.w3.org/2000/svg">
<g clip-path="url(#clip0_1288_1219)">
<path d="M29.375 8.66485C29.2051 8.05889 28.8742 7.51028 28.4175 7.07735C27.9478 6.63111 27.3722 6.3119 26.745 6.14985C24.3975 5.5311 14.9925 5.5311 14.9925 5.5311C11.0716 5.48649 7.15176 5.68269 3.25498 6.1186C2.62772 6.29262 2.05318 6.61896 1.58248 7.0686C1.11998 7.5136 0.784978 8.06235 0.609978 8.6636C0.189594 10.9283 -0.014657 13.2278 -2.19781e-05 15.5311C-0.015022 17.8324 0.188728 20.1311 0.609978 22.3986C0.781228 22.9974 1.11498 23.5436 1.57873 23.9849C2.04248 24.4261 2.61998 24.7449 3.25498 24.9136C5.63373 25.5311 14.9925 25.5311 14.9925 25.5311C18.9183 25.5758 22.8432 25.3796 26.745 24.9436C27.3722 24.7816 27.9478 24.4623 28.4175 24.0161C28.8741 23.5833 29.2046 23.0346 29.3737 22.4286C29.8051 20.1648 30.0148 17.8643 30 15.5599C30.0324 13.2456 29.8229 10.9343 29.375 8.6636V8.66485ZM12.0025 19.8111V11.2524L19.8275 15.5324L12.0025 19.8111Z" fill="#555555"/>
</g>
<defs>
<clipPath id="clip0_1288_1219">
<rect width="30" height="30" fill="white" transform="translate(0 0.53125)"/>
</clipPath>
</defs>
</svg>
