<?xml version="1.0" encoding="UTF-8"?><svg id="a" xmlns="http://www.w3.org/2000/svg" viewBox="0 0 512 512"><defs><style>.b{fill:#fff;}.c{fill:rgba(255,255,255,.8);}</style></defs><path class="b" d="M484.42,249.74c-.15-2.99-.83-5.55-1.47-7.44-1.2-3.78-3.59-8.3-8.15-11.85-3.41-2.65-6.97-3.96-9.35-4.66-3.65-1.07-7.2-1.33-10.07-1.33-3.15,0-7.13,.28-11.16,1.55-3.97,1.25-8.86,3.8-12.56,8.68-3.43-4.6-8.08-7.32-12.39-8.68-4.08-1.29-8.12-1.55-11.26-1.55s-7.18,.26-11.26,1.55c-.87,.28-1.74,.6-2.61,.98-3.49-1.94-8.01-3.64-13.31-3.64-6.26,0-11.14,2.45-14.18,4.49-1.3,.87-2.48,1.82-3.57,2.79l-.05-.04-.04-.03c-3.41-2.66-6.98-3.97-9.36-4.67-3.65-1.07-7.2-1.33-10.07-1.33-3.14,0-7.18,.26-11.26,1.55-3.81,1.21-7.76,3.41-10.97,6.9-9.2-6.13-19.75-9.35-31.26-9.35-7.48,0-14.72,1.53-21.56,4.48-6.65,2.86-12.62,6.85-17.79,11.92-.13,.12-.25,.24-.37,.37-10.91-10.25-24.31-15.87-39.4-15.87h-9.22c-4.12-.06-7.3-.1-9.46-.1-3.14,0-7.18,.26-11.26,1.55-.79,.25-1.59,.54-2.38,.88-1.16-.48-2.23-.83-3.14-1.1-3.65-1.07-7.19-1.33-10.07-1.33-3.14,0-7.12,.28-11.16,1.55-3.97,1.25-8.85,3.8-12.56,8.68-3.43-4.6-8.08-7.32-12.38-8.68-4.08-1.29-8.13-1.55-11.26-1.55s-7.19,.26-11.27,1.55c-2.37,.75-4.8,1.89-7.06,3.49-3.24-1.75-6.51-2.86-8.98-3.61-5.56-1.78-11.31-2.54-17.06-2.54-11.77,0-23.39,3.58-32.42,12.61-8,7.99-12.51,18.23-12.51,29.8,0,6.83,1.31,13.88,4.8,20.45-3.04,3.99-6.12,9.72-6.12,16.92,0,8.83,4.89,15.34,7.17,18.15l.02,.02,.52,.63c1.77,2.41,3.78,4.35,5.32,5.72l.19,.17,.2,.17c2.09,1.78,4.34,3.42,6.68,4.95l.37,.25,.39,.22c3.77,2.24,7.84,3.77,11.74,4.89l.21,.06,.22,.06c4.64,1.21,9.37,1.77,14.13,1.77s9.89-.74,14.64-2.15c4.97-1.47,9.62-3.68,13.91-6.49,1.68-1.09,3.25-2.29,4.7-3.59,3.14,2.72,6.59,5.03,10.29,6.94l.06,.03,.06,.03c7.3,3.71,15.16,5.43,23.23,5.43s15.8-1.63,23.1-5.22l.11-.05,.11-.06c2.1-1.07,4.13-2.26,6.06-3.58,3.28,3.2,7.05,5.04,10.24,6.05,3.98,1.26,7.9,1.55,11.06,1.55h18.48c15.13,0,28.63-5.41,39.45-15.81,11.05,11.29,25.09,17.12,40.88,17.12,11.35,0,21.73-3.19,30.69-9.3,.72,.73,1.5,1.43,2.36,2.1,3.41,2.65,6.98,3.96,9.36,4.66,3.65,1.07,7.2,1.33,10.07,1.33,3.14,0,7.18-.26,11.26-1.55,2.91-.92,5.89-2.42,8.57-4.63,.99,.89,2.06,1.75,3.23,2.55,2.86,1.97,7.81,4.64,14.31,4.64,9.29,0,16.2-5.2,19.53-8l.18-.15,.16-.15c.31-.27,.64-.56,.98-.88,2.04,1.44,4.18,2.74,6.42,3.89l.06,.03,.05,.03h.01c7.3,3.71,15.16,5.43,23.22,5.43s15.81-1.63,23.1-5.22l.12-.05,.11-.06c6.67-3.39,12.56-8.05,17.21-14.12,4.02-5.22,7.11-10.99,9.24-17.22,2.2-6.25,3.34-12.74,3.34-19.37v-30.5c0-1.18-.02-2.65-.14-4.11Zm-5.19,35.13c0,6.03-1.04,11.92-3.05,17.63-1.94,5.69-4.76,10.94-8.42,15.71-4.12,5.38-9.37,9.56-15.4,12.62l-.09,.04-.08,.05c-6.49,3.19-13.5,4.66-20.75,4.66s-14.31-1.55-20.81-4.85l-.05-.02-.04-.03c-3.4-1.75-6.54-3.86-9.38-6.34-1.4,1.71-2.84,3.07-3.98,4.07l-.12,.11-.13,.11c-3.13,2.63-8.79,6.75-16.1,6.75-5.01,0-8.9-2.05-11.29-3.7-2.45-1.68-4.5-3.75-6.17-5.7l-.14-.15c-2.69,3.78-6.43,6.08-10.11,7.24-3.35,1.06-6.78,1.3-9.66,1.3-2.58,0-5.57-.23-8.57-1.11-2.05-.61-4.91-1.68-7.59-3.76-2.03-1.58-3.55-3.43-4.66-5.3-8.92,7.46-19.64,11.38-31.66,11.38-14.43,0-27.13-5.3-37.19-15.64l-.05-.05c-1.24-1.29-2.41-2.62-3.5-3.98-.85,.99-1.74,1.95-2.68,2.9-10.02,10.19-22.61,15.46-36.91,15.46h-18.48c-2.86,0-6.18-.27-9.46-1.3-3.64-1.15-8.02-3.57-10.96-8.35h-.01c-2.82,2.43-5.96,4.49-9.34,6.21l-.08,.04-.09,.05c-6.49,3.19-13.49,4.66-20.74,4.66s-14.32-1.55-20.82-4.85l-.04-.02-.04-.03c-4.86-2.5-9.19-5.73-12.83-9.72-2.14,2.53-4.64,4.78-7.52,6.64-3.89,2.56-8.06,4.54-12.51,5.85-4.28,1.27-8.67,1.93-13.13,1.93s-8.62-.51-12.78-1.6l-.16-.04-.16-.05c-3.62-1.03-7.23-2.41-10.48-4.34l-.29-.17-.27-.18c-2.19-1.42-4.25-2.94-6.15-4.55l-.15-.13-.14-.12c-1.44-1.29-3.18-2.99-4.66-5.01l-.59-.73-.02-.02c-2.14-2.63-5.98-7.9-5.98-14.79,0-7.33,4.1-12.95,7.33-16.41-.53-.77-1.02-1.56-1.48-2.36l-.1-.17-.09-.17c-3.11-5.73-4.34-12-4.34-18.25,0-10.09,3.9-18.99,10.94-26.04,7.83-7.82,17.98-11.04,28.66-11.04,5.3,0,10.51,.69,15.47,2.29,3.27,.99,7.49,2.5,11.02,5.09,2.43-2.46,5.34-4.06,8.22-4.97,3.34-1.06,6.78-1.3,9.65-1.3s6.32,.24,9.66,1.3c4.28,1.35,8.84,4.33,11.47,9.63,.98,1.87,1.96,4.26,2.42,7.02,.04,.25,.08,.49,.11,.74,.05-.42,.11-.84,.18-1.25,.54-3.09,1.72-5.7,3.01-7.8,2.94-4.77,7.33-7.19,10.97-8.34,3.31-1.05,6.69-1.3,9.55-1.3,2.58,0,5.57,.23,8.57,1.11,1.32,.39,2.97,.97,4.7,1.89,1.28-.72,2.61-1.29,3.92-1.7,3.35-1.06,6.78-1.3,9.66-1.3,2.13,0,5.28,.03,9.41,.1h9.27c13.81,0,26.03,5.15,36.06,14.72,1.24,1.17,2.41,2.38,3.5,3.62,1.22-1.53,2.53-2.99,3.94-4.37,4.7-4.6,10.12-8.23,16.17-10.83,6.19-2.67,12.71-4.05,19.45-4.05,12.21,0,23.18,3.97,32.44,11.51,2.69-5.03,7.09-7.94,11.39-9.3,3.35-1.06,6.78-1.3,9.66-1.3,2.58,0,5.57,.23,8.56,1.11,2.06,.61,4.92,1.68,7.59,3.76,1.38,1.07,2.5,2.25,3.42,3.49l.16-.19c1.69-1.98,3.79-4.09,6.34-5.8,2.51-1.69,6.35-3.58,11.2-3.58,5.35,0,9.82,2.21,13.06,4.42,1.45-.87,2.96-1.54,4.47-2.01,3.34-1.06,6.78-1.3,9.65-1.3s6.31,.24,9.66,1.3c4.28,1.35,8.83,4.33,11.47,9.63,.97,1.87,1.96,4.26,2.42,7.02,.04,.25,.07,.49,.11,.74,.05-.42,.11-.84,.18-1.25,.53-3.09,1.72-5.7,3.01-7.8,2.94-4.77,7.32-7.19,10.96-8.34,3.31-1.05,6.69-1.3,9.56-1.3,2.58,0,5.57,.23,8.56,1.11,2.06,.61,4.92,1.68,7.59,3.76,3.53,2.74,5.4,6.26,6.36,9.29,.55,1.61,1.1,3.72,1.21,6.13,.11,1.27,.13,2.61,.13,3.76v30.5Z"/><path class="b" d="M48.57,308.59c-1.75-2.16-2.63-3.94-2.63-5.35,0-2.02,1.45-4.44,4.34-7.27,1.68-1.62,3.37-2.42,5.05-2.42,2.09,0,4.65,1.51,7.68,4.54l.51,.51c.27,.34,.67,.77,1.21,1.31,.54,.54,1.58,1.28,3.13,2.22,1.55,.88,3.06,1.31,4.54,1.31,6.26,0,9.39-2.56,9.39-7.68,0-1.55-.88-2.83-2.63-3.84-1.68-1.08-3.8-1.85-6.36-2.32-2.56-.47-5.32-1.21-8.28-2.22-2.96-1.08-5.72-2.32-8.28-3.74-2.56-1.41-4.71-3.64-6.46-6.67-1.68-3.1-2.52-6.8-2.52-11.11,0-5.93,2.19-11.08,6.56-15.45,4.44-4.44,10.47-6.66,18.08-6.66,4.04,0,7.71,.54,11.01,1.62,3.37,1.01,5.69,2.05,6.97,3.13l2.02,1.51,.5,.4c2.09,1.95,3.13,3.57,3.13,4.85,0,1.41-.81,3.3-2.42,5.66-2.29,3.37-4.65,5.05-7.07,5.05-1.41,0-3.16-.67-5.25-2.02-.2-.13-.61-.47-1.21-1.01-.54-.54-1.04-.94-1.51-1.21-.47-.34-1.28-.64-2.42-.91-1.08-.34-2.36-.51-3.84-.51-1.62,0-3.16,.54-4.65,1.62-1.41,1.01-2.12,2.36-2.12,4.04,0,2.02,.84,3.6,2.52,4.75,1.75,1.14,3.91,1.92,6.46,2.32s5.35,1.04,8.38,1.92c3.03,.81,5.82,1.82,8.38,3.03,2.56,1.21,4.68,3.33,6.36,6.36,1.75,2.96,2.63,6.67,2.63,11.11s-.88,8.15-2.63,11.51c-1.75,3.3-4.04,5.86-6.87,7.68-2.76,1.82-5.62,3.17-8.58,4.04s-5.92,1.31-8.89,1.31c-3.16,0-6.16-.37-8.99-1.11-2.83-.81-5.15-1.75-6.97-2.83-1.75-1.14-3.3-2.29-4.65-3.43-1.28-1.14-2.19-2.12-2.73-2.93l-.91-1.11Z"/><path class="b" d="M163.63,244.86c1.75,0,3.2,.17,4.34,.51,1.14,.34,2.02,.74,2.63,1.21,.61,.47,1.04,1.18,1.31,2.12,.34,.94,.51,1.75,.51,2.42,.07,.61,.1,1.55,.1,2.83v30.5c0,4.31-.74,8.55-2.22,12.72-1.41,4.18-3.47,8.01-6.16,11.51-2.63,3.43-6.06,6.23-10.3,8.38-4.24,2.09-8.96,3.13-14.14,3.13s-9.8-1.08-14.04-3.23c-4.17-2.15-7.57-4.95-10.2-8.38-2.63-3.5-4.65-7.34-6.06-11.51-1.41-4.24-2.12-8.52-2.12-12.83v-30.4c0-1.62,.03-2.79,.1-3.54,.14-.81,.47-1.72,1.01-2.73,.54-1.01,1.45-1.72,2.73-2.12,1.28-.4,3-.61,5.15-.61s3.87,.2,5.15,.61c1.28,.4,2.15,1.11,2.63,2.12,.54,1.01,.88,1.92,1.01,2.73,.14,.81,.2,2.02,.2,3.64v30.3c0,2.02,.24,4.01,.71,5.96,.47,1.89,1.21,3.8,2.22,5.76,1.08,1.89,2.63,3.4,4.65,4.54,2.02,1.14,4.41,1.72,7.17,1.72,4.91,0,8.58-1.82,11.01-5.45,2.42-3.64,3.64-7.84,3.64-12.62v-30.9c0-1.48,.07-2.59,.2-3.33,.13-.81,.47-1.65,1.01-2.53,.54-.88,1.45-1.51,2.73-1.92,1.28-.4,2.96-.61,5.05-.61Z"/><path class="b" d="M246.03,281.52c0,10.23-3.64,19.02-10.91,26.36-7.2,7.34-15.96,11.01-26.26,11.01h-18.48c-2.02,0-3.67-.2-4.95-.61-1.28-.4-2.19-1.04-2.73-1.92-.54-.94-.88-1.85-1.01-2.73-.13-.94-.2-2.19-.2-3.74v-56.15c0-1.62,.03-2.79,.1-3.54,.13-.74,.47-1.62,1.01-2.63,.54-1.01,1.45-1.72,2.73-2.12,1.28-.4,3-.61,5.15-.61,2.02,0,5.12,.03,9.29,.1h9.39c9.76,0,18.35,3.54,25.75,10.6,7.41,7,11.11,15.65,11.11,25.96Zm-17.88,.4c0-5.39-1.92-9.9-5.76-13.53-3.77-3.7-8.21-5.55-13.33-5.55h-9.7v38.18h9.8c4.85,0,9.22-1.78,13.13-5.35,3.9-3.64,5.86-8.21,5.86-13.74Z"/><path class="b" d="M288.28,244.05c9.96,0,18.62,3.6,25.96,10.81s11.01,16.33,11.01,27.37c0,10.3-3.5,19.22-10.5,26.76-7,7.47-15.52,11.21-25.55,11.21s-19.26-3.7-26.46-11.11c-7.14-7.41-10.71-16.23-10.71-26.46,0-5.59,1.01-10.81,3.03-15.65,2.02-4.92,4.71-9.02,8.08-12.32,3.37-3.3,7.24-5.89,11.61-7.78,4.38-1.89,8.89-2.83,13.53-2.83Zm.3,58.27c4.85,0,9.19-1.82,13.03-5.45,3.84-3.64,5.76-8.55,5.76-14.75s-1.95-10.94-5.86-14.64c-3.84-3.7-8.11-5.55-12.83-5.55s-9.19,1.89-13.03,5.66c-3.84,3.7-5.76,8.59-5.76,14.64s1.92,10.77,5.76,14.54c3.9,3.7,8.21,5.55,12.93,5.55Z"/><path class="b" d="M364.5,281.82c10.3,9.9,17.61,17.34,21.91,22.32,2.22,2.49,3.33,4.48,3.33,5.96,0,1.95-1.41,4.17-4.24,6.67-2.56,2.15-4.71,3.23-6.46,3.23s-3.74-1.41-6.16-4.24l-22.22-25.35v19.69c0,1.62-.07,2.79-.2,3.53-.07,.74-.37,1.62-.91,2.63-.54,1.01-1.45,1.72-2.73,2.12-1.28,.4-3,.61-5.15,.61-1.75,0-3.2-.17-4.34-.51-1.14-.34-2.02-.74-2.63-1.21-.61-.47-1.08-1.14-1.41-2.02-.27-.94-.44-1.72-.51-2.32v-59.08c0-1.55,.03-2.69,.1-3.43,.13-.81,.47-1.72,1.01-2.73,.54-1.01,1.45-1.72,2.73-2.12,1.28-.4,3-.61,5.15-.61,1.75,0,3.2,.17,4.34,.51,1.14,.34,2.02,.74,2.62,1.21,.61,.47,1.04,1.18,1.31,2.12,.34,.88,.51,1.65,.51,2.32,.07,.61,.1,1.55,.1,2.83v19.29c9.16-10.3,16.56-18.75,22.22-25.35,2.36-2.76,4.41-4.14,6.16-4.14s3.9,1.08,6.46,3.23c2.83,2.49,4.24,4.71,4.24,6.67,0,1.48-1.11,3.47-3.33,5.96-1.88,2.22-4.68,5.18-8.38,8.89-3.64,3.7-6.8,6.87-9.49,9.49l-4.04,3.84Z"/><path class="b" d="M453.59,244.86c1.75,0,3.2,.17,4.34,.51,1.14,.34,2.02,.74,2.63,1.21,.61,.47,1.04,1.18,1.31,2.12,.34,.94,.51,1.75,.51,2.42,.07,.61,.1,1.55,.1,2.83v30.5c0,4.31-.74,8.55-2.22,12.72-1.41,4.18-3.47,8.01-6.16,11.51-2.63,3.43-6.06,6.23-10.3,8.38-4.24,2.09-8.96,3.13-14.14,3.13s-9.8-1.08-14.04-3.23c-4.17-2.15-7.57-4.95-10.2-8.38-2.63-3.5-4.65-7.34-6.06-11.51-1.41-4.24-2.12-8.52-2.12-12.83v-30.4c0-1.62,.03-2.79,.1-3.54,.14-.81,.47-1.72,1.01-2.73,.54-1.01,1.45-1.72,2.73-2.12,1.28-.4,3-.61,5.15-.61s3.87,.2,5.15,.61c1.28,.4,2.15,1.11,2.62,2.12,.54,1.01,.88,1.92,1.01,2.73,.13,.81,.2,2.02,.2,3.64v30.3c0,2.02,.24,4.01,.71,5.96,.47,1.89,1.21,3.8,2.22,5.76,1.08,1.89,2.63,3.4,4.65,4.54,2.02,1.14,4.41,1.72,7.17,1.72,4.92,0,8.58-1.82,11.01-5.45,2.42-3.64,3.64-7.84,3.64-12.62v-30.9c0-1.48,.07-2.59,.2-3.33,.13-.81,.47-1.65,1.01-2.53,.54-.88,1.45-1.51,2.73-1.92,1.28-.4,2.96-.61,5.05-.61Z"/><g><path class="c" d="M48.57,308.59c-1.75-2.16-2.63-3.94-2.63-5.35,0-2.02,1.45-4.44,4.34-7.27,1.68-1.62,3.37-2.42,5.05-2.42,2.09,0,4.65,1.51,7.68,4.54l.51,.51c.27,.34,.67,.77,1.21,1.31,.54,.54,1.58,1.28,3.13,2.22,1.55,.88,3.06,1.31,4.54,1.31,6.26,0,9.39-2.56,9.39-7.68,0-1.55-.88-2.83-2.63-3.84-1.68-1.08-3.8-1.85-6.36-2.32-2.56-.47-5.32-1.21-8.28-2.22-2.96-1.08-5.72-2.32-8.28-3.74-2.56-1.41-4.71-3.64-6.46-6.67-1.68-3.1-2.52-6.8-2.52-11.11,0-5.93,2.19-11.08,6.56-15.45,4.44-4.44,10.47-6.66,18.08-6.66,4.04,0,7.71,.54,11.01,1.62,3.37,1.01,5.69,2.05,6.97,3.13l2.02,1.51,.5,.4c2.09,1.95,3.13,3.57,3.13,4.85,0,1.41-.81,3.3-2.42,5.66-2.29,3.37-4.65,5.05-7.07,5.05-1.41,0-3.16-.67-5.25-2.02-.2-.13-.61-.47-1.21-1.01-.54-.54-1.04-.94-1.51-1.21-.47-.34-1.28-.64-2.42-.91-1.08-.34-2.36-.51-3.84-.51-1.62,0-3.16,.54-4.65,1.62-1.41,1.01-2.12,2.36-2.12,4.04,0,2.02,.84,3.6,2.52,4.75,1.75,1.14,3.91,1.92,6.46,2.32s5.35,1.04,8.38,1.92c3.03,.81,5.82,1.82,8.38,3.03,2.56,1.21,4.68,3.33,6.36,6.36,1.75,2.96,2.63,6.67,2.63,11.11s-.88,8.15-2.63,11.51c-1.75,3.3-4.04,5.86-6.87,7.68-2.76,1.82-5.62,3.17-8.58,4.04s-5.92,1.31-8.89,1.31c-3.16,0-6.16-.37-8.99-1.11-2.83-.81-5.15-1.75-6.97-2.83-1.75-1.14-3.3-2.29-4.65-3.43-1.28-1.14-2.19-2.12-2.73-2.93l-.91-1.11Z"/><path class="b" d="M48.57,308.59c-1.75-2.16-2.63-3.94-2.63-5.35,0-2.02,1.45-4.44,4.34-7.27,1.68-1.62,3.37-2.42,5.05-2.42,2.09,0,4.65,1.51,7.68,4.54l.51,.51c.27,.34,.67,.77,1.21,1.31,.54,.54,1.58,1.28,3.13,2.22,1.55,.88,3.06,1.31,4.54,1.31,6.26,0,9.39-2.56,9.39-7.68,0-1.55-.88-2.83-2.63-3.84-1.68-1.08-3.8-1.85-6.36-2.32-2.56-.47-5.32-1.21-8.28-2.22-2.96-1.08-5.72-2.32-8.28-3.74-2.56-1.41-4.71-3.64-6.46-6.67-1.68-3.1-2.52-6.8-2.52-11.11,0-5.93,2.19-11.08,6.56-15.45,4.44-4.44,10.47-6.66,18.08-6.66,4.04,0,7.71,.54,11.01,1.62,3.37,1.01,5.69,2.05,6.97,3.13l2.02,1.51,.5,.4c2.09,1.95,3.13,3.57,3.13,4.85,0,1.41-.81,3.3-2.42,5.66-2.29,3.37-4.65,5.05-7.07,5.05-1.41,0-3.16-.67-5.25-2.02-.2-.13-.61-.47-1.21-1.01-.54-.54-1.04-.94-1.51-1.21-.47-.34-1.28-.64-2.42-.91-1.08-.34-2.36-.51-3.84-.51-1.62,0-3.16,.54-4.65,1.62-1.41,1.01-2.12,2.36-2.12,4.04,0,2.02,.84,3.6,2.52,4.75,1.75,1.14,3.91,1.92,6.46,2.32s5.35,1.04,8.38,1.92c3.03,.81,5.82,1.82,8.38,3.03,2.56,1.21,4.68,3.33,6.36,6.36,1.75,2.96,2.63,6.67,2.63,11.11s-.88,8.15-2.63,11.51c-1.75,3.3-4.04,5.86-6.87,7.68-2.76,1.82-5.62,3.17-8.58,4.04s-5.92,1.31-8.89,1.31c-3.16,0-6.16-.37-8.99-1.11-2.83-.81-5.15-1.75-6.97-2.83-1.75-1.14-3.3-2.29-4.65-3.43-1.28-1.14-2.19-2.12-2.73-2.93l-.91-1.11Z"/><path class="c" d="M163.63,244.86c1.75,0,3.2,.17,4.34,.51,1.14,.34,2.02,.74,2.63,1.21,.61,.47,1.04,1.18,1.31,2.12,.34,.94,.51,1.75,.51,2.42,.07,.61,.1,1.55,.1,2.83v30.5c0,4.31-.74,8.55-2.22,12.72-1.41,4.18-3.47,8.01-6.16,11.51-2.63,3.43-6.06,6.23-10.3,8.38-4.24,2.09-8.96,3.13-14.14,3.13s-9.8-1.08-14.04-3.23c-4.17-2.15-7.57-4.95-10.2-8.38-2.63-3.5-4.65-7.34-6.06-11.51-1.41-4.24-2.12-8.52-2.12-12.83v-30.4c0-1.62,.03-2.79,.1-3.54,.14-.81,.47-1.72,1.01-2.73,.54-1.01,1.45-1.72,2.73-2.12,1.28-.4,3-.61,5.15-.61s3.87,.2,5.15,.61c1.28,.4,2.15,1.11,2.63,2.12,.54,1.01,.88,1.92,1.01,2.73,.14,.81,.2,2.02,.2,3.64v30.3c0,2.02,.24,4.01,.71,5.96,.47,1.89,1.21,3.8,2.22,5.76,1.08,1.89,2.63,3.4,4.65,4.54,2.02,1.14,4.41,1.72,7.17,1.72,4.91,0,8.58-1.82,11.01-5.45,2.42-3.64,3.64-7.84,3.64-12.62v-30.9c0-1.48,.07-2.59,.2-3.33,.13-.81,.47-1.65,1.01-2.53,.54-.88,1.45-1.51,2.73-1.92,1.28-.4,2.96-.61,5.05-.61Z"/><path class="b" d="M163.63,244.86c1.75,0,3.2,.17,4.34,.51,1.14,.34,2.02,.74,2.63,1.21,.61,.47,1.04,1.18,1.31,2.12,.34,.94,.51,1.75,.51,2.42,.07,.61,.1,1.55,.1,2.83v30.5c0,4.31-.74,8.55-2.22,12.72-1.41,4.18-3.47,8.01-6.16,11.51-2.63,3.43-6.06,6.23-10.3,8.38-4.24,2.09-8.96,3.13-14.14,3.13s-9.8-1.08-14.04-3.23c-4.17-2.15-7.57-4.95-10.2-8.38-2.63-3.5-4.65-7.34-6.06-11.51-1.41-4.24-2.12-8.52-2.12-12.83v-30.4c0-1.62,.03-2.79,.1-3.54,.14-.81,.47-1.72,1.01-2.73,.54-1.01,1.45-1.72,2.73-2.12,1.28-.4,3-.61,5.15-.61s3.87,.2,5.15,.61c1.28,.4,2.15,1.11,2.63,2.12,.54,1.01,.88,1.92,1.01,2.73,.14,.81,.2,2.02,.2,3.64v30.3c0,2.02,.24,4.01,.71,5.96,.47,1.89,1.21,3.8,2.22,5.76,1.08,1.89,2.63,3.4,4.65,4.54,2.02,1.14,4.41,1.72,7.17,1.72,4.91,0,8.58-1.82,11.01-5.45,2.42-3.64,3.64-7.84,3.64-12.62v-30.9c0-1.48,.07-2.59,.2-3.33,.13-.81,.47-1.65,1.01-2.53,.54-.88,1.45-1.51,2.73-1.92,1.28-.4,2.96-.61,5.05-.61Z"/><path class="c" d="M246.03,281.52c0,10.23-3.64,19.02-10.91,26.36-7.2,7.34-15.96,11.01-26.26,11.01h-18.48c-2.02,0-3.67-.2-4.95-.61-1.28-.4-2.19-1.04-2.73-1.92-.54-.94-.88-1.85-1.01-2.73-.13-.94-.2-2.19-.2-3.74v-56.15c0-1.62,.03-2.79,.1-3.54,.13-.74,.47-1.62,1.01-2.63,.54-1.01,1.45-1.72,2.73-2.12,1.28-.4,3-.61,5.15-.61,2.02,0,5.12,.03,9.29,.1h9.39c9.76,0,18.35,3.54,25.75,10.6,7.41,7,11.11,15.65,11.11,25.96Zm-17.88,.4c0-5.39-1.92-9.9-5.76-13.53-3.77-3.7-8.21-5.55-13.33-5.55h-9.7v38.18h9.8c4.85,0,9.22-1.78,13.13-5.35,3.9-3.64,5.86-8.21,5.86-13.74Z"/><path class="b" d="M246.03,281.52c0,10.23-3.64,19.02-10.91,26.36-7.2,7.34-15.96,11.01-26.26,11.01h-18.48c-2.02,0-3.67-.2-4.95-.61-1.28-.4-2.19-1.04-2.73-1.92-.54-.94-.88-1.85-1.01-2.73-.13-.94-.2-2.19-.2-3.74v-56.15c0-1.62,.03-2.79,.1-3.54,.13-.74,.47-1.62,1.01-2.63,.54-1.01,1.45-1.72,2.73-2.12,1.28-.4,3-.61,5.15-.61,2.02,0,5.12,.03,9.29,.1h9.39c9.76,0,18.35,3.54,25.75,10.6,7.41,7,11.11,15.65,11.11,25.96Zm-17.88,.4c0-5.39-1.92-9.9-5.76-13.53-3.77-3.7-8.21-5.55-13.33-5.55h-9.7v38.18h9.8c4.85,0,9.22-1.78,13.13-5.35,3.9-3.64,5.86-8.21,5.86-13.74Z"/><path class="c" d="M288.28,244.05c9.96,0,18.62,3.6,25.96,10.81s11.01,16.33,11.01,27.37c0,10.3-3.5,19.22-10.5,26.76-7,7.47-15.52,11.21-25.55,11.21s-19.26-3.7-26.46-11.11c-7.14-7.41-10.71-16.23-10.71-26.46,0-5.59,1.01-10.81,3.03-15.65,2.02-4.92,4.71-9.02,8.08-12.32,3.37-3.3,7.24-5.89,11.61-7.78,4.38-1.89,8.89-2.83,13.53-2.83Zm.3,58.27c4.85,0,9.19-1.82,13.03-5.45,3.84-3.64,5.76-8.55,5.76-14.75s-1.95-10.94-5.86-14.64c-3.84-3.7-8.11-5.55-12.83-5.55s-9.19,1.89-13.03,5.66c-3.84,3.7-5.76,8.59-5.76,14.64s1.92,10.77,5.76,14.54c3.9,3.7,8.21,5.55,12.93,5.55Z"/><path class="b" d="M288.28,244.05c9.96,0,18.62,3.6,25.96,10.81s11.01,16.33,11.01,27.37c0,10.3-3.5,19.22-10.5,26.76-7,7.47-15.52,11.21-25.55,11.21s-19.26-3.7-26.46-11.11c-7.14-7.41-10.71-16.23-10.71-26.46,0-5.59,1.01-10.81,3.03-15.65,2.02-4.92,4.71-9.02,8.08-12.32,3.37-3.3,7.24-5.89,11.61-7.78,4.38-1.89,8.89-2.83,13.53-2.83Zm.3,58.27c4.85,0,9.19-1.82,13.03-5.45,3.84-3.64,5.76-8.55,5.76-14.75s-1.95-10.94-5.86-14.64c-3.84-3.7-8.11-5.55-12.83-5.55s-9.19,1.89-13.03,5.66c-3.84,3.7-5.76,8.59-5.76,14.64s1.92,10.77,5.76,14.54c3.9,3.7,8.21,5.55,12.93,5.55Z"/><path class="c" d="M364.5,281.82c10.3,9.9,17.61,17.34,21.91,22.32,2.22,2.49,3.33,4.48,3.33,5.96,0,1.95-1.41,4.17-4.24,6.67-2.56,2.15-4.71,3.23-6.46,3.23s-3.74-1.41-6.16-4.24l-22.22-25.35v19.69c0,1.62-.07,2.79-.2,3.53-.07,.74-.37,1.62-.91,2.63-.54,1.01-1.45,1.72-2.73,2.12-1.28,.4-3,.61-5.15,.61-1.75,0-3.2-.17-4.34-.51-1.14-.34-2.02-.74-2.63-1.21-.61-.47-1.08-1.14-1.41-2.02-.27-.94-.44-1.72-.51-2.32v-59.08c0-1.55,.03-2.69,.1-3.43,.13-.81,.47-1.72,1.01-2.73,.54-1.01,1.45-1.72,2.73-2.12,1.28-.4,3-.61,5.15-.61,1.75,0,3.2,.17,4.34,.51,1.14,.34,2.02,.74,2.62,1.21,.61,.47,1.04,1.18,1.31,2.12,.34,.88,.51,1.65,.51,2.32,.07,.61,.1,1.55,.1,2.83v19.29c9.16-10.3,16.56-18.75,22.22-25.35,2.36-2.76,4.41-4.14,6.16-4.14s3.9,1.08,6.46,3.23c2.83,2.49,4.24,4.71,4.24,6.67,0,1.48-1.11,3.47-3.33,5.96-1.88,2.22-4.68,5.18-8.38,8.89-3.64,3.7-6.8,6.87-9.49,9.49l-4.04,3.84Z"/><path class="b" d="M364.5,281.82c10.3,9.9,17.61,17.34,21.91,22.32,2.22,2.49,3.33,4.48,3.33,5.96,0,1.95-1.41,4.17-4.24,6.67-2.56,2.15-4.71,3.23-6.46,3.23s-3.74-1.41-6.16-4.24l-22.22-25.35v19.69c0,1.62-.07,2.79-.2,3.53-.07,.74-.37,1.62-.91,2.63-.54,1.01-1.45,1.72-2.73,2.12-1.28,.4-3,.61-5.15,.61-1.75,0-3.2-.17-4.34-.51-1.14-.34-2.02-.74-2.63-1.21-.61-.47-1.08-1.14-1.41-2.02-.27-.94-.44-1.72-.51-2.32v-59.08c0-1.55,.03-2.69,.1-3.43,.13-.81,.47-1.72,1.01-2.73,.54-1.01,1.45-1.72,2.73-2.12,1.28-.4,3-.61,5.15-.61,1.75,0,3.2,.17,4.34,.51,1.14,.34,2.02,.74,2.62,1.21,.61,.47,1.04,1.18,1.31,2.12,.34,.88,.51,1.65,.51,2.32,.07,.61,.1,1.55,.1,2.83v19.29c9.16-10.3,16.56-18.75,22.22-25.35,2.36-2.76,4.41-4.14,6.16-4.14s3.9,1.08,6.46,3.23c2.83,2.49,4.24,4.71,4.24,6.67,0,1.48-1.11,3.47-3.33,5.96-1.88,2.22-4.68,5.18-8.38,8.89-3.64,3.7-6.8,6.87-9.49,9.49l-4.04,3.84Z"/><path class="c" d="M453.59,244.86c1.75,0,3.2,.17,4.34,.51,1.14,.34,2.02,.74,2.63,1.21,.61,.47,1.04,1.18,1.31,2.12,.34,.94,.51,1.75,.51,2.42,.07,.61,.1,1.55,.1,2.83v30.5c0,4.31-.74,8.55-2.22,12.72-1.41,4.18-3.47,8.01-6.16,11.51-2.63,3.43-6.06,6.23-10.3,8.38-4.24,2.09-8.96,3.13-14.14,3.13s-9.8-1.08-14.04-3.23c-4.17-2.15-7.57-4.95-10.2-8.38-2.63-3.5-4.65-7.34-6.06-11.51-1.41-4.24-2.12-8.52-2.12-12.83v-30.4c0-1.62,.03-2.79,.1-3.54,.14-.81,.47-1.72,1.01-2.73,.54-1.01,1.45-1.72,2.73-2.12,1.28-.4,3-.61,5.15-.61s3.87,.2,5.15,.61c1.28,.4,2.15,1.11,2.62,2.12,.54,1.01,.88,1.92,1.01,2.73,.13,.81,.2,2.02,.2,3.64v30.3c0,2.02,.24,4.01,.71,5.96,.47,1.89,1.21,3.8,2.22,5.76,1.08,1.89,2.63,3.4,4.65,4.54,2.02,1.14,4.41,1.72,7.17,1.72,4.92,0,8.58-1.82,11.01-5.45,2.42-3.64,3.64-7.84,3.64-12.62v-30.9c0-1.48,.07-2.59,.2-3.33,.13-.81,.47-1.65,1.01-2.53,.54-.88,1.45-1.51,2.73-1.92,1.28-.4,2.96-.61,5.05-.61Z"/><path class="b" d="M453.59,244.86c1.75,0,3.2,.17,4.34,.51,1.14,.34,2.02,.74,2.63,1.21,.61,.47,1.04,1.18,1.31,2.12,.34,.94,.51,1.75,.51,2.42,.07,.61,.1,1.55,.1,2.83v30.5c0,4.31-.74,8.55-2.22,12.72-1.41,4.18-3.47,8.01-6.16,11.51-2.63,3.43-6.06,6.23-10.3,8.38-4.24,2.09-8.96,3.13-14.14,3.13s-9.8-1.08-14.04-3.23c-4.17-2.15-7.57-4.95-10.2-8.38-2.63-3.5-4.65-7.34-6.06-11.51-1.41-4.24-2.12-8.52-2.12-12.83v-30.4c0-1.62,.03-2.79,.1-3.54,.14-.81,.47-1.72,1.01-2.73,.54-1.01,1.45-1.72,2.73-2.12,1.28-.4,3-.61,5.15-.61s3.87,.2,5.15,.61c1.28,.4,2.15,1.11,2.62,2.12,.54,1.01,.88,1.92,1.01,2.73,.13,.81,.2,2.02,.2,3.64v30.3c0,2.02,.24,4.01,.71,5.96,.47,1.89,1.21,3.8,2.22,5.76,1.08,1.89,2.63,3.4,4.65,4.54,2.02,1.14,4.41,1.72,7.17,1.72,4.92,0,8.58-1.82,11.01-5.45,2.42-3.64,3.64-7.84,3.64-12.62v-30.9c0-1.48,.07-2.59,.2-3.33,.13-.81,.47-1.65,1.01-2.53,.54-.88,1.45-1.51,2.73-1.92,1.28-.4,2.96-.61,5.05-.61Z"/></g><path class="b" d="M164.19,192.07c0-3.08-.46-4.92-1.57-6.44-1.66-2.25-4.28-3.4-7.83-3.4-4.14,0-6.58,1.29-9.38,4.87,.09-1.16,.09-1.28,.09-1.98v-2.44h-6.26c.27,1.89,.37,3.46,.37,5.99v14.44c0,2.57-.09,4.01-.37,5.99h6.63c-.28-1.98-.37-3.73-.37-5.99v-9.29c2.03-4.55,4.74-6.85,8.06-6.85,1.75,0,3.12,.69,3.87,1.89,.55,.87,.78,2.12,.78,4.05v10.22c0,2.35-.09,3.91-.32,5.99h6.67c-.28-1.7-.37-3.44-.37-5.99v-11.05Z"/><path class="b" d="M164.19,192.07c0-3.08-.46-4.92-1.57-6.44-1.66-2.25-4.28-3.4-7.83-3.4-4.14,0-6.58,1.29-9.38,4.87,.09-1.16,.09-1.28,.09-1.98v-2.44h-6.26c.27,1.89,.37,3.46,.37,5.99v14.44c0,2.57-.09,4.01-.37,5.99h6.63c-.28-1.98-.37-3.73-.37-5.99v-9.29c2.03-4.55,4.74-6.85,8.06-6.85,1.75,0,3.12,.69,3.87,1.89,.55,.87,.78,2.12,.78,4.05v10.22c0,2.35-.09,3.91-.32,5.99h6.67c-.28-1.7-.37-3.44-.37-5.99v-11.05Z"/><path class="b" d="M194.87,196.12c-.14-3.14-.46-4.78-1.34-6.99-1.84-4.6-6.08-7.27-11.46-7.27-7.86,0-12.98,5.56-12.98,14.08s5.15,14.03,13.3,14.03c3.87,0,7.08-1.19,9.47-3.55,1.14-1.16,1.75-2.02,2.8-4.23l-5.44-1.75c-.46,1.25-.78,1.75-1.34,2.39-1.34,1.48-3.26,2.3-5.51,2.3s-4.42-.91-5.76-2.57c-1.05-1.34-1.48-2.62-1.71-5.15h20.02c-.06-1.07-.06-1.21-.06-1.3Zm-19.78-3.26c.69-3.87,3.32-6.26,6.9-6.26,2.16,0,3.73,.6,4.97,1.84,1.16,1.16,1.71,2.39,2.03,4.42h-13.9Z"/><path class="b" d="M194.87,196.12c-.14-3.14-.46-4.78-1.34-6.99-1.84-4.6-6.08-7.27-11.46-7.27-7.86,0-12.98,5.56-12.98,14.08s5.15,14.03,13.3,14.03c3.87,0,7.08-1.19,9.47-3.55,1.14-1.16,1.75-2.02,2.8-4.23l-5.44-1.75c-.46,1.25-.78,1.75-1.34,2.39-1.34,1.48-3.26,2.3-5.51,2.3s-4.42-.91-5.76-2.57c-1.05-1.34-1.48-2.62-1.71-5.15h20.02c-.06-1.07-.06-1.21-.06-1.3Zm-19.78-3.26c.69-3.87,3.32-6.26,6.9-6.26,2.16,0,3.73,.6,4.97,1.84,1.16,1.16,1.71,2.39,2.03,4.42h-13.9Z"/><path class="b" d="M211.9,204.91c-2.21,0-3.03-.82-3.03-3.08v-14.26h2.07c2.12,0,2.99,.05,4.51,.28v-5.44c-1.48,.23-2.48,.27-4.65,.27h-1.93v-.03h-5.94v.03h-1.7c-1.93,0-2.8-.05-4.14-.27v5.44c1.52-.23,2.39-.28,4.1-.28h1.75v15.46c0,4.83,2.12,6.72,7.4,6.72,2.39,0,3.78-.23,5.76-.96l-.82-4.87c-1.45,.77-2.18,1-3.38,1Z"/><path class="b" d="M211.9,204.91c-2.21,0-3.03-.82-3.03-3.08v-14.26h2.07c2.12,0,2.99,.05,4.51,.28v-5.44c-1.48,.23-2.48,.27-4.65,.27h-1.93v-.03h-5.94v.03h-1.7c-1.93,0-2.8-.05-4.14-.27v5.44c1.52-.23,2.39-.28,4.1-.28h1.75v15.46c0,4.83,2.12,6.72,7.4,6.72,2.39,0,3.78-.23,5.76-.96l-.82-4.87c-1.45,.77-2.18,1-3.38,1Z"/><path class="b" d="M209.55,178.87h-5.92v-4.57l5.92-1.34v5.91Z"/><path class="b" d="M245.78,184.1s-.18-5.22-.12-7.08h-5.92l.03,7.08h6.01Z"/><path class="b" d="M246.45,169.12s-5.56-2.37-5.65-2.25c-.63,.85-1.25,7.54-1.04,7.54h6.03s.19-3.13,.67-5.29Z"/><path class="b" d="M247.22,165.95l-5.59-2.39s1-3.01,2.96-6.23c0,0,4.47,4.34,4.39,4.41-.5,.53-1.76,4.22-1.76,4.22Z"/><path class="b" d="M254.42,155.55s-3.32,2.8-3.73,3.6c-.04,.06-4.29-4.29-4.29-4.29,0,0,2.42-2.84,5.62-5l2.4,5.69Z"/><path class="b" d="M263.3,152.12c-.74,0-4.41,1.2-5.06,1.85l-2.18-5.59s3.52-1.85,7.25-2.48v6.22Z"/><path class="b" d="M273,150.85c-3.35,0-6.71,.59-6.71,.59v-6.08c1.12-.42,6.71-.54,6.71-.54,0,0,.37,6.03,0,6.03Z"/><path class="b" d="M258.36,187.01v-4.33h-6.26c.28,1.89,.32,3.17,.32,5.99v14.44c0,2.39-.09,3.73-.32,5.99h6.58c-.23-2.16-.32-3.49-.32-5.99v-8.51c.27-2.21,.73-3.26,1.89-4.6,1.3-1.52,3.03-2.25,5.33-2.25,1.2,0,2.16,.18,4.1,.73l1.61-5.8c-2.07-.37-3.17-.5-4.28-.5-4.15-.01-7,1.56-8.65,4.82Z"/><path class="b" d="M258.36,187.01v-4.33h-6.26c.28,1.89,.32,3.17,.32,5.99v14.44c0,2.39-.09,3.73-.32,5.99h6.58c-.23-2.16-.32-3.49-.32-5.99v-8.51c.27-2.21,.73-3.26,1.89-4.6,1.3-1.52,3.03-2.25,5.33-2.25,1.2,0,2.16,.18,4.1,.73l1.61-5.8c-2.07-.37-3.17-.5-4.28-.5-4.15-.01-7,1.56-8.65,4.82Z"/><path class="b" d="M299.3,196.12c-.14-3.14-.46-4.78-1.34-6.99-1.84-4.6-6.06-7.27-11.45-7.27-7.86,0-12.98,5.56-12.98,14.08s5.15,14.03,13.3,14.03c3.87,0,7.08-1.19,9.48-3.55,1.16-1.16,1.75-2.02,2.8-4.23l-5.43-1.75c-.46,1.25-.78,1.75-1.34,2.39-1.34,1.48-3.26,2.3-5.52,2.3s-4.42-.91-5.76-2.57c-1.05-1.34-1.48-2.62-1.71-5.15h20.02c-.08-1.07-.08-1.21-.08-1.3Zm-19.79-3.26c.69-3.87,3.31-6.26,6.9-6.26,2.16,0,3.73,.6,4.97,1.84,1.16,1.16,1.71,2.39,2.03,4.42h-13.9Z"/><path class="b" d="M299.3,196.12c-.14-3.14-.46-4.78-1.34-6.99-1.84-4.6-6.06-7.27-11.45-7.27-7.86,0-12.98,5.56-12.98,14.08s5.15,14.03,13.3,14.03c3.87,0,7.08-1.19,9.48-3.55,1.16-1.16,1.75-2.02,2.8-4.23l-5.43-1.75c-.46,1.25-.78,1.75-1.34,2.39-1.34,1.48-3.26,2.3-5.52,2.3s-4.42-.91-5.76-2.57c-1.05-1.34-1.48-2.62-1.71-5.15h20.02c-.08-1.07-.08-1.21-.08-1.3Zm-19.79-3.26c.69-3.87,3.31-6.26,6.9-6.26,2.16,0,3.73,.6,4.97,1.84,1.16,1.16,1.71,2.39,2.03,4.42h-13.9Z"/><path class="b" d="M327.28,190.97c0-3.12-.6-4.87-2.16-6.35-1.98-1.94-4.65-2.71-9.06-2.71-3.96,0-6.53,.69-8.79,2.35-1.75,1.25-2.57,2.44-3.64,5.1l5.88,1.05c.55-1.66,.96-2.3,1.84-2.94,1.05-.82,2.94-1.34,4.78-1.34,3.49,0,5.29,1.38,5.29,4.05v2.35c-6.58,.14-9.99,.59-12.98,1.84-3.17,1.34-5.19,4.23-5.19,7.45,0,4.83,3.4,7.74,9.02,7.74,1.48,0,2.94-.18,4.28-.55,1.89-.51,3.03-1.16,4.88-2.9v2.99h6.21c-.28-2.07-.37-3.32-.37-5.76v-12.37Zm-5.85,7.86c0,1.61-.55,2.94-1.66,4.05-1.57,1.52-3.96,2.44-6.4,2.44-2.57,0-4.19-1.34-4.19-3.49,0-3.59,3.46-5.1,12.23-5.29v2.3h.01Z"/><path class="b" d="M327.28,190.97c0-3.12-.6-4.87-2.16-6.35-1.98-1.94-4.65-2.71-9.06-2.71-3.96,0-6.53,.69-8.79,2.35-1.75,1.25-2.57,2.44-3.64,5.1l5.88,1.05c.55-1.66,.96-2.3,1.84-2.94,1.05-.82,2.94-1.34,4.78-1.34,3.49,0,5.29,1.38,5.29,4.05v2.35c-6.58,.14-9.99,.59-12.98,1.84-3.17,1.34-5.19,4.23-5.19,7.45,0,4.83,3.4,7.74,9.02,7.74,1.48,0,2.94-.18,4.28-.55,1.89-.51,3.03-1.16,4.88-2.9v2.99h6.21c-.28-2.07-.37-3.32-.37-5.76v-12.37Zm-5.85,7.86c0,1.61-.55,2.94-1.66,4.05-1.57,1.52-3.96,2.44-6.4,2.44-2.57,0-4.19-1.34-4.19-3.49,0-3.59,3.46-5.1,12.23-5.29v2.3h.01Z"/><path class="b" d="M373.55,191.75c0-3.26-.64-5.33-2.16-6.99-1.57-1.71-3.96-2.62-6.9-2.62-2.07,0-3.64,.37-5.15,1.19-1.43,.73-2.3,1.57-3.87,3.64-.55-1.43-.93-2.03-1.75-2.76-1.43-1.38-3.46-2.07-5.94-2.07-3.82,0-7.22,1.8-8.56,4.6,.05-.73,.05-1.43,.05-1.71v-2.35h-6.17c.23,1.75,.32,3.08,.32,5.99v14.44c0,2.48-.09,4.01-.32,5.99h6.49c-.23-2.12-.32-3.49-.32-5.99v-9.11c.5-2.21,.96-3.26,1.98-4.6,1.25-1.61,2.8-2.39,4.74-2.39,2.99,0,4.46,1.93,4.46,5.79v10.31c0,2.62-.09,4.05-.37,5.99h6.63c-.23-1.89-.32-3.44-.32-5.99v-9.11c.55-2.85,1.29-4.33,2.9-5.71,1.11-.96,2.25-1.38,3.78-1.38,3.08,0,4.51,1.84,4.51,5.88v10.31c0,2.71-.09,4.1-.37,5.99h6.72c-.28-1.89-.37-3.4-.37-5.99v-11.36h-.01Z"/><path class="b" d="M373.55,191.75c0-3.26-.64-5.33-2.16-6.99-1.57-1.71-3.96-2.62-6.9-2.62-2.07,0-3.64,.37-5.15,1.19-1.43,.73-2.3,1.57-3.87,3.64-.55-1.43-.93-2.03-1.75-2.76-1.43-1.38-3.46-2.07-5.94-2.07-3.82,0-7.22,1.8-8.56,4.6,.05-.73,.05-1.43,.05-1.71v-2.35h-6.17c.23,1.75,.32,3.08,.32,5.99v14.44c0,2.48-.09,4.01-.32,5.99h6.49c-.23-2.12-.32-3.49-.32-5.99v-9.11c.5-2.21,.96-3.26,1.98-4.6,1.25-1.61,2.8-2.39,4.74-2.39,2.99,0,4.46,1.93,4.46,5.79v10.31c0,2.62-.09,4.05-.37,5.99h6.63c-.23-1.89-.32-3.44-.32-5.99v-9.11c.55-2.85,1.29-4.33,2.9-5.71,1.11-.96,2.25-1.38,3.78-1.38,3.08,0,4.51,1.84,4.51,5.88v10.31c0,2.71-.09,4.1-.37,5.99h6.72c-.28-1.89-.37-3.4-.37-5.99v-11.36h-.01Z"/><path class="b" d="M399.59,195.89c-1.52-1.16-3.41-1.8-8.1-2.8-2.62-.6-3.58-.87-4.6-1.38-.93-.5-1.43-1.29-1.43-2.16,0-1.93,1.93-3.23,4.78-3.23,3,0,4.55,1.1,5.06,3.64l6.08-.78c-.64-2.25-1.28-3.4-2.48-4.55-1.89-1.75-4.88-2.67-8.65-2.67-4.19,0-7.31,1.2-9.2,3.59-.91,1.14-1.43,2.67-1.43,4.28,0,2.67,1.43,4.88,4.05,6.12,1.57,.73,2.99,1.2,6.63,1.98,3.68,.82,3.96,.87,4.83,1.48,.73,.5,1.19,1.38,1.19,2.3,0,2.16-2.12,3.5-5.52,3.5-3.58,0-5.29-1.25-6.07-4.37l-6.31,.78c.55,2.07,.96,2.99,1.8,4.1,1.98,2.67,5.53,4.1,10.26,4.1,4.19,0,7.41-1.01,9.52-2.99,1.38-1.29,2.25-3.32,2.25-5.2,0-2.54-.87-4.43-2.67-5.72Z"/><path class="b" d="M399.59,195.89c-1.52-1.16-3.41-1.8-8.1-2.8-2.62-.6-3.58-.87-4.6-1.38-.93-.5-1.43-1.29-1.43-2.16,0-1.93,1.93-3.23,4.78-3.23,3,0,4.55,1.1,5.06,3.64l6.08-.78c-.64-2.25-1.28-3.4-2.48-4.55-1.89-1.75-4.88-2.67-8.65-2.67-4.19,0-7.31,1.2-9.2,3.59-.91,1.14-1.43,2.67-1.43,4.28,0,2.67,1.43,4.88,4.05,6.12,1.57,.73,2.99,1.2,6.63,1.98,3.68,.82,3.96,.87,4.83,1.48,.73,.5,1.19,1.38,1.19,2.3,0,2.16-2.12,3.5-5.52,3.5-3.58,0-5.29-1.25-6.07-4.37l-6.31,.78c.55,2.07,.96,2.99,1.8,4.1,1.98,2.67,5.53,4.1,10.26,4.1,4.19,0,7.41-1.01,9.52-2.99,1.38-1.29,2.25-3.32,2.25-5.2,0-2.54-.87-4.43-2.67-5.72Z"/><path class="b" d="M240.19,186.7v.04c-1.01-1.34-1.52-1.89-2.34-2.53-1.8-1.43-4.14-2.12-6.99-2.12-7.6,0-12.43,5.33-12.43,13.76,0,4.97,1.7,9.15,4.78,11.55,2.03,1.61,4.46,2.35,7.68,2.35,4.46,0,6.9-1.2,9.29-4.55-.05,.59-.05,1.11-.05,1.66v2.25h6.12c-.23-2.03-.32-3.49-.32-6.21v-16.2h-5.74Zm-2.07,15.07c-1.38,1.89-3.73,3.03-6.17,3.03-4.6,0-7.54-3.44-7.54-8.93s2.85-8.97,7.31-8.97c2.21,0,4.55,1.01,5.98,2.57,1.34,1.48,2.21,3.87,2.21,6.12,0,2.42-.64,4.66-1.79,6.18Z"/><path class="b" d="M240.19,186.7v.04c-1.01-1.34-1.52-1.89-2.34-2.53-1.8-1.43-4.14-2.12-6.99-2.12-7.6,0-12.43,5.33-12.43,13.76,0,4.97,1.7,9.15,4.78,11.55,2.03,1.61,4.46,2.35,7.68,2.35,4.46,0,6.9-1.2,9.29-4.55-.05,.59-.05,1.11-.05,1.66v2.25h6.12c-.23-2.03-.32-3.49-.32-6.21v-16.2h-5.74Zm-2.07,15.07c-1.38,1.89-3.73,3.03-6.17,3.03-4.6,0-7.54-3.44-7.54-8.93s2.85-8.97,7.31-8.97c2.21,0,4.55,1.01,5.98,2.57,1.34,1.48,2.21,3.87,2.21,6.12,0,2.42-.64,4.66-1.79,6.18Z"/></svg>